<?xml version="1.0" encoding="UTF-8" standalone="no"?>
<!DOCTYPE svg PUBLIC "-//W3C//DTD SVG 1.1//EN" "http://www.w3.org/Graphics/SVG/1.1/DTD/svg11.dtd">
<svg width="100%" height="100%" viewBox="0 0 44 48" version="1.1" xmlns="http://www.w3.org/2000/svg" xmlns:xlink="http://www.w3.org/1999/xlink" xml:space="preserve" xmlns:serif="http://www.serif.com/" style="fill-rule:evenodd;clip-rule:evenodd;stroke-linejoin:round;stroke-miterlimit:2;">
    <g transform="matrix(1,0,0,1,-28,-21)">
        <rect x="66.067" y="32.483" width="2.608" height="1.234" style="fill:rgb(37,244,238);"/>
        <path d="M63.309,39.631C63.309,39.631 69.02,41.649 71.427,41.325L71.427,34.472L66.584,34.472L63.309,39.631Z" style="fill:rgb(254,44,85);"/>
        <path d="M56.534,23.423L59.744,23.521C59.744,23.521 60.249,28.096 61.583,29.426L56.534,29.426L56.534,23.423Z" style="fill:rgb(254,44,85);"/>
        <path d="M38.847,66.804C38.847,66.804 46.326,71.419 54.904,65.17C63.482,58.922 57.546,40.647 59.744,37.217C56.476,33.948 56.244,33.717 56.244,33.717L56.244,54.951C56.244,54.951 54.46,61.924 49.3,63.655C44.14,65.386 38.847,66.804 38.847,66.804Z" style="fill:rgb(254,44,85);"/>
        <path d="M43.458,40.614L46.489,40.728L46.476,47.647C46.476,47.647 35.904,46.665 39.57,58.873L34.352,58.873L34.352,47.449L42.573,43.859L43.458,40.614Z" style="fill:rgb(254,44,85);"/>
        <path d="M49.216,54.851C51.016,53.538 45.457,59.324 45.457,59.324L37.836,59.642L40.221,62.852L47.461,63.655L55.218,55.82L56.534,21.755L54.589,21.778L50,21.527L49.216,54.851Z" style="fill:rgb(37,244,238);"/>
        <path d="M33.462,63.002C33.462,63.002 25.102,56.216 29.617,47.269C34.133,38.322 41.138,38.172 43.458,38.62L43.458,42.591C43.458,42.591 28.351,43.84 34.307,59.996C34.307,61.943 33.462,63.002 33.462,63.002Z" style="fill:rgb(37,244,238);"/>
        <g transform="matrix(1,0,0,1,0,-5)">
            <path d="M49.5,26C49.226,26 49,26.226 49,26.5L49,57.5C49,61.088 46.089,64 42.5,64C41.818,64 41.161,63.893 40.543,63.697C39.582,62.564 39,61.101 39,59.5C39,55.912 41.911,53 45.5,53C45.814,53 46.122,53.025 46.428,53.07C46.452,53.074 46.476,53.076 46.5,53.076C46.774,53.076 47,52.85 47,52.576C47,52.575 47,52.575 47,52.574L47,45.537C47,45.277 46.796,45.058 46.537,45.039C46.195,45.013 45.85,45 45.5,45C44.994,45 44.493,45.027 44,45.078L44,43.537C44,43.277 43.796,43.058 43.537,43.039C43.195,43.013 42.85,43 42.5,43C34.509,43 28,49.509 28,57.5C28,63.167 31.281,68.076 36.035,70.459C38.578,72.659 41.884,74 45.5,74C53.491,74 60,67.491 60,59.5L60,43.209C63.937,45.979 68.414,47 71.5,47C71.774,47 72,46.774 72,46.5L72,39.5C72,39.226 71.774,39 71.5,39C71.397,39 70.379,38.985 69,38.668L69,37.5C69,37.226 68.774,37 68.5,37C68.34,37 65.994,36.953 63.484,35.809C61.835,34.259 60.463,31.96 60.025,28.438C59.994,28.189 59.78,28 59.529,28L57.303,28C57.191,27.505 57.094,26.99 57.025,26.438C56.994,26.189 56.78,26 56.529,26L49.5,26ZM50,27L56.141,27C56.193,27.344 56.255,27.677 56.324,28L52.5,28C52.226,28 52,28.226 52,28.5L52,59.5C52,63.088 49.089,66 45.5,66C44.213,66 43.017,65.62 42.008,64.975C42.171,64.985 42.334,65 42.5,65C46.631,65 50,61.63 50,57.5L50,27ZM57.563,29L59.141,29C59.471,31.167 60.167,32.905 61.051,34.32C59.606,33.15 58.313,31.467 57.563,29ZM66.381,37.764C67.097,37.887 67.688,37.938 68,37.949L68,38.396C67.482,38.236 66.933,38.022 66.381,37.764ZM69,39.703C69.921,39.894 70.629,39.936 71,39.949L71,45.918C69.082,45.861 66.644,45.448 64.178,44.436C65.76,44.821 67.247,45 68.5,45C68.774,45 69,44.774 69,44.5L69,39.703ZM57,41.209C57.654,41.669 58.325,42.065 59,42.432L59,59.5C59,66.949 52.949,73 45.5,73C43.481,73 41.572,72.542 39.852,71.746C40.711,71.906 41.595,72 42.5,72C50.491,72 57,65.491 57,57.5L57,41.209ZM42.5,44C42.668,44 42.834,44.013 43,44.02L43,45.23C36.197,46.421 31,52.363 31,59.5C31,62.421 31.877,65.139 33.371,67.418C30.691,64.95 29,61.425 29,57.5C29,50.051 35.051,44 42.5,44ZM45.5,46C45.668,46 45.834,46.013 46,46.02L46,52.037C45.833,52.025 45.671,52 45.5,52C43.606,52 41.872,52.708 40.55,53.874C38.988,55.25 38,57.263 38,59.5C38,60.698 38.292,61.828 38.795,62.834C37.108,61.659 36,59.71 36,57.5C36,53.912 38.911,51 42.5,51C42.814,51 43.122,51.025 43.428,51.07C43.452,51.074 43.476,51.076 43.5,51.076C43.774,51.076 44,50.85 44,50.576C44,50.575 44,50.575 44,50.574L44,46.088C44.493,46.033 44.992,46 45.5,46Z" style="fill-rule:nonzero;"/>
        </g>
    </g>
</svg>
