<?xml version="1.0" encoding="UTF-8" standalone="no"?>
<!DOCTYPE svg PUBLIC "-//W3C//DTD SVG 1.1//EN" "http://www.w3.org/Graphics/SVG/1.1/DTD/svg11.dtd">
<svg width="100%" height="100%" viewBox="0 0 287 108" version="1.1" xmlns="http://www.w3.org/2000/svg" xmlns:xlink="http://www.w3.org/1999/xlink" xml:space="preserve" xmlns:serif="http://www.serif.com/" style="fill-rule:evenodd;clip-rule:evenodd;stroke-linecap:round;stroke-linejoin:round;stroke-miterlimit:1.5;">
    <g transform="matrix(1,0,0,1,-412.753,-1626.86)">
        <g transform="matrix(1.03258,0,0,1.69762,0,0)">
            <g id="absurd-trolley-problems" transform="matrix(0.968444,0,0,0.686408,288.468,912.828)">
                <path d="M400,75.792C400,71.013 395.479,67.133 389.91,67.133L125.976,67.133C120.407,67.133 115.886,71.013 115.886,75.792L115.886,148.836C115.886,153.615 120.407,157.495 125.976,157.495L389.91,157.495C395.479,157.495 400,153.615 400,148.836L400,75.792Z" style="fill:white;"/>
                <clipPath id="_clip1">
                    <path d="M400,75.792C400,71.013 395.479,67.133 389.91,67.133L125.976,67.133C120.407,67.133 115.886,71.013 115.886,75.792L115.886,148.836C115.886,153.615 120.407,157.495 125.976,157.495L389.91,157.495C395.479,157.495 400,153.615 400,148.836L400,75.792Z"/>
                </clipPath>
                <g clip-path="url(#_clip1)">
                    <g id="you" transform="matrix(0.442138,-9.84525e-35,0,0.255597,-203.528,-350.678)">
                        <g transform="matrix(0.673629,0,0,1,0.00356466,0)">
                            <path d="M1085.23,2025L1114.81,1946" style="fill:none;stroke:black;stroke-width:6.72px;"/>
                        </g>
                        <g transform="matrix(0.673629,0,0,1,0.00356466,0)">
                            <path d="M1114.81,1946C1114.81,1946 1099.54,1932.52 1114.81,1931C1130.08,1929.48 1137.49,1941.66 1114.81,1946Z" style="fill:none;stroke:black;stroke-width:6.72px;"/>
                        </g>
                        <g transform="matrix(0.571814,0,0,1,112.77,0)">
                            <path d="M1114.81,1930.87C1114.81,1930.87 1096.2,1908.37 1118.6,1910C1140.99,1911.63 1149.39,1940.17 1129.17,1930.87" style="fill:none;stroke:black;stroke-width:7.24px;"/>
                        </g>
                        <g transform="matrix(0.673629,0,0,1,0.00356466,0)">
                            <path d="M1124.1,1909.92C1124.1,1909.92 1162.33,1907.48 1160.15,1885C1157.98,1862.52 1172.86,1857.47 1182,1856C1191.14,1854.53 1210.1,1858.75 1225,1857C1227.83,1856.67 1265.05,1892.46 1271,1902C1276.95,1911.54 1273,1921.32 1273,1921.32L1257,1921.32L1256,1909.92C1256,1909.92 1236.29,1890.99 1228,1890C1233.65,1905.98 1233.39,1934.89 1239,1938.43C1244.61,1941.98 1207.3,1959.38 1196,1938.43C1197.74,1922.87 1196.16,1912.48 1186,1899C1175.84,1885.52 1180,1876 1180,1876C1179.34,1899.32 1169.69,1923.41 1140.64,1921.32" style="fill:none;stroke:black;stroke-width:6.72px;"/>
                        </g>
                        <g transform="matrix(0.549792,0,0,0.776465,154.912,427.483)">
                            <path d="M1267,1921.32C1267,1921.32 1236.02,1931.29 1260,1948.58C1283.98,1965.88 1285.41,1922.28 1267,1921.32Z" style="fill:none;stroke:black;stroke-width:8.43px;"/>
                        </g>
                        <g transform="matrix(0.673629,0,0,1,0.00356466,0)">
                            <path d="M1196.5,1815C1209.96,1816.28 1221,1826.43 1221,1840.5C1221,1854.57 1210.02,1866 1196.5,1866C1182.98,1866 1178.77,1852.84 1172,1840.5C1162.95,1824.02 1175.5,1813.01 1196.5,1815Z" style="fill:white;stroke:black;stroke-width:6.72px;"/>
                        </g>
                        <g transform="matrix(1.51758,0,0,2.25285,-1002.27,-2298.72)">
                            <circle cx="1188" cy="1836" r="2"/>
                        </g>
                        <g transform="matrix(1.51758,0,0,2.25285,-990.928,-2299.67)">
                            <circle cx="1188" cy="1836" r="2"/>
                        </g>
                        <g transform="matrix(0.673629,0,0,1,0.00356466,0)">
                            <path d="M1194,1938.43C1194,1938.43 1167.42,2008.44 1188,2038C1209.11,2040.35 1216,2038 1216,2038C1216,2038 1198.31,1957.3 1227,1964C1255.69,1970.7 1253.58,2015.82 1257,2034C1283.62,2031.47 1284,2031 1284,2031C1284,2031 1269.07,1944.61 1239,1938.43" style="fill:none;stroke:black;stroke-width:6.72px;"/>
                        </g>
                        <g transform="matrix(0.673629,0,0,1,0.00356466,0)">
                            <path d="M1188.51,1852C1188.51,1852 1194.76,1842.92 1200.84,1847C1206.92,1851.08 1206.66,1850.3 1209.85,1848" style="fill:none;stroke:rgb(2,2,0);stroke-width:6.72px;"/>
                        </g>
                    </g>
                    <g transform="matrix(1,0,0,0.858179,-297.868,-1329.86)">
                        <path d="M666,1704C666,1704 588.708,1730.55 524,1733.16" style="fill:none;stroke:black;stroke-width:1.5px;"/>
                    </g>
                    <g id="one-trolley" transform="matrix(-0.249316,0,0,0.144128,478.353,-171.492)">
                        <g transform="matrix(0.673629,0,0,1,0.00356466,0)">
                            <path d="M360.011,2131.95L295.133,2111.24C295.133,2111.24 293.283,2032.41 293,2023C292.717,2013.59 288.968,1974.77 286,1959.73C274.418,1955.26 224.755,1940.7 270,1912C295.52,1906.28 340.853,1900.97 350.602,1893.82C360.352,1886.67 350.642,1887.24 350.602,1878C367.391,1868.22 382.207,1853.51 443,1852.37C503.793,1851.23 633.19,1865.42 673,1883.11C712.81,1900.81 729.632,1902.87 734.414,1909.67C721.002,1911.35 720,1909.67 720,1909.67L722,1948C722,1948 774.655,1964.45 774.53,1995C770.987,2004.62 764.99,2014.13 758,2017C758.93,2027.97 759.69,2143.2 758,2151C756.31,2158.8 758.81,2190.96 708,2212C696.032,2218.86 672.801,2226.84 653,2231C636.758,2230.97 588.5,2226.58 542.22,2196C534.107,2200.37 512.104,2203.38 518.954,2188C510.894,2196.95 488.304,2197.18 489,2180C489.536,2166.77 485.313,2167.18 489,2159C477.813,2158.1 472.244,2174.12 454.785,2151.98C426.143,2149.95 427.625,2138.52 420,2127C429.826,2150.05 413.973,2160.08 403.743,2158.5C392.857,2156.82 377.741,2158 371.666,2153.92C356.428,2143.7 361.038,2125.67 360.011,2131.95Z" style="fill:white;stroke:white;stroke-width:8.34px;"/>
                        </g>
                        <g transform="matrix(0.673629,0,0,1,0.00356466,0)">
                            <path d="M288,1962C288,1962 293.525,2102.64 297,2110C300.475,2117.36 348.677,2130.22 361,2134C373.323,2137.78 363.823,2094.4 391,2102C418.177,2109.6 540.105,2160.16 543,2163C545.895,2165.84 540.366,2189.87 550,2198C559.634,2206.13 629.79,2228.68 641,2231C652.21,2233.32 745.721,2165.08 754,2156C762.279,2146.92 757.275,2034.04 755,2023" style="fill:none;stroke:black;stroke-width:8.34px;"/>
                        </g>
                        <g transform="matrix(0.673629,0,0,1,0.00356466,0)">
                            <path d="M350,1890C350,1890 146.796,1940.65 325,1965C412.685,1984.61 492.486,2006.61 523.294,2010C554.103,2013.39 667.376,2042.31 738,2027C808.624,2011.69 768.16,1956.81 735,1950C693.536,1954.67 658.037,1963.68 643,1965C627.963,1966.32 377.851,1913.09 359,1906C358.832,1897.59 350,1890 350,1890Z" style="fill:none;stroke:black;stroke-width:8.34px;"/>
                        </g>
                        <g transform="matrix(0.673629,0,0,1,0.00356466,0)">
                            <path d="M334,1883C334,1883 553.815,1902.42 624,1934C646.718,1922.56 651.334,1912.77 734,1915C712.788,1896.26 635.336,1852.7 426,1853C396.632,1853 354.042,1865.16 334,1883Z" style="fill:none;stroke:black;stroke-width:8.34px;"/>
                        </g>
                        <g transform="matrix(0.673629,0,0,1,0.00356466,0)">
                            <path d="M626,1934L626,1962" style="fill:none;stroke:black;stroke-width:8.34px;"/>
                        </g>
                        <g transform="matrix(0.673629,0,0,1,0.00356466,0)">
                            <path d="M721,1915L721,1949.5" style="fill:none;stroke:black;stroke-width:8.34px;"/>
                        </g>
                        <g transform="matrix(0.673629,0,0,1,0.00356466,0)">
                            <path d="M549,1915L549,1947.5" style="fill:none;stroke:black;stroke-width:8.34px;"/>
                        </g>
                        <g transform="matrix(0.673629,0,0,1,0.00356466,0)">
                            <path d="M423,2052L459,2060C459,2060 464.936,2017.42 449,2018C433.064,2018.58 423,2033.9 423,2052Z" style="fill:none;stroke:black;stroke-width:8.34px;"/>
                        </g>
                        <g transform="matrix(0.673629,0,0,1,0.00356466,0)">
                            <path d="M487,2066L523,2072C523,2072 531.087,2031.44 508,2031.44C484.913,2031.44 487,2051.23 487,2066Z" style="fill:none;stroke:black;stroke-width:8.34px;"/>
                        </g>
                        <g transform="matrix(0.673629,0,0,1,0.00356466,0)">
                            <path d="M562,2189L623,2206L625,2043L561,2031.44L562,2189Z" style="fill:none;stroke:black;stroke-width:8.34px;"/>
                        </g>
                        <g transform="matrix(0.673629,0,0,1,0.00356466,0)">
                            <path d="M593,2039L593,2197" style="fill:none;stroke:black;stroke-width:8.34px;"/>
                        </g>
                        <g transform="matrix(0.673629,0,0,1,0.00356466,0)">
                            <rect x="571" y="2060" width="10" height="43" style="fill:none;stroke:black;stroke-width:5.66px;"/>
                        </g>
                        <g transform="matrix(0.673629,0,0,1,0.00356466,0)">
                            <path d="M663,2118L756,2081" style="fill:none;stroke:black;stroke-width:8.34px;"/>
                        </g>
                        <g transform="matrix(0.673629,0,0,1,0.00356466,0)">
                            <path d="M698.76,2052C698.76,2052 734.993,2002.25 734,2089" style="fill:none;stroke:black;stroke-width:8.34px;"/>
                        </g>
                        <g transform="matrix(0.673629,0,0,1,0.00356466,0)">
                            <path d="M730,2044C730,2044 744.052,2024.03 756,2041" style="fill:none;stroke:black;stroke-width:8.34px;"/>
                        </g>
                        <g transform="matrix(0.673629,0,0,1,0.00356466,0)">
                            <path d="M665,2186C665,2186 645.562,2193.99 660.727,2206C672.444,2215.28 678.785,2179.65 665,2186Z" style="fill:none;stroke:black;stroke-width:8.34px;"/>
                        </g>
                        <g transform="matrix(0.673629,0,0,1,1.35082,2)">
                            <path d="M740,2135C740,2135 727.144,2146.21 740,2148C752.856,2149.79 745.2,2128.22 740,2135Z" style="fill:none;stroke:black;stroke-width:8.34px;"/>
                        </g>
                        <g transform="matrix(0.673629,0,0,1,0.00356466,0)">
                            <path d="M643,2231C648.994,2231.96 760.593,2211.52 754,2157.29" style="fill:none;stroke:black;stroke-width:8.34px;"/>
                        </g>
                        <g transform="matrix(0.673629,0,0,1,0.00356466,0)">
                            <path d="M421.295,2141.42C421.295,2141.42 441.086,2163.1 444,2142.56C446.914,2122.02 445.04,2181.53 471,2133C470.179,2148.01 468.814,2171.49 508.311,2148" style="fill:none;stroke:black;stroke-width:8.34px;"/>
                        </g>
                        <g transform="matrix(0.26891,0.14593,-0.107339,0.435892,456.28,1174.27)">
                            <ellipse cx="422.5" cy="2150.62" rx="33.5" ry="34.618" style="fill:white;stroke:black;stroke-width:18.73px;"/>
                        </g>
                        <g transform="matrix(0.26891,0.14593,-0.107339,0.435892,474.349,1184.97)">
                            <ellipse cx="422.5" cy="2150.62" rx="33.5" ry="34.618" style="fill:white;stroke:black;stroke-width:18.73px;"/>
                        </g>
                        <g transform="matrix(0.673629,0,0,1,0.00356466,0)">
                            <path d="M691,2180L725,2156L725,2116L689,2130.53L691,2180Z" style="fill:none;stroke:black;stroke-width:8.34px;"/>
                        </g>
                        <g transform="matrix(0.673629,0,0,1,0.00356466,0)">
                            <path d="M651,2030L642,2231.06" style="fill:none;stroke:black;stroke-width:8.34px;"/>
                        </g>
                        <g transform="matrix(0.673629,0,0,1,0.00356466,0)">
                            <path d="M662,2118C662,2118 652.972,2044 683,2044C708.028,2043 698,2091.4 698,2103" style="fill:none;stroke:black;stroke-width:8.34px;"/>
                        </g>
                        <g transform="matrix(0.673629,0,0,1,0.00356466,0)">
                            <path d="M602,2060L615,2060L613,2107L602,2106L602,2060Z" style="fill:none;stroke:black;stroke-width:5.66px;"/>
                        </g>
                    </g>
                    <g transform="matrix(0.349429,0,0,0.376897,23.818,-531.72)">
                        <path d="M490.566,1700.29C490.76,1700.29 491.101,1700.27 491.588,1700.22C492.075,1700.18 492.626,1700.02 493.243,1699.75C494.054,1699.43 494.582,1698.97 494.825,1698.36C495.068,1697.76 495.19,1696.69 495.19,1695.16C495.19,1693.89 495.255,1692.68 495.385,1691.54C495.904,1686.4 496.164,1680.8 496.164,1674.71C496.164,1673.05 496.074,1671.13 495.896,1668.93C495.717,1666.74 495.158,1664.51 494.217,1662.24C492.075,1657.25 487.661,1654.76 480.976,1654.76C479.256,1654.76 477.56,1654.97 475.889,1655.38C474.218,1655.79 472.603,1656.6 471.046,1657.78C468.742,1659.56 466.827,1662.04 465.302,1665.19C464.653,1666.62 464.036,1668.63 463.452,1671.22C462.868,1673.82 462.495,1676.05 462.332,1677.92L462.284,1678.56C462.251,1679.13 462.211,1679.55 462.162,1679.81C462.113,1680.08 462,1680.26 461.821,1680.36C461.643,1680.45 461.278,1680.54 460.726,1680.62C457.773,1681.28 456.296,1682.3 456.296,1683.68C456.296,1684.89 457.075,1685.79 458.633,1686.38C458.957,1686.53 459.266,1686.63 459.558,1686.67C459.85,1686.71 460.272,1686.73 460.823,1686.73L461.505,1686.7L461.846,1686.77C462.105,1686.83 462.267,1687.13 462.332,1687.66L463.355,1694.34C463.549,1695.95 463.793,1696.89 464.085,1697.17L464.133,1697.23C465.139,1698.23 466.454,1698.73 468.076,1698.73L468.271,1698.73C470.802,1698.62 472.068,1697.51 472.068,1695.39C472.068,1694.22 471.889,1692.12 471.533,1689.09L471.289,1687.05L471.094,1685.33C471.094,1685.16 471.159,1685.02 471.289,1684.9C471.419,1684.79 471.646,1684.66 471.971,1684.54C472.62,1684.35 474.924,1683.97 478.883,1683.39C479.986,1683.24 481.236,1683.13 482.631,1683.04C484.416,1682.94 485.747,1682.88 486.623,1682.88C486.85,1682.88 486.988,1682.91 487.036,1682.96C487.085,1683.02 487.11,1683.12 487.11,1683.27L487.061,1683.46C487.061,1684.39 486.931,1686.25 486.671,1689.02C486.347,1692.1 486.185,1694.44 486.185,1696.06C486.185,1697.5 486.314,1698.36 486.574,1698.63C486.834,1698.91 487.174,1699.18 487.596,1699.46C488.018,1699.74 488.473,1699.94 488.959,1700.06C489.446,1700.21 489.982,1700.29 490.566,1700.29ZM471.873,1678.37C471.451,1678.37 471.24,1678.26 471.24,1678.05C471.24,1677.94 471.265,1677.83 471.313,1677.7C471.362,1677.57 471.386,1677.35 471.386,1677.03L471.435,1676.71C471.792,1674.27 472.392,1671.78 473.236,1669.24C474.08,1666.69 475.021,1664.74 476.06,1663.38C477.78,1661.41 479.321,1660.42 480.684,1660.42C480.944,1660.42 481.52,1660.56 482.412,1660.84C483.305,1661.11 484.229,1662.27 485.187,1664.3C486.144,1666.34 486.801,1668.53 487.158,1670.86C487.418,1672.32 487.548,1673.61 487.548,1674.71C487.548,1675.98 487.434,1676.69 487.207,1676.84C487.11,1676.9 486.915,1676.93 486.623,1676.93L483.848,1677.12C481.479,1677.3 479.556,1677.46 478.08,1677.62C476.603,1677.78 474.729,1678.02 472.457,1678.33L471.873,1678.37Z" style="fill-rule:nonzero;"/>
                        <path d="M506.24,1699.27C507.311,1699.27 508.317,1698.97 509.258,1698.38L510.183,1697.77C511.254,1697.99 512.049,1698.11 512.568,1698.15C513.217,1698.24 513.85,1698.28 514.467,1698.28C516.576,1698.28 518.742,1697.89 520.965,1697.11C523.188,1696.32 524.997,1695.26 526.393,1693.92C529.054,1691.1 530.384,1687.82 530.384,1684.06C530.384,1681.58 529.735,1679.27 528.437,1677.12C526.977,1675.28 525.095,1673.89 522.791,1672.96C521.038,1672.26 519.27,1671.91 517.485,1671.91C516.901,1671.91 516.316,1671.94 515.732,1672C514.077,1672.24 512.633,1672.64 511.4,1673.21C511.108,1673.34 510.897,1673.4 510.767,1673.4C510.702,1673.4 510.621,1673.38 510.524,1673.32C510.426,1673.27 510.378,1673.06 510.378,1672.7C510.41,1672.22 510.654,1670.57 511.108,1667.77C511.4,1665.78 511.87,1663.68 512.519,1661.47C512.844,1660.43 513.006,1659.69 513.006,1659.25C513.006,1658.84 512.86,1658.45 512.568,1658.07C511.66,1657.13 510.426,1656.67 508.869,1656.67C508.771,1656.67 508.276,1656.68 507.384,1656.72C506.492,1656.75 505.607,1657.31 504.731,1658.39C504.536,1658.7 504.244,1659.51 503.855,1660.79C503.465,1662.07 503.092,1663.47 502.735,1664.97C502.313,1666.69 501.81,1670.07 501.226,1675.12C500.967,1677.22 500.796,1678.87 500.715,1680.07C500.634,1681.27 500.593,1682.74 500.593,1684.48C500.593,1686.26 500.634,1687.68 500.715,1688.74C500.796,1689.8 500.95,1691.18 501.177,1692.87C501.567,1695.63 501.859,1697.15 502.054,1697.42C502.508,1698.14 503.222,1698.65 504.196,1698.95C504.909,1699.16 505.591,1699.27 506.24,1699.27ZM514.759,1692.56C514.337,1692.56 513.874,1692.49 513.371,1692.35C512.868,1692.21 512.536,1692.04 512.373,1691.84C512.211,1691.64 512.065,1691.13 511.935,1690.33C511.708,1689.18 511.595,1687.91 511.595,1686.51C511.595,1686.13 511.611,1685.79 511.643,1685.49C512.325,1681.95 513.574,1679.62 515.392,1678.49C516.203,1677.98 516.982,1677.73 517.728,1677.73C518.604,1677.73 519.399,1678.1 520.113,1678.84C520.989,1680.43 521.428,1682.05 521.428,1683.68C521.428,1684.32 521.273,1685.36 520.965,1686.8C520.657,1688.24 519.773,1689.65 518.312,1691.03C517.241,1692.05 516.057,1692.56 514.759,1692.56Z" style="fill-rule:nonzero;"/>
                        <path d="M548.152,1698.98C549.515,1698.98 550.862,1698.89 552.192,1698.7C559.397,1697.61 563.047,1695.05 563.145,1691C563.112,1688.71 561.912,1686.79 559.543,1685.24C558.731,1684.69 557.75,1684.21 556.598,1683.81C555.445,1683.4 553.912,1683 551.997,1682.6C549.921,1682.15 548.476,1681.77 547.665,1681.45C546.367,1680.96 545.718,1680.25 545.718,1679.32C545.718,1678.92 545.888,1678.41 546.229,1677.79C546.57,1677.18 547.211,1676.67 548.152,1676.27C548.833,1676.01 549.336,1675.88 549.661,1675.88C549.953,1675.88 550.164,1675.95 550.294,1676.08C550.424,1676.2 550.618,1676.32 550.878,1676.43C551.754,1676.83 552.679,1677.03 553.653,1677.03C554.691,1677.03 555.648,1676.75 556.525,1676.2C557.336,1675.61 557.741,1674.94 557.741,1674.2C557.741,1673.99 557.644,1673.57 557.449,1672.94C557.255,1672.32 556.411,1671.67 554.918,1671.02C553.393,1670.42 551.754,1670.13 550.002,1670.13C548.314,1670.13 546.546,1670.4 544.696,1670.95C540.347,1672.35 537.751,1674.75 536.907,1678.14C536.842,1678.55 536.81,1678.95 536.81,1679.35C536.81,1681.41 537.881,1683.24 540.023,1684.86C540.964,1685.54 542.059,1686.1 543.308,1686.56C544.558,1687.01 546.383,1687.51 548.785,1688.04C550.57,1688.44 551.827,1688.78 552.557,1689.04C553.287,1689.31 553.734,1689.61 553.896,1689.95C554.058,1690.29 554.139,1690.59 554.139,1690.87C554.139,1691.57 553.653,1692.11 552.679,1692.49C551.543,1692.96 550.245,1693.19 548.785,1693.19C548.46,1693.19 547.746,1693.15 546.643,1693.08C545.539,1693.01 544.55,1692.49 543.673,1691.54C543.349,1691.13 543.049,1690.84 542.773,1690.66C542.497,1690.48 542.083,1690.3 541.532,1690.12C540.98,1689.94 540.493,1689.85 540.071,1689.85C538.643,1689.85 537.524,1690.14 536.713,1690.71C535.771,1691.37 535.301,1692.1 535.301,1692.9C535.301,1693.44 535.496,1693.99 535.885,1694.56C538.189,1697.51 542.278,1698.98 548.152,1698.98Z" style="fill-rule:nonzero;"/>
                        <path d="M578.138,1698.35C578.397,1698.35 578.843,1698.34 579.476,1698.31C580.109,1698.29 580.823,1698.19 581.618,1698.01C582.413,1697.83 583.265,1697.54 584.174,1697.14C585.082,1696.73 585.861,1696.29 586.51,1695.8C587.094,1695.4 587.468,1695.2 587.63,1695.2L587.679,1695.23C587.743,1695.33 587.938,1695.53 588.263,1695.8C589.009,1696.48 589.577,1696.95 589.966,1697.2C590.875,1697.67 591.897,1697.9 593.033,1697.9C593.617,1697.9 594.169,1697.84 594.688,1697.71C596.441,1697.12 597.317,1696.26 597.317,1695.13C597.317,1694.75 597.203,1694.38 596.976,1694.04C596.749,1693.68 596.359,1693.25 595.808,1692.72C594.639,1691.32 594.023,1689.3 593.958,1686.67L593.958,1685.81C593.958,1683.58 594.072,1681.77 594.299,1680.37C594.299,1680.18 594.477,1678.8 594.834,1676.24C594.932,1675.49 594.98,1674.9 594.98,1674.45C594.98,1673.84 594.932,1673.41 594.834,1673.18C594.445,1672.5 593.763,1671.98 592.79,1671.62C592.076,1671.37 591.362,1671.24 590.648,1671.24C588.668,1671.24 587.24,1671.91 586.364,1673.24C585.715,1674.73 585.358,1676.88 585.293,1679.7C585.228,1681.34 585.082,1682.95 584.855,1684.54C584.628,1686.13 584.206,1687.51 583.59,1688.67C582.064,1691.13 580.49,1692.37 578.868,1692.37C577.375,1692.37 576.499,1691.04 576.239,1688.39L576.239,1688.01C576.239,1687.05 576.337,1685.8 576.531,1684.25C576.856,1682.07 577.375,1680.07 578.089,1678.27C578.284,1677.74 578.608,1677.26 579.062,1676.84C579.744,1676.22 580.085,1675.52 580.085,1674.74C580.085,1674.59 580.028,1674.23 579.914,1673.64C579.801,1673.06 579.225,1672.5 578.186,1671.97C577.44,1671.61 576.612,1671.43 575.704,1671.43C575.541,1671.43 575.128,1671.46 574.462,1671.53C573.797,1671.59 573.091,1671.89 572.345,1672.43C571.599,1672.97 570.86,1674.06 570.13,1675.69C569.4,1677.33 568.58,1680.11 567.672,1684.03C567.38,1685.32 567.234,1686.55 567.234,1687.72C567.234,1689.92 567.875,1692.08 569.156,1694.19C570.438,1696.3 572.815,1697.65 576.288,1698.22C576.872,1698.3 577.489,1698.35 578.138,1698.35Z" style="fill-rule:nonzero;"/>
                        <path d="M608.075,1699.87C609.113,1699.87 610.079,1699.6 610.971,1699.05C611.863,1698.49 612.31,1697.77 612.31,1696.88C612.31,1696.27 612.164,1695.41 611.872,1694.31C611.774,1693.65 611.726,1693.02 611.726,1692.43L611.726,1692.02C611.726,1691.59 611.709,1691.18 611.677,1690.77C611.547,1690.18 611.482,1689.58 611.482,1688.96C611.482,1687.79 611.774,1686.37 612.358,1684.7C612.942,1683.02 614.078,1681.48 615.766,1680.08C617.161,1678.94 618.865,1678.37 620.877,1678.37C621.461,1678.37 622.07,1678.42 622.702,1678.53C623.335,1678.63 624.009,1678.68 624.723,1678.68C625.307,1678.68 625.875,1678.54 626.426,1678.24C627.465,1677.64 627.984,1676.89 627.984,1675.98C627.984,1674.45 627.221,1673.4 625.696,1672.83C624.366,1672.26 622.808,1671.97 621.023,1671.97C620.699,1671.97 619.895,1672.01 618.613,1672.08C617.332,1672.16 615.831,1672.7 614.111,1673.72L613.04,1674.33C613.007,1674.33 612.975,1674.28 612.942,1674.18C612.91,1674.09 612.861,1673.97 612.796,1673.82C612.31,1672.14 610.833,1671.3 608.367,1671.3C606.939,1671.3 605.803,1671.73 604.959,1672.58C604.602,1672.87 604.318,1673.28 604.107,1673.79C603.896,1674.29 603.694,1675.09 603.499,1676.17C602.753,1679.33 602.379,1682.57 602.379,1685.87C602.379,1687.93 602.525,1690.01 602.817,1692.11L602.915,1692.65C603.272,1695.56 603.58,1697.31 603.84,1697.9C604.294,1698.64 605.008,1699.18 605.981,1699.52C606.695,1699.76 607.393,1699.87 608.075,1699.87Z" style="fill-rule:nonzero;"/>
                        <path d="M644.145,1699.33C644.632,1699.33 645.362,1699.3 646.336,1699.24C648.932,1699.07 651.496,1698.15 654.027,1696.5C654.611,1696.12 654.968,1695.93 655.098,1695.93L655.146,1695.96C655.276,1696.15 655.503,1696.36 655.828,1696.6C656.444,1697.06 657.11,1697.36 657.824,1697.49C658.116,1697.55 658.538,1697.58 659.089,1697.58C660.517,1697.58 661.621,1697.23 662.399,1696.53C662.789,1696.26 663.057,1695.96 663.203,1695.64C663.349,1695.32 663.422,1694.78 663.422,1694.02C663.422,1693.26 663.373,1692.09 663.276,1690.52C663.243,1690.14 663.227,1689.74 663.227,1689.31C662.967,1684.86 662.838,1681.06 662.838,1677.92C662.838,1674.44 663.097,1670.55 663.616,1666.25C663.844,1664.1 664.038,1662.71 664.201,1662.06C664.363,1661.41 664.444,1660.84 664.444,1660.33C664.444,1659.06 663.908,1658.17 662.838,1657.69C662.124,1657.31 661.296,1657.11 660.355,1657.11C658.895,1657.11 657.71,1657.48 656.801,1658.2C655.958,1658.88 655.52,1659.71 655.487,1660.71C655.455,1660.92 655.414,1661.28 655.365,1661.79C655.317,1662.3 655.244,1662.83 655.146,1663.38C654.595,1666.71 654.205,1670.14 653.978,1673.66L653.394,1673.43C651.252,1672.63 649.062,1672.23 646.822,1672.23C644.096,1672.23 641.711,1672.87 639.667,1674.17C637.947,1675.27 636.373,1676.8 634.945,1678.75C633.16,1681.29 632.268,1683.85 632.268,1686.41L632.268,1688.45C632.268,1689.79 632.852,1691.43 634.02,1693.38C636.065,1696.69 638.904,1698.64 642.539,1699.24C642.993,1699.3 643.529,1699.33 644.145,1699.33ZM645.508,1693.16C645.346,1693.16 644.705,1693.11 643.585,1693.02C642.466,1692.92 641.76,1691.5 641.468,1688.74L641.468,1687.97C641.468,1685.64 641.898,1683.58 642.758,1681.79C643.618,1679.99 644.794,1678.83 646.287,1678.3C646.579,1678.22 646.871,1678.17 647.163,1678.17C648.429,1678.17 649.597,1678.83 650.668,1680.15C651.674,1681.53 652.177,1683.35 652.177,1685.62C652.177,1687.47 651.771,1688.95 650.96,1690.07C649.273,1692.13 647.455,1693.16 645.508,1693.16Z" style="fill-rule:nonzero;"/>
                        <path d="M709.958,1697.65C711.71,1697.65 713.008,1697.02 713.852,1695.77C714.014,1695.49 714.096,1695.2 714.096,1694.88C714.096,1694.5 713.925,1693.82 713.584,1692.84C713.244,1691.87 712.984,1691.02 712.806,1690.3C712.627,1689.58 712.514,1688.74 712.465,1687.78C712.416,1686.83 712.392,1684.99 712.392,1682.28C712.392,1678.72 712.619,1674.21 713.073,1668.76C713.43,1664.88 713.739,1662.89 713.998,1662.81C714.096,1662.77 714.258,1662.75 714.485,1662.75L715.118,1662.75C715.215,1662.72 715.329,1662.71 715.459,1662.71L718.039,1662.68C720.57,1662.68 721.957,1662.68 722.201,1662.67C722.444,1662.65 722.695,1662.65 722.955,1662.65C724.545,1662.52 725.681,1662.05 726.362,1661.22C726.719,1660.79 726.898,1660.35 726.898,1659.88C726.898,1659.46 726.736,1659.01 726.411,1658.55C725.859,1657.83 724.999,1657.35 723.831,1657.11C722.533,1656.94 720.894,1656.86 718.915,1656.86C717.487,1656.86 715.264,1656.93 712.246,1657.08C709.228,1657.23 706.307,1657.48 703.484,1657.81C700.466,1658.17 698.137,1658.5 696.498,1658.78C694.86,1659.07 693.675,1659.37 692.945,1659.69C692.215,1660.01 691.696,1660.41 691.387,1660.88C691.079,1661.36 690.925,1661.8 690.925,1662.2C690.925,1662.88 691.33,1663.5 692.142,1664.05C692.953,1664.6 693.959,1664.88 695.16,1664.88C695.711,1664.88 696.296,1664.81 696.912,1664.69C698.892,1664.3 700.417,1664.05 701.488,1663.92C703.078,1663.73 703.987,1663.64 704.214,1663.64C704.538,1663.64 704.701,1663.75 704.701,1663.99L704.701,1664.1C704.701,1664.13 704.684,1664.16 704.652,1664.18C704.62,1664.73 704.538,1665.51 704.409,1666.53C703.695,1672.38 703.338,1677.7 703.338,1682.47C703.338,1686.16 703.532,1688.92 703.922,1690.74C704.019,1691.25 704.181,1691.85 704.409,1692.52C704.928,1694.24 705.285,1695.26 705.48,1695.58C706.421,1696.96 707.913,1697.65 709.958,1697.65Z" style="fill-rule:nonzero;"/>
                        <path d="M728.504,1699.87C729.543,1699.87 730.508,1699.6 731.401,1699.05C732.293,1698.49 732.739,1697.77 732.739,1696.88C732.739,1696.27 732.593,1695.41 732.301,1694.31C732.204,1693.65 732.155,1693.02 732.155,1692.43L732.155,1692.02C732.155,1691.59 732.139,1691.18 732.106,1690.77C731.977,1690.18 731.912,1689.58 731.912,1688.96C731.912,1687.79 732.204,1686.37 732.788,1684.7C733.372,1683.02 734.508,1681.48 736.195,1680.08C737.591,1678.94 739.295,1678.37 741.307,1678.37C741.891,1678.37 742.499,1678.42 743.132,1678.53C743.765,1678.63 744.438,1678.68 745.152,1678.68C745.736,1678.68 746.304,1678.54 746.856,1678.24C747.894,1677.64 748.414,1676.89 748.414,1675.98C748.414,1674.45 747.651,1673.4 746.126,1672.83C744.795,1672.26 743.238,1671.97 741.453,1671.97C741.128,1671.97 740.325,1672.01 739.043,1672.08C737.761,1672.16 736.26,1672.7 734.54,1673.72L733.469,1674.33C733.437,1674.33 733.405,1674.28 733.372,1674.18C733.34,1674.09 733.291,1673.97 733.226,1673.82C732.739,1672.14 731.263,1671.3 728.796,1671.3C727.368,1671.3 726.233,1671.73 725.389,1672.58C725.032,1672.87 724.748,1673.28 724.537,1673.79C724.326,1674.29 724.123,1675.09 723.929,1676.17C723.182,1679.33 722.809,1682.57 722.809,1685.87C722.809,1687.93 722.955,1690.01 723.247,1692.11L723.344,1692.65C723.701,1695.56 724.01,1697.31 724.269,1697.9C724.724,1698.64 725.438,1699.18 726.411,1699.52C727.125,1699.76 727.823,1699.87 728.504,1699.87Z" style="fill-rule:nonzero;"/>
                        <path d="M766.433,1699.08C769.906,1699.08 772.883,1698.4 775.366,1697.06C777.848,1695.71 779.82,1694 781.28,1691.92C783.227,1689.08 784.201,1686.19 784.201,1683.27C784.201,1681.99 783.99,1680.84 783.568,1679.8C782.692,1677.76 781.345,1676.05 779.528,1674.68C776.542,1672.49 772.924,1671.4 768.672,1671.4C765.297,1671.4 762.085,1672.16 759.034,1673.69C758.288,1674.05 757.687,1674.39 757.233,1674.71C754.312,1676.77 752.446,1679.35 751.635,1682.47C751.343,1683.62 751.197,1684.75 751.197,1685.87C751.197,1687.25 751.497,1688.91 752.098,1690.85C752.698,1692.79 754.191,1694.62 756.576,1696.33C758.961,1698.03 762.198,1698.95 766.287,1699.08L766.433,1699.08ZM767.115,1694.02L766.287,1693.99C763.724,1693.61 761.971,1692.49 761.03,1690.65C760.381,1689.37 760.056,1688.01 760.056,1686.54C760.056,1685.86 760.194,1684.78 760.47,1683.3C760.746,1681.81 761.679,1680.26 763.269,1678.65C764.762,1677.15 766.66,1676.39 768.965,1676.39L769.403,1676.39C771.609,1676.67 773.151,1677.74 774.027,1679.61C774.709,1680.99 775.049,1682.49 775.049,1684.12C775.049,1684.7 774.944,1685.72 774.733,1687.18C774.522,1688.64 773.686,1690.19 772.226,1691.82C770.928,1693.29 769.224,1694.02 767.115,1694.02Z" style="fill-rule:nonzero;"/>
                        <path d="M795.153,1698.31C796.451,1698.31 797.539,1697.97 798.415,1697.3C798.967,1696.87 799.291,1696.42 799.388,1695.93C799.453,1695.72 799.486,1695.48 799.486,1695.23C799.486,1694.85 799.421,1694.41 799.291,1693.92C798.382,1689.91 797.928,1685.57 797.928,1680.88C797.928,1675.98 798.334,1670.29 799.145,1663.8C799.21,1663.22 799.242,1662.79 799.242,1662.49C799.177,1661.52 798.723,1660.72 797.879,1660.11C797.295,1659.68 796.565,1659.39 795.689,1659.25L795.202,1659.21C794.78,1659.21 794.342,1659.27 793.888,1659.37C793.239,1659.5 792.695,1659.71 792.257,1659.99C791.819,1660.28 791.486,1660.59 791.259,1660.92C791.032,1661.25 790.821,1661.82 790.626,1662.65C789.555,1667.61 789.02,1673.27 789.02,1679.61L789.02,1680.18C789.117,1686.76 789.701,1691.87 790.772,1695.51C791.032,1696.28 791.421,1696.85 791.941,1697.23C792.46,1697.61 793.076,1697.91 793.79,1698.12C794.245,1698.25 794.699,1698.31 795.153,1698.31Z" style="fill-rule:nonzero;"/>
                        <path d="M810.146,1698.31C811.444,1698.31 812.531,1697.97 813.408,1697.3C813.959,1696.87 814.284,1696.42 814.381,1695.93C814.446,1695.72 814.479,1695.48 814.479,1695.23C814.479,1694.85 814.414,1694.41 814.284,1693.92C813.375,1689.91 812.921,1685.57 812.921,1680.88C812.921,1675.98 813.327,1670.29 814.138,1663.8C814.203,1663.22 814.235,1662.79 814.235,1662.49C814.17,1661.52 813.716,1660.72 812.872,1660.11C812.288,1659.68 811.558,1659.39 810.682,1659.25L810.195,1659.21C809.773,1659.21 809.335,1659.27 808.881,1659.37C808.232,1659.5 807.688,1659.71 807.25,1659.99C806.812,1660.28 806.479,1660.59 806.252,1660.92C806.025,1661.25 805.814,1661.82 805.619,1662.65C804.548,1667.61 804.013,1673.27 804.013,1679.61L804.013,1680.18C804.11,1686.76 804.694,1691.87 805.765,1695.51C806.025,1696.28 806.414,1696.85 806.933,1697.23C807.453,1697.61 808.069,1697.91 808.783,1698.12C809.238,1698.25 809.692,1698.31 810.146,1698.31Z" style="fill-rule:nonzero;"/>
                        <path d="M836.724,1698.86C839.678,1698.86 842.761,1698.18 845.973,1696.82C849.803,1695.1 851.717,1693.42 851.717,1691.79L851.669,1691.35C851.117,1690.01 849.949,1689.23 848.164,1688.99C847.839,1688.95 847.531,1688.93 847.239,1688.93C845.844,1688.93 844.643,1689.38 843.637,1690.3C843.247,1690.7 842.696,1691.1 841.982,1691.51C841.268,1691.91 840.505,1692.24 839.694,1692.49C839.11,1692.68 838.639,1692.81 838.282,1692.86C837.925,1692.91 837.406,1692.94 836.724,1692.94C835.978,1692.94 835.443,1692.91 835.118,1692.86C834.794,1692.81 834.347,1692.69 833.779,1692.51C833.212,1692.33 832.733,1692.14 832.343,1691.95C831.5,1691.53 830.656,1690.89 829.812,1690.04C829.098,1689.34 828.741,1688.9 828.741,1688.71C828.741,1688.54 828.92,1688.42 829.277,1688.37C829.634,1688.32 830.867,1688.28 832.976,1688.26C837.877,1688.22 842.063,1687.57 845.535,1686.32C849.689,1684.84 851.766,1682.58 851.766,1679.54C851.766,1677.87 850.987,1676.41 849.429,1675.17C847.872,1673.93 845.925,1673 843.588,1672.38C841.641,1671.88 839.645,1671.62 837.601,1671.62C837.146,1671.62 836.708,1671.63 836.286,1671.65C831.905,1671.95 828.271,1673.04 825.382,1674.91C822.494,1676.79 820.547,1679.09 819.541,1681.8C819.119,1682.97 818.908,1684.15 818.908,1685.33C818.908,1686.9 819.282,1688.5 820.028,1690.14C821.423,1692.79 823.792,1694.98 827.135,1696.72C828.173,1697.21 829.415,1697.65 830.859,1698.03C832.303,1698.41 833.739,1698.66 835.167,1698.79C835.686,1698.83 836.205,1698.86 836.724,1698.86ZM830.64,1682.73C829.796,1682.73 829.358,1682.66 829.325,1682.53C829.39,1681.77 830.121,1680.82 831.516,1679.67C832.911,1678.53 834.745,1677.73 837.017,1677.29C837.503,1677.2 838.006,1677.16 838.526,1677.16C840.408,1677.16 841.787,1677.51 842.663,1678.21C842.955,1678.44 843.101,1678.72 843.101,1679.03C843.101,1679.37 842.939,1679.76 842.615,1680.18C841.609,1681.37 838.866,1682.15 834.388,1682.53C832.895,1682.66 831.646,1682.73 830.64,1682.73Z" style="fill-rule:nonzero;"/>
                        <path d="M866.077,1710.18C866.499,1710.18 867.148,1710.13 868.025,1710.02C870.296,1709.75 872.357,1709.27 874.207,1708.59C875.18,1708.23 876.259,1707.67 877.444,1706.92C878.628,1706.17 879.496,1705.49 880.048,1704.9C881.638,1703.08 882.693,1700.84 883.212,1698.19C883.342,1697.44 883.455,1695.97 883.553,1693.76C883.683,1690.58 883.748,1687.29 883.748,1683.87C883.748,1682.22 883.731,1680.69 883.699,1679.29L883.553,1675.25C883.488,1674.76 883.358,1674.4 883.163,1674.17C882.255,1673.09 880.957,1672.53 879.269,1672.51C877.679,1672.53 876.47,1672.87 875.643,1673.53C874.815,1674.19 874.353,1674.97 874.255,1675.88L874.207,1676.3C874.012,1678.21 873.728,1680.24 873.355,1682.39C872.982,1684.54 872.422,1686.4 871.675,1687.97C871.189,1688.87 870.507,1689.67 869.631,1690.39C868.852,1691.03 868.106,1691.35 867.392,1691.35C867.262,1691.35 866.97,1691.32 866.516,1691.25C866.061,1691.19 865.672,1690.36 865.347,1688.77C865.185,1687.39 865.104,1685.85 865.104,1684.16C865.104,1682.29 865.185,1680.76 865.347,1679.58C865.509,1678.39 865.802,1677.03 866.223,1675.5C866.418,1674.85 866.516,1674.29 866.516,1673.85C866.516,1673.62 866.467,1673.32 866.369,1672.97C866.272,1672.62 865.866,1672.25 865.153,1671.84C864.244,1671.34 863.287,1671.08 862.281,1671.08C862.053,1671.08 861.542,1671.13 860.747,1671.22C859.952,1671.32 859.198,1671.79 858.484,1672.64C858.029,1673.26 857.575,1674.49 857.121,1676.33C856.374,1679.38 856.001,1681.99 856.001,1684.16C856.001,1685.98 856.228,1687.79 856.683,1689.6C857.981,1694.14 860.625,1696.84 864.617,1697.71C865.266,1697.82 865.996,1697.87 866.808,1697.87C867.911,1697.87 868.885,1697.75 869.728,1697.52C871.059,1697.14 872.324,1696.46 873.525,1695.48L873.72,1695.32C874.109,1694.98 874.369,1694.81 874.499,1694.81C874.596,1694.81 874.645,1694.91 874.645,1695.1C874.645,1695.38 874.596,1695.83 874.499,1696.47L874.401,1696.88C873.979,1701 871.805,1703.39 867.878,1704.07C867.229,1704.18 866.791,1704.23 866.564,1704.23C866.402,1704.23 866.24,1704.21 866.077,1704.17C865.396,1704.04 864.779,1703.98 864.228,1703.98C862.573,1703.98 861.323,1704.5 860.479,1705.54C860.155,1705.94 859.993,1706.34 859.993,1706.75C859.993,1707.19 860.187,1707.65 860.577,1708.11C861.356,1709.13 862.654,1709.77 864.471,1710.02C865.088,1710.13 865.623,1710.18 866.077,1710.18Z" style="fill-rule:nonzero;"/>
                        <g transform="matrix(1,0,0,1,0,2.27696)">
                            <path d="M548.128,1758.04C549.685,1758.04 550.886,1757.52 551.73,1756.48C551.957,1756.18 552.07,1755.81 552.07,1755.37C552.07,1754.84 551.908,1754.19 551.584,1753.42C551.129,1751.86 550.902,1750.14 550.902,1748.27C550.902,1747.57 550.935,1746.86 551,1746.14C551.032,1745.8 551.162,1745.59 551.389,1745.5C551.616,1745.42 551.941,1745.38 552.363,1745.38C552.395,1745.36 552.444,1745.34 552.509,1745.34C554.488,1745.22 556.865,1744.7 559.64,1743.79C562.415,1742.87 564.889,1741.8 567.063,1740.57C572.028,1737.52 574.511,1733.69 574.511,1729.09L574.462,1728.07C574.041,1724.87 572.158,1722.18 568.816,1720.02C565.96,1717.88 562.049,1716.49 557.084,1715.85C555.981,1715.7 554.699,1715.63 553.239,1715.63C551.778,1715.63 550.545,1715.7 549.539,1715.85C546.197,1716.38 544.12,1716.93 543.308,1717.51C541.945,1718.12 540.728,1718.81 539.658,1719.58C537.905,1720.85 537.029,1721.98 537.029,1722.98C537.029,1723.23 537.11,1723.6 537.272,1724.08C537.435,1724.55 537.921,1725.02 538.733,1725.46C539.252,1726.08 540.031,1726.38 541.069,1726.38C541.881,1726.38 542.716,1726.22 543.576,1725.91C544.436,1725.59 545.077,1725.11 545.499,1724.47C546.537,1722.67 549.182,1721.68 553.433,1721.52L554.066,1721.52C557.798,1721.52 560.768,1722.38 562.974,1724.09C563.98,1724.88 564.711,1725.74 565.165,1726.67C565.425,1727.33 565.554,1728.02 565.554,1728.74C565.554,1730.8 564.727,1732.69 563.072,1734.43C562.098,1735.34 560.686,1736.24 558.837,1737.12C556.987,1738 555.072,1738.68 553.093,1739.17C552.541,1739.3 552.152,1739.36 551.924,1739.36C551.665,1739.36 551.535,1739.28 551.535,1739.11C551.535,1738.92 551.713,1737.79 552.07,1735.74C552.492,1733.38 552.784,1731.91 552.947,1731.33C553.109,1730.75 553.19,1730.11 553.19,1729.41C552.93,1728.17 552.054,1727.31 550.561,1726.8C549.912,1726.59 549.28,1726.48 548.663,1726.48C547.787,1726.48 546.927,1726.67 546.083,1727.05C545.856,1727.18 545.613,1727.38 545.353,1727.64C545.093,1727.9 544.882,1728.16 544.72,1728.4C544.558,1728.65 544.477,1728.85 544.477,1729.02L544.477,1729.09L543.99,1731.25C542.984,1735.41 542.367,1739.08 542.14,1742.26L541.994,1744.17C541.832,1745.5 541.751,1746.87 541.751,1748.27C541.751,1748.97 541.783,1750.04 541.848,1751.49C541.913,1752.93 542.562,1754.53 543.795,1756.29C544.801,1757.45 546.245,1758.04 548.128,1758.04Z" style="fill-rule:nonzero;"/>
                            <path d="M582.835,1760.52C583.874,1760.52 584.839,1760.24 585.731,1759.69C586.624,1759.14 587.07,1758.42 587.07,1757.53C587.07,1756.91 586.924,1756.06 586.632,1754.95C586.535,1754.3 586.486,1753.67 586.486,1753.08L586.486,1752.66C586.486,1752.24 586.47,1751.82 586.437,1751.42C586.307,1750.83 586.243,1750.22 586.243,1749.61C586.243,1748.44 586.535,1747.02 587.119,1745.34C587.703,1743.67 588.839,1742.13 590.526,1740.73C591.922,1739.59 593.625,1739.01 595.637,1739.01C596.222,1739.01 596.83,1739.07 597.463,1739.17C598.096,1739.28 598.769,1739.33 599.483,1739.33C600.067,1739.33 600.635,1739.18 601.187,1738.89C602.225,1738.29 602.744,1737.54 602.744,1736.63C602.744,1735.1 601.982,1734.05 600.457,1733.48C599.126,1732.9 597.568,1732.62 595.783,1732.62C595.459,1732.62 594.656,1732.66 593.374,1732.73C592.092,1732.8 590.591,1733.35 588.871,1734.37L587.8,1734.97C587.768,1734.97 587.735,1734.92 587.703,1734.83C587.67,1734.73 587.622,1734.61 587.557,1734.46C587.07,1732.79 585.593,1731.95 583.127,1731.95C581.699,1731.95 580.563,1732.38 579.72,1733.22C579.363,1733.52 579.079,1733.92 578.868,1734.43C578.657,1734.94 578.454,1735.74 578.259,1736.82C577.513,1739.98 577.14,1743.21 577.14,1746.52C577.14,1748.58 577.286,1750.66 577.578,1752.76L577.675,1753.3C578.032,1756.2 578.34,1757.95 578.6,1758.55C579.054,1759.29 579.768,1759.83 580.742,1760.17C581.456,1760.4 582.154,1760.52 582.835,1760.52Z" style="fill-rule:nonzero;"/>
                            <path d="M620.764,1759.73C624.236,1759.73 627.214,1759.05 629.696,1757.7C632.179,1756.36 634.15,1754.64 635.611,1752.57C637.558,1749.72 638.532,1746.84 638.532,1743.91C638.532,1742.64 638.321,1741.48 637.899,1740.44C637.023,1738.41 635.676,1736.7 633.858,1735.32C630.873,1733.14 627.254,1732.05 623.003,1732.05C619.628,1732.05 616.415,1732.81 613.365,1734.34C612.619,1734.7 612.018,1735.04 611.564,1735.36C608.643,1737.41 606.777,1740 605.966,1743.12C605.674,1744.26 605.528,1745.4 605.528,1746.52C605.528,1747.9 605.828,1749.56 606.428,1751.5C607.029,1753.44 608.521,1755.27 610.907,1756.97C613.292,1758.68 616.529,1759.6 620.618,1759.73L620.764,1759.73ZM621.446,1754.67L620.618,1754.63C618.054,1754.25 616.302,1753.14 615.361,1751.29C614.712,1750.02 614.387,1748.65 614.387,1747.19C614.387,1746.51 614.525,1745.43 614.801,1743.94C615.077,1742.46 616.01,1740.91 617.6,1739.3C619.093,1737.79 620.991,1737.04 623.295,1737.04L623.733,1737.04C625.94,1737.32 627.482,1738.39 628.358,1740.25C629.039,1741.63 629.38,1743.14 629.38,1744.77C629.38,1745.34 629.275,1746.36 629.064,1747.83C628.853,1749.29 628.017,1750.84 626.557,1752.47C625.259,1753.93 623.555,1754.67 621.446,1754.67Z" style="fill-rule:nonzero;"/>
                            <path d="M648.657,1759.91C649.727,1759.91 650.734,1759.62 651.675,1759.03L652.6,1758.42C653.67,1758.63 654.466,1758.76 654.985,1758.8C655.634,1758.89 656.267,1758.93 656.883,1758.93C658.993,1758.93 661.159,1758.54 663.382,1757.75C665.605,1756.97 667.414,1755.91 668.809,1754.57C671.47,1751.75 672.801,1748.46 672.801,1744.71C672.801,1742.23 672.152,1739.91 670.854,1737.77C669.393,1735.93 667.511,1734.54 665.207,1733.61C663.455,1732.9 661.686,1732.56 659.901,1732.56C659.317,1732.56 658.733,1732.59 658.149,1732.65C656.494,1732.88 655.05,1733.29 653.816,1733.86C653.524,1733.99 653.313,1734.05 653.184,1734.05C653.119,1734.05 653.038,1734.02 652.94,1733.97C652.843,1733.92 652.794,1733.71 652.794,1733.35C652.827,1732.86 653.07,1731.22 653.524,1728.42C653.816,1726.43 654.287,1724.33 654.936,1722.12C655.261,1721.08 655.423,1720.34 655.423,1719.89C655.423,1719.49 655.277,1719.1 654.985,1718.72C654.076,1717.78 652.843,1717.32 651.285,1717.32C651.188,1717.32 650.693,1717.33 649.801,1717.36C648.908,1717.4 648.024,1717.95 647.148,1719.03C646.953,1719.35 646.661,1720.15 646.271,1721.44C645.882,1722.72 645.509,1724.11 645.152,1725.62C644.73,1727.34 644.227,1730.72 643.643,1735.77C643.383,1737.87 643.213,1739.52 643.132,1740.72C643.05,1741.91 643.01,1743.38 643.01,1745.12C643.01,1746.9 643.05,1748.32 643.132,1749.38C643.213,1750.44 643.367,1751.82 643.594,1753.52C643.983,1756.28 644.276,1757.8 644.47,1758.07C644.925,1758.79 645.639,1759.3 646.612,1759.6C647.326,1759.81 648.008,1759.91 648.657,1759.91ZM657.175,1753.2C656.753,1753.2 656.291,1753.13 655.788,1753C655.285,1752.86 654.952,1752.69 654.79,1752.49C654.628,1752.29 654.482,1751.78 654.352,1750.98C654.125,1749.83 654.011,1748.56 654.011,1747.16C654.011,1746.78 654.027,1746.44 654.06,1746.14C654.741,1742.6 655.991,1740.27 657.808,1739.14C658.619,1738.63 659.398,1738.38 660.145,1738.38C661.021,1738.38 661.816,1738.75 662.53,1739.49C663.406,1741.08 663.844,1742.69 663.844,1744.33C663.844,1744.96 663.69,1746 663.382,1747.44C663.073,1748.89 662.189,1750.3 660.729,1751.68C659.658,1752.69 658.473,1753.2 657.175,1753.2Z" style="fill-rule:nonzero;"/>
                            <path d="M683.802,1758.96C685.1,1758.96 686.187,1758.62 687.064,1757.94C687.615,1757.52 687.94,1757.06 688.037,1756.58C688.102,1756.36 688.135,1756.13 688.135,1755.88C688.135,1755.49 688.07,1755.06 687.94,1754.57C687.031,1750.56 686.577,1746.21 686.577,1741.53C686.577,1736.63 686.982,1730.93 687.794,1724.44C687.859,1723.87 687.891,1723.43 687.891,1723.14C687.826,1722.16 687.372,1721.37 686.528,1720.75C685.944,1720.33 685.214,1720.04 684.338,1719.89L683.851,1719.86C683.429,1719.86 682.991,1719.91 682.537,1720.02C681.888,1720.15 681.344,1720.35 680.906,1720.64C680.468,1720.93 680.135,1721.24 679.908,1721.56C679.681,1721.89 679.47,1722.47 679.275,1723.3C678.204,1728.26 677.669,1733.91 677.669,1740.25L677.669,1740.83C677.766,1747.4 678.35,1752.51 679.421,1756.16C679.681,1756.92 680.07,1757.5 680.589,1757.88C681.109,1758.26 681.725,1758.56 682.439,1758.77C682.894,1758.9 683.348,1758.96 683.802,1758.96Z" style="fill-rule:nonzero;"/>
                            <path d="M710.38,1759.5C713.334,1759.5 716.417,1758.82 719.629,1757.47C723.459,1755.75 725.373,1754.07 725.373,1752.44L725.325,1751.99C724.773,1750.66 723.605,1749.87 721.82,1749.64C721.495,1749.6 721.187,1749.58 720.895,1749.58C719.499,1749.58 718.299,1750.03 717.293,1750.94C716.903,1751.35 716.352,1751.75 715.638,1752.15C714.924,1752.56 714.161,1752.88 713.35,1753.14C712.766,1753.33 712.295,1753.45 711.938,1753.51C711.581,1753.56 711.062,1753.58 710.38,1753.58C709.634,1753.58 709.099,1753.56 708.774,1753.51C708.45,1753.45 708.003,1753.34 707.435,1753.15C706.867,1752.98 706.389,1752.79 705.999,1752.6C705.156,1752.17 704.312,1751.54 703.468,1750.69C702.754,1749.99 702.397,1749.54 702.397,1749.35C702.397,1749.18 702.576,1749.07 702.933,1749.02C703.29,1748.97 704.523,1748.93 706.632,1748.91C711.532,1748.87 715.719,1748.22 719.191,1746.97C723.345,1745.48 725.422,1743.22 725.422,1740.19C725.422,1738.52 724.643,1737.06 723.085,1735.82C721.528,1734.58 719.581,1733.65 717.244,1733.03C715.297,1732.52 713.301,1732.27 711.257,1732.27C710.802,1732.27 710.364,1732.28 709.942,1732.3C705.561,1732.6 701.927,1733.68 699.038,1735.56C696.15,1737.44 694.203,1739.74 693.197,1742.45C692.775,1743.62 692.564,1744.79 692.564,1745.98C692.564,1747.55 692.937,1749.15 693.684,1750.79C695.079,1753.44 697.448,1755.63 700.791,1757.37C701.829,1757.86 703.071,1758.29 704.515,1758.67C705.959,1759.06 707.395,1759.31 708.823,1759.44C709.342,1759.48 709.861,1759.5 710.38,1759.5ZM704.296,1743.37C703.452,1743.37 703.014,1743.31 702.981,1743.18C703.046,1742.42 703.776,1741.46 705.172,1740.32C706.567,1739.17 708.401,1738.38 710.673,1737.93C711.159,1737.85 711.662,1737.8 712.182,1737.8C714.064,1737.8 715.443,1738.15 716.319,1738.85C716.611,1739.09 716.757,1739.36 716.757,1739.68C716.757,1740.02 716.595,1740.4 716.27,1740.83C715.264,1742.02 712.522,1742.8 708.044,1743.18C706.551,1743.31 705.302,1743.37 704.296,1743.37Z" style="fill-rule:nonzero;"/>
                            <path d="M766.214,1759.06C767.577,1759.06 768.713,1758.73 769.622,1758.07C770.108,1757.75 770.425,1757.43 770.571,1757.1C770.717,1756.77 770.79,1756.29 770.79,1755.65L770.839,1752.85C771.066,1749.5 771.228,1747.5 771.325,1746.84C771.455,1745.74 771.52,1744.11 771.52,1741.97C771.52,1741.42 771.504,1740.92 771.471,1740.48C771.439,1738.72 770.855,1737.09 769.719,1735.59C768.583,1734.1 766.652,1733.12 763.926,1732.65C763.342,1732.57 762.726,1732.52 762.077,1732.52C761.071,1732.52 759.87,1732.66 758.474,1732.94C757.079,1733.21 755.748,1733.72 754.483,1734.46C754.028,1734.72 753.753,1734.85 753.655,1734.85L753.607,1734.85C753.542,1734.85 753.493,1734.81 753.461,1734.75C752.941,1734.2 752.195,1733.68 751.221,1733.19C749.696,1732.43 748.09,1732.05 746.402,1732.05C744.196,1732.05 741.989,1732.7 739.782,1734.02L738.662,1734.62C738.63,1734.6 738.573,1734.53 738.492,1734.42C738.411,1734.3 738.305,1734.16 738.176,1734C738.046,1733.84 737.875,1733.68 737.665,1733.53C737.454,1733.37 737.267,1733.23 737.105,1733.13C736.65,1732.94 736.115,1732.8 735.498,1732.71C735.109,1732.65 734.736,1732.62 734.379,1732.62L733.892,1732.65C732.237,1732.95 731.069,1733.62 730.387,1734.65C730.063,1735.46 729.9,1737.26 729.9,1740.06C729.9,1743.8 730.03,1747.31 730.29,1750.59C730.549,1753.88 730.858,1756.01 731.215,1756.99C731.669,1757.88 732.513,1758.48 733.746,1758.8C734.233,1758.93 734.736,1758.99 735.255,1758.99C736.001,1758.99 736.764,1758.86 737.543,1758.58C738.451,1758.24 739.092,1757.8 739.466,1757.26C739.839,1756.72 740.074,1755.88 740.171,1754.73L740.317,1752.57C740.61,1747.45 740.95,1743.91 741.34,1741.94C741.502,1741.18 741.851,1740.44 742.386,1739.75C742.922,1739.05 743.498,1738.59 744.114,1738.38C744.244,1738.34 744.374,1738.31 744.504,1738.31C745.802,1738.31 746.451,1740.05 746.451,1743.53C746.451,1746.08 746.418,1748.3 746.354,1750.21C746.289,1751.34 746.256,1752.29 746.256,1753.08C746.256,1754.22 746.321,1754.97 746.451,1755.33C746.516,1755.46 746.621,1755.62 746.767,1755.81C746.913,1756 747.084,1756.17 747.278,1756.32C748.155,1757.02 749.209,1757.37 750.443,1757.37C750.702,1757.37 751.311,1757.31 752.268,1757.19C753.225,1757.08 754.077,1756.49 754.824,1755.43C755.051,1755.11 755.213,1754.33 755.31,1753.08C755.408,1751.82 755.619,1750 755.943,1747.6C756.268,1745.21 756.641,1743.27 757.063,1741.78C757.42,1740.74 758.036,1739.98 758.913,1739.49C759.497,1739.17 760.065,1739.01 760.616,1739.01C760.876,1739.01 761.282,1739.1 761.833,1739.28C762.385,1739.46 762.742,1740.17 762.904,1741.4C762.904,1742.8 762.823,1743.91 762.661,1744.74C762.531,1745.36 762.434,1746.04 762.369,1746.81C762.109,1749.54 761.979,1751.87 761.979,1753.78C761.979,1755.75 762.19,1757.01 762.612,1757.56C763.034,1758.11 763.699,1758.53 764.608,1758.8C765.127,1758.97 765.663,1759.06 766.214,1759.06Z" style="fill-rule:nonzero;"/>
                            <path d="M788.655,1759.63C790.018,1759.63 791.365,1759.53 792.695,1759.34C799.9,1758.26 803.55,1755.69 803.648,1751.64C803.615,1749.35 802.415,1747.43 800.046,1745.88C799.234,1745.33 798.253,1744.86 797.101,1744.45C795.948,1744.05 794.415,1743.65 792.5,1743.25C790.423,1742.8 788.979,1742.42 788.168,1742.1C786.87,1741.61 786.221,1740.9 786.221,1739.97C786.221,1739.57 786.391,1739.06 786.732,1738.44C787.073,1737.83 787.714,1737.32 788.655,1736.91C789.336,1736.66 789.839,1736.53 790.164,1736.53C790.456,1736.53 790.667,1736.6 790.797,1736.72C790.927,1736.85 791.121,1736.97 791.381,1737.07C792.257,1737.48 793.182,1737.68 794.155,1737.68C795.194,1737.68 796.151,1737.4 797.027,1736.85C797.839,1736.26 798.244,1735.59 798.244,1734.85C798.244,1734.63 798.147,1734.22 797.952,1733.59C797.758,1732.96 796.914,1732.32 795.421,1731.66C793.896,1731.07 792.257,1730.77 790.505,1730.77C788.817,1730.77 787.048,1731.05 785.199,1731.6C780.85,1733 778.254,1735.4 777.41,1738.79C777.345,1739.19 777.313,1739.6 777.313,1740C777.313,1742.06 778.384,1743.89 780.526,1745.5C781.467,1746.18 782.562,1746.75 783.811,1747.21C785.061,1747.66 786.886,1748.15 789.288,1748.68C791.073,1749.09 792.33,1749.42 793.06,1749.69C793.79,1749.95 794.237,1750.26 794.399,1750.59C794.561,1750.93 794.642,1751.24 794.642,1751.52C794.642,1752.22 794.155,1752.76 793.182,1753.14C792.046,1753.61 790.748,1753.84 789.288,1753.84C788.963,1753.84 788.249,1753.8 787.146,1753.73C786.042,1753.65 785.053,1753.14 784.176,1752.18C783.852,1751.78 783.552,1751.49 783.276,1751.31C783,1751.13 782.586,1750.95 782.035,1750.77C781.483,1750.59 780.996,1750.5 780.574,1750.5C779.146,1750.5 778.027,1750.79 777.215,1751.36C776.274,1752.02 775.804,1752.75 775.804,1753.55C775.804,1754.08 775.999,1754.63 776.388,1755.21C778.692,1758.15 782.781,1759.63 788.655,1759.63Z" style="fill-rule:nonzero;"/>
                        </g>
                    </g>
                    <g transform="matrix(1,0,0,0.858179,-297.868,-1329.86)">
                        <path d="M704,1714C704,1714 673.458,1736.66 595,1739" style="fill:none;stroke:black;stroke-width:1.5px;"/>
                    </g>
                </g>
                <path d="M400,75.792C400,71.013 395.479,67.133 389.91,67.133L125.976,67.133C120.407,67.133 115.886,71.013 115.886,75.792L115.886,148.836C115.886,153.615 120.407,157.495 125.976,157.495L389.91,157.495C395.479,157.495 400,153.615 400,148.836L400,75.792Z" style="fill:none;stroke:black;stroke-width:1.84px;"/>
            </g>
        </g>
    </g>
</svg>
