<?xml version="1.0" encoding="UTF-8" standalone="no"?>
<!DOCTYPE svg PUBLIC "-//W3C//DTD SVG 1.1//EN" "http://www.w3.org/Graphics/SVG/1.1/DTD/svg11.dtd">
<svg width="100%" height="100%" viewBox="0 0 285 107" version="1.1" xmlns="http://www.w3.org/2000/svg" xmlns:xlink="http://www.w3.org/1999/xlink" xml:space="preserve" xmlns:serif="http://www.serif.com/" style="fill-rule:evenodd;clip-rule:evenodd;stroke-linecap:round;stroke-linejoin:round;stroke-miterlimit:1.5;">
    <g transform="matrix(1,0,0,1,-101,-284)">
        <g transform="matrix(1.03258,0,0,1.69762,0,0)">
            <g id="ambient-chaos" transform="matrix(0.968444,-1.20539e-18,0,0.686408,-13.8318,121.71)">
                <path d="M400,75.792C400,71.013 395.479,67.133 389.91,67.133L125.976,67.133C120.407,67.133 115.886,71.013 115.886,75.792L115.886,148.836C115.886,153.615 120.407,157.495 125.976,157.495L389.91,157.495C395.479,157.495 400,153.615 400,148.836L400,75.792Z" style="fill:rgb(38,66,184);"/>
                <clipPath id="_clip1">
                    <path d="M400,75.792C400,71.013 395.479,67.133 389.91,67.133L125.976,67.133C120.407,67.133 115.886,71.013 115.886,75.792L115.886,148.836C115.886,153.615 120.407,157.495 125.976,157.495L389.91,157.495C395.479,157.495 400,153.615 400,148.836L400,75.792Z"/>
                </clipPath>
                <g clip-path="url(#_clip1)">
                    <g transform="matrix(0.0799123,0,0,0.0685791,257.943,112.314)">
                        <g transform="matrix(1,0,0,1,-884,-429.5)">
                            <clipPath id="_clip2">
                                <rect x="0" y="0" width="1768" height="859"/>
                            </clipPath>
                            <g clip-path="url(#_clip2)">
                                <path d="M98.018,596.709C98.018,608.437 98.996,624.774 100.951,645.718C102.905,666.662 106.815,687.327 112.679,707.712C118.544,728.098 126.921,745.691 137.812,760.492C148.703,775.292 162.806,782.692 180.119,782.692C197.992,782.692 213.63,777.805 227.034,768.031C240.438,758.257 251.469,747.506 260.126,735.777C268.783,724.049 275.345,713.297 279.813,703.524C284.282,693.75 286.516,688.863 286.516,688.863C288.191,683.836 291.263,679.787 295.731,676.715C300.199,673.643 304.946,672.107 309.973,672.107C316.675,672.107 322.539,674.481 327.566,679.228C332.593,683.976 335.106,689.98 335.106,697.24C335.106,701.15 333.71,706.595 330.917,713.577C328.125,720.558 324.773,727.539 320.864,734.521C316.954,741.502 312.905,748.065 308.716,754.208C304.527,760.352 301.316,764.82 299.082,767.613C282.885,788.836 264.873,805.033 245.046,816.203C225.219,827.373 203.577,832.958 180.119,832.958C147.726,832.958 120.08,825.279 97.181,809.92C74.282,794.561 55.711,774.873 41.469,750.857C27.227,726.841 16.755,700.312 10.053,671.27C3.351,642.227 -0,613.743 -0,585.818C-0,556.775 3.491,526.476 10.472,494.92C17.453,463.364 28.624,434.322 43.983,407.793C59.342,381.263 79.169,359.342 103.464,342.028C127.759,324.714 157.221,316.057 191.848,316.057C197.992,316.057 205.951,317.174 215.724,319.408C225.498,321.642 235.272,324.993 245.046,329.462C254.82,333.93 263.198,339.235 270.179,345.379C277.161,351.523 280.651,358.504 280.651,366.323C280.651,373.025 278.138,378.89 273.111,383.916C268.085,388.943 262.22,391.456 255.518,391.456C249.933,391.456 244.907,389.781 240.438,386.43C222.008,371.908 205.252,365.206 190.173,366.323C177.885,366.323 167.134,370.931 157.919,380.146C148.703,389.362 140.744,401.23 134.042,415.751C127.34,430.273 121.616,446.33 116.868,463.923C112.121,481.516 108.351,498.69 105.558,515.445C102.766,532.201 100.811,547.839 99.694,562.36C98.577,576.881 98.018,588.331 98.018,596.709Z" style="fill:rgb(255,153,121);fill-rule:nonzero;"/>
                                <path d="M596.488,567.387C595.93,555.658 595.511,543.929 595.232,532.201C594.953,520.472 594.813,509.022 594.813,497.852C594.813,486.682 594.953,473.278 595.232,457.64C595.511,442.001 596.349,425.944 597.745,409.468C599.141,392.992 601.096,377.354 603.609,362.553C606.123,347.753 609.893,336.164 614.919,327.786C619.387,318.85 624.693,313.265 630.837,311.031C636.98,308.797 642.007,307.68 645.917,307.68C653.736,307.68 660.717,310.751 666.861,316.895C669.653,319.688 672.446,324.016 675.238,329.88C678.031,335.745 680.544,345.519 682.778,359.202C685.012,372.886 686.967,392.015 688.643,416.589C690.318,441.164 691.435,473.557 691.994,513.77C692.552,528.291 692.831,543.231 692.831,558.59L692.831,604.248C692.831,635.525 692.692,665.405 692.413,693.889C692.133,722.373 691.714,746.948 691.156,767.613L691.156,812.852C691.156,821.229 689.201,828.35 685.292,834.215C681.382,840.079 674.68,843.011 665.185,843.011C661.276,843.011 656.528,841.894 650.943,839.66C645.358,837.426 640.052,832.4 635.026,824.581C629.441,815.086 624.554,801.402 620.365,783.53C616.176,765.658 612.546,746.529 609.474,726.143C606.402,705.758 604.168,685.791 602.772,666.243C601.375,646.695 600.119,630.778 599.002,618.49C575.544,624.075 551.947,628.823 528.211,632.732C504.474,636.642 480.598,640.831 456.582,645.299C456.023,670.432 455.186,695.285 454.068,719.86C452.951,744.434 450.997,765.099 448.204,781.855C447.646,786.881 446.668,792.466 445.272,798.61C443.876,804.753 441.781,810.339 438.989,815.365C436.196,820.392 432.705,824.581 428.517,827.932C424.328,831.283 418.882,832.958 412.18,832.958C408.829,832.958 404.501,832.12 399.195,830.445C393.889,828.769 388.723,824.301 383.696,817.041C377.553,806.987 372.666,791.349 369.035,770.126C365.405,748.902 362.752,726.283 361.077,702.267C359.401,678.251 358.284,655.073 357.726,632.732C357.167,610.392 356.888,593.637 356.888,582.466C356.888,567.387 357.027,549.375 357.307,528.431C357.586,507.487 358.563,485.984 360.239,463.923C361.914,441.862 364.148,420.499 366.941,399.834C369.734,379.169 373.643,361.576 378.67,347.055C381.462,337.56 386.07,328.624 392.493,320.246C398.916,311.868 407.712,307.68 418.882,307.68C429.494,307.68 436.615,311.729 440.245,319.827C443.876,327.926 446.249,336.443 447.366,345.379C448.483,350.406 449.182,356.41 449.461,363.391C449.74,370.372 450.438,378.61 451.555,388.105C453.789,422.174 455.325,456.383 456.163,490.731C457.001,525.08 457.42,559.568 457.42,594.195C480.877,590.286 504.055,586.236 526.954,582.048C549.853,577.859 573.031,572.972 596.488,567.387Z" style="fill:rgb(255,153,121);fill-rule:nonzero;"/>
                                <path d="M1006.99,834.634C1006.43,841.336 1003.78,846.921 999.031,851.389C994.284,855.857 988.559,858.091 981.857,858.091C971.804,858.091 963.426,854.74 956.724,848.038C950.022,841.336 944.577,833.237 940.388,823.743C936.199,814.248 933.127,804.195 931.172,793.583C929.218,782.972 927.682,774.035 926.565,766.775C924.331,748.902 922.795,729.494 921.957,708.55C921.119,687.606 920.421,665.405 919.863,641.948C909.251,643.623 897.522,645.438 884.677,647.393C871.831,649.348 858.845,651.303 845.72,653.258C832.596,655.212 819.889,656.888 807.602,658.284C795.315,659.68 784.424,660.937 774.929,662.054C771.578,695.565 769.903,727.121 769.903,756.722C769.903,774.035 770.741,789.953 772.416,804.474C772.416,812.293 770.182,818.856 765.714,824.162C761.246,829.467 755.102,832.12 747.283,832.12C741.14,832.12 735.694,830.026 730.947,825.837C726.199,821.648 723.267,816.203 722.15,809.501C720.475,794.421 719.637,776.828 719.637,756.722C719.637,741.642 720.614,720.279 722.569,692.633C724.524,664.986 727.735,634.827 732.203,602.154C736.671,569.481 742.815,536.11 750.634,502.041C758.453,467.972 768.507,436.975 780.794,409.049C793.081,381.124 807.463,358.364 823.939,340.771C840.415,323.178 859.823,314.382 882.163,314.382C903.945,314.382 922.236,321.642 937.037,336.164C951.837,350.685 963.985,369.395 973.48,392.294C982.974,415.193 990.375,440.745 995.68,468.949C1000.99,497.154 1004.9,525.219 1007.41,553.145C1009.92,581.07 1011.32,606.901 1011.6,630.638C1011.88,654.375 1012.02,673.504 1012.02,688.025C1012.02,708.131 1011.74,726.981 1011.18,744.574C1010.62,762.167 1010.06,777.386 1009.5,790.232C1008.95,803.078 1008.39,813.55 1007.83,821.648C1007.27,829.747 1006.99,834.075 1006.99,834.634ZM780.794,610.951C790.288,609.833 800.76,608.577 812.21,607.181C823.659,605.784 835.528,604.248 847.815,602.573C860.102,600.897 872.25,598.943 884.258,596.709C896.266,594.474 907.575,592.52 918.187,590.844C917.629,561.802 916.651,533.597 915.255,506.23C913.859,478.863 911.485,454.009 908.134,431.669C907.575,429.435 906.598,424.687 905.202,417.427C903.806,410.166 901.99,402.626 899.756,394.807C897.522,386.988 894.869,380.007 891.798,373.863C888.726,367.719 885.514,364.648 882.163,364.648C872.669,364.648 863.732,369.674 855.355,379.727C846.977,389.781 839.158,402.766 831.897,418.683C824.637,434.601 818.074,452.194 812.21,471.463C806.346,490.731 801.319,509.581 797.13,528.012C792.941,546.443 789.451,563.058 786.658,577.859C783.866,592.659 781.911,603.69 780.794,610.951Z" style="fill:rgb(255,153,121);fill-rule:nonzero;"/>
                                <path d="M1036.32,579.953C1036.32,549.794 1040.23,519.076 1048.05,487.799C1055.87,456.523 1068.02,428.039 1084.49,402.347C1100.97,376.656 1121.77,355.712 1146.9,339.515C1172.04,323.318 1202.2,315.22 1237.38,315.22C1269.78,315.22 1297.28,322.899 1319.9,338.258C1342.52,353.617 1360.81,373.025 1374.78,396.483C1388.74,419.94 1398.79,445.911 1404.94,474.395C1411.08,502.879 1414.15,530.804 1414.15,558.171C1414.15,585.538 1410.8,615.279 1404.1,647.393C1397.4,679.508 1386.64,709.248 1371.85,736.615C1357.04,763.982 1337.78,786.881 1314.04,805.312C1290.3,823.743 1261.68,832.958 1228.17,832.958C1194.66,832.958 1165.76,825.139 1141.46,809.501C1117.16,793.862 1097.34,773.896 1081.98,749.601C1066.62,725.305 1055.17,698.218 1047.63,668.337C1040.09,638.457 1036.32,608.996 1036.32,579.953ZM1238.22,365.485C1216.44,365.485 1198.71,373.863 1185.02,390.618C1171.34,407.374 1160.45,427.34 1152.35,450.519C1144.25,473.697 1138.67,497.433 1135.6,521.729C1132.52,546.024 1130.99,565.99 1130.99,581.629C1130.99,595.591 1132.38,613.883 1135.18,636.502C1137.97,659.122 1142.86,681.183 1149.84,702.686C1156.82,724.188 1166.73,742.898 1179.58,758.816C1192.42,774.734 1208.9,782.692 1229.01,782.692C1254.14,782.692 1275.36,774.594 1292.68,758.397C1309.99,742.2 1323.81,722.513 1334.14,699.335C1344.48,676.157 1352.02,651.722 1356.77,626.03C1361.51,600.339 1363.89,577.719 1363.89,558.171C1363.89,538.623 1361.93,517.679 1358.02,495.339C1354.11,472.999 1347.27,452.194 1337.5,432.925C1327.72,413.657 1314.88,397.6 1298.96,384.754C1283.04,371.908 1262.8,365.485 1238.22,365.485Z" style="fill:rgb(255,153,121);fill-rule:nonzero;"/>
                                <path d="M1707.36,381.403C1702.33,381.403 1697.59,380.007 1693.12,377.214C1680.83,369.395 1665.19,365.485 1646.2,365.485C1627.77,365.485 1612.41,369.954 1600.13,378.89C1587.84,387.826 1581.7,404.023 1581.7,427.48C1581.7,453.73 1589.38,474.953 1604.73,491.15C1620.09,507.347 1638.11,522.147 1658.77,535.552C1671.62,544.488 1684.46,553.424 1697.31,562.36C1710.15,571.296 1721.88,581.629 1732.49,593.357C1743.11,605.086 1751.62,618.351 1758.05,633.151C1764.47,647.952 1767.68,665.684 1767.68,686.349C1767.68,712.041 1762.51,734.102 1752.18,752.533C1741.85,770.964 1728.58,786.183 1712.39,798.191C1696.19,810.199 1678.04,818.995 1657.93,824.581C1637.83,830.166 1617.72,832.958 1597.61,832.958C1568.01,832.958 1539.11,827.513 1510.9,816.622C1482.7,805.731 1459.38,790.791 1440.95,771.801C1435.92,766.775 1433.41,760.91 1433.41,754.208C1433.41,746.948 1435.92,740.944 1440.95,736.196C1445.98,731.449 1451.84,729.075 1458.54,729.075C1465.25,729.075 1471.11,731.589 1476.14,736.615C1490.66,750.578 1508.81,761.748 1530.59,770.126C1552.37,778.503 1574.43,782.692 1596.78,782.692C1624.7,782.692 1644.11,775.711 1655,761.748C1665.89,747.785 1671.34,729.634 1671.34,707.293C1671.34,692.214 1669.38,678.53 1665.47,666.243C1661.56,653.956 1656.4,643.065 1649.97,633.57C1643.55,624.075 1636.15,615.419 1627.77,607.599C1619.39,599.78 1610.46,592.52 1600.96,585.818C1587.56,576.323 1574.02,567.247 1560.33,558.59C1546.65,549.933 1534.22,540.439 1523.05,530.106C1511.88,519.774 1502.81,508.045 1495.83,494.92C1488.84,481.795 1485.35,466.017 1485.35,447.586C1485.35,424.687 1490.66,405 1501.27,388.524C1511.88,372.048 1525.15,358.364 1541.06,347.473C1556.98,336.583 1574.02,328.484 1592.17,323.178C1610.32,317.872 1626.93,315.22 1642.02,315.22C1649.28,315.22 1658.07,315.918 1668.4,317.314C1678.74,318.71 1688.65,320.944 1698.14,324.016C1707.64,327.088 1715.74,331.277 1722.44,336.583C1729.14,341.888 1732.49,348.451 1732.49,356.27C1732.49,362.972 1729.98,368.836 1724.95,373.863C1719.93,378.89 1714.06,381.403 1707.36,381.403Z" style="fill:rgb(255,153,121);fill-rule:nonzero;"/>
                                <path d="M309.221,0.657L375.974,245.059L304.81,244.711L290.585,191.714L217.096,191.355L201.281,244.205L173.566,244.069L246.997,0.353L309.221,0.657ZM224.189,166.892L284.089,167.185L255.83,58.867L224.189,166.892Z" style="fill:white;fill-rule:nonzero;"/>
                                <path d="M623.025,2.192L621.832,246.261L553.528,245.927L554.358,76.062L505.966,245.695L466.45,245.501L418.452,78.259L417.636,245.263L393.855,245.147L395.048,1.077L466.928,1.429L508.048,148.969L550.43,1.837L623.025,2.192Z" style="fill:white;fill-rule:nonzero;"/>
                                <path d="M663.851,246.467L665.044,2.397L773.579,2.928C829.486,3.201 857.341,23.305 857.146,63.238C857.007,91.608 840.051,109.704 806.277,117.526C846.886,125.831 867.105,147.506 866.934,182.552C866.722,225.823 839.259,247.324 784.544,247.057L663.851,246.467ZM734.757,226.608L754.962,226.707C781.425,226.836 794.73,211.762 794.878,181.484C795.048,146.796 781.484,129.385 754.186,129.252L735.233,129.159L734.757,226.608ZM735.332,108.954L757.146,109.061C777.292,109.159 787.437,94.308 787.583,64.507C787.717,36.971 777.116,23.151 755.779,23.046L735.752,22.949L735.332,108.954Z" style="fill:white;fill-rule:nonzero;"/>
                                <path d="M966.153,3.87L964.959,247.939L894.152,247.593L895.346,3.523L966.153,3.87Z" style="fill:white;fill-rule:nonzero;"/>
                                <path d="M1166.59,4.85L1166.47,29.346L1079.04,28.919L1078.67,102.765L1152.16,103.125L1152.04,127.621L1078.55,127.262L1078.08,223.995L1180.36,224.495L1180.24,248.992L1007.15,248.145L1008.35,4.076L1166.59,4.85Z" style="fill:white;fill-rule:nonzero;"/>
                                <path d="M1382.05,5.903L1380.86,249.973L1326.68,249.708L1225.52,94.722L1224.76,249.209L1200.98,249.093L1202.17,5.024L1247.05,5.243L1357.45,172.612L1358.27,5.787L1382.05,5.903Z" style="fill:white;fill-rule:nonzero;"/>
                                <path d="M1594.12,6.94L1594,31.437L1534.1,31.144L1533.03,250.717L1457.93,250.349L1459,30.776L1398.75,30.482L1398.87,5.985L1594.12,6.94Z" style="fill:white;fill-rule:nonzero;"/>
                                <g>
                                    <path d="M1220.18,629.058L1261.48,628.46C1261.57,634.258 1252.42,641.464 1241.02,641.63C1229.61,641.794 1220.26,634.856 1220.18,629.058Z" style="fill:rgb(253,154,123);fill-rule:nonzero;"/>
                                    <path d="M1293.84,610.552L1293.84,610.533C1286.76,604.181 1282.25,595.011 1282.1,584.754L1281.72,558.117C1281.46,540.418 1270.27,525.441 1254.67,519.525L1254.53,510.164C1254.41,501.665 1247.39,494.85 1238.89,494.973C1230.39,495.096 1223.58,502.111 1223.7,510.61L1223.84,519.972C1208.41,526.337 1197.66,541.631 1197.91,559.33L1198.3,585.968C1198.45,596.225 1194.21,605.521 1187.32,612.075L1187.32,612.095C1185.87,613.296 1184.95,615.117 1184.98,617.145C1185,618.216 1185.28,619.22 1185.75,620.103C1186.86,622.146 1189.03,623.523 1191.51,623.487L1289.98,622.061C1292.46,622.025 1294.59,620.585 1295.63,618.512C1296.09,617.616 1296.34,616.604 1296.32,615.533C1296.29,613.504 1295.32,611.711 1293.84,610.552ZM1239.2,516.223C1235.36,516.279 1232.2,513.208 1232.14,509.365C1232.09,505.522 1235.16,502.361 1239,502.306C1242.84,502.25 1246,505.32 1246.06,509.164C1246.11,513.007 1243.04,516.167 1239.2,516.223Z" style="fill:rgb(253,154,123);fill-rule:nonzero;"/>
                                </g>
                            </g>
                        </g>
                    </g>
                    <g transform="matrix(1,0,0,0.858179,15.1797,-179.448)">
                        <path d="M136,300L136,332" style="fill:none;stroke:white;stroke-opacity:0.17;stroke-width:2px;"/>
                    </g>
                    <g transform="matrix(1,0,0,0.858179,15.1797,-179.448)">
                        <path d="M373,300L373,325" style="fill:none;stroke:white;stroke-opacity:0.17;stroke-width:2px;"/>
                    </g>
                    <g transform="matrix(1,0,0,0.635688,194.18,-68.3777)">
                        <path d="M164,316L164,343" style="fill:none;stroke:white;stroke-opacity:0.17;stroke-width:2.27px;"/>
                    </g>
                    <g transform="matrix(1,0,0,0.858179,15.1797,-179.448)">
                        <path d="M329,381L329,401" style="fill:none;stroke:white;stroke-opacity:0.17;stroke-width:2px;"/>
                    </g>
                    <g transform="matrix(1,0,0,0.858179,15.1797,-179.448)">
                        <path d="M369,374L369,401" style="fill:none;stroke:white;stroke-opacity:0.17;stroke-width:2px;"/>
                    </g>
                    <g transform="matrix(1,0,0,1.16107,17.1797,-283.54)">
                        <path d="M336,312.5L336,329.5" style="fill:none;stroke:white;stroke-opacity:0.17;stroke-width:1.68px;"/>
                    </g>
                    <g transform="matrix(1,0,0,1.16107,34.4287,-261.304)">
                        <path d="M336,312.5L336,329.5" style="fill:none;stroke:white;stroke-opacity:0.17;stroke-width:1.68px;"/>
                    </g>
                    <g transform="matrix(1,0,0,1.09223,17.1797,-274.628)">
                        <path d="M148,359L148,381" style="fill:none;stroke:white;stroke-opacity:0.17;stroke-width:1.75px;"/>
                    </g>
                    <g transform="matrix(1,0,0,0.858179,15.1797,-179.448)">
                        <path d="M118,329.5L118,359" style="fill:none;stroke:white;stroke-opacity:0.17;stroke-width:2px;"/>
                    </g>
                    <g transform="matrix(1,0,0,0.858179,19.1797,-191.463)">
                        <path d="M128,374L128,397" style="fill:none;stroke:white;stroke-opacity:0.17;stroke-width:2px;"/>
                    </g>
                    <g transform="matrix(1,0,0,0.858179,15.1797,-179.448)">
                        <path d="M353,284L353,307" style="fill:none;stroke:white;stroke-opacity:0.17;stroke-width:2px;"/>
                    </g>
                    <g transform="matrix(1,0,0,0.858179,15.1797,-179.448)">
                        <path d="M153,284L153,303" style="fill:none;stroke:white;stroke-opacity:0.17;stroke-width:2px;"/>
                    </g>
                    <g transform="matrix(1,0,0,0.858179,15.1797,-179.448)">
                        <path d="M111,284L111,312.5" style="fill:none;stroke:white;stroke-opacity:0.17;stroke-width:2px;"/>
                    </g>
                    <g transform="matrix(1,0,0,0.858179,15.1797,-179.448)">
                        <path d="M164,385.5L164,397" style="fill:none;stroke:white;stroke-opacity:0.17;stroke-width:2px;"/>
                    </g>
                    <g transform="matrix(1,0,0,0.858179,15.1797,-179.448)">
                        <path d="M374,342L374,360" style="fill:none;stroke:white;stroke-opacity:0.17;stroke-width:2px;"/>
                    </g>
                    <g transform="matrix(1,0,0,0.858179,15.1797,-179.448)">
                        <path d="M111,374L111,397" style="fill:none;stroke:white;stroke-opacity:0.17;stroke-width:2px;"/>
                    </g>
                </g>
            </g>
        </g>
    </g>
</svg>
