<?xml version="1.0" encoding="UTF-8" standalone="no"?>
<!DOCTYPE svg PUBLIC "-//W3C//DTD SVG 1.1//EN" "http://www.w3.org/Graphics/SVG/1.1/DTD/svg11.dtd">
<svg width="100%" height="100%" viewBox="0 0 287 109" version="1.1" xmlns="http://www.w3.org/2000/svg" xmlns:xlink="http://www.w3.org/1999/xlink" xml:space="preserve" xmlns:serif="http://www.serif.com/" style="fill-rule:evenodd;clip-rule:evenodd;stroke-linecap:round;stroke-linejoin:round;stroke-miterlimit:1.5;">
    <g transform="matrix(1,0,0,1,-415,-554)">
        <g transform="matrix(1.03258,0,0,1.69762,0,0)">
            <g id="auction-game" transform="matrix(0.968444,0,0,0.686408,291.228,281.299)">
                <path d="M400,73.049C400,69.784 396.911,67.133 393.106,67.133L122.779,67.133C118.975,67.133 115.886,69.784 115.886,73.049L115.886,151.579C115.886,154.844 118.975,157.495 122.779,157.495L393.106,157.495C396.911,157.495 400,154.844 400,151.579L400,73.049Z" style="fill:white;"/>
                <clipPath id="_clip1">
                    <path d="M400,73.049C400,69.784 396.911,67.133 393.106,67.133L122.779,67.133C118.975,67.133 115.886,69.784 115.886,73.049L115.886,151.579C115.886,154.844 118.975,157.495 122.779,157.495L393.106,157.495C396.911,157.495 400,154.844 400,151.579L400,73.049Z"/>
                </clipPath>
                <g clip-path="url(#_clip1)">
                    <g transform="matrix(0.54501,0,0,0.467716,-57.8884,-69.0726)">
                        <path d="M469.51,377.149L456.184,377.149L456.184,375.773C456.879,375.52 457.583,375.299 458.294,375.109C459.005,374.92 459.772,374.762 460.594,374.635L460.594,346.418L453.338,346.418L450.825,353.2L449.639,353.2C449.544,352.567 449.465,351.848 449.402,351.042C449.339,350.236 449.284,349.414 449.236,348.576C449.189,347.738 449.149,346.916 449.118,346.11C449.086,345.303 449.07,344.584 449.07,343.952L476.623,343.952C476.623,344.584 476.608,345.296 476.576,346.086C476.544,346.876 476.505,347.69 476.457,348.528C476.41,349.366 476.363,350.188 476.315,350.994C476.268,351.801 476.197,352.536 476.102,353.2L474.869,353.2L472.403,346.418L465.147,346.418L465.147,374.635C465.969,374.793 466.736,374.951 467.447,375.109C468.158,375.267 468.846,375.489 469.51,375.773L469.51,377.149Z" style="fill-rule:nonzero;"/>
                        <path d="M504.556,377.149L494.313,377.149L494.313,375.963C495.071,375.552 496.02,375.173 497.158,374.825L497.158,363.728C497.158,361.262 496.81,359.325 496.115,357.918C495.419,356.511 494.155,355.808 492.321,355.808C491.499,355.808 490.756,355.958 490.092,356.258C489.428,356.559 488.827,356.946 488.29,357.42C487.752,357.894 487.294,358.44 486.914,359.056C486.535,359.673 486.251,360.313 486.061,360.977L486.061,374.825C486.567,374.951 487.049,375.094 487.507,375.252C487.966,375.41 488.416,375.647 488.859,375.963L488.859,377.149L478.663,377.149L478.663,375.963C479.643,375.457 480.686,375.078 481.793,374.825L481.793,344.805L478.188,344.426L478.188,343.193C479.105,342.814 480.172,342.482 481.39,342.197C482.607,341.913 483.769,341.675 484.875,341.486L486.061,341.486L486.061,358.226L486.108,358.226C486.772,356.741 487.729,355.476 488.977,354.433C490.226,353.389 491.736,352.868 493.506,352.868C494.771,352.868 495.901,353.018 496.897,353.318C497.893,353.618 498.723,354.148 499.387,354.907C500.051,355.666 500.557,356.685 500.905,357.966C501.252,359.246 501.426,360.866 501.426,362.827L501.426,374.825C501.964,374.951 502.501,375.094 503.039,375.252C503.576,375.41 504.082,375.647 504.556,375.963L504.556,377.149Z" style="fill-rule:nonzero;"/>
                        <path d="M526.513,373.829C526.261,374.366 525.865,374.872 525.328,375.346C524.79,375.821 524.174,376.232 523.478,376.58C522.783,376.927 522.024,377.204 521.202,377.409C520.38,377.615 519.542,377.718 518.688,377.718C516.823,377.718 515.179,377.425 513.756,376.84C512.334,376.255 511.148,375.418 510.2,374.327C509.251,373.236 508.532,371.932 508.042,370.414C507.552,368.897 507.307,367.19 507.307,365.293C507.307,361.246 508.239,358.163 510.105,356.045C511.97,353.927 514.61,352.868 518.025,352.868C519.131,352.868 520.222,353.018 521.297,353.318C522.372,353.618 523.328,354.116 524.166,354.812C525.004,355.507 525.684,356.432 526.205,357.586C526.727,358.74 526.988,360.171 526.988,361.878C526.988,362.416 526.964,362.961 526.917,363.514C526.869,364.068 526.782,364.66 526.656,365.293L511.859,365.293C511.859,366.62 512.025,367.861 512.357,369.015C512.689,370.169 513.187,371.173 513.851,372.027C514.515,372.88 515.353,373.552 516.365,374.042C517.376,374.532 518.562,374.777 519.922,374.777C521.028,374.777 522.15,374.619 523.289,374.303C524.427,373.987 525.28,373.576 525.85,373.07L526.513,373.829ZM517.835,354.954C516.033,354.954 514.657,355.563 513.709,356.78C512.761,357.997 512.191,360.139 512.002,363.206L522.435,363.206C522.467,362.921 522.49,362.645 522.506,362.376C522.522,362.107 522.53,361.846 522.53,361.594C522.53,359.57 522.15,357.958 521.392,356.756C520.633,355.555 519.447,354.954 517.835,354.954Z" style="fill-rule:nonzero;"/>
                        <path d="M551.269,377.149L540.741,377.149L540.741,375.773C541.879,375.267 543.017,374.888 544.155,374.635L556.153,343.383L557.529,343.383L569.527,374.635C570.159,374.762 570.784,374.904 571.4,375.062C572.017,375.22 572.594,375.457 573.131,375.773L573.131,377.149L560.991,377.149L560.991,375.773C561.623,375.52 562.271,375.299 562.935,375.109C563.599,374.92 564.247,374.762 564.879,374.635L561.655,365.957L550.32,365.957L547.19,374.635C548.518,374.825 549.878,375.204 551.269,375.773L551.269,377.149ZM551.269,363.491L560.848,363.491L557.102,353.437L556.201,349.358L556.106,349.358L554.92,353.531L551.269,363.491Z" style="fill-rule:nonzero;"/>
                        <path d="M576.783,367.759C576.783,365.767 576.83,363.815 576.925,361.902C577.02,359.989 577.067,358.084 577.067,356.187L573.937,355.808L573.937,354.575C574.949,354.195 575.985,353.863 577.044,353.579C578.103,353.294 579.138,353.057 580.15,352.868L581.336,352.868C581.336,355.239 581.288,357.594 581.193,359.934C581.098,362.273 581.051,364.597 581.051,366.905C581.051,368.138 581.122,369.245 581.264,370.225C581.407,371.205 581.66,372.027 582.023,372.691C582.387,373.355 582.885,373.868 583.517,374.232C584.149,374.596 584.956,374.777 585.936,374.777C587.358,374.777 588.552,374.264 589.516,373.236C590.48,372.209 591.231,370.873 591.769,369.229L591.769,356.187L588.686,355.808L588.686,354.575C589.666,354.195 590.686,353.863 591.745,353.579C592.804,353.294 593.84,353.057 594.851,352.868L596.037,352.868L596.037,374.445L599.167,374.825L599.167,375.821C598.25,376.232 597.325,376.595 596.393,376.911C595.46,377.228 594.488,377.465 593.476,377.623L592.29,377.623L591.958,371.979L591.769,371.979C591.611,372.643 591.334,373.315 590.939,373.995C590.544,374.675 590.03,375.291 589.398,375.844C588.765,376.398 588.046,376.848 587.24,377.196C586.434,377.544 585.556,377.718 584.608,377.718C583.343,377.718 582.229,377.568 581.264,377.267C580.3,376.967 579.486,376.437 578.822,375.678C578.158,374.92 577.652,373.9 577.304,372.62C576.957,371.339 576.783,369.719 576.783,367.759Z" style="fill-rule:nonzero;"/>
                        <path d="M620.603,373.829C620.033,374.935 619.109,375.86 617.828,376.603C616.548,377.346 615.054,377.718 613.347,377.718C611.481,377.718 609.861,377.425 608.486,376.84C607.11,376.255 605.964,375.418 605.048,374.327C604.131,373.236 603.443,371.924 602.985,370.391C602.526,368.857 602.297,367.158 602.297,365.293C602.297,361.277 603.277,358.203 605.237,356.069C607.197,353.935 609.869,352.868 613.252,352.868C614.801,352.868 616.184,353.002 617.401,353.271C618.619,353.539 619.654,353.895 620.508,354.338C620.413,355.381 620.239,356.551 619.986,357.847C619.733,359.143 619.417,360.218 619.038,361.072L617.757,361.072L615.765,355.428C615.544,355.27 615.291,355.152 615.007,355.073C614.722,354.994 614.248,354.954 613.584,354.954C611.434,354.954 609.774,355.737 608.604,357.302C607.435,358.867 606.85,361.515 606.85,365.245C606.85,366.447 607.016,367.616 607.348,368.755C607.68,369.893 608.185,370.912 608.865,371.813C609.545,372.714 610.399,373.434 611.426,373.971C612.454,374.509 613.647,374.777 615.007,374.777C616.113,374.777 617.077,374.619 617.899,374.303C618.721,373.987 619.417,373.608 619.986,373.165L620.603,373.829Z" style="fill-rule:nonzero;"/>
                        <path d="M623.163,354.575C624.365,353.816 625.629,353.279 626.957,352.962L626.957,348.931C627.368,348.615 627.851,348.307 628.404,348.007C628.957,347.706 629.502,347.445 630.04,347.224L631.226,347.224L631.226,353.437L638.339,353.437L638.339,355.808L631.226,355.808L631.226,369.561C631.226,371.458 631.526,372.801 632.127,373.592C632.727,374.382 633.628,374.777 634.83,374.777C635.399,374.777 636.11,374.738 636.964,374.659C637.817,374.58 638.545,374.43 639.145,374.208L639.477,374.92C639.224,375.204 638.869,375.505 638.41,375.821C637.952,376.137 637.43,376.437 636.845,376.722C636.26,377.006 635.62,377.243 634.925,377.433C634.229,377.623 633.518,377.718 632.791,377.718C630.894,377.718 629.447,377.18 628.451,376.105C627.455,375.03 626.957,373.291 626.957,370.889L626.957,355.808L623.163,355.808L623.163,354.575Z" style="fill-rule:nonzero;"/>
                        <path d="M652.519,377.149L641.991,377.149L641.991,375.963C642.465,375.71 642.955,375.497 643.461,375.323C643.967,375.149 644.52,374.983 645.121,374.825L645.121,356.187L641.991,355.808L641.991,354.575C642.908,354.195 643.904,353.863 644.978,353.579C646.053,353.294 647.128,353.057 648.203,352.868L649.389,352.868L649.389,374.825C650.021,374.983 650.59,375.149 651.096,375.323C651.602,375.497 652.076,375.71 652.519,375.963L652.519,377.149ZM644.22,345.375C644.22,344.521 644.496,343.841 645.05,343.335C645.603,342.829 646.338,342.577 647.255,342.577C648.172,342.577 648.899,342.829 649.436,343.335C649.974,343.841 650.243,344.521 650.243,345.375C650.243,346.228 649.974,346.9 649.436,347.39C648.899,347.88 648.172,348.125 647.255,348.125C646.338,348.125 645.603,347.88 645.05,347.39C644.496,346.9 644.22,346.228 644.22,345.375Z" style="fill-rule:nonzero;"/>
                        <path d="M656.265,365.293C656.265,363.301 656.526,361.538 657.048,360.005C657.57,358.471 658.32,357.175 659.3,356.116C660.281,355.057 661.458,354.251 662.834,353.697C664.209,353.144 665.734,352.868 667.41,352.868C669.37,352.868 671.062,353.168 672.484,353.769C673.907,354.369 675.069,355.215 675.97,356.306C676.871,357.397 677.535,358.701 677.962,360.218C678.389,361.736 678.602,363.427 678.602,365.293C678.602,369.276 677.59,372.343 675.567,374.493C673.543,376.643 670.825,377.718 667.41,377.718C665.513,377.718 663.869,377.425 662.478,376.84C661.087,376.255 659.933,375.418 659.016,374.327C658.099,373.236 657.411,371.924 656.953,370.391C656.495,368.857 656.265,367.158 656.265,365.293ZM660.818,365.293C660.818,366.715 660.952,368.059 661.221,369.324C661.49,370.588 661.917,371.687 662.502,372.62C663.087,373.552 663.853,374.287 664.802,374.825C665.75,375.362 666.888,375.631 668.216,375.631C669.923,375.631 671.322,374.793 672.413,373.118C673.504,371.442 674.049,368.834 674.049,365.293C674.049,363.838 673.915,362.487 673.646,361.238C673.378,359.989 672.959,358.898 672.39,357.966C671.82,357.033 671.093,356.298 670.208,355.76C669.323,355.223 668.264,354.954 667.031,354.954C665.165,354.954 663.663,355.792 662.525,357.468C661.387,359.143 660.818,361.752 660.818,365.293Z" style="fill-rule:nonzero;"/>
                        <path d="M707.91,377.149L697.714,377.149L697.714,375.963C698.568,375.52 699.5,375.141 700.512,374.825L700.512,363.585C700.512,361.183 700.164,359.286 699.469,357.894C698.773,356.503 697.508,355.808 695.675,355.808C694.884,355.808 694.149,355.95 693.469,356.235C692.79,356.519 692.189,356.906 691.667,357.397C691.146,357.887 690.695,358.44 690.316,359.056C689.936,359.673 689.636,360.313 689.415,360.977L689.415,374.825C690.395,375.015 691.343,375.394 692.26,375.963L692.26,377.149L682.017,377.149L682.017,375.963C682.807,375.552 683.85,375.173 685.147,374.825L685.147,356.187L682.017,355.808L682.017,354.575C682.839,354.227 683.787,353.911 684.862,353.626C685.937,353.342 687.059,353.089 688.229,352.868L689.415,352.868L689.415,358.179L689.462,358.179C690.126,356.725 691.082,355.476 692.331,354.433C693.58,353.389 695.09,352.868 696.86,352.868C698.125,352.868 699.255,353.018 700.251,353.318C701.247,353.618 702.077,354.148 702.741,354.907C703.405,355.666 703.911,356.685 704.258,357.966C704.606,359.246 704.78,360.866 704.78,362.827L704.78,374.825C706.045,375.046 707.088,375.426 707.91,375.963L707.91,377.149Z" style="fill-rule:nonzero;"/>
                        <path d="M546.645,429.917C546.044,430.265 545.341,430.605 544.535,430.937C543.728,431.269 542.875,431.569 541.974,431.838C541.073,432.107 540.172,432.328 539.27,432.502C538.369,432.676 537.524,432.763 536.733,432.763C534.204,432.763 531.928,432.423 529.904,431.743C527.881,431.063 526.158,430.02 524.735,428.613C523.312,427.206 522.214,425.428 521.439,423.278C520.664,421.128 520.277,418.567 520.277,415.595C520.277,412.497 520.728,409.857 521.629,407.675C522.53,405.494 523.731,403.715 525.233,402.34C526.735,400.965 528.442,399.969 530.355,399.352C532.268,398.736 534.22,398.428 536.212,398.428C538.298,398.428 540.061,398.562 541.499,398.831C542.938,399.099 544.195,399.503 545.27,400.04C545.27,400.514 545.254,401.099 545.222,401.795C545.191,402.49 545.143,403.217 545.08,403.976C545.017,404.735 544.938,405.486 544.843,406.229C544.748,406.972 544.653,407.628 544.558,408.197L543.325,408.197L540.859,401.368C540.511,401.178 539.927,401.052 539.105,400.989C538.282,400.925 537.476,400.894 536.686,400.894C535.105,400.894 533.603,401.186 532.181,401.771C530.758,402.356 529.517,403.257 528.458,404.474C527.399,405.691 526.553,407.225 525.921,409.074C525.288,410.924 524.972,413.097 524.972,415.595C524.972,417.84 525.28,419.863 525.897,421.665C526.513,423.467 527.367,425.009 528.458,426.289C529.549,427.57 530.829,428.558 532.299,429.253C533.769,429.949 535.358,430.297 537.065,430.297C537.698,430.297 538.314,430.233 538.915,430.107C539.516,429.98 540.069,429.83 540.575,429.656C541.081,429.482 541.499,429.301 541.831,429.111C542.163,428.921 542.393,428.763 542.519,428.637L542.519,419.057C541.697,418.994 540.915,418.852 540.172,418.63C539.429,418.409 538.693,418.172 537.966,417.919L537.966,416.544L549.585,416.544L549.585,417.919C549.269,418.14 548.89,418.346 548.447,418.535C548.004,418.725 547.404,418.899 546.645,419.057L546.645,429.917Z" style="fill-rule:nonzero;"/>
                        <path d="M569.835,425.981C569.835,426.676 569.851,427.277 569.883,427.783C569.914,428.289 569.946,428.826 569.977,429.395L573.25,429.87L573.25,430.866C572.459,431.277 571.582,431.64 570.618,431.956C569.653,432.273 568.729,432.51 567.843,432.668L566.658,432.668C566.342,431.941 566.152,431.142 566.089,430.273C566.025,429.403 565.978,428.447 565.946,427.404L565.709,427.404C565.583,428.036 565.338,428.676 564.974,429.324C564.611,429.972 564.136,430.549 563.552,431.055C562.967,431.561 562.279,431.972 561.489,432.288C560.698,432.604 559.797,432.763 558.785,432.763C556.857,432.763 555.284,432.178 554.067,431.008C552.85,429.838 552.241,428.305 552.241,426.408C552.241,424.953 552.533,423.76 553.118,422.827C553.703,421.895 554.565,421.159 555.703,420.622C556.841,420.085 558.248,419.697 559.924,419.46C561.599,419.223 563.544,419.041 565.757,418.915C565.883,417.555 565.923,416.33 565.875,415.239C565.828,414.149 565.654,413.216 565.354,412.441C565.053,411.667 564.611,411.066 564.026,410.639C563.441,410.212 562.674,409.999 561.726,409.999C561.283,409.999 560.785,410.023 560.232,410.07C559.679,410.118 559.133,410.252 558.596,410.473L556.367,416.164L555.134,416.164C554.818,415.216 554.541,414.236 554.304,413.224C554.067,412.212 553.917,411.216 553.853,410.236C555.055,409.509 556.391,408.94 557.861,408.529C559.331,408.118 560.967,407.912 562.769,407.912C564.381,407.912 565.67,408.142 566.634,408.6C567.598,409.058 568.333,409.651 568.839,410.378C569.345,411.106 569.677,411.912 569.835,412.797C569.993,413.682 570.072,414.568 570.072,415.453C570.072,417.35 570.033,419.176 569.954,420.93C569.875,422.685 569.835,424.369 569.835,425.981ZM560.682,429.822C561.473,429.822 562.168,429.664 562.769,429.348C563.37,429.032 563.876,428.652 564.287,428.21C564.698,427.767 565.03,427.317 565.283,426.858C565.535,426.4 565.709,426.013 565.804,425.696L565.804,420.717C563.97,420.717 562.469,420.812 561.299,421.001C560.129,421.191 559.212,421.491 558.548,421.902C557.884,422.313 557.426,422.827 557.173,423.444C556.92,424.06 556.794,424.764 556.794,425.554C556.794,426.914 557.141,427.965 557.837,428.708C558.533,429.451 559.481,429.822 560.682,429.822Z" style="fill-rule:nonzero;"/>
                        <path d="M600.329,432.193L590.18,432.193L590.18,431.008C590.496,430.818 590.884,430.621 591.342,430.415C591.8,430.21 592.346,430.028 592.978,429.87L592.978,418.915C592.978,417.65 592.923,416.512 592.812,415.5C592.701,414.489 592.496,413.643 592.196,412.963C591.895,412.283 591.461,411.762 590.891,411.398C590.322,411.034 589.579,410.853 588.663,410.853C587.967,410.853 587.327,410.995 586.742,411.28C586.157,411.564 585.635,411.943 585.177,412.418C584.718,412.892 584.323,413.429 583.991,414.03C583.659,414.631 583.398,415.263 583.209,415.927L583.209,429.87C583.715,430.028 584.197,430.194 584.655,430.368C585.114,430.542 585.564,430.755 586.007,431.008L586.007,432.193L575.811,432.193L575.811,431.008C576.253,430.787 576.743,430.581 577.281,430.391C577.818,430.202 578.372,430.028 578.941,429.87L578.941,411.232L575.811,410.853L575.811,409.62C576.822,409.177 577.858,408.821 578.917,408.553C579.976,408.284 581.011,408.07 582.023,407.912L583.209,407.912L583.209,413.271L583.256,413.271C583.762,411.785 584.624,410.521 585.841,409.477C587.058,408.434 588.568,407.912 590.37,407.912C591.129,407.912 591.856,407.991 592.551,408.15C593.247,408.308 593.895,408.6 594.496,409.027C595.096,409.454 595.602,410.046 596.013,410.805C596.424,411.564 596.725,412.544 596.914,413.746C597.483,412.007 598.4,410.6 599.665,409.525C600.93,408.45 602.51,407.912 604.407,407.912C605.577,407.912 606.597,408.063 607.466,408.363C608.336,408.663 609.055,409.193 609.624,409.952C610.193,410.71 610.612,411.738 610.881,413.034C611.149,414.33 611.284,415.974 611.284,417.966L611.284,429.87C612.359,430.059 613.402,430.439 614.414,431.008L614.414,432.193L604.218,432.193L604.218,431.008C605.166,430.502 606.099,430.123 607.016,429.87L607.016,418.061C607.016,416.923 606.96,415.911 606.85,415.026C606.739,414.141 606.526,413.39 606.209,412.773C605.893,412.157 605.451,411.683 604.882,411.351C604.312,411.019 603.554,410.853 602.605,410.853C601.088,410.853 599.91,411.374 599.072,412.418C598.234,413.461 597.626,414.789 597.246,416.401L597.246,429.87C598.353,430.186 599.38,430.565 600.329,431.008L600.329,432.193Z" style="fill-rule:nonzero;"/>
                        <path d="M636.418,428.874C636.166,429.411 635.77,429.917 635.233,430.391C634.695,430.866 634.079,431.277 633.383,431.624C632.688,431.972 631.929,432.249 631.107,432.454C630.285,432.66 629.447,432.763 628.593,432.763C626.728,432.763 625.084,432.47 623.661,431.885C622.239,431.3 621.053,430.462 620.105,429.372C619.156,428.281 618.437,426.977 617.947,425.459C617.457,423.942 617.212,422.234 617.212,420.337C617.212,416.291 618.144,413.208 620.01,411.09C621.875,408.972 624.515,407.912 627.93,407.912C629.036,407.912 630.127,408.063 631.202,408.363C632.277,408.663 633.233,409.161 634.071,409.857C634.909,410.552 635.589,411.477 636.11,412.631C636.632,413.785 636.893,415.216 636.893,416.923C636.893,417.46 636.869,418.006 636.822,418.559C636.774,419.112 636.687,419.705 636.561,420.337L621.764,420.337C621.764,421.665 621.93,422.906 622.262,424.06C622.594,425.214 623.092,426.218 623.756,427.072C624.42,427.925 625.258,428.597 626.27,429.087C627.281,429.577 628.467,429.822 629.827,429.822C630.933,429.822 632.055,429.664 633.194,429.348C634.332,429.032 635.185,428.621 635.755,428.115L636.418,428.874ZM627.74,409.999C625.938,409.999 624.562,410.608 623.614,411.825C622.665,413.042 622.096,415.184 621.907,418.251L632.34,418.251C632.372,417.966 632.395,417.69 632.411,417.421C632.427,417.152 632.435,416.891 632.435,416.638C632.435,414.615 632.055,413.003 631.297,411.801C630.538,410.6 629.352,409.999 627.74,409.999Z" style="fill-rule:nonzero;"/>
                    </g>
                    <g transform="matrix(0.0317537,0,0,0.0272503,134.254,129.574)">
                        <path d="M496.452,499.909C488.382,507.965 477.805,512 467.242,512C456.666,512 446.103,507.965 438.033,499.895L272.209,334.057C260.021,321.883 257.06,304.008 263.271,289.038L229.297,255.064L182.363,301.983C191.756,316.967 189.759,337.266 176.373,350.597C160.921,366.063 136.16,366.393 121.121,351.354L14.501,244.776C-0.537,229.724 -0.193,204.99 15.273,189.538C28.645,176.166 48.903,174.155 63.886,183.561L187.018,60.416C177.585,45.446 179.609,25.174 192.981,11.816C208.447,-3.649 233.18,-3.98 248.233,11.059L354.839,117.664C369.891,132.703 369.547,157.437 354.081,172.902C340.681,186.274 320.451,188.271 305.481,178.879L258.506,225.854L296.667,264.001C308.773,262.597 321.36,266.356 330.656,275.666L496.466,441.503C512.592,457.63 512.592,483.768 496.452,499.909Z" style="fill-rule:nonzero;"/>
                    </g>
                    <g transform="matrix(1.03886,0,0,0.950961,-327.944,-467.89)">
                        <path d="M700.717,586.369C700.717,573.258 689.363,562.613 675.378,562.613L452.569,562.613C438.584,562.613 427.23,573.258 427.23,586.369L427.23,633.88C427.23,646.991 438.584,657.635 452.569,657.635L675.378,657.635C689.363,657.635 700.717,646.991 700.717,633.88L700.717,586.369Z" style="fill:none;stroke:rgb(230,194,127);stroke-width:15.83px;"/>
                    </g>
                    <g transform="matrix(1.75354,0.702716,-0.818845,1.50485,-282.419,-1233.88)">
                        <text x="632.975px" y="583.164px" style="font-family:'PTSerif-Regular', 'PT Serif', sans-serif;font-size:6.666px;fill:rgb(224,40,42);">SOLD</text>
                    </g>
                    <g transform="matrix(1,0,0,0.858179,-300.717,-409.813)">
                        <circle cx="425.31" cy="564.645" r="2.53" style="fill:rgb(130,62,14);"/>
                    </g>
                    <g transform="matrix(1,0,0,0.858179,-300.717,-333.502)">
                        <circle cx="425.31" cy="564.645" r="2.53" style="fill:rgb(130,62,14);"/>
                    </g>
                    <g transform="matrix(1,0,0,0.858179,-32.6491,-333.502)">
                        <circle cx="425.31" cy="564.645" r="2.53" style="fill:rgb(130,62,14);"/>
                    </g>
                    <g transform="matrix(1,0,0,0.858179,-32.6491,-409.96)">
                        <circle cx="425.31" cy="564.645" r="2.53" style="fill:rgb(130,62,14);"/>
                    </g>
                </g>
                <path d="M400,73.049C400,69.784 396.911,67.133 393.106,67.133L122.779,67.133C118.975,67.133 115.886,69.784 115.886,73.049L115.886,151.579C115.886,154.844 118.975,157.495 122.779,157.495L393.106,157.495C396.911,157.495 400,154.844 400,151.579L400,73.049Z" style="fill:none;stroke:rgb(130,62,14);stroke-width:1.84px;"/>
            </g>
        </g>
    </g>
</svg>
