<?xml version="1.0" encoding="UTF-8" standalone="no"?>
<!DOCTYPE svg PUBLIC "-//W3C//DTD SVG 1.1//EN" "http://www.w3.org/Graphics/SVG/1.1/DTD/svg11.dtd">
<svg width="100%" height="100%" viewBox="0 0 287 109" version="1.1" xmlns="http://www.w3.org/2000/svg" xmlns:xlink="http://www.w3.org/1999/xlink" xml:space="preserve" xmlns:serif="http://www.serif.com/" style="fill-rule:evenodd;clip-rule:evenodd;stroke-linecap:round;stroke-linejoin:round;stroke-miterlimit:1.5;">
    <g transform="matrix(1,0,0,1,-101,-1364)">
        <g transform="matrix(1.03258,0,0,1.69762,0,0)">
            <g id="dark-patterns" transform="matrix(0.968444,0,0,0.686408,-12.718,758.494)">
                <path d="M400,75.792C400,71.013 395.479,67.133 389.91,67.133L125.976,67.133C120.407,67.133 115.886,71.013 115.886,75.792L115.886,148.836C115.886,153.615 120.407,157.495 125.976,157.495L389.91,157.495C395.479,157.495 400,153.615 400,148.836L400,75.792Z"/>
                <clipPath id="_clip1">
                    <path d="M400,75.792C400,71.013 395.479,67.133 389.91,67.133L125.976,67.133C120.407,67.133 115.886,71.013 115.886,75.792L115.886,148.836C115.886,153.615 120.407,157.495 125.976,157.495L389.91,157.495C395.479,157.495 400,153.615 400,148.836L400,75.792Z"/>
                </clipPath>
                <g clip-path="url(#_clip1)">
                    <g transform="matrix(0.0552916,-0.011555,0.0134645,0.04745,362.195,85.3798)">
                        <g transform="matrix(1,0,0,1,-186.9,-186.9)">
                            <g>
                                <g>
                                    <path d="M186.9,74.788C119.2,74.788 51.6,112.188 0,186.888C103.2,336.388 270.6,336.388 373.8,186.888C322.2,112.188 254.6,74.788 186.9,74.788ZM186.9,261.687C145.6,261.687 112,228.187 112,186.887C112,145.587 145.6,111.987 186.9,111.987C228.2,111.987 261.7,145.587 261.7,186.887C261.7,228.187 228.2,261.687 186.9,261.687Z" style="fill:white;fill-rule:nonzero;"/>
                                </g>
                            </g>
                            <g>
                                <g>
                                    <circle cx="186.9" cy="186.888" r="37.4" style="fill:white;"/>
                                </g>
                            </g>
                        </g>
                    </g>
                    <g transform="matrix(0.046183,0.0106197,-0.0123747,0.0396332,257.943,140.573)">
                        <g transform="matrix(1,0,0,1,-186.9,-186.9)">
                            <g>
                                <g>
                                    <path d="M186.9,74.788C119.2,74.788 51.6,112.188 0,186.888C103.2,336.388 270.6,336.388 373.8,186.888C322.2,112.188 254.6,74.788 186.9,74.788ZM186.9,261.687C145.6,261.687 112,228.187 112,186.887C112,145.587 145.6,111.987 186.9,111.987C228.2,111.987 261.7,145.587 261.7,186.887C261.7,228.187 228.2,261.687 186.9,261.687Z" style="fill:white;fill-rule:nonzero;"/>
                                </g>
                            </g>
                            <g>
                                <g>
                                    <circle cx="186.9" cy="186.888" r="37.4" style="fill:white;"/>
                                </g>
                            </g>
                        </g>
                    </g>
                    <g transform="matrix(0.0321512,-0.01593,0.0185625,0.0275915,318.473,139.96)">
                        <g transform="matrix(1,0,0,1,-186.9,-186.9)">
                            <g>
                                <g>
                                    <path d="M186.9,74.788C119.2,74.788 51.6,112.188 0,186.888C103.2,336.388 270.6,336.388 373.8,186.888C322.2,112.188 254.6,74.788 186.9,74.788ZM186.9,261.687C145.6,261.687 112,228.187 112,186.887C112,145.587 145.6,111.987 186.9,111.987C228.2,111.987 261.7,145.587 261.7,186.887C261.7,228.187 228.2,261.687 186.9,261.687Z" style="fill:white;fill-rule:nonzero;"/>
                                </g>
                            </g>
                            <g>
                                <g>
                                    <circle cx="186.9" cy="186.888" r="37.4" style="fill:white;"/>
                                </g>
                            </g>
                        </g>
                    </g>
                    <g transform="matrix(0.0321512,-0.01593,0.0185625,0.0275915,199.426,141.831)">
                        <g transform="matrix(1,0,0,1,-186.9,-186.9)">
                            <g>
                                <g>
                                    <path d="M186.9,74.788C119.2,74.788 51.6,112.188 0,186.888C103.2,336.388 270.6,336.388 373.8,186.888C322.2,112.188 254.6,74.788 186.9,74.788ZM186.9,261.687C145.6,261.687 112,228.187 112,186.887C112,145.587 145.6,111.987 186.9,111.987C228.2,111.987 261.7,145.587 261.7,186.887C261.7,228.187 228.2,261.687 186.9,261.687Z" style="fill:white;fill-rule:nonzero;"/>
                                </g>
                            </g>
                            <g>
                                <g>
                                    <circle cx="186.9" cy="186.888" r="37.4" style="fill:white;"/>
                                </g>
                            </g>
                        </g>
                    </g>
                    <g transform="matrix(0.0459858,1.73472e-18,1.73472e-18,0.039464,281.303,84.1429)">
                        <g transform="matrix(1,0,0,1,-186.9,-186.9)">
                            <g>
                                <g>
                                    <path d="M186.9,74.788C119.2,74.788 51.6,112.188 0,186.888C103.2,336.388 270.6,336.388 373.8,186.888C322.2,112.188 254.6,74.788 186.9,74.788ZM186.9,261.687C145.6,261.687 112,228.187 112,186.887C112,145.587 145.6,111.987 186.9,111.987C228.2,111.987 261.7,145.587 261.7,186.887C261.7,228.187 228.2,261.687 186.9,261.687Z" style="fill:white;fill-rule:nonzero;"/>
                                </g>
                            </g>
                            <g>
                                <g>
                                    <circle cx="186.9" cy="186.888" r="37.4" style="fill:white;"/>
                                </g>
                            </g>
                        </g>
                    </g>
                    <g transform="matrix(0.043423,-0.0215148,0.0250703,0.0372647,148.293,86.0953)">
                        <g transform="matrix(1,0,0,1,-186.9,-186.9)">
                            <g>
                                <g>
                                    <path d="M186.9,74.788C119.2,74.788 51.6,112.188 0,186.888C103.2,336.388 270.6,336.388 373.8,186.888C322.2,112.188 254.6,74.788 186.9,74.788ZM186.9,261.687C145.6,261.687 112,228.187 112,186.887C112,145.587 145.6,111.987 186.9,111.987C228.2,111.987 261.7,145.587 261.7,186.887C261.7,228.187 228.2,261.687 186.9,261.687Z" style="fill:white;fill-rule:nonzero;"/>
                                </g>
                            </g>
                            <g>
                                <g>
                                    <circle cx="186.9" cy="186.888" r="37.4" style="fill:white;"/>
                                </g>
                            </g>
                        </g>
                    </g>
                    <g transform="matrix(0.0290996,-0.00991926,0.0115585,0.0249727,365.473,140.096)">
                        <g transform="matrix(1,0,0,1,-255.5,-255.5)">
                            <clipPath id="_clip2">
                                <rect x="0" y="0" width="511" height="511"/>
                            </clipPath>
                            <g clip-path="url(#_clip2)">
                                <path d="M410.517,291.884L121.984,3.453C111.415,-4.939 95.521,3.07 95.521,15.621L95.521,409.795C95.521,418.616 102.68,425.775 111.501,425.775C115.656,425.775 119.639,424.176 121.921,421.874L201.86,352.223L267.06,504.544C268.168,507.142 270.255,509.19 272.877,510.255C274.156,510.743 275.498,511 276.84,511C278.268,511 279.696,510.7 281.038,510.127L349.644,480.722C355.055,478.424 357.571,472.158 355.25,466.747L292.138,319.241L399.14,319.241C407.961,319.241 415.12,312.082 415.12,303.261C415.12,300.682 414.461,296.804 410.517,291.884Z" style="fill:white;fill-rule:nonzero;"/>
                            </g>
                        </g>
                    </g>
                    <g transform="matrix(-0.0147108,-0.0115284,0.0134336,-0.0126245,216.284,84.1429)">
                        <g transform="matrix(1,0,0,1,-255.5,-255.5)">
                            <clipPath id="_clip3">
                                <rect x="0" y="0" width="511" height="511"/>
                            </clipPath>
                            <g clip-path="url(#_clip3)">
                                <path d="M410.517,291.884L121.984,3.453C111.415,-4.939 95.521,3.07 95.521,15.621L95.521,409.795C95.521,418.616 102.68,425.775 111.501,425.775C115.656,425.775 119.639,424.176 121.921,421.874L201.86,352.223L267.06,504.544C268.168,507.142 270.255,509.19 272.877,510.255C274.156,510.743 275.498,511 276.84,511C278.268,511 279.696,510.7 281.038,510.127L349.644,480.722C355.055,478.424 357.571,472.158 355.25,466.747L292.138,319.241L399.14,319.241C407.961,319.241 415.12,312.082 415.12,303.261C415.12,300.682 414.461,296.804 410.517,291.884Z" style="fill:white;fill-rule:nonzero;"/>
                            </g>
                        </g>
                    </g>
                    <g transform="matrix(-0.0172526,0.00854812,-0.00996077,-0.0148058,138.983,114.283)">
                        <g transform="matrix(1,0,0,1,-255.5,-255.5)">
                            <clipPath id="_clip4">
                                <rect x="0" y="0" width="511" height="511"/>
                            </clipPath>
                            <g clip-path="url(#_clip4)">
                                <path d="M410.517,291.884L121.984,3.453C111.415,-4.939 95.521,3.07 95.521,15.621L95.521,409.795C95.521,418.616 102.68,425.775 111.501,425.775C115.656,425.775 119.639,424.176 121.921,421.874L201.86,352.223L267.06,504.544C268.168,507.142 270.255,509.19 272.877,510.255C274.156,510.743 275.498,511 276.84,511C278.268,511 279.696,510.7 281.038,510.127L349.644,480.722C355.055,478.424 357.571,472.158 355.25,466.747L292.138,319.241L399.14,319.241C407.961,319.241 415.12,312.082 415.12,303.261C415.12,300.682 414.461,296.804 410.517,291.884Z" style="fill:white;fill-rule:nonzero;"/>
                            </g>
                        </g>
                    </g>
                    <g transform="matrix(0.000959343,-0.0170764,0.0198984,0.000823287,365.473,110.615)">
                        <g transform="matrix(1,0,0,1,-255.5,-255.5)">
                            <clipPath id="_clip5">
                                <rect x="0" y="0" width="511" height="511"/>
                            </clipPath>
                            <g clip-path="url(#_clip5)">
                                <path d="M410.517,291.884L121.984,3.453C111.415,-4.939 95.521,3.07 95.521,15.621L95.521,409.795C95.521,418.616 102.68,425.775 111.501,425.775C115.656,425.775 119.639,424.176 121.921,421.874L201.86,352.223L267.06,504.544C268.168,507.142 270.255,509.19 272.877,510.255C274.156,510.743 275.498,511 276.84,511C278.268,511 279.696,510.7 281.038,510.127L349.644,480.722C355.055,478.424 357.571,472.158 355.25,466.747L292.138,319.241L399.14,319.241C407.961,319.241 415.12,312.082 415.12,303.261C415.12,300.682 414.461,296.804 410.517,291.884Z" style="fill:white;fill-rule:nonzero;"/>
                            </g>
                        </g>
                    </g>
                    <g transform="matrix(0.00810392,0.025955,-0.0302443,0.00695461,149.892,142.41)">
                        <g transform="matrix(1,0,0,1,-255.5,-255.5)">
                            <clipPath id="_clip6">
                                <rect x="0" y="0" width="511" height="511"/>
                            </clipPath>
                            <g clip-path="url(#_clip6)">
                                <path d="M410.517,291.884L121.984,3.453C111.415,-4.939 95.521,3.07 95.521,15.621L95.521,409.795C95.521,418.616 102.68,425.775 111.501,425.775C115.656,425.775 119.639,424.176 121.921,421.874L201.86,352.223L267.06,504.544C268.168,507.142 270.255,509.19 272.877,510.255C274.156,510.743 275.498,511 276.84,511C278.268,511 279.696,510.7 281.038,510.127L349.644,480.722C355.055,478.424 357.571,472.158 355.25,466.747L292.138,319.241L399.14,319.241C407.961,319.241 415.12,312.082 415.12,303.261C415.12,300.682 414.461,296.804 410.517,291.884Z" style="fill:white;fill-rule:nonzero;"/>
                            </g>
                        </g>
                    </g>
                    <g transform="matrix(0.762928,0,0,0.654728,68.905,-820.332)">
                        <path d="M149.865,1437L149.865,1410.43L156.197,1410.43C159.3,1410.43 161.709,1411.4 163.424,1413.34C165.139,1415.28 165.997,1418.01 165.997,1421.53L165.997,1425.98C165.997,1429.49 165.127,1432.21 163.388,1434.13C161.648,1436.04 159.123,1437 155.814,1437L149.865,1437ZM153.205,1413.31L153.205,1434.13L155.887,1434.13C158.235,1434.13 159.951,1433.46 161.033,1432.12C162.116,1430.77 162.67,1428.78 162.694,1426.14L162.694,1421.43C162.694,1418.64 162.156,1416.58 161.079,1415.28C160.002,1413.97 158.375,1413.31 156.197,1413.31L153.205,1413.31Z" style="fill:rgb(255,107,129);fill-rule:nonzero;"/>
                        <path d="M180.906,1437C180.712,1436.57 180.572,1435.86 180.487,1434.85C179.343,1436.53 177.883,1437.37 176.107,1437.37C174.319,1437.37 172.923,1436.86 171.919,1435.86C170.915,1434.86 170.413,1433.44 170.413,1431.62C170.413,1429.61 171.095,1428.02 172.457,1426.84C173.82,1425.65 175.687,1425.05 178.06,1425.03L180.432,1425.03L180.432,1422.93C180.432,1421.75 180.17,1420.91 179.647,1420.41C179.124,1419.91 178.327,1419.66 177.257,1419.66C176.283,1419.66 175.493,1419.95 174.884,1420.53C174.276,1421.11 173.972,1421.84 173.972,1422.73L170.742,1422.73C170.742,1421.72 171.04,1420.76 171.636,1419.84C172.232,1418.92 173.035,1418.2 174.045,1417.67C175.055,1417.15 176.18,1416.89 177.421,1416.89C179.44,1416.89 180.976,1417.39 182.029,1418.39C183.081,1419.4 183.619,1420.86 183.644,1422.78L183.644,1432.75C183.656,1434.27 183.863,1435.59 184.264,1436.71L184.264,1437L180.906,1437ZM176.6,1434.43C177.39,1434.43 178.145,1434.21 178.863,1433.77C179.58,1433.33 180.103,1432.79 180.432,1432.13L180.432,1427.42L178.607,1427.42C177.074,1427.44 175.864,1427.79 174.976,1428.45C174.087,1429.11 173.643,1430.04 173.643,1431.23C173.643,1432.35 173.868,1433.16 174.319,1433.67C174.769,1434.17 175.529,1434.43 176.6,1434.43Z" style="fill:rgb(255,107,129);fill-rule:nonzero;"/>
                        <path d="M196.801,1420.28C196.351,1420.2 195.864,1420.16 195.341,1420.16C193.687,1420.16 192.531,1421.06 191.874,1422.88L191.874,1437L188.644,1437L188.644,1417.26L191.783,1417.26L191.838,1419.26C192.701,1417.68 193.924,1416.89 195.506,1416.89C196.017,1416.89 196.442,1416.98 196.783,1417.14L196.801,1420.28Z" style="fill:rgb(255,107,129);fill-rule:nonzero;"/>
                        <path d="M204.977,1427.97L203.261,1429.94L203.261,1437L200.031,1437L200.031,1408.97L203.261,1408.97L203.261,1425.74L209.411,1417.26L213.28,1417.26L207.002,1425.5L214.101,1437L210.342,1437L204.977,1427.97Z" style="fill:rgb(255,107,129);fill-rule:nonzero;"/>
                        <path d="M229.211,1426.6L229.211,1437L225.872,1437L225.872,1410.43L234.339,1410.43C236.809,1410.43 238.749,1411.17 240.161,1412.65C241.572,1414.12 242.277,1416.09 242.277,1418.55C242.277,1421.11 241.605,1423.07 240.261,1424.45C238.917,1425.84 237.022,1426.55 234.576,1426.6L229.211,1426.6ZM229.211,1423.73L234.339,1423.73C235.823,1423.73 236.961,1423.29 237.752,1422.4C238.543,1421.51 238.938,1420.24 238.938,1418.59C238.938,1416.99 238.53,1415.72 237.715,1414.76C236.9,1413.79 235.781,1413.31 234.357,1413.31L229.211,1413.31L229.211,1423.73Z" style="fill:rgb(255,107,129);fill-rule:nonzero;"/>
                        <path d="M256.092,1437C255.897,1436.57 255.757,1435.86 255.672,1434.85C254.529,1436.53 253.069,1437.37 251.292,1437.37C249.504,1437.37 248.108,1436.86 247.104,1435.86C246.101,1434.86 245.599,1433.44 245.599,1431.62C245.599,1429.61 246.28,1428.02 247.643,1426.84C249.005,1425.65 250.873,1425.05 253.245,1425.03L255.617,1425.03L255.617,1422.93C255.617,1421.75 255.356,1420.91 254.833,1420.41C254.31,1419.91 253.513,1419.66 252.442,1419.66C251.469,1419.66 250.678,1419.95 250.07,1420.53C249.461,1421.11 249.157,1421.84 249.157,1422.73L245.927,1422.73C245.927,1421.72 246.225,1420.76 246.821,1419.84C247.418,1418.92 248.221,1418.2 249.23,1417.67C250.24,1417.15 251.365,1416.89 252.606,1416.89C254.626,1416.89 256.162,1417.39 257.214,1418.39C258.267,1419.4 258.805,1420.86 258.829,1422.78L258.829,1432.75C258.841,1434.27 259.048,1435.59 259.45,1436.71L259.45,1437L256.092,1437ZM251.785,1434.43C252.576,1434.43 253.33,1434.21 254.048,1433.77C254.766,1433.33 255.289,1432.79 255.617,1432.13L255.617,1427.42L253.793,1427.42C252.26,1427.44 251.049,1427.79 250.161,1428.45C249.273,1429.11 248.829,1430.04 248.829,1431.23C248.829,1432.35 249.054,1433.16 249.504,1433.67C249.954,1434.17 250.715,1434.43 251.785,1434.43Z" style="fill:rgb(255,107,129);fill-rule:nonzero;"/>
                        <path d="M268.063,1412.47L268.063,1417.26L271.038,1417.26L271.038,1419.86L268.063,1419.86L268.063,1432.11C268.063,1432.89 268.191,1433.48 268.446,1433.88C268.702,1434.28 269.14,1434.48 269.76,1434.48C270.186,1434.48 270.618,1434.41 271.056,1434.26L271.019,1437C270.29,1437.24 269.541,1437.37 268.775,1437.37C267.497,1437.37 266.524,1436.91 265.855,1436C265.186,1435.08 264.851,1433.79 264.851,1432.13L264.851,1419.86L261.84,1419.86L261.84,1417.26L264.851,1417.26L264.851,1412.47L268.063,1412.47Z" style="fill:rgb(255,107,129);fill-rule:nonzero;"/>
                        <path d="M279.104,1412.47L279.104,1417.26L282.078,1417.26L282.078,1419.86L279.104,1419.86L279.104,1432.11C279.104,1432.89 279.231,1433.48 279.487,1433.88C279.742,1434.28 280.18,1434.48 280.801,1434.48C281.227,1434.48 281.659,1434.41 282.097,1434.26L282.06,1437C281.33,1437.24 280.582,1437.37 279.815,1437.37C278.538,1437.37 277.565,1436.91 276.896,1436C276.227,1435.08 275.892,1433.79 275.892,1432.13L275.892,1419.86L272.881,1419.86L272.881,1417.26L275.892,1417.26L275.892,1412.47L279.104,1412.47Z" style="fill:rgb(255,107,129);fill-rule:nonzero;"/>
                        <path d="M292.973,1437.37C290.515,1437.37 288.63,1436.63 287.316,1435.17C286.002,1433.7 285.333,1431.55 285.308,1428.71L285.308,1426.32C285.308,1423.38 285.95,1421.07 287.234,1419.4C288.517,1417.73 290.309,1416.89 292.608,1416.89C294.919,1416.89 296.647,1417.63 297.791,1419.1C298.934,1420.57 299.518,1422.86 299.543,1425.98L299.543,1428.1L288.52,1428.1L288.52,1428.55C288.52,1430.67 288.919,1432.21 289.715,1433.17C290.512,1434.13 291.659,1434.61 293.155,1434.61C294.104,1434.61 294.941,1434.43 295.665,1434.07C296.388,1433.71 297.067,1433.14 297.699,1432.37L299.378,1434.41C297.979,1436.38 295.844,1437.37 292.973,1437.37ZM292.608,1419.66C291.27,1419.66 290.278,1420.12 289.633,1421.04C288.989,1421.96 288.624,1423.39 288.538,1425.32L296.312,1425.32L296.312,1424.88C296.227,1423.01 295.89,1421.67 295.3,1420.87C294.71,1420.07 293.812,1419.66 292.608,1419.66Z" style="fill:rgb(255,107,129);fill-rule:nonzero;"/>
                        <path d="M311.569,1420.28C311.118,1420.2 310.632,1420.16 310.109,1420.16C308.454,1420.16 307.298,1421.06 306.641,1422.88L306.641,1437L303.411,1437L303.411,1417.26L306.55,1417.26L306.605,1419.26C307.469,1417.68 308.691,1416.89 310.273,1416.89C310.784,1416.89 311.21,1416.98 311.55,1417.14L311.569,1420.28Z" style="fill:rgb(255,107,129);fill-rule:nonzero;"/>
                        <path d="M317.828,1417.26L317.919,1419.39C319.172,1417.72 320.772,1416.89 322.719,1416.89C326.21,1416.89 327.98,1419.22 328.029,1423.88L328.029,1437L324.817,1437L324.817,1424.03C324.817,1422.48 324.559,1421.38 324.042,1420.73C323.525,1420.08 322.749,1419.76 321.715,1419.76C320.912,1419.76 320.191,1420.02 319.552,1420.56C318.914,1421.09 318.4,1421.79 318.01,1422.66L318.01,1437L314.78,1437L314.78,1417.26L317.828,1417.26Z" style="fill:rgb(255,107,129);fill-rule:nonzero;"/>
                        <path d="M342.464,1431.94C342.464,1431.25 342.202,1430.65 341.679,1430.16C341.156,1429.66 340.146,1429.07 338.65,1428.4C336.91,1427.69 335.684,1427.07 334.973,1426.56C334.261,1426.05 333.729,1425.47 333.376,1424.82C333.023,1424.17 332.847,1423.39 332.847,1422.49C332.847,1420.89 333.434,1419.55 334.608,1418.49C335.782,1417.42 337.281,1416.89 339.106,1416.89C341.028,1416.89 342.573,1417.45 343.741,1418.57C344.909,1419.69 345.493,1421.12 345.493,1422.88L342.281,1422.88C342.281,1421.99 341.983,1421.23 341.387,1420.6C340.791,1419.98 340.031,1419.66 339.106,1419.66C338.157,1419.66 337.412,1419.91 336.871,1420.4C336.329,1420.89 336.059,1421.56 336.059,1422.38C336.059,1423.04 336.256,1423.57 336.652,1423.97C337.047,1424.37 337.999,1424.9 339.508,1425.56C341.904,1426.5 343.535,1427.41 344.398,1428.3C345.262,1429.2 345.694,1430.33 345.694,1431.71C345.694,1433.42 345.104,1434.8 343.924,1435.82C342.744,1436.85 341.162,1437.37 339.179,1437.37C337.123,1437.37 335.456,1436.78 334.179,1435.6C332.901,1434.41 332.263,1432.92 332.263,1431.11L335.511,1431.11C335.548,1432.2 335.882,1433.06 336.515,1433.68C337.147,1434.3 338.036,1434.61 339.179,1434.61C340.25,1434.61 341.065,1434.37 341.624,1433.89C342.184,1433.41 342.464,1432.76 342.464,1431.94Z" style="fill:rgb(255,107,129);fill-rule:nonzero;"/>
                    </g>
                </g>
                <path d="M400,75.792C400,71.013 395.479,67.133 389.91,67.133L125.976,67.133C120.407,67.133 115.886,71.013 115.886,75.792L115.886,148.836C115.886,153.615 120.407,157.495 125.976,157.495L389.91,157.495C395.479,157.495 400,153.615 400,148.836L400,75.792Z" style="fill:none;stroke:black;stroke-width:1.84px;"/>
            </g>
        </g>
    </g>
</svg>
