<?xml version="1.0" encoding="UTF-8" standalone="no"?>
<!DOCTYPE svg PUBLIC "-//W3C//DTD SVG 1.1//EN" "http://www.w3.org/Graphics/SVG/1.1/DTD/svg11.dtd">
<svg width="100%" height="100%" viewBox="0 0 285 106" version="1.1" xmlns="http://www.w3.org/2000/svg" xmlns:xlink="http://www.w3.org/1999/xlink" xml:space="preserve" xmlns:serif="http://www.serif.com/" style="fill-rule:evenodd;clip-rule:evenodd;stroke-linecap:round;stroke-linejoin:round;stroke-miterlimit:1.5;">
    <g transform="matrix(1,0,0,1,-414,-827)">
        <g transform="matrix(1.03258,0,0,1.69762,0,0)">
            <g id="deep-sea" transform="matrix(0.968444,0,0,0.686408,289.437,441.156)">
                <path d="M400,75.792C400,71.013 395.479,67.133 389.91,67.133L125.976,67.133C120.407,67.133 115.886,71.013 115.886,75.792L115.886,148.836C115.886,153.615 120.407,157.495 125.976,157.495L389.91,157.495C395.479,157.495 400,153.615 400,148.836L400,75.792Z" style="fill:url(#_Linear1);"/>
                <clipPath id="_clip2">
                    <path d="M400,75.792C400,71.013 395.479,67.133 389.91,67.133L125.976,67.133C120.407,67.133 115.886,71.013 115.886,75.792L115.886,148.836C115.886,153.615 120.407,157.495 125.976,157.495L389.91,157.495C395.479,157.495 400,153.615 400,148.836L400,75.792Z"/>
                </clipPath>
                <g clip-path="url(#_clip2)">
                    <g transform="matrix(0.417719,0,0,0.456097,-31.5456,-289.608)">
                        <path d="M507.501,864.407L491.313,864.407L491.313,895.639L480.423,895.639L480.423,864.407L464.452,864.407L464.452,858.15L507.501,858.15L507.501,864.407Z" style="fill:rgb(44,44,84);fill-rule:nonzero;"/>
                        <path d="M523.255,870.818C526.038,868.449 529.534,867.265 533.745,867.265C542.263,867.265 546.582,870.775 546.703,877.796L546.703,895.639L536.213,895.639L536.213,878.002C536.213,876.405 535.729,875.225 534.761,874.461C533.793,873.698 532.184,873.316 529.934,873.316C526.86,873.316 524.634,874.157 523.255,875.839L523.255,895.639L512.765,895.639L512.765,856.09L523.255,856.09L523.255,870.818Z" style="fill:rgb(44,44,84);fill-rule:nonzero;"/>
                        <path d="M572.693,896.154C566.934,896.154 562.245,894.901 558.627,892.395C555.01,889.889 553.201,886.55 553.201,882.379L553.201,881.658C553.201,878.86 553.963,876.358 555.488,874.153C557.012,871.947 559.172,870.247 561.967,869.054C564.762,867.861 567.95,867.265 571.531,867.265C576.903,867.265 581.132,868.466 584.218,870.87C587.303,873.273 588.846,876.68 588.846,881.092L588.846,884.13L563.836,884.13C564.175,885.949 565.197,887.409 566.903,888.507C568.609,889.606 570.769,890.155 573.383,890.155C577.424,890.155 580.582,889.116 582.856,887.039L588.011,891.133C586.438,892.713 584.308,893.944 581.622,894.828C578.936,895.712 575.96,896.154 572.693,896.154ZM571.495,873.29C569.414,873.29 567.726,873.788 566.431,874.783C565.137,875.779 564.308,877.204 563.945,879.058L578.537,879.058L578.537,878.465C578.488,876.817 577.859,875.543 576.649,874.642C575.439,873.741 573.721,873.29 571.495,873.29Z" style="fill:rgb(44,44,84);fill-rule:nonzero;"/>
                        <path d="M614,895.639L614,858.15L630.262,858.15C634.908,858.15 639.064,858.892 642.73,860.377C646.396,861.862 649.258,863.973 651.315,866.711C653.371,869.449 654.4,872.56 654.4,876.045L654.4,877.77C654.4,881.255 653.39,884.353 651.369,887.065C649.348,889.777 646.499,891.88 642.821,893.374C639.143,894.867 634.993,895.622 630.371,895.639L614,895.639ZM624.89,864.407L624.89,889.434L630.153,889.434C634.412,889.434 637.667,888.447 639.917,886.473C642.167,884.499 643.317,881.675 643.365,878.002L643.365,876.019C643.365,872.209 642.252,869.32 640.026,867.355C637.8,865.39 634.545,864.407 630.262,864.407L624.89,864.407Z" style="fill:rgb(44,44,84);fill-rule:nonzero;"/>
                        <path d="M679.7,896.154C673.94,896.154 669.252,894.901 665.634,892.395C662.016,889.889 660.208,886.55 660.208,882.379L660.208,881.658C660.208,878.86 660.97,876.358 662.494,874.153C664.019,871.947 666.179,870.247 668.974,869.054C671.769,867.861 674.957,867.265 678.538,867.265C683.91,867.265 688.139,868.466 691.224,870.87C694.31,873.273 695.852,876.68 695.852,881.092L695.852,884.13L670.843,884.13C671.182,885.949 672.204,887.409 673.91,888.507C675.616,889.606 677.776,890.155 680.389,890.155C684.431,890.155 687.589,889.116 689.863,887.039L695.018,891.133C693.445,892.713 691.315,893.944 688.629,894.828C685.943,895.712 682.967,896.154 679.7,896.154ZM678.502,873.29C676.421,873.29 674.733,873.788 673.438,874.783C672.144,875.779 671.315,877.204 670.952,879.058L685.544,879.058L685.544,878.465C685.495,876.817 684.866,875.543 683.656,874.642C682.446,873.741 680.728,873.29 678.502,873.29Z" style="fill:rgb(44,44,84);fill-rule:nonzero;"/>
                        <path d="M719.882,896.154C714.122,896.154 709.434,894.901 705.816,892.395C702.199,889.889 700.39,886.55 700.39,882.379L700.39,881.658C700.39,878.86 701.152,876.358 702.676,874.153C704.201,871.947 706.361,870.247 709.156,869.054C711.951,867.861 715.139,867.265 718.72,867.265C724.092,867.265 728.321,868.466 731.406,870.87C734.492,873.273 736.034,876.68 736.034,881.092L736.034,884.13L711.025,884.13C711.364,885.949 712.386,887.409 714.092,888.507C715.798,889.606 717.958,890.155 720.571,890.155C724.613,890.155 727.771,889.116 730.045,887.039L735.2,891.133C733.627,892.713 731.497,893.944 728.811,894.828C726.125,895.712 723.149,896.154 719.882,896.154ZM718.684,873.29C716.603,873.29 714.915,873.788 713.62,874.783C712.326,875.779 711.497,877.204 711.134,879.058L725.726,879.058L725.726,878.465C725.677,876.817 725.048,875.543 723.838,874.642C722.628,873.741 720.91,873.29 718.684,873.29Z" style="fill:rgb(44,44,84);fill-rule:nonzero;"/>
                        <path d="M777.342,881.967C777.342,886.258 775.968,889.696 773.222,892.279C770.475,894.863 766.767,896.154 762.096,896.154C758.128,896.154 754.922,895.176 752.477,893.219L752.477,906.351L741.987,906.351L741.987,867.78L751.715,867.78L752.078,870.509C754.619,868.346 757.934,867.265 762.024,867.265C766.864,867.265 770.626,868.535 773.313,871.076C775.999,873.616 777.342,877.118 777.342,881.581L777.342,881.967ZM766.851,881.426C766.851,878.834 766.204,876.835 764.91,875.427C763.615,874.019 761.733,873.316 759.265,873.316C755.974,873.316 753.712,874.208 752.477,875.994L752.477,887.4C753.76,889.237 756.047,890.155 759.338,890.155C764.347,890.155 766.851,887.245 766.851,881.426Z" style="fill:rgb(44,44,84);fill-rule:nonzero;"/>
                        <path d="M830.446,885.804C830.446,884.345 829.72,883.224 828.268,882.443C826.816,881.662 824.203,880.838 820.428,879.972C816.653,879.105 813.664,878.251 811.462,877.41C805.461,875.109 802.46,872.011 802.46,868.115C802.46,866.089 803.265,864.282 804.874,862.695C806.483,861.107 808.794,859.867 811.807,858.974C814.819,858.081 818.201,857.635 821.952,857.635C825.727,857.635 829.091,858.12 832.043,859.09C834.995,860.06 837.288,861.429 838.921,863.197C840.555,864.965 841.372,866.973 841.372,869.222L830.482,869.222C830.482,867.505 829.72,866.171 828.195,865.218C826.671,864.265 824.529,863.789 821.771,863.789C819.109,863.789 817.04,864.188 815.564,864.986C814.087,865.784 813.349,866.836 813.349,868.14C813.349,869.359 814.214,870.38 815.945,871.204C817.675,872.028 820.222,872.801 823.585,873.522C829.78,874.843 834.293,876.483 837.125,878.44C839.956,880.396 841.372,882.834 841.372,885.752C841.372,888.996 839.641,891.541 836.181,893.386C832.72,895.232 828.062,896.154 822.206,896.154C818.141,896.154 814.438,895.626 811.099,894.571C807.759,893.515 805.213,892.069 803.458,890.232C801.704,888.396 800.827,886.267 800.827,883.847L811.752,883.847C811.752,887.984 815.237,890.052 822.206,890.052C824.795,890.052 826.816,889.679 828.268,888.932C829.72,888.185 830.446,887.142 830.446,885.804Z" style="fill:rgb(44,44,84);fill-rule:nonzero;"/>
                        <path d="M866.127,896.154C860.368,896.154 855.679,894.901 852.061,892.395C848.444,889.889 846.635,886.55 846.635,882.379L846.635,881.658C846.635,878.86 847.397,876.358 848.922,874.153C850.446,871.947 852.606,870.247 855.401,869.054C858.196,867.861 861.384,867.265 864.965,867.265C870.337,867.265 874.566,868.466 877.651,870.87C880.737,873.273 882.279,876.68 882.279,881.092L882.279,884.13L857.27,884.13C857.609,885.949 858.631,887.409 860.337,888.507C862.043,889.606 864.203,890.155 866.816,890.155C870.858,890.155 874.016,889.116 876.29,887.039L881.445,891.133C879.872,892.713 877.742,893.944 875.056,894.828C872.37,895.712 869.394,896.154 866.127,896.154ZM864.929,873.29C862.848,873.29 861.16,873.788 859.865,874.783C858.571,875.779 857.742,877.204 857.379,879.058L871.971,879.058L871.971,878.465C871.922,876.817 871.293,875.543 870.083,874.642C868.873,873.741 867.155,873.29 864.929,873.29Z" style="fill:rgb(44,44,84);fill-rule:nonzero;"/>
                        <path d="M910.991,895.639C910.507,894.97 910.156,894.137 909.939,893.142C907.398,895.15 904.095,896.154 900.029,896.154C896.182,896.154 892.993,895.365 890.465,893.786C887.936,892.206 886.672,890.215 886.672,887.812C886.672,884.859 888.214,882.594 891.3,881.014C894.385,879.435 898.844,878.637 904.675,878.62L909.503,878.62L909.503,877.023C909.503,875.736 909.037,874.706 908.106,873.934C907.174,873.161 905.704,872.775 903.695,872.775C901.929,872.775 900.543,873.075 899.539,873.676C898.535,874.277 898.033,875.101 898.033,876.148L887.543,876.148C887.543,874.534 888.244,873.041 889.648,871.668C891.052,870.295 893.036,869.217 895.601,868.436C898.166,867.655 901.046,867.265 904.24,867.265C909.08,867.265 912.921,868.127 915.764,869.853C918.608,871.578 920.03,874.002 920.03,877.126L920.03,889.202C920.054,891.846 920.574,893.846 921.59,895.202L921.59,895.639L910.991,895.639ZM902.316,890.464C903.865,890.464 905.292,890.219 906.599,889.73C907.906,889.241 908.874,888.584 909.503,887.76L909.503,882.971L905.583,882.971C900.332,882.971 897.537,884.259 897.198,886.833L897.162,887.271C897.162,888.198 897.621,888.962 898.541,889.563C899.461,890.164 900.719,890.464 902.316,890.464Z" style="fill:rgb(44,44,84);fill-rule:nonzero;"/>
                    </g>
                    <g transform="matrix(1,0,0,0.997245,-298.868,-768.081)">
                        <path d="M409,909C409,909 433.371,892.996 467,908C500.629,923.004 539.605,917.278 556.81,913C571.625,909.316 627.331,900.027 658,911C687.537,921.568 691.6,916.621 704,915C714.965,913.567 704,932.437 704,932.437L409,932.437L409,909Z" style="fill:rgb(0,134,154);stroke:white;stroke-width:1.84px;"/>
                    </g>
                </g>
            </g>
        </g>
    </g>
    <defs>
        <linearGradient id="_Linear1" x1="0" y1="0" x2="1" y2="0" gradientUnits="userSpaceOnUse" gradientTransform="matrix(6.44747e-15,90.3621,-105.295,5.53308e-15,260.065,67.1328)"><stop offset="0" style="stop-color:rgb(190,228,227);stop-opacity:1"/><stop offset="1" style="stop-color:rgb(224,233,199);stop-opacity:1"/></linearGradient>
    </defs>
</svg>
