<?xml version="1.0" encoding="UTF-8" standalone="no"?>
<!DOCTYPE svg PUBLIC "-//W3C//DTD SVG 1.1//EN" "http://www.w3.org/Graphics/SVG/1.1/DTD/svg11.dtd">
<svg width="100%" height="100%" viewBox="0 0 287 108" version="1.1" xmlns="http://www.w3.org/2000/svg" xmlns:xlink="http://www.w3.org/1999/xlink" xml:space="preserve" xmlns:serif="http://www.serif.com/" style="fill-rule:evenodd;clip-rule:evenodd;stroke-linejoin:round;stroke-miterlimit:1.5;">
    <g transform="matrix(1,0,0,1,-104.326,-1751)">
        <g transform="matrix(1.03258,0,0,1.69762,0,0)">
            <g id="absurd-trolley-problems" transform="matrix(0.968444,0,0,0.686408,-10.2261,985.953)">
                <path d="M400,75.792C400,71.013 395.479,67.133 389.91,67.133L125.976,67.133C120.407,67.133 115.886,71.013 115.886,75.792L115.886,148.836C115.886,153.615 120.407,157.495 125.976,157.495L389.91,157.495C395.479,157.495 400,153.615 400,148.836L400,75.792Z" style="fill:url(#_Linear1);"/>
                <clipPath id="_clip2">
                    <path d="M400,75.792C400,71.013 395.479,67.133 389.91,67.133L125.976,67.133C120.407,67.133 115.886,71.013 115.886,75.792L115.886,148.836C115.886,153.615 120.407,157.495 125.976,157.495L389.91,157.495C395.479,157.495 400,153.615 400,148.836L400,75.792Z"/>
                </clipPath>
                <g clip-path="url(#_clip2)">
                    <g transform="matrix(1.09103,0,0,1.09103,-19.2746,-10.2245)">
                        <g transform="matrix(0.662848,0.148087,-0.209473,0.690526,462.684,-1190.89)">
                            <path d="M172.914,1820.33C172.914,1815.73 168.386,1812 162.809,1812L124.105,1812C118.528,1812 114,1815.73 114,1820.33L114,1892.67C114,1897.27 118.528,1901 124.105,1901L162.809,1901C168.386,1901 172.914,1897.27 172.914,1892.67L172.914,1820.33Z" style="fill:none;stroke:black;stroke-width:1.8px;"/>
                            <path d="M172.914,1820.33C172.914,1815.73 168.386,1812 162.809,1812L124.105,1812C118.528,1812 114,1815.73 114,1820.33L114,1892.67C114,1897.27 118.528,1901 124.105,1901L162.809,1901C168.386,1901 172.914,1897.27 172.914,1892.67L172.914,1820.33Z" style="fill:url(#_Linear3);"/>
                        </g>
                        <g transform="matrix(0.0965013,0.02165,-0.0252278,0.0828154,156.017,74.2554)">
                            <path d="M276.909,97.664C276.909,66.334 251.474,40.899 220.144,40.899L106.615,40.899C75.285,40.899 49.85,66.334 49.85,97.664L49.85,211.194C49.85,242.523 75.285,267.958 106.615,267.958L220.144,267.958C251.474,267.958 276.909,242.523 276.909,211.194L276.909,97.664Z" style="fill:url(#_Linear4);"/>
                            <path d="M276.909,97.664C276.909,66.334 251.474,40.899 220.144,40.899L106.615,40.899C75.285,40.899 49.85,66.334 49.85,97.664L49.85,211.194C49.85,242.523 75.285,267.958 106.615,267.958L220.144,267.958C251.474,267.958 276.909,242.523 276.909,211.194L276.909,97.664ZM272.315,97.664L272.315,211.194C272.315,239.987 248.938,263.364 220.144,263.364C220.144,263.364 106.615,263.364 106.615,263.364C77.821,263.364 54.444,239.987 54.444,211.194C54.444,211.194 54.444,97.664 54.444,97.664C54.444,68.87 77.821,45.493 106.615,45.493C106.615,45.493 220.144,45.493 220.144,45.493C248.938,45.493 272.315,68.87 272.315,97.664Z" style="fill:rgb(29,29,31);"/>
                            <g transform="matrix(1,0,0,1,-8.13495,-19.1395)">
                                <circle cx="121.039" cy="121.324" r="42.34" style="fill:rgb(29,29,31);stroke:rgb(29,29,31);stroke-width:4.59px;stroke-linecap:round;"/>
                            </g>
                            <g transform="matrix(1,0,0,1,-8.13495,85.8618)">
                                <circle cx="121.039" cy="121.324" r="42.34" style="fill:rgb(29,29,31);stroke:rgb(29,29,31);stroke-width:4.59px;stroke-linecap:round;"/>
                            </g>
                            <g transform="matrix(0.285639,0,0,0.285639,78.3306,67.5293)">
                                <circle cx="121.039" cy="121.324" r="42.34" style="fill:white;stroke:rgb(29,29,31);stroke-width:16.09px;stroke-linecap:round;"/>
                            </g>
                            <g transform="matrix(0.285639,0,0,0.285639,78.3306,172.531)">
                                <circle cx="121.039" cy="121.324" r="42.34" style="fill:white;stroke:rgb(29,29,31);stroke-width:16.09px;stroke-linecap:round;"/>
                            </g>
                            <g transform="matrix(1,0,0,1,99.8983,33.1051)">
                                <circle cx="121.039" cy="121.324" r="42.34" style="fill:rgb(29,29,31);stroke:rgb(29,29,31);stroke-width:4.59px;stroke-linecap:round;"/>
                            </g>
                            <g transform="matrix(0.285639,0,0,0.285639,186.364,119.774)">
                                <circle cx="121.039" cy="121.324" r="42.34" style="fill:white;stroke:rgb(29,29,31);stroke-width:16.09px;stroke-linecap:round;"/>
                            </g>
                            <g transform="matrix(1,0,0,1,-3.0291,1.15719)">
                                <circle cx="223.966" cy="74.967" r="15.123" style="fill:white;stroke:rgb(29,29,31);stroke-width:4.59px;stroke-linecap:round;"/>
                            </g>
                            <g transform="matrix(1,0,0,1,-7.45412,156.29)">
                                <circle cx="223.966" cy="74.967" r="15.123" style="fill:rgb(29,29,31);stroke:rgb(29,29,31);stroke-width:4.59px;stroke-linecap:round;"/>
                            </g>
                        </g>
                        <g transform="matrix(0.0958759,0.023608,-0.0275095,0.0822786,158.646,117.419)">
                            <path d="M276.909,97.664C276.909,66.334 251.474,40.899 220.144,40.899L106.615,40.899C75.285,40.899 49.85,66.334 49.85,97.664L49.85,211.194C49.85,242.523 75.285,267.958 106.615,267.958L220.144,267.958C251.474,267.958 276.909,242.523 276.909,211.194L276.909,97.664Z" style="fill:url(#_Linear5);"/>
                            <path d="M276.909,97.664C276.909,66.334 251.474,40.899 220.144,40.899L106.615,40.899C75.285,40.899 49.85,66.334 49.85,97.664L49.85,211.194C49.85,242.523 75.285,267.958 106.615,267.958L220.144,267.958C251.474,267.958 276.909,242.523 276.909,211.194L276.909,97.664ZM272.315,97.664L272.315,211.194C272.315,239.987 248.938,263.364 220.144,263.364C220.144,263.364 106.615,263.364 106.615,263.364C77.821,263.364 54.444,239.987 54.444,211.194C54.444,211.194 54.444,97.664 54.444,97.664C54.444,68.87 77.821,45.493 106.615,45.493C106.615,45.493 220.144,45.493 220.144,45.493C248.938,45.493 272.315,68.87 272.315,97.664Z" style="fill:rgb(29,29,31);"/>
                            <g transform="matrix(1,0,0,1,-8.13495,-19.1395)">
                                <circle cx="121.039" cy="121.324" r="42.34" style="fill:rgb(29,29,31);stroke:rgb(29,29,31);stroke-width:4.59px;stroke-linecap:round;"/>
                            </g>
                            <g transform="matrix(1,0,0,1,-8.13495,85.8618)">
                                <circle cx="121.039" cy="121.324" r="42.34" style="fill:rgb(29,29,31);stroke:rgb(29,29,31);stroke-width:4.59px;stroke-linecap:round;"/>
                            </g>
                            <g transform="matrix(0.285639,0,0,0.285639,78.3306,67.5293)">
                                <circle cx="121.039" cy="121.324" r="42.34" style="fill:white;stroke:rgb(29,29,31);stroke-width:16.09px;stroke-linecap:round;"/>
                            </g>
                            <g transform="matrix(0.285639,0,0,0.285639,78.3306,172.531)">
                                <circle cx="121.039" cy="121.324" r="42.34" style="fill:white;stroke:rgb(29,29,31);stroke-width:16.09px;stroke-linecap:round;"/>
                            </g>
                            <g transform="matrix(1,0,0,1,99.8983,33.1051)">
                                <circle cx="121.039" cy="121.324" r="42.34" style="fill:rgb(29,29,31);stroke:rgb(29,29,31);stroke-width:4.59px;stroke-linecap:round;"/>
                            </g>
                            <g transform="matrix(0.285639,0,0,0.285639,186.364,119.774)">
                                <circle cx="121.039" cy="121.324" r="42.34" style="fill:white;stroke:rgb(29,29,31);stroke-width:16.09px;stroke-linecap:round;"/>
                            </g>
                            <g transform="matrix(1,0,0,1,-3.0291,1.15719)">
                                <circle cx="223.966" cy="74.967" r="15.123" style="fill:white;stroke:rgb(29,29,31);stroke-width:4.59px;stroke-linecap:round;"/>
                            </g>
                            <g transform="matrix(1,0,0,1,-7.45412,156.29)">
                                <circle cx="223.966" cy="74.967" r="15.123" style="fill:rgb(29,29,31);stroke:rgb(29,29,31);stroke-width:4.59px;stroke-linecap:round;"/>
                            </g>
                        </g>
                    </g>
                    <g transform="matrix(3.91363,0.872708,-1.28443,4.24205,154.252,89.8933)">
                        <g transform="matrix(4.35577e-18,-0.0563204,0.043653,2.1163e-18,-32.4804,14.1936)">
                            <path d="M229.266,582.808C229.266,579.405 227.571,576.641 225.482,576.641L68.225,576.641C66.137,576.641 64.441,579.405 64.441,582.808L64.441,595.143C64.441,598.547 66.137,601.31 68.225,601.31L225.482,601.31C227.571,601.31 229.266,598.547 229.266,595.143L229.266,582.808Z" style="fill:url(#_Linear6);"/>
                            <path d="M231.179,582.808C231.179,577.685 228.626,573.525 225.482,573.525L68.225,573.525C65.081,573.525 62.529,577.685 62.529,582.808L62.529,595.143C62.529,600.266 65.081,604.426 68.225,604.426C68.225,604.426 225.482,604.426 225.482,604.426C228.626,604.426 231.179,600.266 231.179,595.143C231.179,595.143 231.179,582.808 231.179,582.808ZM229.266,582.808C229.266,579.405 227.571,576.641 225.482,576.641L68.225,576.641C66.137,576.641 64.441,579.405 64.441,582.808L64.441,595.143C64.441,598.547 66.137,601.31 68.225,601.31L225.482,601.31C227.571,601.31 229.266,598.547 229.266,595.143L229.266,582.808Z"/>
                        </g>
                        <g transform="matrix(0.0318413,-0.0128002,0.0122277,0.019067,-15.2097,-4.31079)">
                            <path d="M235.647,461.704C235.647,446.149 226.097,433.521 214.332,433.521L130.416,433.521C118.652,433.521 109.101,446.149 109.101,461.704C109.101,477.258 118.652,489.886 130.416,489.886L214.332,489.886C226.097,489.886 235.647,477.258 235.647,461.704Z" style="fill:url(#_Linear7);"/>
                            <path d="M239.456,461.703C239.456,443.37 228.199,428.485 214.332,428.485C214.332,428.485 130.416,428.485 130.416,428.485C116.549,428.485 105.292,443.37 105.292,461.704C105.292,480.037 116.549,494.922 130.416,494.922C130.416,494.922 214.332,494.922 214.332,494.922C228.199,494.922 239.456,480.038 239.456,461.704L239.456,461.703ZM235.647,461.704C235.647,446.149 226.097,433.521 214.332,433.521L130.416,433.521C118.652,433.521 109.101,446.149 109.101,461.704C109.101,477.258 118.652,489.886 130.416,489.886L214.332,489.886C226.097,489.886 235.647,477.258 235.647,461.704Z"/>
                        </g>
                        <g transform="matrix(0.0671911,0,0,0.0436768,-16.6374,-16.756)">
                            <path d="M227.467,396.993C227.467,394.231 225.626,391.989 223.359,391.989C221.091,391.989 219.251,394.231 219.251,396.993L219.251,444.57C219.251,447.332 221.091,449.574 223.359,449.574C225.626,449.574 227.467,447.332 227.467,444.57L227.467,396.993Z" style="fill:url(#_Linear8);"/>
                            <path d="M229.491,396.993C229.491,392.87 226.743,389.523 223.359,389.523C219.974,389.523 217.226,392.87 217.226,396.993C217.226,396.993 217.226,444.57 217.226,444.57C217.226,448.693 219.974,452.04 223.359,452.04C226.743,452.04 229.491,448.693 229.491,444.57C229.491,444.57 229.491,396.993 229.491,396.993ZM227.467,396.993C227.467,394.231 225.626,391.989 223.359,391.989C221.091,391.989 219.251,394.231 219.251,396.993L219.251,444.57C219.251,447.332 221.091,449.574 223.359,449.574C225.626,449.574 227.467,447.332 227.467,444.57L227.467,396.993Z"/>
                        </g>
                        <g transform="matrix(0.0671911,0,0,0.0531978,-16.6893,-20.5679)">
                            <circle cx="167.193" cy="440.362" r="3.898"/>
                            <path d="M167.193,434.439C163.924,434.439 161.27,437.093 161.27,440.362C161.27,443.63 163.924,446.284 167.193,446.284C170.461,446.284 173.115,443.63 173.115,440.362C173.115,437.093 170.461,434.439 167.193,434.439ZM167.193,436.464C169.344,436.464 171.091,438.21 171.091,440.362C171.091,442.513 169.344,444.26 167.193,444.26C165.041,444.26 163.295,442.513 163.295,440.362C163.295,438.21 165.041,436.464 167.193,436.464Z"/>
                        </g>
                        <g transform="matrix(0.0671911,0,0,0.0531978,-13.9628,-21.6763)">
                            <circle cx="167.193" cy="440.362" r="3.898"/>
                            <path d="M167.193,434.439C163.924,434.439 161.27,437.093 161.27,440.362C161.27,443.63 163.924,446.284 167.193,446.284C170.461,446.284 173.115,443.63 173.115,440.362C173.115,437.093 170.461,434.439 167.193,434.439ZM167.193,436.464C169.344,436.464 171.091,438.21 171.091,440.362C171.091,442.513 169.344,444.26 167.193,444.26C165.041,444.26 163.295,442.513 163.295,440.362C163.295,438.21 165.041,436.464 167.193,436.464Z"/>
                        </g>
                    </g>
                    <g transform="matrix(0.910482,0,0,0.781356,49.0521,-1290.18)">
                        <path d="M191.308,1766.94L197.778,1766.94C199.547,1766.94 201.017,1767.21 202.188,1767.77C203.358,1768.32 204.294,1769.06 204.994,1769.98C205.695,1770.9 206.188,1771.95 206.473,1773.13C206.759,1774.31 206.902,1775.53 206.902,1776.78C206.902,1778.18 206.722,1779.49 206.363,1780.69C206.003,1781.9 205.446,1782.95 204.69,1783.83C203.934,1784.72 202.98,1785.41 201.828,1785.92C200.676,1786.42 199.308,1786.68 197.722,1786.68L191.308,1786.68L191.308,1766.94ZM197.833,1785.63C198.755,1785.63 199.681,1785.49 200.612,1785.2C201.543,1784.91 202.386,1784.43 203.142,1783.76C203.897,1783.09 204.51,1782.18 204.98,1781.05C205.45,1779.92 205.685,1778.49 205.685,1776.78C205.685,1775.43 205.552,1774.28 205.284,1773.32C205.017,1772.37 204.667,1771.56 204.234,1770.9C203.801,1770.25 203.303,1769.73 202.741,1769.36C202.179,1768.98 201.598,1768.69 200.999,1768.49C200.4,1768.28 199.801,1768.15 199.202,1768.08C198.603,1768.02 198.063,1767.99 197.584,1767.99L192.524,1767.99L192.524,1785.63L197.833,1785.63Z" style="fill:none;fill-rule:nonzero;stroke:black;stroke-width:0.22px;stroke-miterlimit:2;"/>
                        <path d="M209.971,1779.71L209.971,1779.88C209.971,1780.71 210.082,1781.5 210.303,1782.26C210.524,1783.01 210.851,1783.67 211.284,1784.25C211.717,1784.82 212.261,1785.27 212.916,1785.6C213.57,1785.93 214.33,1786.1 215.197,1786.1C216.616,1786.1 217.74,1785.72 218.57,1784.98C219.399,1784.23 219.971,1783.19 220.284,1781.87L221.335,1781.87C221.021,1783.53 220.344,1784.8 219.303,1785.68C218.261,1786.57 216.883,1787.01 215.169,1787.01C214.118,1787.01 213.201,1786.82 212.418,1786.44C211.635,1786.07 210.98,1785.55 210.455,1784.89C209.929,1784.24 209.538,1783.47 209.28,1782.57C209.022,1781.68 208.893,1780.72 208.893,1779.68C208.893,1778.69 209.026,1777.73 209.294,1776.82C209.561,1775.91 209.962,1775.11 210.496,1774.42C211.031,1773.73 211.699,1773.17 212.501,1772.76C213.303,1772.34 214.247,1772.13 215.335,1772.13C216.33,1772.13 217.21,1772.32 217.975,1772.69C218.74,1773.06 219.381,1773.56 219.897,1774.19C220.413,1774.83 220.805,1775.57 221.072,1776.41C221.339,1777.25 221.473,1778.14 221.473,1779.1C221.473,1779.19 221.468,1779.3 221.459,1779.42C221.45,1779.54 221.445,1779.64 221.445,1779.71L209.971,1779.71ZM220.395,1778.8C220.358,1778.02 220.229,1777.29 220.008,1776.6C219.786,1775.91 219.459,1775.3 219.026,1774.78C218.593,1774.25 218.068,1773.83 217.45,1773.52C216.833,1773.2 216.128,1773.05 215.335,1773.05C214.487,1773.05 213.74,1773.21 213.095,1773.53C212.45,1773.85 211.906,1774.28 211.464,1774.8C211.022,1775.33 210.681,1775.94 210.441,1776.64C210.201,1777.34 210.054,1778.06 209.999,1778.8L220.395,1778.8Z" style="fill:none;fill-rule:nonzero;stroke:black;stroke-width:0.22px;stroke-miterlimit:2;"/>
                        <path d="M224.404,1781.95C224.441,1782.61 224.588,1783.2 224.846,1783.71C225.104,1784.21 225.441,1784.65 225.855,1785.01C226.27,1785.37 226.754,1785.64 227.307,1785.82C227.86,1786.01 228.459,1786.1 229.104,1786.1C229.565,1786.1 230.058,1786.06 230.583,1785.97C231.109,1785.89 231.597,1785.74 232.049,1785.52C232.5,1785.3 232.874,1784.99 233.169,1784.59C233.464,1784.19 233.611,1783.69 233.611,1783.08C233.611,1782.29 233.371,1781.69 232.892,1781.29C232.413,1780.88 231.809,1780.57 231.081,1780.35C230.353,1780.13 229.57,1779.95 228.731,1779.81C227.892,1779.67 227.109,1779.46 226.381,1779.18C225.653,1778.91 225.049,1778.52 224.57,1778.01C224.09,1777.5 223.851,1776.76 223.851,1775.79C223.851,1775.08 224.008,1774.5 224.321,1774.03C224.634,1773.56 225.035,1773.19 225.524,1772.91C226.012,1772.63 226.56,1772.43 227.169,1772.32C227.777,1772.19 228.385,1772.13 228.994,1772.13C229.731,1772.13 230.422,1772.22 231.067,1772.38C231.712,1772.55 232.27,1772.82 232.74,1773.19C233.21,1773.55 233.579,1774.02 233.846,1774.6C234.113,1775.17 234.247,1775.86 234.247,1776.67L233.196,1776.67C233.196,1776.02 233.09,1775.47 232.878,1775.01C232.666,1774.55 232.371,1774.18 231.994,1773.89C231.616,1773.61 231.169,1773.39 230.653,1773.26C230.136,1773.12 229.583,1773.05 228.994,1773.05C228.514,1773.05 228.03,1773.09 227.542,1773.19C227.054,1773.28 226.616,1773.43 226.229,1773.66C225.842,1773.88 225.524,1774.16 225.275,1774.51C225.026,1774.86 224.902,1775.29 224.902,1775.79C224.902,1776.36 225.04,1776.82 225.316,1777.17C225.593,1777.52 225.957,1777.8 226.408,1778.01C226.86,1778.22 227.367,1778.39 227.929,1778.52C228.491,1778.65 229.058,1778.78 229.63,1778.91C230.33,1779.04 230.989,1779.19 231.606,1779.37C232.224,1779.54 232.758,1779.78 233.21,1780.08C233.662,1780.39 234.017,1780.78 234.275,1781.26C234.533,1781.74 234.662,1782.35 234.662,1783.08C234.662,1783.86 234.487,1784.49 234.136,1784.99C233.786,1785.49 233.344,1785.89 232.809,1786.19C232.275,1786.5 231.68,1786.71 231.026,1786.83C230.371,1786.95 229.731,1787.01 229.104,1787.01C228.293,1787.01 227.542,1786.9 226.851,1786.69C226.16,1786.48 225.556,1786.16 225.04,1785.72C224.524,1785.29 224.118,1784.76 223.823,1784.13C223.528,1783.51 223.372,1782.78 223.353,1781.95L224.404,1781.95Z" style="fill:none;fill-rule:nonzero;stroke:black;stroke-width:0.22px;stroke-miterlimit:2;"/>
                        <path d="M237.454,1769.79L237.454,1766.94L238.505,1766.94L238.505,1769.79L237.454,1769.79ZM237.454,1786.68L237.454,1772.47L238.505,1772.47L238.505,1786.68L237.454,1786.68Z" style="fill:none;fill-rule:nonzero;stroke:black;stroke-width:0.22px;stroke-miterlimit:2;"/>
                        <path d="M253.601,1772.47L253.601,1785.93C253.601,1786.72 253.509,1787.49 253.325,1788.24C253.141,1788.99 252.823,1789.65 252.371,1790.22C251.919,1790.79 251.297,1791.25 250.505,1791.59C249.712,1791.93 248.707,1792.1 247.491,1792.1C246.735,1792.1 246.025,1792.02 245.362,1791.86C244.698,1791.71 244.118,1791.46 243.62,1791.12C243.122,1790.78 242.721,1790.32 242.417,1789.76C242.113,1789.2 241.943,1788.5 241.906,1787.67L242.956,1787.67C243.012,1788.3 243.168,1788.84 243.426,1789.28C243.685,1789.72 244.021,1790.08 244.436,1790.37C244.85,1790.65 245.316,1790.86 245.832,1790.99C246.348,1791.12 246.901,1791.18 247.491,1791.18C248.468,1791.18 249.283,1791.04 249.938,1790.74C250.592,1790.45 251.113,1790.07 251.5,1789.6C251.887,1789.12 252.159,1788.59 252.316,1787.99C252.472,1787.39 252.551,1786.79 252.551,1786.18L252.551,1782.92L252.495,1782.92C251.998,1783.97 251.32,1784.77 250.463,1785.32C249.606,1785.88 248.569,1786.15 247.353,1786.15C246.302,1786.15 245.394,1785.97 244.629,1785.61C243.864,1785.25 243.228,1784.76 242.721,1784.12C242.214,1783.49 241.837,1782.74 241.588,1781.89C241.339,1781.05 241.215,1780.13 241.215,1779.13C241.215,1778.19 241.348,1777.3 241.615,1776.45C241.883,1775.6 242.274,1774.86 242.791,1774.22C243.307,1773.59 243.947,1773.08 244.712,1772.7C245.477,1772.32 246.357,1772.13 247.353,1772.13C248.477,1772.13 249.514,1772.42 250.463,1772.99C251.412,1773.56 252.09,1774.38 252.495,1775.42L252.551,1775.42L252.551,1772.47L253.601,1772.47ZM247.353,1773.05C246.486,1773.05 245.735,1773.22 245.099,1773.57C244.463,1773.92 243.938,1774.38 243.523,1774.95C243.108,1775.53 242.795,1776.18 242.583,1776.9C242.371,1777.63 242.265,1778.37 242.265,1779.13C242.265,1779.96 242.371,1780.75 242.583,1781.49C242.795,1782.24 243.118,1782.89 243.551,1783.44C243.984,1784 244.519,1784.43 245.155,1784.76C245.79,1785.08 246.523,1785.24 247.353,1785.24C248.219,1785.24 248.975,1785.08 249.62,1784.74C250.265,1784.41 250.804,1783.96 251.237,1783.39C251.67,1782.82 251.993,1782.17 252.205,1781.44C252.417,1780.71 252.523,1779.94 252.523,1779.13C252.523,1778.34 252.417,1777.57 252.205,1776.84C251.993,1776.1 251.67,1775.45 251.237,1774.89C250.804,1774.32 250.265,1773.88 249.62,1773.55C248.975,1773.21 248.219,1773.05 247.353,1773.05Z" style="fill:none;fill-rule:nonzero;stroke:black;stroke-width:0.22px;stroke-miterlimit:2;"/>
                        <path d="M256.698,1772.47L257.749,1772.47L257.749,1775.51L257.804,1775.51C257.988,1774.97 258.251,1774.5 258.592,1774.08C258.933,1773.67 259.329,1773.32 259.781,1773.02C260.233,1772.73 260.726,1772.5 261.26,1772.36C261.795,1772.21 262.338,1772.13 262.891,1772.13C263.721,1772.13 264.426,1772.24 265.007,1772.44C265.587,1772.64 266.062,1772.91 266.431,1773.24C266.799,1773.57 267.09,1773.95 267.301,1774.36C267.513,1774.78 267.666,1775.19 267.758,1775.62C267.85,1776.04 267.905,1776.45 267.924,1776.85C267.942,1777.25 267.951,1777.59 267.951,1777.89L267.951,1786.68L266.901,1786.68L266.901,1777.69C266.901,1777.34 266.873,1776.9 266.818,1776.37C266.762,1775.83 266.601,1775.32 266.334,1774.83C266.066,1774.34 265.661,1773.92 265.117,1773.57C264.573,1773.22 263.822,1773.05 262.864,1773.05C262.053,1773.05 261.334,1773.19 260.707,1773.49C260.08,1773.79 259.546,1774.19 259.104,1774.72C258.661,1775.25 258.325,1775.87 258.094,1776.6C257.864,1777.33 257.749,1778.13 257.749,1778.99L257.749,1786.68L256.698,1786.68L256.698,1772.47Z" style="fill:none;fill-rule:nonzero;stroke:black;stroke-width:0.22px;stroke-miterlimit:2;"/>
                        <path d="M283.96,1773.38L280.863,1773.38L280.863,1783.31C280.863,1783.88 280.928,1784.33 281.057,1784.66C281.186,1784.99 281.384,1785.25 281.651,1785.42C281.919,1785.6 282.241,1785.7 282.619,1785.74C282.997,1785.78 283.435,1785.78 283.932,1785.77L283.932,1786.68C283.398,1786.72 282.877,1786.71 282.37,1786.66C281.863,1786.62 281.416,1786.48 281.029,1786.25C280.642,1786.02 280.333,1785.67 280.103,1785.21C279.873,1784.75 279.776,1784.12 279.813,1783.31L279.813,1773.38L277.186,1773.38L277.186,1772.47L279.813,1772.47L279.813,1768.04L280.863,1768.04L280.863,1772.47L283.96,1772.47L283.96,1773.38Z" style="fill:none;fill-rule:nonzero;stroke:black;stroke-width:0.22px;stroke-miterlimit:2;"/>
                        <path d="M286.946,1766.94L286.946,1775.51L287.002,1775.51C287.186,1774.97 287.449,1774.5 287.79,1774.08C288.131,1773.67 288.527,1773.32 288.978,1773.02C289.43,1772.73 289.923,1772.5 290.458,1772.36C290.992,1772.21 291.536,1772.13 292.089,1772.13C292.918,1772.13 293.623,1772.24 294.204,1772.44C294.785,1772.64 295.259,1772.91 295.628,1773.24C295.997,1773.57 296.287,1773.95 296.499,1774.36C296.711,1774.78 296.863,1775.19 296.955,1775.62C297.047,1776.04 297.103,1776.45 297.121,1776.85C297.14,1777.25 297.149,1777.59 297.149,1777.89L297.149,1786.68L296.098,1786.68L296.098,1777.69C296.098,1777.34 296.07,1776.9 296.015,1776.37C295.96,1775.83 295.799,1775.32 295.531,1774.83C295.264,1774.34 294.858,1773.92 294.315,1773.57C293.771,1773.22 293.02,1773.05 292.061,1773.05C291.25,1773.05 290.531,1773.19 289.905,1773.49C289.278,1773.79 288.743,1774.19 288.301,1774.72C287.859,1775.25 287.522,1775.87 287.292,1776.6C287.061,1777.33 286.946,1778.13 286.946,1778.99L286.946,1786.68L285.896,1786.68L285.896,1766.94L286.946,1766.94Z" style="fill:none;fill-rule:nonzero;stroke:black;stroke-width:0.22px;stroke-miterlimit:2;"/>
                        <path d="M300.66,1779.71L300.66,1779.88C300.66,1780.71 300.771,1781.5 300.992,1782.26C301.213,1783.01 301.54,1783.67 301.974,1784.25C302.407,1784.82 302.95,1785.27 303.605,1785.6C304.259,1785.93 305.02,1786.1 305.886,1786.1C307.305,1786.1 308.43,1785.72 309.259,1784.98C310.089,1784.23 310.66,1783.19 310.973,1781.87L312.024,1781.87C311.711,1783.53 311.033,1784.8 309.992,1785.68C308.95,1786.57 307.572,1787.01 305.858,1787.01C304.808,1787.01 303.891,1786.82 303.107,1786.44C302.324,1786.07 301.669,1785.55 301.144,1784.89C300.619,1784.24 300.227,1783.47 299.969,1782.57C299.711,1781.68 299.582,1780.72 299.582,1779.68C299.582,1778.69 299.716,1777.73 299.983,1776.82C300.25,1775.91 300.651,1775.11 301.186,1774.42C301.72,1773.73 302.388,1773.17 303.19,1772.76C303.992,1772.34 304.937,1772.13 306.024,1772.13C307.019,1772.13 307.9,1772.32 308.665,1772.69C309.43,1773.06 310.07,1773.56 310.586,1774.19C311.102,1774.83 311.494,1775.57 311.761,1776.41C312.029,1777.25 312.162,1778.14 312.162,1779.1C312.162,1779.19 312.158,1779.3 312.148,1779.42C312.139,1779.54 312.135,1779.64 312.135,1779.71L300.66,1779.71ZM311.084,1778.8C311.047,1778.02 310.918,1777.29 310.697,1776.6C310.476,1775.91 310.148,1775.3 309.715,1774.78C309.282,1774.25 308.757,1773.83 308.139,1773.52C307.522,1773.2 306.817,1773.05 306.024,1773.05C305.176,1773.05 304.43,1773.21 303.785,1773.53C303.139,1773.85 302.596,1774.28 302.153,1774.8C301.711,1775.33 301.37,1775.94 301.13,1776.64C300.891,1777.34 300.743,1778.06 300.688,1778.8L311.084,1778.8Z" style="fill:none;fill-rule:nonzero;stroke:black;stroke-width:0.22px;stroke-miterlimit:2;"/>
                        <path d="M191.308,1802.88L192.828,1802.88L205.298,1820.99L205.354,1820.99L205.354,1802.88L206.57,1802.88L206.57,1822.62L205.132,1822.62L192.58,1804.37L192.524,1804.37L192.524,1822.62L191.308,1822.62L191.308,1802.88Z" style="fill:none;fill-rule:nonzero;stroke:black;stroke-width:0.22px;stroke-miterlimit:2;"/>
                        <path d="M210.275,1815.65L210.275,1815.82C210.275,1816.65 210.386,1817.44 210.607,1818.2C210.828,1818.95 211.155,1819.62 211.588,1820.19C212.022,1820.76 212.565,1821.21 213.22,1821.54C213.874,1821.88 214.634,1822.04 215.501,1822.04C216.92,1822.04 218.045,1821.67 218.874,1820.92C219.703,1820.17 220.275,1819.14 220.588,1817.81L221.639,1817.81C221.326,1819.47 220.648,1820.74 219.607,1821.63C218.565,1822.51 217.187,1822.95 215.473,1822.95C214.422,1822.95 213.505,1822.77 212.722,1822.39C211.939,1822.01 211.284,1821.49 210.759,1820.84C210.234,1820.18 209.842,1819.41 209.584,1818.52C209.326,1817.62 209.197,1816.66 209.197,1815.63C209.197,1814.63 209.33,1813.68 209.598,1812.77C209.865,1811.85 210.266,1811.05 210.8,1810.36C211.335,1809.67 212.003,1809.12 212.805,1808.7C213.607,1808.29 214.552,1808.08 215.639,1808.08C216.634,1808.08 217.515,1808.26 218.28,1808.63C219.044,1809 219.685,1809.5 220.201,1810.14C220.717,1810.78 221.109,1811.51 221.376,1812.35C221.644,1813.19 221.777,1814.09 221.777,1815.05C221.777,1815.14 221.773,1815.25 221.763,1815.36C221.754,1815.48 221.75,1815.58 221.75,1815.65L210.275,1815.65ZM220.699,1814.74C220.662,1813.97 220.533,1813.24 220.312,1812.54C220.091,1811.85 219.763,1811.25 219.33,1810.72C218.897,1810.19 218.372,1809.78 217.754,1809.46C217.137,1809.15 216.432,1808.99 215.639,1808.99C214.791,1808.99 214.045,1809.15 213.399,1809.48C212.754,1809.8 212.211,1810.22 211.768,1810.75C211.326,1811.27 210.985,1811.88 210.745,1812.59C210.506,1813.29 210.358,1814.01 210.303,1814.74L220.699,1814.74Z" style="fill:none;fill-rule:nonzero;stroke:black;stroke-width:0.22px;stroke-miterlimit:2;"/>
                        <path d="M227.749,1815.16L222.551,1808.41L224.017,1808.41L228.468,1814.36L232.947,1808.41L234.302,1808.41L229.159,1815.16L234.772,1822.62L233.335,1822.62L228.468,1815.96L223.491,1822.62L222.164,1822.62L227.749,1815.16Z" style="fill:none;fill-rule:nonzero;stroke:black;stroke-width:0.22px;stroke-miterlimit:2;"/>
                        <path d="M242.486,1809.32L239.39,1809.32L239.39,1819.25C239.39,1819.82 239.454,1820.27 239.583,1820.6C239.712,1820.94 239.91,1821.19 240.178,1821.36C240.445,1821.54 240.768,1821.64 241.145,1821.68C241.523,1821.72 241.961,1821.73 242.459,1821.71L242.459,1822.62C241.924,1822.66 241.403,1822.65 240.897,1822.61C240.39,1822.56 239.943,1822.42 239.556,1822.19C239.168,1821.96 238.86,1821.62 238.629,1821.16C238.399,1820.7 238.302,1820.06 238.339,1819.25L238.339,1809.32L235.712,1809.32L235.712,1808.41L238.339,1808.41L238.339,1803.99L239.39,1803.99L239.39,1808.41L242.486,1808.41L242.486,1809.32Z" style="fill:none;fill-rule:nonzero;stroke:black;stroke-width:0.22px;stroke-miterlimit:2;"/>
                        <path d="M253.463,1805.73L253.463,1802.88L254.514,1802.88L254.514,1805.73L253.463,1805.73ZM253.463,1822.62L253.463,1808.41L254.514,1808.41L254.514,1822.62L253.463,1822.62Z" style="fill:none;fill-rule:nonzero;stroke:black;stroke-width:0.22px;stroke-miterlimit:2;"/>
                        <path d="M258.053,1802.88L266.458,1802.88C267.011,1802.88 267.624,1802.94 268.297,1803.07C268.97,1803.2 269.596,1803.47 270.177,1803.86C270.758,1804.26 271.241,1804.82 271.629,1805.55C272.016,1806.28 272.209,1807.23 272.209,1808.41C272.209,1810.14 271.675,1811.48 270.606,1812.42C269.536,1813.36 268.007,1813.83 266.016,1813.83L259.269,1813.83L259.269,1822.62L258.053,1822.62L258.053,1802.88ZM259.269,1812.78L266.209,1812.78C267.094,1812.78 267.845,1812.65 268.463,1812.38C269.08,1812.11 269.573,1811.77 269.942,1811.34C270.311,1810.92 270.578,1810.45 270.744,1809.93C270.91,1809.41 270.993,1808.9 270.993,1808.38C270.993,1808.01 270.937,1807.58 270.827,1807.07C270.716,1806.56 270.495,1806.07 270.163,1805.6C269.831,1805.13 269.366,1804.74 268.767,1804.41C268.168,1804.09 267.371,1803.93 266.375,1803.93L259.269,1803.93L259.269,1812.78Z" style="fill:none;fill-rule:nonzero;stroke:black;stroke-width:0.22px;stroke-miterlimit:2;"/>
                        <path d="M275.251,1802.88L275.251,1811.45L275.306,1811.45C275.49,1810.92 275.753,1810.44 276.094,1810.03C276.435,1809.61 276.831,1809.26 277.283,1808.96C277.734,1808.67 278.228,1808.45 278.762,1808.3C279.297,1808.15 279.84,1808.08 280.393,1808.08C281.223,1808.08 281.928,1808.18 282.509,1808.38C283.089,1808.59 283.564,1808.85 283.932,1809.18C284.301,1809.52 284.591,1809.89 284.803,1810.31C285.015,1810.72 285.167,1811.14 285.26,1811.56C285.352,1811.99 285.407,1812.4 285.426,1812.79C285.444,1813.19 285.453,1813.54 285.453,1813.83L285.453,1822.62L284.402,1822.62L284.402,1813.64C284.402,1813.29 284.375,1812.84 284.32,1812.31C284.264,1811.78 284.103,1811.26 283.836,1810.78C283.568,1810.29 283.163,1809.87 282.619,1809.52C282.075,1809.17 281.324,1808.99 280.366,1808.99C279.555,1808.99 278.836,1809.14 278.209,1809.43C277.582,1809.73 277.048,1810.14 276.605,1810.66C276.163,1811.19 275.827,1811.82 275.596,1812.54C275.366,1813.27 275.251,1814.07 275.251,1814.94L275.251,1822.62L274.2,1822.62L274.2,1802.88L275.251,1802.88Z" style="fill:none;fill-rule:nonzero;stroke:black;stroke-width:0.22px;stroke-miterlimit:2;"/>
                        <path d="M287.886,1815.52C287.886,1814.5 288.029,1813.55 288.315,1812.65C288.601,1811.76 289.02,1810.97 289.573,1810.29C290.126,1809.61 290.808,1809.07 291.619,1808.67C292.43,1808.28 293.361,1808.08 294.411,1808.08C295.462,1808.08 296.393,1808.28 297.204,1808.67C298.015,1809.07 298.697,1809.61 299.25,1810.29C299.803,1810.97 300.222,1811.76 300.508,1812.65C300.794,1813.55 300.937,1814.5 300.937,1815.52C300.937,1816.53 300.794,1817.49 300.508,1818.39C300.222,1819.3 299.803,1820.08 299.25,1820.76C298.697,1821.43 298.015,1821.96 297.204,1822.36C296.393,1822.76 295.462,1822.95 294.411,1822.95C293.361,1822.95 292.43,1822.76 291.619,1822.36C290.808,1821.96 290.126,1821.43 289.573,1820.76C289.02,1820.08 288.601,1819.3 288.315,1818.39C288.029,1817.49 287.886,1816.53 287.886,1815.52ZM288.937,1815.52C288.937,1816.36 289.057,1817.18 289.296,1817.96C289.536,1818.75 289.886,1819.44 290.347,1820.05C290.808,1820.66 291.379,1821.14 292.061,1821.5C292.743,1821.86 293.527,1822.04 294.411,1822.04C295.296,1822.04 296.08,1821.86 296.762,1821.5C297.444,1821.14 298.015,1820.66 298.476,1820.05C298.937,1819.44 299.287,1818.75 299.527,1817.96C299.766,1817.18 299.886,1816.36 299.886,1815.52C299.886,1814.67 299.766,1813.85 299.527,1813.07C299.287,1812.29 298.937,1811.59 298.476,1810.98C298.015,1810.37 297.444,1809.89 296.762,1809.53C296.08,1809.17 295.296,1808.99 294.411,1808.99C293.527,1808.99 292.743,1809.17 292.061,1809.53C291.379,1809.89 290.808,1810.37 290.347,1810.98C289.886,1811.59 289.536,1812.29 289.296,1813.07C289.057,1813.85 288.937,1814.67 288.937,1815.52Z" style="fill:none;fill-rule:nonzero;stroke:black;stroke-width:0.22px;stroke-miterlimit:2;"/>
                        <path d="M303.397,1808.41L304.448,1808.41L304.448,1811.45L304.503,1811.45C304.688,1810.92 304.95,1810.44 305.291,1810.03C305.632,1809.61 306.029,1809.26 306.48,1808.96C306.932,1808.67 307.425,1808.45 307.96,1808.3C308.494,1808.15 309.038,1808.08 309.591,1808.08C310.42,1808.08 311.125,1808.18 311.706,1808.38C312.287,1808.59 312.761,1808.85 313.13,1809.18C313.499,1809.52 313.789,1809.89 314.001,1810.31C314.213,1810.72 314.365,1811.14 314.457,1811.56C314.549,1811.99 314.605,1812.4 314.623,1812.79C314.641,1813.19 314.651,1813.54 314.651,1813.83L314.651,1822.62L313.6,1822.62L313.6,1813.64C313.6,1813.29 313.572,1812.84 313.517,1812.31C313.462,1811.78 313.3,1811.26 313.033,1810.78C312.766,1810.29 312.36,1809.87 311.817,1809.52C311.273,1809.17 310.522,1808.99 309.563,1808.99C308.752,1808.99 308.033,1809.14 307.407,1809.43C306.78,1809.73 306.245,1810.14 305.803,1810.66C305.361,1811.19 305.024,1811.82 304.794,1812.54C304.563,1813.27 304.448,1814.07 304.448,1814.94L304.448,1822.62L303.397,1822.62L303.397,1808.41Z" style="fill:none;fill-rule:nonzero;stroke:black;stroke-width:0.22px;stroke-miterlimit:2;"/>
                        <path d="M318.162,1815.65L318.162,1815.82C318.162,1816.65 318.273,1817.44 318.494,1818.2C318.715,1818.95 319.042,1819.62 319.475,1820.19C319.909,1820.76 320.452,1821.21 321.107,1821.54C321.761,1821.88 322.521,1822.04 323.388,1822.04C324.807,1822.04 325.932,1821.67 326.761,1820.92C327.59,1820.17 328.162,1819.14 328.475,1817.81L329.526,1817.81C329.213,1819.47 328.535,1820.74 327.494,1821.63C326.452,1822.51 325.074,1822.95 323.36,1822.95C322.309,1822.95 321.392,1822.77 320.609,1822.39C319.826,1822.01 319.171,1821.49 318.646,1820.84C318.121,1820.18 317.729,1819.41 317.471,1818.52C317.213,1817.62 317.084,1816.66 317.084,1815.63C317.084,1814.63 317.217,1813.68 317.485,1812.77C317.752,1811.85 318.153,1811.05 318.687,1810.36C319.222,1809.67 319.89,1809.12 320.692,1808.7C321.494,1808.29 322.439,1808.08 323.526,1808.08C324.521,1808.08 325.402,1808.26 326.167,1808.63C326.931,1809 327.572,1809.5 328.088,1810.14C328.604,1810.78 328.996,1811.51 329.263,1812.35C329.531,1813.19 329.664,1814.09 329.664,1815.05C329.664,1815.14 329.66,1815.25 329.65,1815.36C329.641,1815.48 329.637,1815.58 329.637,1815.65L318.162,1815.65ZM328.586,1814.74C328.549,1813.97 328.42,1813.24 328.199,1812.54C327.978,1811.85 327.65,1811.25 327.217,1810.72C326.784,1810.19 326.259,1809.78 325.641,1809.46C325.024,1809.15 324.319,1808.99 323.526,1808.99C322.678,1808.99 321.932,1809.15 321.286,1809.48C320.641,1809.8 320.098,1810.22 319.655,1810.75C319.213,1811.27 318.872,1811.88 318.632,1812.59C318.393,1813.29 318.245,1814.01 318.19,1814.74L328.586,1814.74Z" style="fill:none;fill-rule:nonzero;stroke:black;stroke-width:0.22px;stroke-miterlimit:2;"/>
                        <g transform="matrix(27.6492,0,0,27.6492,189.566,1786.68)">
                            <path d="M0.063,-0.714L0.297,-0.714C0.361,-0.714 0.414,-0.704 0.457,-0.684C0.499,-0.664 0.533,-0.637 0.558,-0.604C0.583,-0.571 0.601,-0.533 0.612,-0.49C0.622,-0.447 0.627,-0.403 0.627,-0.358C0.627,-0.307 0.62,-0.26 0.608,-0.217C0.595,-0.173 0.574,-0.135 0.547,-0.103C0.52,-0.071 0.485,-0.046 0.444,-0.028C0.402,-0.009 0.352,-0 0.295,-0L0.063,-0L0.063,-0.714ZM0.299,-0.038C0.332,-0.038 0.366,-0.043 0.4,-0.054C0.433,-0.064 0.464,-0.081 0.491,-0.106C0.518,-0.13 0.541,-0.163 0.558,-0.204C0.575,-0.245 0.583,-0.296 0.583,-0.358C0.583,-0.407 0.578,-0.448 0.569,-0.483C0.559,-0.518 0.546,-0.547 0.531,-0.571C0.515,-0.594 0.497,-0.613 0.477,-0.627C0.456,-0.64 0.435,-0.651 0.414,-0.658C0.392,-0.665 0.37,-0.67 0.349,-0.673C0.327,-0.675 0.307,-0.676 0.29,-0.676L0.107,-0.676L0.107,-0.038L0.299,-0.038Z" style="fill-rule:nonzero;"/>
                        </g>
                        <g transform="matrix(27.6492,0,0,27.6492,208.008,1786.68)">
                            <path d="M0.071,-0.252L0.071,-0.246C0.071,-0.216 0.075,-0.187 0.083,-0.16C0.091,-0.133 0.103,-0.109 0.119,-0.088C0.134,-0.067 0.154,-0.051 0.178,-0.039C0.201,-0.027 0.229,-0.021 0.26,-0.021C0.311,-0.021 0.352,-0.035 0.382,-0.062C0.412,-0.089 0.433,-0.126 0.444,-0.174L0.482,-0.174C0.471,-0.114 0.446,-0.068 0.409,-0.036C0.371,-0.004 0.321,0.012 0.259,0.012C0.221,0.012 0.188,0.005 0.16,-0.009C0.131,-0.022 0.108,-0.041 0.089,-0.065C0.069,-0.088 0.055,-0.116 0.046,-0.149C0.037,-0.181 0.032,-0.216 0.032,-0.253C0.032,-0.289 0.037,-0.323 0.047,-0.357C0.056,-0.39 0.071,-0.419 0.09,-0.444C0.109,-0.468 0.134,-0.489 0.163,-0.504C0.192,-0.519 0.226,-0.526 0.265,-0.526C0.301,-0.526 0.333,-0.519 0.361,-0.506C0.388,-0.493 0.411,-0.474 0.43,-0.452C0.449,-0.428 0.463,-0.402 0.473,-0.372C0.482,-0.341 0.487,-0.309 0.487,-0.274L0.486,-0.252L0.071,-0.252ZM0.448,-0.285C0.447,-0.313 0.442,-0.339 0.434,-0.365C0.426,-0.39 0.414,-0.412 0.399,-0.431C0.383,-0.45 0.364,-0.465 0.342,-0.476C0.319,-0.487 0.294,-0.493 0.265,-0.493C0.234,-0.493 0.207,-0.487 0.184,-0.476C0.161,-0.464 0.141,-0.448 0.125,-0.43C0.109,-0.411 0.097,-0.388 0.088,-0.363C0.079,-0.338 0.074,-0.312 0.072,-0.285L0.448,-0.285Z" style="fill-rule:nonzero;"/>
                        </g>
                        <g transform="matrix(27.6492,0,0,27.6492,222.358,1786.68)">
                            <path d="M0.074,-0.171C0.075,-0.147 0.081,-0.126 0.09,-0.108C0.099,-0.089 0.112,-0.074 0.127,-0.061C0.141,-0.048 0.159,-0.038 0.179,-0.031C0.199,-0.024 0.221,-0.021 0.244,-0.021C0.261,-0.021 0.279,-0.023 0.298,-0.026C0.317,-0.028 0.334,-0.034 0.351,-0.042C0.367,-0.05 0.38,-0.061 0.391,-0.076C0.402,-0.09 0.407,-0.108 0.407,-0.13C0.407,-0.159 0.398,-0.18 0.381,-0.195C0.364,-0.21 0.342,-0.221 0.316,-0.229C0.289,-0.237 0.261,-0.243 0.231,-0.249C0.2,-0.254 0.172,-0.261 0.146,-0.271C0.119,-0.281 0.097,-0.295 0.08,-0.314C0.063,-0.332 0.054,-0.359 0.054,-0.394C0.054,-0.419 0.06,-0.44 0.071,-0.458C0.082,-0.474 0.097,-0.488 0.115,-0.498C0.132,-0.508 0.152,-0.515 0.174,-0.52C0.196,-0.524 0.218,-0.526 0.24,-0.526C0.267,-0.526 0.292,-0.523 0.315,-0.517C0.338,-0.511 0.359,-0.501 0.376,-0.488C0.393,-0.475 0.406,-0.458 0.416,-0.437C0.425,-0.416 0.43,-0.391 0.43,-0.362L0.392,-0.362C0.392,-0.385 0.388,-0.405 0.381,-0.422C0.373,-0.439 0.362,-0.452 0.349,-0.463C0.335,-0.473 0.319,-0.481 0.3,-0.486C0.281,-0.491 0.261,-0.493 0.24,-0.493C0.223,-0.493 0.205,-0.491 0.188,-0.488C0.17,-0.485 0.154,-0.479 0.14,-0.471C0.126,-0.463 0.115,-0.453 0.106,-0.44C0.096,-0.427 0.092,-0.412 0.092,-0.394C0.092,-0.373 0.097,-0.357 0.107,-0.344C0.117,-0.331 0.13,-0.321 0.147,-0.314C0.163,-0.306 0.181,-0.3 0.202,-0.295C0.222,-0.29 0.242,-0.286 0.263,-0.281C0.288,-0.276 0.312,-0.271 0.335,-0.265C0.357,-0.258 0.376,-0.25 0.393,-0.239C0.409,-0.228 0.422,-0.213 0.431,-0.196C0.44,-0.179 0.445,-0.157 0.445,-0.13C0.445,-0.102 0.439,-0.079 0.426,-0.061C0.413,-0.043 0.397,-0.029 0.378,-0.018C0.359,-0.007 0.337,0.001 0.314,0.006C0.29,0.01 0.267,0.012 0.244,0.012C0.215,0.012 0.188,0.008 0.163,0.001C0.137,-0.007 0.116,-0.019 0.097,-0.035C0.078,-0.05 0.064,-0.069 0.053,-0.092C0.042,-0.115 0.037,-0.141 0.036,-0.171L0.074,-0.171Z" style="fill-rule:nonzero;"/>
                        </g>
                        <g transform="matrix(27.6492,0,0,27.6492,235.657,1786.68)">
                            <path d="M0.065,-0.611L0.065,-0.714L0.103,-0.714L0.103,-0.611L0.065,-0.611ZM0.065,-0L0.065,-0.514L0.103,-0.514L0.103,-0L0.065,-0Z" style="fill-rule:nonzero;"/>
                        </g>
                        <g transform="matrix(27.6492,0,0,27.6492,240.302,1786.68)">
                            <path d="M0.481,-0.514L0.481,-0.027C0.481,0.002 0.478,0.029 0.471,0.057C0.464,0.084 0.453,0.107 0.437,0.128C0.42,0.149 0.398,0.165 0.369,0.178C0.34,0.19 0.304,0.196 0.26,0.196C0.233,0.196 0.207,0.193 0.183,0.188C0.159,0.182 0.138,0.173 0.12,0.161C0.102,0.148 0.088,0.132 0.077,0.112C0.066,0.091 0.059,0.066 0.058,0.036L0.096,0.036C0.098,0.059 0.104,0.078 0.113,0.094C0.122,0.11 0.134,0.123 0.15,0.134C0.165,0.144 0.181,0.151 0.2,0.156C0.219,0.161 0.239,0.163 0.26,0.163C0.295,0.163 0.325,0.158 0.349,0.147C0.372,0.136 0.391,0.123 0.405,0.106C0.419,0.089 0.429,0.069 0.435,0.048C0.44,0.026 0.443,0.004 0.443,-0.018L0.443,-0.136L0.441,-0.136C0.423,-0.098 0.399,-0.069 0.368,-0.049C0.337,-0.029 0.299,-0.019 0.255,-0.019C0.217,-0.019 0.184,-0.025 0.157,-0.039C0.129,-0.051 0.106,-0.07 0.088,-0.093C0.069,-0.116 0.055,-0.142 0.047,-0.173C0.038,-0.204 0.033,-0.237 0.033,-0.273C0.033,-0.307 0.038,-0.339 0.048,-0.37C0.057,-0.401 0.071,-0.428 0.09,-0.451C0.109,-0.474 0.132,-0.492 0.16,-0.506C0.187,-0.519 0.219,-0.526 0.255,-0.526C0.296,-0.526 0.333,-0.516 0.368,-0.495C0.402,-0.474 0.426,-0.445 0.441,-0.407L0.443,-0.407L0.443,-0.514L0.481,-0.514ZM0.255,-0.493C0.224,-0.493 0.197,-0.487 0.174,-0.474C0.151,-0.461 0.132,-0.445 0.117,-0.424C0.101,-0.403 0.09,-0.38 0.083,-0.354C0.075,-0.327 0.071,-0.3 0.071,-0.273C0.071,-0.243 0.075,-0.215 0.083,-0.188C0.09,-0.161 0.102,-0.137 0.118,-0.117C0.133,-0.097 0.153,-0.081 0.176,-0.07C0.199,-0.058 0.225,-0.052 0.255,-0.052C0.286,-0.052 0.314,-0.058 0.337,-0.07C0.36,-0.082 0.38,-0.098 0.396,-0.119C0.411,-0.14 0.423,-0.163 0.431,-0.19C0.438,-0.216 0.442,-0.244 0.442,-0.273C0.442,-0.302 0.438,-0.329 0.431,-0.356C0.423,-0.383 0.411,-0.406 0.396,-0.427C0.38,-0.447 0.36,-0.463 0.337,-0.475C0.314,-0.487 0.286,-0.493 0.255,-0.493Z" style="fill-rule:nonzero;"/>
                        </g>
                        <g transform="matrix(27.6492,0,0,27.6492,255.15,1786.68)">
                            <path d="M0.056,-0.514L0.094,-0.514L0.094,-0.404L0.096,-0.404C0.103,-0.423 0.112,-0.44 0.125,-0.456C0.137,-0.471 0.151,-0.483 0.168,-0.494C0.184,-0.505 0.202,-0.513 0.221,-0.518C0.24,-0.523 0.26,-0.526 0.28,-0.526C0.31,-0.526 0.335,-0.522 0.357,-0.515C0.378,-0.508 0.395,-0.498 0.408,-0.486C0.421,-0.474 0.432,-0.46 0.44,-0.446C0.447,-0.431 0.453,-0.415 0.456,-0.4C0.459,-0.385 0.461,-0.37 0.462,-0.356C0.463,-0.341 0.463,-0.329 0.463,-0.318L0.463,-0L0.425,-0L0.425,-0.325C0.425,-0.338 0.424,-0.354 0.422,-0.373C0.42,-0.392 0.414,-0.411 0.405,-0.429C0.395,-0.446 0.38,-0.461 0.361,-0.474C0.341,-0.487 0.314,-0.493 0.279,-0.493C0.25,-0.493 0.224,-0.488 0.201,-0.477C0.178,-0.466 0.159,-0.452 0.143,-0.433C0.127,-0.413 0.115,-0.391 0.107,-0.365C0.098,-0.338 0.094,-0.309 0.094,-0.278L0.094,-0L0.056,-0L0.056,-0.514Z" style="fill-rule:nonzero;"/>
                        </g>
                        <g transform="matrix(27.6492,0,0,27.6492,277.186,1786.68)">
                            <path d="M0.245,-0.481L0.133,-0.481L0.133,-0.122C0.133,-0.101 0.135,-0.085 0.14,-0.073C0.145,-0.061 0.152,-0.052 0.162,-0.046C0.171,-0.039 0.183,-0.035 0.197,-0.034C0.21,-0.033 0.226,-0.032 0.244,-0.033L0.244,-0C0.225,0.001 0.206,0.001 0.188,-0.001C0.169,-0.002 0.153,-0.007 0.139,-0.016C0.125,-0.024 0.114,-0.036 0.106,-0.053C0.097,-0.07 0.094,-0.093 0.095,-0.122L0.095,-0.481L0,-0.481L0,-0.514L0.095,-0.514L0.095,-0.674L0.133,-0.674L0.133,-0.514L0.245,-0.514L0.245,-0.481Z" style="fill-rule:nonzero;"/>
                        </g>
                        <g transform="matrix(27.6492,0,0,27.6492,284.347,1786.68)">
                            <path d="M0.094,-0.714L0.094,-0.404L0.096,-0.404C0.103,-0.423 0.112,-0.44 0.125,-0.456C0.137,-0.471 0.151,-0.483 0.168,-0.494C0.184,-0.505 0.202,-0.513 0.221,-0.518C0.24,-0.523 0.26,-0.526 0.28,-0.526C0.31,-0.526 0.335,-0.522 0.357,-0.515C0.378,-0.508 0.395,-0.498 0.408,-0.486C0.421,-0.474 0.432,-0.46 0.44,-0.446C0.447,-0.431 0.453,-0.415 0.456,-0.4C0.459,-0.385 0.461,-0.37 0.462,-0.356C0.463,-0.341 0.463,-0.329 0.463,-0.318L0.463,-0L0.425,-0L0.425,-0.325C0.425,-0.338 0.424,-0.354 0.422,-0.373C0.42,-0.392 0.414,-0.411 0.405,-0.429C0.395,-0.446 0.38,-0.461 0.361,-0.474C0.341,-0.487 0.314,-0.493 0.279,-0.493C0.25,-0.493 0.224,-0.488 0.201,-0.477C0.178,-0.466 0.159,-0.452 0.143,-0.433C0.127,-0.413 0.115,-0.391 0.107,-0.365C0.098,-0.338 0.094,-0.309 0.094,-0.278L0.094,-0L0.056,-0L0.056,-0.714L0.094,-0.714Z" style="fill-rule:nonzero;"/>
                        </g>
                        <g transform="matrix(27.6492,0,0,27.6492,298.697,1786.68)">
                            <path d="M0.071,-0.252L0.071,-0.246C0.071,-0.216 0.075,-0.187 0.083,-0.16C0.091,-0.133 0.103,-0.109 0.119,-0.088C0.134,-0.067 0.154,-0.051 0.178,-0.039C0.201,-0.027 0.229,-0.021 0.26,-0.021C0.311,-0.021 0.352,-0.035 0.382,-0.062C0.412,-0.089 0.433,-0.126 0.444,-0.174L0.482,-0.174C0.471,-0.114 0.446,-0.068 0.409,-0.036C0.371,-0.004 0.321,0.012 0.259,0.012C0.221,0.012 0.188,0.005 0.16,-0.009C0.131,-0.022 0.108,-0.041 0.089,-0.065C0.069,-0.088 0.055,-0.116 0.046,-0.149C0.037,-0.181 0.032,-0.216 0.032,-0.253C0.032,-0.289 0.037,-0.323 0.047,-0.357C0.056,-0.39 0.071,-0.419 0.09,-0.444C0.109,-0.468 0.134,-0.489 0.163,-0.504C0.192,-0.519 0.226,-0.526 0.265,-0.526C0.301,-0.526 0.333,-0.519 0.361,-0.506C0.388,-0.493 0.411,-0.474 0.43,-0.452C0.449,-0.428 0.463,-0.402 0.473,-0.372C0.482,-0.341 0.487,-0.309 0.487,-0.274L0.486,-0.252L0.071,-0.252ZM0.448,-0.285C0.447,-0.313 0.442,-0.339 0.434,-0.365C0.426,-0.39 0.414,-0.412 0.399,-0.431C0.383,-0.45 0.364,-0.465 0.342,-0.476C0.319,-0.487 0.294,-0.493 0.265,-0.493C0.234,-0.493 0.207,-0.487 0.184,-0.476C0.161,-0.464 0.141,-0.448 0.125,-0.43C0.109,-0.411 0.097,-0.388 0.088,-0.363C0.079,-0.338 0.074,-0.312 0.072,-0.285L0.448,-0.285Z" style="fill-rule:nonzero;"/>
                        </g>
                        <g transform="matrix(27.6492,0,0,27.6492,189.566,1822.62)">
                            <path d="M0.063,-0.714L0.118,-0.714L0.569,-0.059L0.571,-0.059L0.571,-0.714L0.615,-0.714L0.615,-0L0.563,-0L0.109,-0.66L0.107,-0.66L0.107,-0L0.063,-0L0.063,-0.714Z" style="fill-rule:nonzero;"/>
                        </g>
                        <g transform="matrix(27.6492,0,0,27.6492,208.312,1822.62)">
                            <path d="M0.071,-0.252L0.071,-0.246C0.071,-0.216 0.075,-0.187 0.083,-0.16C0.091,-0.133 0.103,-0.109 0.119,-0.088C0.134,-0.067 0.154,-0.051 0.178,-0.039C0.201,-0.027 0.229,-0.021 0.26,-0.021C0.311,-0.021 0.352,-0.035 0.382,-0.062C0.412,-0.089 0.433,-0.126 0.444,-0.174L0.482,-0.174C0.471,-0.114 0.446,-0.068 0.409,-0.036C0.371,-0.004 0.321,0.012 0.259,0.012C0.221,0.012 0.188,0.005 0.16,-0.009C0.131,-0.022 0.108,-0.041 0.089,-0.065C0.069,-0.088 0.055,-0.116 0.046,-0.149C0.037,-0.181 0.032,-0.216 0.032,-0.253C0.032,-0.289 0.037,-0.323 0.047,-0.357C0.056,-0.39 0.071,-0.419 0.09,-0.444C0.109,-0.468 0.134,-0.489 0.163,-0.504C0.192,-0.519 0.226,-0.526 0.265,-0.526C0.301,-0.526 0.333,-0.519 0.361,-0.506C0.388,-0.493 0.411,-0.474 0.43,-0.452C0.449,-0.428 0.463,-0.402 0.473,-0.372C0.482,-0.341 0.487,-0.309 0.487,-0.274L0.486,-0.252L0.071,-0.252ZM0.448,-0.285C0.447,-0.313 0.442,-0.339 0.434,-0.365C0.426,-0.39 0.414,-0.412 0.399,-0.431C0.383,-0.45 0.364,-0.465 0.342,-0.476C0.319,-0.487 0.294,-0.493 0.265,-0.493C0.234,-0.493 0.207,-0.487 0.184,-0.476C0.161,-0.464 0.141,-0.448 0.125,-0.43C0.109,-0.411 0.097,-0.388 0.088,-0.363C0.079,-0.338 0.074,-0.312 0.072,-0.285L0.448,-0.285Z" style="fill-rule:nonzero;"/>
                        </g>
                        <g transform="matrix(27.6492,0,0,27.6492,222.33,1822.62)">
                            <path d="M0.196,-0.27L0.008,-0.514L0.061,-0.514L0.222,-0.299L0.384,-0.514L0.433,-0.514L0.247,-0.27L0.45,-0L0.398,-0L0.222,-0.241L0.042,-0L-0.006,-0L0.196,-0.27Z" style="fill-rule:nonzero;"/>
                        </g>
                        <g transform="matrix(27.6492,0,0,27.6492,235.712,1822.62)">
                            <path d="M0.245,-0.481L0.133,-0.481L0.133,-0.122C0.133,-0.101 0.135,-0.085 0.14,-0.073C0.145,-0.061 0.152,-0.052 0.162,-0.046C0.171,-0.039 0.183,-0.035 0.197,-0.034C0.21,-0.033 0.226,-0.032 0.244,-0.033L0.244,-0C0.225,0.001 0.206,0.001 0.188,-0.001C0.169,-0.002 0.153,-0.007 0.139,-0.016C0.125,-0.024 0.114,-0.036 0.106,-0.053C0.097,-0.07 0.094,-0.093 0.095,-0.122L0.095,-0.481L0,-0.481L0,-0.514L0.095,-0.514L0.095,-0.674L0.133,-0.674L0.133,-0.514L0.245,-0.514L0.245,-0.481Z" style="fill-rule:nonzero;"/>
                        </g>
                        <g transform="matrix(27.6492,0,0,27.6492,251.666,1822.62)">
                            <path d="M0.065,-0.611L0.065,-0.714L0.103,-0.714L0.103,-0.611L0.065,-0.611ZM0.065,-0L0.065,-0.514L0.103,-0.514L0.103,-0L0.065,-0Z" style="fill-rule:nonzero;"/>
                        </g>
                        <g transform="matrix(27.6492,0,0,27.6492,256.311,1822.62)">
                            <path d="M0.063,-0.714L0.367,-0.714C0.387,-0.714 0.409,-0.712 0.434,-0.707C0.458,-0.702 0.481,-0.693 0.502,-0.679C0.523,-0.664 0.54,-0.644 0.554,-0.618C0.568,-0.591 0.575,-0.557 0.575,-0.514C0.575,-0.451 0.556,-0.403 0.517,-0.369C0.478,-0.335 0.423,-0.318 0.351,-0.318L0.107,-0.318L0.107,-0L0.063,-0L0.063,-0.714ZM0.107,-0.356L0.358,-0.356C0.39,-0.356 0.417,-0.361 0.44,-0.371C0.462,-0.38 0.48,-0.393 0.493,-0.408C0.506,-0.423 0.516,-0.44 0.522,-0.459C0.528,-0.478 0.531,-0.496 0.531,-0.515C0.531,-0.528 0.529,-0.544 0.525,-0.563C0.521,-0.581 0.513,-0.599 0.501,-0.616C0.489,-0.632 0.472,-0.647 0.451,-0.659C0.429,-0.67 0.4,-0.676 0.364,-0.676L0.107,-0.676L0.107,-0.356Z" style="fill-rule:nonzero;"/>
                        </g>
                        <g transform="matrix(27.6492,0,0,27.6492,272.652,1822.62)">
                            <path d="M0.094,-0.714L0.094,-0.404L0.096,-0.404C0.103,-0.423 0.112,-0.44 0.125,-0.456C0.137,-0.471 0.151,-0.483 0.168,-0.494C0.184,-0.505 0.202,-0.513 0.221,-0.518C0.24,-0.523 0.26,-0.526 0.28,-0.526C0.31,-0.526 0.335,-0.522 0.357,-0.515C0.378,-0.508 0.395,-0.498 0.408,-0.486C0.421,-0.474 0.432,-0.46 0.44,-0.446C0.447,-0.431 0.453,-0.415 0.456,-0.4C0.459,-0.385 0.461,-0.37 0.462,-0.356C0.463,-0.341 0.463,-0.329 0.463,-0.318L0.463,-0L0.425,-0L0.425,-0.325C0.425,-0.338 0.424,-0.354 0.422,-0.373C0.42,-0.392 0.414,-0.411 0.405,-0.429C0.395,-0.446 0.38,-0.461 0.361,-0.474C0.341,-0.487 0.314,-0.493 0.279,-0.493C0.25,-0.493 0.224,-0.488 0.201,-0.477C0.178,-0.466 0.159,-0.452 0.143,-0.433C0.127,-0.413 0.115,-0.391 0.107,-0.365C0.098,-0.338 0.094,-0.309 0.094,-0.278L0.094,-0L0.056,-0L0.056,-0.714L0.094,-0.714Z" style="fill-rule:nonzero;"/>
                        </g>
                        <g transform="matrix(27.6492,0,0,27.6492,287.002,1822.62)">
                            <path d="M0.032,-0.257C0.032,-0.294 0.037,-0.328 0.048,-0.361C0.058,-0.393 0.073,-0.421 0.093,-0.446C0.113,-0.471 0.138,-0.49 0.167,-0.505C0.196,-0.519 0.23,-0.526 0.268,-0.526C0.306,-0.526 0.34,-0.519 0.369,-0.505C0.398,-0.49 0.423,-0.471 0.443,-0.446C0.463,-0.421 0.478,-0.393 0.489,-0.361C0.499,-0.328 0.504,-0.294 0.504,-0.257C0.504,-0.22 0.499,-0.186 0.489,-0.153C0.478,-0.12 0.463,-0.092 0.443,-0.068C0.423,-0.043 0.398,-0.024 0.369,-0.01C0.34,0.005 0.306,0.012 0.268,0.012C0.23,0.012 0.196,0.005 0.167,-0.01C0.138,-0.024 0.113,-0.043 0.093,-0.068C0.073,-0.092 0.058,-0.12 0.048,-0.153C0.037,-0.186 0.032,-0.22 0.032,-0.257ZM0.07,-0.257C0.07,-0.226 0.074,-0.197 0.083,-0.169C0.092,-0.14 0.104,-0.115 0.121,-0.093C0.138,-0.071 0.158,-0.054 0.183,-0.041C0.208,-0.028 0.236,-0.021 0.268,-0.021C0.3,-0.021 0.328,-0.028 0.353,-0.041C0.378,-0.054 0.398,-0.071 0.415,-0.093C0.432,-0.115 0.444,-0.14 0.453,-0.169C0.462,-0.197 0.466,-0.226 0.466,-0.257C0.466,-0.288 0.462,-0.317 0.453,-0.346C0.444,-0.374 0.432,-0.399 0.415,-0.421C0.398,-0.443 0.378,-0.46 0.353,-0.474C0.328,-0.487 0.3,-0.493 0.268,-0.493C0.236,-0.493 0.208,-0.487 0.183,-0.474C0.158,-0.46 0.138,-0.443 0.121,-0.421C0.104,-0.399 0.092,-0.374 0.083,-0.346C0.074,-0.317 0.07,-0.288 0.07,-0.257Z" style="fill-rule:nonzero;"/>
                        </g>
                        <g transform="matrix(27.6492,0,0,27.6492,301.849,1822.62)">
                            <path d="M0.056,-0.514L0.094,-0.514L0.094,-0.404L0.096,-0.404C0.103,-0.423 0.112,-0.44 0.125,-0.456C0.137,-0.471 0.151,-0.483 0.168,-0.494C0.184,-0.505 0.202,-0.513 0.221,-0.518C0.24,-0.523 0.26,-0.526 0.28,-0.526C0.31,-0.526 0.335,-0.522 0.357,-0.515C0.378,-0.508 0.395,-0.498 0.408,-0.486C0.421,-0.474 0.432,-0.46 0.44,-0.446C0.447,-0.431 0.453,-0.415 0.456,-0.4C0.459,-0.385 0.461,-0.37 0.462,-0.356C0.463,-0.341 0.463,-0.329 0.463,-0.318L0.463,-0L0.425,-0L0.425,-0.325C0.425,-0.338 0.424,-0.354 0.422,-0.373C0.42,-0.392 0.414,-0.411 0.405,-0.429C0.395,-0.446 0.38,-0.461 0.361,-0.474C0.341,-0.487 0.314,-0.493 0.279,-0.493C0.25,-0.493 0.224,-0.488 0.201,-0.477C0.178,-0.466 0.159,-0.452 0.143,-0.433C0.127,-0.413 0.115,-0.391 0.107,-0.365C0.098,-0.338 0.094,-0.309 0.094,-0.278L0.094,-0L0.056,-0L0.056,-0.514Z" style="fill-rule:nonzero;"/>
                        </g>
                        <g transform="matrix(27.6492,0,0,27.6492,316.199,1822.62)">
                            <path d="M0.071,-0.252L0.071,-0.246C0.071,-0.216 0.075,-0.187 0.083,-0.16C0.091,-0.133 0.103,-0.109 0.119,-0.088C0.134,-0.067 0.154,-0.051 0.178,-0.039C0.201,-0.027 0.229,-0.021 0.26,-0.021C0.311,-0.021 0.352,-0.035 0.382,-0.062C0.412,-0.089 0.433,-0.126 0.444,-0.174L0.482,-0.174C0.471,-0.114 0.446,-0.068 0.409,-0.036C0.371,-0.004 0.321,0.012 0.259,0.012C0.221,0.012 0.188,0.005 0.16,-0.009C0.131,-0.022 0.108,-0.041 0.089,-0.065C0.069,-0.088 0.055,-0.116 0.046,-0.149C0.037,-0.181 0.032,-0.216 0.032,-0.253C0.032,-0.289 0.037,-0.323 0.047,-0.357C0.056,-0.39 0.071,-0.419 0.09,-0.444C0.109,-0.468 0.134,-0.489 0.163,-0.504C0.192,-0.519 0.226,-0.526 0.265,-0.526C0.301,-0.526 0.333,-0.519 0.361,-0.506C0.388,-0.493 0.411,-0.474 0.43,-0.452C0.449,-0.428 0.463,-0.402 0.473,-0.372C0.482,-0.341 0.487,-0.309 0.487,-0.274L0.486,-0.252L0.071,-0.252ZM0.448,-0.285C0.447,-0.313 0.442,-0.339 0.434,-0.365C0.426,-0.39 0.414,-0.412 0.399,-0.431C0.383,-0.45 0.364,-0.465 0.342,-0.476C0.319,-0.487 0.294,-0.493 0.265,-0.493C0.234,-0.493 0.207,-0.487 0.184,-0.476C0.161,-0.464 0.141,-0.448 0.125,-0.43C0.109,-0.411 0.097,-0.388 0.088,-0.363C0.079,-0.338 0.074,-0.312 0.072,-0.285L0.448,-0.285Z" style="fill-rule:nonzero;"/>
                        </g>
                    </g>
                </g>
                <path d="M400,75.792C400,71.013 395.479,67.133 389.91,67.133L125.976,67.133C120.407,67.133 115.886,71.013 115.886,75.792L115.886,148.836C115.886,153.615 120.407,157.495 125.976,157.495L389.91,157.495C395.479,157.495 400,153.615 400,148.836L400,75.792Z" style="fill:none;stroke:rgb(61,80,93);stroke-width:1.84px;stroke-linecap:round;"/>
            </g>
        </g>
    </g>
    <defs>
        <linearGradient id="_Linear1" x1="0" y1="0" x2="1" y2="0" gradientUnits="userSpaceOnUse" gradientTransform="matrix(1.19557e-15,16.7561,-19.5252,1.02602e-15,261.408,140.739)"><stop offset="0" style="stop-color:white;stop-opacity:1"/><stop offset="1" style="stop-color:rgb(233,237,240);stop-opacity:1"/></linearGradient>
        <linearGradient id="_Linear3" x1="0" y1="0" x2="1" y2="0" gradientUnits="userSpaceOnUse" gradientTransform="matrix(49.0902,78.9532,-95.8425,40.4396,122.798,1825.33)"><stop offset="0" style="stop-color:white;stop-opacity:1"/><stop offset="1" style="stop-color:rgb(199,210,218);stop-opacity:1"/></linearGradient>
        <linearGradient id="_Linear4" x1="0" y1="0" x2="1" y2="0" gradientUnits="userSpaceOnUse" gradientTransform="matrix(170.215,182.333,-182.333,170.215,73.1833,63.2622)"><stop offset="0" style="stop-color:white;stop-opacity:1"/><stop offset="1" style="stop-color:rgb(179,194,205);stop-opacity:1"/></linearGradient>
        <linearGradient id="_Linear5" x1="0" y1="0" x2="1" y2="0" gradientUnits="userSpaceOnUse" gradientTransform="matrix(170.215,182.333,-182.333,170.215,73.1833,63.2622)"><stop offset="0" style="stop-color:white;stop-opacity:1"/><stop offset="1" style="stop-color:rgb(179,194,205);stop-opacity:1"/></linearGradient>
        <linearGradient id="_Linear6" x1="0" y1="0" x2="1" y2="0" gradientUnits="userSpaceOnUse" gradientTransform="matrix(-108.406,9.56891,-5.87208,-176.654,177.868,591.741)"><stop offset="0" style="stop-color:white;stop-opacity:1"/><stop offset="1" style="stop-color:rgb(220,227,232);stop-opacity:1"/></linearGradient>
        <linearGradient id="_Linear7" x1="0" y1="0" x2="1" y2="0" gradientUnits="userSpaceOnUse" gradientTransform="matrix(85.8846,15.8154,-11.9616,113.555,136.134,457.791)"><stop offset="0" style="stop-color:white;stop-opacity:1"/><stop offset="1" style="stop-color:rgb(220,227,232);stop-opacity:1"/></linearGradient>
        <linearGradient id="_Linear8" x1="0" y1="0" x2="1" y2="0" gradientUnits="userSpaceOnUse" gradientTransform="matrix(-0.719534,34.8726,-28.6314,-0.876382,223.259,409.881)"><stop offset="0" style="stop-color:white;stop-opacity:1"/><stop offset="1" style="stop-color:rgb(220,227,232);stop-opacity:1"/></linearGradient>
    </defs>
</svg>
