<?xml version="1.0" encoding="UTF-8" standalone="no"?>
<!DOCTYPE svg PUBLIC "-//W3C//DTD SVG 1.1//EN" "http://www.w3.org/Graphics/SVG/1.1/DTD/svg11.dtd">
<svg width="100%" height="100%" viewBox="0 0 287 108" version="1.1" xmlns="http://www.w3.org/2000/svg" xmlns:xlink="http://www.w3.org/1999/xlink" xml:space="preserve" xmlns:serif="http://www.serif.com/" style="fill-rule:evenodd;clip-rule:evenodd;stroke-linecap:round;stroke-linejoin:round;stroke-miterlimit:1.5;">
    <g transform="matrix(1,0,0,1,-101,-1494)">
        <g transform="matrix(1.03258,0,0,1.69762,0,0)">
            <g id="life-stats" transform="matrix(0.968444,0,0,0.686408,-12.718,834.894)">
                <path d="M400,75.792C400,71.013 395.479,67.133 389.91,67.133L125.976,67.133C120.407,67.133 115.886,71.013 115.886,75.792L115.886,148.836C115.886,153.615 120.407,157.495 125.976,157.495L389.91,157.495C395.479,157.495 400,153.615 400,148.836L400,75.792Z" style="fill:white;"/>
                <clipPath id="_clip1">
                    <path d="M400,75.792C400,71.013 395.479,67.133 389.91,67.133L125.976,67.133C120.407,67.133 115.886,71.013 115.886,75.792L115.886,148.836C115.886,153.615 120.407,157.495 125.976,157.495L389.91,157.495C395.479,157.495 400,153.615 400,148.836L400,75.792Z"/>
                </clipPath>
                <g clip-path="url(#_clip1)">
                    <g transform="matrix(0.762928,0,0,0.654728,91.926,-819.348)">
                        <path d="M153.223,1434.13L163.643,1434.13L163.643,1437L149.865,1437L149.865,1410.43L153.223,1410.43L153.223,1434.13Z" style="fill-rule:nonzero;"/>
                        <path d="M170.651,1437L167.421,1437L167.421,1417.26L170.651,1417.26L170.651,1437ZM170.906,1412.02C170.906,1412.57 170.754,1413.02 170.45,1413.39C170.146,1413.75 169.683,1413.93 169.063,1413.93C168.455,1413.93 167.998,1413.75 167.694,1413.39C167.39,1413.02 167.238,1412.57 167.238,1412.02C167.238,1411.47 167.39,1411.01 167.694,1410.63C167.998,1410.25 168.455,1410.07 169.063,1410.07C169.671,1410.07 170.13,1410.26 170.441,1410.64C170.751,1411.02 170.906,1411.48 170.906,1412.02Z" style="fill-rule:nonzero;"/>
                        <path d="M177.147,1437L177.147,1419.86L174.574,1419.86L174.574,1417.26L177.147,1417.26L177.147,1414.97C177.184,1412.97 177.692,1411.4 178.671,1410.27C179.65,1409.15 181.034,1408.59 182.823,1408.59C183.467,1408.59 184.118,1408.69 184.775,1408.9L184.611,1411.63C184.149,1411.53 183.656,1411.47 183.133,1411.47C181.296,1411.47 180.377,1412.78 180.377,1415.39L180.377,1417.26L183.753,1417.26L183.753,1419.86L180.377,1419.86L180.377,1437L177.147,1437Z" style="fill-rule:nonzero;"/>
                        <path d="M194.173,1437.37C191.716,1437.37 189.83,1436.63 188.516,1435.17C187.202,1433.7 186.533,1431.55 186.509,1428.71L186.509,1426.32C186.509,1423.38 187.151,1421.07 188.434,1419.4C189.718,1417.73 191.509,1416.89 193.808,1416.89C196.12,1416.89 197.848,1417.63 198.991,1419.1C200.135,1420.57 200.719,1422.86 200.743,1425.98L200.743,1428.1L189.721,1428.1L189.721,1428.55C189.721,1430.67 190.119,1432.21 190.916,1433.17C191.713,1434.13 192.859,1434.61 194.356,1434.61C195.305,1434.61 196.141,1434.43 196.865,1434.07C197.589,1433.71 198.267,1433.14 198.9,1432.37L200.579,1434.41C199.18,1436.38 197.045,1437.37 194.173,1437.37ZM193.808,1419.66C192.47,1419.66 191.479,1420.12 190.834,1421.04C190.189,1421.96 189.824,1423.39 189.739,1425.32L197.513,1425.32L197.513,1424.88C197.428,1423.01 197.09,1421.67 196.5,1420.87C195.91,1420.07 195.013,1419.66 193.808,1419.66Z" style="fill-rule:nonzero;"/>
                        <path d="M225.233,1430.28C225.233,1428.96 224.874,1427.94 224.156,1427.24C223.439,1426.53 222.143,1425.84 220.269,1425.17C218.396,1424.51 216.963,1423.8 215.972,1423.07C214.98,1422.33 214.238,1421.49 213.745,1420.55C213.253,1419.61 213.006,1418.53 213.006,1417.31C213.006,1415.2 213.709,1413.47 215.114,1412.11C216.519,1410.75 218.359,1410.07 220.634,1410.07C222.192,1410.07 223.578,1410.41 224.795,1411.11C226.012,1411.81 226.948,1412.78 227.605,1414.03C228.262,1415.27 228.591,1416.63 228.591,1418.11L225.233,1418.11C225.233,1416.47 224.838,1415.2 224.047,1414.3C223.256,1413.4 222.119,1412.95 220.634,1412.95C219.284,1412.95 218.238,1413.33 217.495,1414.08C216.753,1414.83 216.382,1415.89 216.382,1417.26C216.382,1418.37 216.784,1419.31 217.587,1420.07C218.39,1420.82 219.631,1421.5 221.31,1422.09C223.925,1422.95 225.796,1424.02 226.921,1425.28C228.046,1426.55 228.609,1428.2 228.609,1430.25C228.609,1432.4 227.91,1434.13 226.51,1435.42C225.111,1436.72 223.207,1437.37 220.799,1437.37C219.253,1437.37 217.827,1437.03 216.519,1436.35C215.211,1435.68 214.183,1434.73 213.435,1433.51C212.687,1432.28 212.313,1430.88 212.313,1429.3L215.671,1429.3C215.671,1430.94 216.13,1432.22 217.048,1433.13C217.967,1434.04 219.217,1434.5 220.799,1434.5C222.271,1434.5 223.378,1434.12 224.12,1433.37C224.862,1432.61 225.233,1431.59 225.233,1430.28Z" style="fill-rule:nonzero;"/>
                        <path d="M236.766,1412.47L236.766,1417.26L239.741,1417.26L239.741,1419.86L236.766,1419.86L236.766,1432.11C236.766,1432.89 236.894,1433.48 237.15,1433.88C237.405,1434.28 237.843,1434.48 238.463,1434.48C238.889,1434.48 239.321,1434.41 239.759,1434.26L239.723,1437C238.993,1437.24 238.244,1437.37 237.478,1437.37C236.201,1437.37 235.227,1436.91 234.558,1436C233.889,1435.08 233.555,1433.79 233.555,1432.13L233.555,1419.86L230.543,1419.86L230.543,1417.26L233.555,1417.26L233.555,1412.47L236.766,1412.47Z" style="fill-rule:nonzero;"/>
                        <path d="M253.738,1437C253.543,1436.57 253.403,1435.86 253.318,1434.85C252.174,1436.53 250.715,1437.37 248.938,1437.37C247.15,1437.37 245.754,1436.86 244.75,1435.86C243.747,1434.86 243.245,1433.44 243.245,1431.62C243.245,1429.61 243.926,1428.02 245.289,1426.84C246.651,1425.65 248.519,1425.05 250.891,1425.03L253.263,1425.03L253.263,1422.93C253.263,1421.75 253.002,1420.91 252.479,1420.41C251.955,1419.91 251.159,1419.66 250.088,1419.66C249.115,1419.66 248.324,1419.95 247.716,1420.53C247.107,1421.11 246.803,1421.84 246.803,1422.73L243.573,1422.73C243.573,1421.72 243.871,1420.76 244.467,1419.84C245.063,1418.92 245.866,1418.2 246.876,1417.67C247.886,1417.15 249.011,1416.89 250.252,1416.89C252.272,1416.89 253.808,1417.39 254.86,1418.39C255.912,1419.4 256.451,1420.86 256.475,1422.78L256.475,1432.75C256.487,1434.27 256.694,1435.59 257.096,1436.71L257.096,1437L253.738,1437ZM249.431,1434.43C250.222,1434.43 250.976,1434.21 251.694,1433.77C252.412,1433.33 252.935,1432.79 253.263,1432.13L253.263,1427.42L251.438,1427.42C249.906,1427.44 248.695,1427.79 247.807,1428.45C246.919,1429.11 246.475,1430.04 246.475,1431.23C246.475,1432.35 246.7,1433.16 247.15,1433.67C247.6,1434.17 248.36,1434.43 249.431,1434.43Z" style="fill-rule:nonzero;"/>
                        <path d="M265.709,1412.47L265.709,1417.26L268.684,1417.26L268.684,1419.86L265.709,1419.86L265.709,1432.11C265.709,1432.89 265.837,1433.48 266.092,1433.88C266.348,1434.28 266.786,1434.48 267.406,1434.48C267.832,1434.48 268.264,1434.41 268.702,1434.26L268.665,1437C267.935,1437.24 267.187,1437.37 266.421,1437.37C265.143,1437.37 264.17,1436.91 263.501,1436C262.832,1435.08 262.497,1433.79 262.497,1432.13L262.497,1419.86L259.486,1419.86L259.486,1417.26L262.497,1417.26L262.497,1412.47L265.709,1412.47Z" style="fill-rule:nonzero;"/>
                        <path d="M282.115,1431.94C282.115,1431.25 281.853,1430.65 281.33,1430.16C280.807,1429.66 279.797,1429.07 278.301,1428.4C276.561,1427.69 275.335,1427.07 274.624,1426.56C273.912,1426.05 273.38,1425.47 273.027,1424.82C272.674,1424.17 272.498,1423.39 272.498,1422.49C272.498,1420.89 273.085,1419.55 274.259,1418.49C275.433,1417.42 276.932,1416.89 278.757,1416.89C280.679,1416.89 282.224,1417.45 283.392,1418.57C284.56,1419.69 285.144,1421.12 285.144,1422.88L281.932,1422.88C281.932,1421.99 281.634,1421.23 281.038,1420.6C280.442,1419.98 279.682,1419.66 278.757,1419.66C277.808,1419.66 277.063,1419.91 276.522,1420.4C275.98,1420.89 275.709,1421.56 275.709,1422.38C275.709,1423.04 275.907,1423.57 276.303,1423.97C276.698,1424.37 277.65,1424.9 279.158,1425.56C281.555,1426.5 283.185,1427.41 284.049,1428.3C284.913,1429.2 285.345,1430.33 285.345,1431.71C285.345,1433.42 284.755,1434.8 283.575,1435.82C282.395,1436.85 280.813,1437.37 278.83,1437.37C276.774,1437.37 275.107,1436.78 273.83,1435.6C272.552,1434.41 271.914,1432.92 271.914,1431.11L275.162,1431.11C275.198,1432.2 275.533,1433.06 276.166,1433.68C276.798,1434.3 277.686,1434.61 278.83,1434.61C279.901,1434.61 280.716,1434.37 281.275,1433.89C281.835,1433.41 282.115,1432.76 282.115,1431.94Z" style="fill-rule:nonzero;"/>
                    </g>
                    <g transform="matrix(1.03258,0,0,1.23236,13.1324,-1215.47)">
                        <g transform="matrix(0.172936,0,0,0.124351,108.368,1046.55)">
                            <path d="M87.874,52.438C86.704,50.898 86.704,48.752 87.874,47.213C89.151,45.517 89.842,43.452 89.842,41.329C89.842,35.964 85.428,31.55 80.063,31.55C80.062,31.55 80.062,31.55 80.061,31.55C80.06,31.55 72.421,30.987 60.952,38.603C68.567,27.134 68.005,19.494 68.005,19.494C68.005,19.493 68.005,19.493 68.005,19.492C68.005,14.127 63.59,9.712 58.225,9.712C56.103,9.712 54.037,10.403 52.341,11.68C50.802,12.851 48.655,12.851 47.116,11.68C45.421,10.403 43.355,9.712 41.233,9.712C35.868,9.712 31.453,14.127 31.453,19.492C31.453,19.493 31.453,19.493 31.453,19.494C31.453,19.494 30.891,27.134 38.507,38.603C27.038,30.987 19.397,31.55 19.397,31.55C19.397,31.55 19.396,31.55 19.396,31.55C14.031,31.55 9.616,35.964 9.616,41.329C9.616,43.452 10.307,45.517 11.584,47.213C12.755,48.752 12.755,50.898 11.584,52.438C10.307,54.133 9.616,56.199 9.616,58.321C9.616,63.686 14.031,68.101 19.396,68.101C19.397,68.101 19.397,68.101 19.397,68.101C19.398,68.101 27.038,68.664 38.507,61.048C30.891,72.517 31.453,80.157 31.453,80.157C31.453,80.158 31.453,80.158 31.453,80.159C31.453,85.524 35.868,89.938 41.233,89.938C43.355,89.938 45.421,89.247 47.116,87.971C48.655,86.8 50.802,86.8 52.341,87.971C54.037,89.247 56.102,89.938 58.225,89.938C63.59,89.938 68.005,85.524 68.005,80.158C68.005,80.158 68.005,80.158 68.005,80.157C68.005,80.157 68.567,72.517 60.952,61.048C72.42,68.664 80.061,68.101 80.061,68.101C80.061,68.101 80.062,68.101 80.062,68.101C85.427,68.101 89.842,63.686 89.842,58.321C89.842,56.199 89.151,54.133 87.874,52.438L87.874,52.438Z" style="fill:rgb(185,236,194);fill-rule:nonzero;"/>
                        </g>
                        <g id="Capa_1-2" transform="matrix(0.257781,0,0,0.18536,29.4518,1068.7)">
                            <path d="M337.499,77.883C336.898,77.452 336.308,77.022 335.727,76.592L335.622,76.514L335.725,76.434C346.991,67.554 355.166,58.126 359.365,49.169C361.658,44.265 361.846,38.631 359.886,33.585C358.152,29.012 354.594,25.359 350.068,23.504C349.607,23.314 349.137,23.148 348.658,23.007L348.673,22.813C349.25,22.735 349.832,22.696 350.414,22.696C352.32,22.713 354.204,23.098 355.964,23.829C360.299,25.606 363.707,29.106 365.369,33.486C367.24,38.31 367.059,43.696 364.867,48.384C361.668,55.198 354.344,65.849 337.615,77.883L337.557,77.925L337.499,77.883Z" style="fill:rgb(198,84,84);fill-rule:nonzero;"/>
                            <path d="M364.776,48.342C361.086,56.202 353.236,66.522 337.556,77.802C336.956,77.371 336.366,76.941 335.786,76.512C349.006,66.092 355.976,56.632 359.456,49.212C364.006,39.502 360.046,27.452 350.106,23.412C349.642,23.22 349.168,23.053 348.686,22.912C351.146,22.606 353.644,22.954 355.926,23.922C365.336,27.752 369.086,39.142 364.776,48.342Z" style="fill:rgb(198,84,84);fill-rule:nonzero;"/>
                            <path d="M335.727,76.592C320.266,65.105 313.364,54.896 310.296,48.354C308.103,43.666 307.922,38.279 309.795,33.455C311.455,29.079 314.859,25.584 319.189,23.809C320.09,23.44 321.023,23.154 321.976,22.954C322.889,22.767 323.818,22.671 324.75,22.67C328.151,22.75 331.429,23.966 334.059,26.123C335.37,27.139 336.546,28.319 337.557,29.633C338.184,28.806 342.339,23.631 348.674,22.813C349.174,22.951 349.665,23.121 350.145,23.319C354.72,25.195 358.318,28.889 360.072,33.512C362.053,38.609 361.863,44.301 359.547,49.254C355.334,58.238 347.139,67.691 335.849,76.59L335.789,76.638L335.727,76.592Z" style="fill:rgb(255,95,95);fill-rule:nonzero;"/>
                            <path d="M359.456,49.212C355.976,56.632 349.006,66.092 335.786,76.512C321.276,65.732 313.936,55.882 310.386,48.312C306.076,39.122 309.826,27.722 319.226,23.902C320.122,23.536 321.05,23.251 321.996,23.052C326.264,22.246 330.675,23.404 333.996,26.202C335.341,27.234 336.539,28.445 337.556,29.802C338.574,31.158 341.796,23.802 348.686,22.912C349.168,23.053 349.642,23.22 350.106,23.412C360.046,27.452 364.007,39.502 359.456,49.212Z" style="fill:rgb(255,95,95);fill-rule:nonzero;"/>
                        </g>
                        <g id="Capa_1-21" serif:id="Capa_1-2" transform="matrix(0.257781,0,0,0.18536,133.253,1043.19)">
                            <path d="M337.499,77.883C336.898,77.452 336.308,77.022 335.727,76.592L335.622,76.514L335.725,76.434C346.991,67.554 355.166,58.126 359.365,49.169C361.658,44.265 361.846,38.631 359.886,33.585C358.152,29.012 354.594,25.359 350.068,23.504C349.607,23.314 349.137,23.148 348.658,23.007L348.673,22.813C349.25,22.735 349.832,22.696 350.414,22.696C352.32,22.713 354.204,23.098 355.964,23.829C360.299,25.606 363.707,29.106 365.369,33.486C367.24,38.31 367.059,43.696 364.867,48.384C361.668,55.198 354.344,65.849 337.615,77.883L337.557,77.925L337.499,77.883Z" style="fill:rgb(198,84,84);fill-rule:nonzero;"/>
                            <path d="M364.776,48.342C361.086,56.202 353.236,66.522 337.556,77.802C336.956,77.371 336.366,76.941 335.786,76.512C349.006,66.092 355.976,56.632 359.456,49.212C364.006,39.502 360.046,27.452 350.106,23.412C349.642,23.22 349.168,23.053 348.686,22.912C351.146,22.606 353.644,22.954 355.926,23.922C365.336,27.752 369.086,39.142 364.776,48.342Z" style="fill:rgb(198,84,84);fill-rule:nonzero;"/>
                            <path d="M335.727,76.592C320.266,65.105 313.364,54.896 310.296,48.354C308.103,43.666 307.922,38.279 309.795,33.455C311.455,29.079 314.859,25.584 319.189,23.809C320.09,23.44 321.023,23.154 321.976,22.954C322.889,22.767 323.818,22.671 324.75,22.67C328.151,22.75 331.429,23.966 334.059,26.123C335.37,27.139 336.546,28.319 337.557,29.633C338.184,28.806 342.339,23.631 348.674,22.813C349.174,22.951 349.665,23.121 350.145,23.319C354.72,25.195 358.318,28.889 360.072,33.512C362.053,38.609 361.863,44.301 359.547,49.254C355.334,58.238 347.139,67.691 335.849,76.59L335.789,76.638L335.727,76.592Z" style="fill:rgb(255,95,95);fill-rule:nonzero;"/>
                            <path d="M359.456,49.212C355.976,56.632 349.006,66.092 335.786,76.512C321.276,65.732 313.936,55.882 310.386,48.312C306.076,39.122 309.826,27.722 319.226,23.902C320.122,23.536 321.05,23.251 321.996,23.052C326.264,22.246 330.675,23.404 333.996,26.202C335.341,27.234 336.539,28.445 337.556,29.802C338.574,31.158 341.796,23.802 348.686,22.912C349.168,23.053 349.642,23.22 350.106,23.412C360.046,27.452 364.007,39.502 359.456,49.212Z" style="fill:rgb(255,95,95);fill-rule:nonzero;"/>
                        </g>
                        <g transform="matrix(0.257781,0,0,0.18536,112.303,1043.71)">
                            <path d="M165.422,30.339L162.581,32.233L157.844,31.286L155.003,30.339L151.214,31.286L148.372,30.339L150.266,26.55L154.055,26.55L157.769,24.693C160.632,26.11 163.223,28.021 165.422,30.339Z" style="fill:rgb(3,170,111);fill-rule:nonzero;"/>
                            <path d="M143.636,26.55L142.689,29.391L139.847,30.339L137.005,35.075L132.269,37.917L125.638,38.864L125.638,41.706L127.533,43.6L127.533,47.389L124.691,45.494L121.85,43.6L120.201,38.646C123.037,31.888 128.464,26.54 135.262,23.803L137.953,25.603L143.636,26.55Z" style="fill:rgb(3,170,111);fill-rule:nonzero;"/>
                            <path d="M145.53,53.072L144.583,57.808L140.794,61.597L140.794,64.439L137.005,67.281L137.005,72.017L134.164,71.07L132.269,66.333L132.269,56.861L127.533,55.914L125.639,52.125L125.639,49.283L130.375,44.547L132.269,48.336L138.9,48.336L141.741,53.072L145.53,53.072Z" style="fill:rgb(3,170,111);fill-rule:nonzero;"/>
                            <path d="M169.495,35.861C174.658,45.07 174.067,56.476 167.98,65.102L165.422,62.544L165.422,58.756L163.528,54.967L161.633,51.178L161.633,47.389L158.792,45.494L155.003,46.441L148.372,43.6L147.425,36.969L150.267,34.127L155.95,34.127L157.844,36.969L163.528,37.916L169.211,36.022L169.495,35.861Z" style="fill:rgb(3,170,111);fill-rule:nonzero;"/>
                            <path d="M151.214,31.286L155.003,30.339L157.845,31.286L162.581,32.233L165.422,30.339C167.009,31.999 168.378,33.855 169.495,35.861L169.211,36.022L163.528,37.916L157.845,36.969L155.95,34.128L150.267,34.128L147.425,36.969L148.372,43.6L155.003,46.442L158.792,45.494L161.634,47.389L161.634,51.178L163.528,54.967L165.422,58.756L165.422,62.545L167.98,65.102C162.837,72.389 154.455,76.733 145.536,76.733C130.467,76.733 118.067,64.333 118.067,49.263C118.067,45.618 118.792,42.008 120.201,38.646L121.85,43.6L124.691,45.494L127.533,47.389L125.639,49.283L125.639,52.125L127.533,55.914L132.269,56.861L132.269,66.334L134.164,71.07L137.005,72.017L137.005,67.281L140.794,64.439L140.794,61.597L144.583,57.808L145.531,53.072L141.742,53.072L138.9,48.336L132.269,48.336L130.375,44.547L127.533,47.389L127.533,43.6L125.639,41.705L125.639,38.864L132.269,37.916L137.005,35.075L139.847,30.339L142.689,29.391L143.636,26.55L137.953,25.602L135.263,23.803C142.543,20.87 150.742,21.195 157.769,24.693L154.056,26.55L150.267,26.55L148.372,30.339L151.214,31.286Z" style="fill:rgb(134,218,241);fill-rule:nonzero;"/>
                        </g>
                        <g id="Layer_2-10" transform="matrix(0.257781,0,0,0.18536,120.659,1044.54)">
                            <g id="Layer_1-2-3">
                                <path d="M271.814,42.705C270.886,42.705 269.959,42.797 269.049,42.981C267.985,37.674 263.282,33.819 257.868,33.819C256.214,33.819 254.58,34.179 253.079,34.874C250.899,28.869 245.16,24.847 238.772,24.847C230.422,24.847 223.551,31.718 223.551,40.068C223.551,41.839 223.86,43.597 224.465,45.262C217.659,45.477 212.178,51.134 212.178,57.944C212.178,64.897 217.893,70.621 224.846,70.632L271.814,70.632C279.47,70.626 285.767,64.324 285.767,56.668C285.767,49.013 279.472,42.712 271.817,42.705L271.814,42.705L271.814,42.705Z" style="fill:rgb(192,231,255);fill-rule:nonzero;"/>
                            </g>
                        </g>
                        <g transform="matrix(-3.17677e-17,0.124351,-0.172936,-2.28429e-17,125.961,1046.56)">
                            <path d="M87.874,52.438C86.704,50.898 86.704,48.752 87.874,47.213C89.151,45.517 89.842,43.452 89.842,41.329C89.842,35.964 85.428,31.55 80.063,31.55C80.062,31.55 80.062,31.55 80.061,31.55C80.06,31.55 72.421,30.987 60.952,38.603C68.567,27.134 68.005,19.494 68.005,19.494C68.005,19.493 68.005,19.493 68.005,19.492C68.005,14.127 63.59,9.712 58.225,9.712C56.103,9.712 54.037,10.403 52.341,11.68C50.802,12.851 48.655,12.851 47.116,11.68C45.421,10.403 43.355,9.712 41.233,9.712C35.868,9.712 31.453,14.127 31.453,19.492C31.453,19.493 31.453,19.493 31.453,19.494C31.453,19.494 30.891,27.134 38.507,38.603C27.038,30.987 19.397,31.55 19.397,31.55C19.397,31.55 19.396,31.55 19.396,31.55C14.031,31.55 9.616,35.964 9.616,41.329C9.616,43.452 10.307,45.517 11.584,47.213C12.755,48.752 12.755,50.898 11.584,52.438C10.307,54.133 9.616,56.199 9.616,58.321C9.616,63.686 14.031,68.101 19.396,68.101C19.397,68.101 19.397,68.101 19.397,68.101C19.398,68.101 27.038,68.664 38.507,61.048C30.891,72.517 31.453,80.157 31.453,80.157C31.453,80.158 31.453,80.158 31.453,80.159C31.453,85.524 35.868,89.938 41.233,89.938C43.355,89.938 45.421,89.247 47.116,87.971C48.655,86.8 50.802,86.8 52.341,87.971C54.037,89.247 56.102,89.938 58.225,89.938C63.59,89.938 68.005,85.524 68.005,80.158C68.005,80.158 68.005,80.158 68.005,80.157C68.005,80.157 68.567,72.517 60.952,61.048C72.42,68.664 80.061,68.101 80.061,68.101C80.061,68.101 80.062,68.101 80.062,68.101C85.427,68.101 89.842,63.686 89.842,58.321C89.842,56.199 89.151,54.133 87.874,52.438L87.874,52.438Z" style="fill:rgb(185,236,194);fill-rule:nonzero;"/>
                        </g>
                        <g transform="matrix(0.172936,0,0,0.124351,244.563,1046.25)">
                            <path d="M87.874,52.438C86.704,50.898 86.704,48.752 87.874,47.213C89.151,45.517 89.842,43.452 89.842,41.329C89.842,35.964 85.428,31.55 80.063,31.55C80.062,31.55 80.062,31.55 80.061,31.55C80.06,31.55 72.421,30.987 60.952,38.603C68.567,27.134 68.005,19.494 68.005,19.494C68.005,19.493 68.005,19.493 68.005,19.492C68.005,14.127 63.59,9.712 58.225,9.712C56.103,9.712 54.037,10.403 52.341,11.68C50.802,12.851 48.655,12.851 47.116,11.68C45.421,10.403 43.355,9.712 41.233,9.712C35.868,9.712 31.453,14.127 31.453,19.492C31.453,19.493 31.453,19.493 31.453,19.494C31.453,19.494 30.891,27.134 38.507,38.603C27.038,30.987 19.397,31.55 19.397,31.55C19.397,31.55 19.396,31.55 19.396,31.55C14.031,31.55 9.616,35.964 9.616,41.329C9.616,43.452 10.307,45.517 11.584,47.213C12.755,48.752 12.755,50.898 11.584,52.438C10.307,54.133 9.616,56.199 9.616,58.321C9.616,63.686 14.031,68.101 19.396,68.101C19.397,68.101 19.397,68.101 19.397,68.101C19.398,68.101 27.038,68.664 38.507,61.048C30.891,72.517 31.453,80.157 31.453,80.157C31.453,80.158 31.453,80.158 31.453,80.159C31.453,85.524 35.868,89.938 41.233,89.938C43.355,89.938 45.421,89.247 47.116,87.971C48.655,86.8 50.802,86.8 52.341,87.971C54.037,89.247 56.102,89.938 58.225,89.938C63.59,89.938 68.005,85.524 68.005,80.158C68.005,80.158 68.005,80.158 68.005,80.157C68.005,80.157 68.567,72.517 60.952,61.048C72.42,68.664 80.061,68.101 80.061,68.101C80.061,68.101 80.062,68.101 80.062,68.101C85.427,68.101 89.842,63.686 89.842,58.321C89.842,56.199 89.151,54.133 87.874,52.438L87.874,52.438Z" style="fill:rgb(185,236,194);fill-rule:nonzero;"/>
                        </g>
                        <g transform="matrix(0.172936,0,0,0.124351,348.051,1097.22)">
                            <path d="M87.874,52.438C86.704,50.898 86.704,48.752 87.874,47.213C89.151,45.517 89.842,43.452 89.842,41.329C89.842,35.964 85.428,31.55 80.063,31.55C80.062,31.55 80.062,31.55 80.061,31.55C80.06,31.55 72.421,30.987 60.952,38.603C68.567,27.134 68.005,19.494 68.005,19.494C68.005,19.493 68.005,19.493 68.005,19.492C68.005,14.127 63.59,9.712 58.225,9.712C56.103,9.712 54.037,10.403 52.341,11.68C50.802,12.851 48.655,12.851 47.116,11.68C45.421,10.403 43.355,9.712 41.233,9.712C35.868,9.712 31.453,14.127 31.453,19.492C31.453,19.493 31.453,19.493 31.453,19.494C31.453,19.494 30.891,27.134 38.507,38.603C27.038,30.987 19.397,31.55 19.397,31.55C19.397,31.55 19.396,31.55 19.396,31.55C14.031,31.55 9.616,35.964 9.616,41.329C9.616,43.452 10.307,45.517 11.584,47.213C12.755,48.752 12.755,50.898 11.584,52.438C10.307,54.133 9.616,56.199 9.616,58.321C9.616,63.686 14.031,68.101 19.396,68.101C19.397,68.101 19.397,68.101 19.397,68.101C19.398,68.101 27.038,68.664 38.507,61.048C30.891,72.517 31.453,80.157 31.453,80.157C31.453,80.158 31.453,80.158 31.453,80.159C31.453,85.524 35.868,89.938 41.233,89.938C43.355,89.938 45.421,89.247 47.116,87.971C48.655,86.8 50.802,86.8 52.341,87.971C54.037,89.247 56.102,89.938 58.225,89.938C63.59,89.938 68.005,85.524 68.005,80.158C68.005,80.158 68.005,80.158 68.005,80.157C68.005,80.157 68.567,72.517 60.952,61.048C72.42,68.664 80.061,68.101 80.061,68.101C80.061,68.101 80.062,68.101 80.062,68.101C85.427,68.101 89.842,63.686 89.842,58.321C89.842,56.199 89.151,54.133 87.874,52.438L87.874,52.438Z" style="fill:rgb(185,236,194);fill-rule:nonzero;"/>
                        </g>
                        <g transform="matrix(0.172936,0,0,0.124351,212.412,1097.22)">
                            <path d="M87.874,52.438C86.704,50.898 86.704,48.752 87.874,47.213C89.151,45.517 89.842,43.452 89.842,41.329C89.842,35.964 85.428,31.55 80.063,31.55C80.062,31.55 80.062,31.55 80.061,31.55C80.06,31.55 72.421,30.987 60.952,38.603C68.567,27.134 68.005,19.494 68.005,19.494C68.005,19.493 68.005,19.493 68.005,19.492C68.005,14.127 63.59,9.712 58.225,9.712C56.103,9.712 54.037,10.403 52.341,11.68C50.802,12.851 48.655,12.851 47.116,11.68C45.421,10.403 43.355,9.712 41.233,9.712C35.868,9.712 31.453,14.127 31.453,19.492C31.453,19.493 31.453,19.493 31.453,19.494C31.453,19.494 30.891,27.134 38.507,38.603C27.038,30.987 19.397,31.55 19.397,31.55C19.397,31.55 19.396,31.55 19.396,31.55C14.031,31.55 9.616,35.964 9.616,41.329C9.616,43.452 10.307,45.517 11.584,47.213C12.755,48.752 12.755,50.898 11.584,52.438C10.307,54.133 9.616,56.199 9.616,58.321C9.616,63.686 14.031,68.101 19.396,68.101C19.397,68.101 19.397,68.101 19.397,68.101C19.398,68.101 27.038,68.664 38.507,61.048C30.891,72.517 31.453,80.157 31.453,80.157C31.453,80.158 31.453,80.158 31.453,80.159C31.453,85.524 35.868,89.938 41.233,89.938C43.355,89.938 45.421,89.247 47.116,87.971C48.655,86.8 50.802,86.8 52.341,87.971C54.037,89.247 56.102,89.938 58.225,89.938C63.59,89.938 68.005,85.524 68.005,80.158C68.005,80.158 68.005,80.158 68.005,80.157C68.005,80.157 68.567,72.517 60.952,61.048C72.42,68.664 80.061,68.101 80.061,68.101C80.061,68.101 80.062,68.101 80.062,68.101C85.427,68.101 89.842,63.686 89.842,58.321C89.842,56.199 89.151,54.133 87.874,52.438L87.874,52.438Z" style="fill:rgb(185,236,194);fill-rule:nonzero;"/>
                        </g>
                        <g id="Layer_2-4" transform="matrix(0.257781,0,0,0.18536,269.072,1043.56)">
                            <g id="Capa_1-22" serif:id="Capa_1-2">
                                <path d="M337.499,77.883C336.898,77.452 336.308,77.022 335.727,76.592L335.622,76.514L335.725,76.434C346.991,67.554 355.166,58.126 359.365,49.169C361.658,44.265 361.846,38.631 359.886,33.585C358.152,29.012 354.594,25.359 350.068,23.504C349.607,23.314 349.137,23.148 348.658,23.007L348.673,22.813C349.25,22.735 349.832,22.696 350.414,22.696C352.32,22.713 354.204,23.098 355.964,23.829C360.299,25.606 363.707,29.106 365.369,33.486C367.24,38.31 367.059,43.696 364.867,48.384C361.668,55.198 354.344,65.849 337.615,77.883L337.557,77.925L337.499,77.883Z" style="fill:rgb(198,84,84);fill-rule:nonzero;"/>
                                <path d="M364.776,48.342C361.086,56.202 353.236,66.522 337.556,77.802C336.956,77.371 336.366,76.941 335.786,76.512C349.006,66.092 355.976,56.632 359.456,49.212C364.006,39.502 360.046,27.452 350.106,23.412C349.642,23.22 349.168,23.053 348.686,22.912C351.146,22.606 353.644,22.954 355.926,23.922C365.336,27.752 369.086,39.142 364.776,48.342Z" style="fill:rgb(198,84,84);fill-rule:nonzero;"/>
                                <path d="M335.727,76.592C320.266,65.105 313.364,54.896 310.296,48.354C308.103,43.666 307.922,38.279 309.795,33.455C311.455,29.079 314.859,25.584 319.189,23.809C320.09,23.44 321.023,23.154 321.976,22.954C322.889,22.767 323.818,22.671 324.75,22.67C328.151,22.75 331.429,23.966 334.059,26.123C335.37,27.139 336.546,28.319 337.557,29.633C338.184,28.806 342.339,23.631 348.674,22.813C349.174,22.951 349.665,23.121 350.145,23.319C354.72,25.195 358.318,28.889 360.072,33.512C362.053,38.609 361.863,44.301 359.547,49.254C355.334,58.238 347.139,67.691 335.849,76.59L335.789,76.638L335.727,76.592Z" style="fill:rgb(255,95,95);fill-rule:nonzero;"/>
                                <path d="M359.456,49.212C355.976,56.632 349.006,66.092 335.786,76.512C321.276,65.732 313.936,55.882 310.386,48.312C306.076,39.122 309.826,27.722 319.226,23.902C320.122,23.536 321.05,23.251 321.996,23.052C326.264,22.246 330.675,23.404 333.996,26.202C335.341,27.234 336.539,28.445 337.556,29.802C338.574,31.158 341.796,23.802 348.686,22.912C349.168,23.053 349.642,23.22 350.106,23.412C360.046,27.452 364.007,39.502 359.456,49.212Z" style="fill:rgb(255,95,95);fill-rule:nonzero;"/>
                            </g>
                        </g>
                        <g id="Layer_2-41" serif:id="Layer_2-4" transform="matrix(0.257781,0,0,0.18536,236.786,1094.09)">
                            <g id="Capa_1-23" serif:id="Capa_1-2">
                                <path d="M337.499,77.883C336.898,77.452 336.308,77.022 335.727,76.592L335.622,76.514L335.725,76.434C346.991,67.554 355.166,58.126 359.365,49.169C361.658,44.265 361.846,38.631 359.886,33.585C358.152,29.012 354.594,25.359 350.068,23.504C349.607,23.314 349.137,23.148 348.658,23.007L348.673,22.813C349.25,22.735 349.832,22.696 350.414,22.696C352.32,22.713 354.204,23.098 355.964,23.829C360.299,25.606 363.707,29.106 365.369,33.486C367.24,38.31 367.059,43.696 364.867,48.384C361.668,55.198 354.344,65.849 337.615,77.883L337.557,77.925L337.499,77.883Z" style="fill:rgb(198,84,84);fill-rule:nonzero;"/>
                                <path d="M364.776,48.342C361.086,56.202 353.236,66.522 337.556,77.802C336.956,77.371 336.366,76.941 335.786,76.512C349.006,66.092 355.976,56.632 359.456,49.212C364.006,39.502 360.046,27.452 350.106,23.412C349.642,23.22 349.168,23.053 348.686,22.912C351.146,22.606 353.644,22.954 355.926,23.922C365.336,27.752 369.086,39.142 364.776,48.342Z" style="fill:rgb(198,84,84);fill-rule:nonzero;"/>
                                <path d="M335.727,76.592C320.266,65.105 313.364,54.896 310.296,48.354C308.103,43.666 307.922,38.279 309.795,33.455C311.455,29.079 314.859,25.584 319.189,23.809C320.09,23.44 321.023,23.154 321.976,22.954C322.889,22.767 323.818,22.671 324.75,22.67C328.151,22.75 331.429,23.966 334.059,26.123C335.37,27.139 336.546,28.319 337.557,29.633C338.184,28.806 342.339,23.631 348.674,22.813C349.174,22.951 349.665,23.121 350.145,23.319C354.72,25.195 358.318,28.889 360.072,33.512C362.053,38.609 361.863,44.301 359.547,49.254C355.334,58.238 347.139,67.691 335.849,76.59L335.789,76.638L335.727,76.592Z" style="fill:rgb(255,95,95);fill-rule:nonzero;"/>
                                <path d="M359.456,49.212C355.976,56.632 349.006,66.092 335.786,76.512C321.276,65.732 313.936,55.882 310.386,48.312C306.076,39.122 309.826,27.722 319.226,23.902C320.122,23.536 321.05,23.251 321.996,23.052C326.264,22.246 330.675,23.404 333.996,26.202C335.341,27.234 336.539,28.445 337.556,29.802C338.574,31.158 341.796,23.802 348.686,22.912C349.168,23.053 349.642,23.22 350.106,23.412C360.046,27.452 364.007,39.502 359.456,49.212Z" style="fill:rgb(255,95,95);fill-rule:nonzero;"/>
                            </g>
                        </g>
                        <g id="Layer_2-42" serif:id="Layer_2-4" transform="matrix(0.257781,0,0,0.18536,101.146,1094.09)">
                            <g id="Capa_1-24" serif:id="Capa_1-2">
                                <path d="M337.499,77.883C336.898,77.452 336.308,77.022 335.727,76.592L335.622,76.514L335.725,76.434C346.991,67.554 355.166,58.126 359.365,49.169C361.658,44.265 361.846,38.631 359.886,33.585C358.152,29.012 354.594,25.359 350.068,23.504C349.607,23.314 349.137,23.148 348.658,23.007L348.673,22.813C349.25,22.735 349.832,22.696 350.414,22.696C352.32,22.713 354.204,23.098 355.964,23.829C360.299,25.606 363.707,29.106 365.369,33.486C367.24,38.31 367.059,43.696 364.867,48.384C361.668,55.198 354.344,65.849 337.615,77.883L337.557,77.925L337.499,77.883Z" style="fill:rgb(198,84,84);fill-rule:nonzero;"/>
                                <path d="M364.776,48.342C361.086,56.202 353.236,66.522 337.556,77.802C336.956,77.371 336.366,76.941 335.786,76.512C349.006,66.092 355.976,56.632 359.456,49.212C364.006,39.502 360.046,27.452 350.106,23.412C349.642,23.22 349.168,23.053 348.686,22.912C351.146,22.606 353.644,22.954 355.926,23.922C365.336,27.752 369.086,39.142 364.776,48.342Z" style="fill:rgb(198,84,84);fill-rule:nonzero;"/>
                                <path d="M335.727,76.592C320.266,65.105 313.364,54.896 310.296,48.354C308.103,43.666 307.922,38.279 309.795,33.455C311.455,29.079 314.859,25.584 319.189,23.809C320.09,23.44 321.023,23.154 321.976,22.954C322.889,22.767 323.818,22.671 324.75,22.67C328.151,22.75 331.429,23.966 334.059,26.123C335.37,27.139 336.546,28.319 337.557,29.633C338.184,28.806 342.339,23.631 348.674,22.813C349.174,22.951 349.665,23.121 350.145,23.319C354.72,25.195 358.318,28.889 360.072,33.512C362.053,38.609 361.863,44.301 359.547,49.254C355.334,58.238 347.139,67.691 335.849,76.59L335.789,76.638L335.727,76.592Z" style="fill:rgb(255,95,95);fill-rule:nonzero;"/>
                                <path d="M359.456,49.212C355.976,56.632 349.006,66.092 335.786,76.512C321.276,65.732 313.936,55.882 310.386,48.312C306.076,39.122 309.826,27.722 319.226,23.902C320.122,23.536 321.05,23.251 321.996,23.052C326.264,22.246 330.675,23.404 333.996,26.202C335.341,27.234 336.539,28.445 337.556,29.802C338.574,31.158 341.796,23.802 348.686,22.912C349.168,23.053 349.642,23.22 350.106,23.412C360.046,27.452 364.007,39.502 359.456,49.212Z" style="fill:rgb(255,95,95);fill-rule:nonzero;"/>
                            </g>
                        </g>
                        <g transform="matrix(0.257781,0,0,0.18536,248.122,1043.41)">
                            <path d="M165.422,30.339L162.581,32.233L157.844,31.286L155.003,30.339L151.214,31.286L148.372,30.339L150.266,26.55L154.055,26.55L157.769,24.693C160.632,26.11 163.223,28.021 165.422,30.339Z" style="fill:rgb(3,170,111);fill-rule:nonzero;"/>
                            <path d="M143.636,26.55L142.689,29.391L139.847,30.339L137.005,35.075L132.269,37.917L125.638,38.864L125.638,41.706L127.533,43.6L127.533,47.389L124.691,45.494L121.85,43.6L120.201,38.646C123.037,31.888 128.464,26.54 135.262,23.803L137.953,25.603L143.636,26.55Z" style="fill:rgb(3,170,111);fill-rule:nonzero;"/>
                            <path d="M145.53,53.072L144.583,57.808L140.794,61.597L140.794,64.439L137.005,67.281L137.005,72.017L134.164,71.07L132.269,66.333L132.269,56.861L127.533,55.914L125.639,52.125L125.639,49.283L130.375,44.547L132.269,48.336L138.9,48.336L141.741,53.072L145.53,53.072Z" style="fill:rgb(3,170,111);fill-rule:nonzero;"/>
                            <path d="M169.495,35.861C174.658,45.07 174.067,56.476 167.98,65.102L165.422,62.544L165.422,58.756L163.528,54.967L161.633,51.178L161.633,47.389L158.792,45.494L155.003,46.441L148.372,43.6L147.425,36.969L150.267,34.127L155.95,34.127L157.844,36.969L163.528,37.916L169.211,36.022L169.495,35.861Z" style="fill:rgb(3,170,111);fill-rule:nonzero;"/>
                            <path d="M151.214,31.286L155.003,30.339L157.845,31.286L162.581,32.233L165.422,30.339C167.009,31.999 168.378,33.855 169.495,35.861L169.211,36.022L163.528,37.916L157.845,36.969L155.95,34.128L150.267,34.128L147.425,36.969L148.372,43.6L155.003,46.442L158.792,45.494L161.634,47.389L161.634,51.178L163.528,54.967L165.422,58.756L165.422,62.545L167.98,65.102C162.837,72.389 154.455,76.733 145.536,76.733C130.467,76.733 118.067,64.333 118.067,49.263C118.067,45.618 118.792,42.008 120.201,38.646L121.85,43.6L124.691,45.494L127.533,47.389L125.639,49.283L125.639,52.125L127.533,55.914L132.269,56.861L132.269,66.334L134.164,71.07L137.005,72.017L137.005,67.281L140.794,64.439L140.794,61.597L144.583,57.808L145.531,53.072L141.742,53.072L138.9,48.336L132.269,48.336L130.375,44.547L127.533,47.389L127.533,43.6L125.639,41.705L125.639,38.864L132.269,37.916L137.005,35.075L139.847,30.339L142.689,29.391L143.636,26.55L137.953,25.602L135.263,23.803C142.543,20.87 150.742,21.195 157.769,24.693L154.056,26.55L150.267,26.55L148.372,30.339L151.214,31.286Z" style="fill:rgb(134,218,241);fill-rule:nonzero;"/>
                        </g>
                        <g transform="matrix(0.257781,0,0,0.18536,319.279,1069.08)">
                            <path d="M165.422,30.339L162.581,32.233L157.844,31.286L155.003,30.339L151.214,31.286L148.372,30.339L150.266,26.55L154.055,26.55L157.769,24.693C160.632,26.11 163.223,28.021 165.422,30.339Z" style="fill:rgb(3,170,111);fill-rule:nonzero;"/>
                            <path d="M143.636,26.55L142.689,29.391L139.847,30.339L137.005,35.075L132.269,37.917L125.638,38.864L125.638,41.706L127.533,43.6L127.533,47.389L124.691,45.494L121.85,43.6L120.201,38.646C123.037,31.888 128.464,26.54 135.262,23.803L137.953,25.603L143.636,26.55Z" style="fill:rgb(3,170,111);fill-rule:nonzero;"/>
                            <path d="M145.53,53.072L144.583,57.808L140.794,61.597L140.794,64.439L137.005,67.281L137.005,72.017L134.164,71.07L132.269,66.333L132.269,56.861L127.533,55.914L125.639,52.125L125.639,49.283L130.375,44.547L132.269,48.336L138.9,48.336L141.741,53.072L145.53,53.072Z" style="fill:rgb(3,170,111);fill-rule:nonzero;"/>
                            <path d="M169.495,35.861C174.658,45.07 174.067,56.476 167.98,65.102L165.422,62.544L165.422,58.756L163.528,54.967L161.633,51.178L161.633,47.389L158.792,45.494L155.003,46.441L148.372,43.6L147.425,36.969L150.267,34.127L155.95,34.127L157.844,36.969L163.528,37.916L169.211,36.022L169.495,35.861Z" style="fill:rgb(3,170,111);fill-rule:nonzero;"/>
                            <path d="M151.214,31.286L155.003,30.339L157.845,31.286L162.581,32.233L165.422,30.339C167.009,31.999 168.378,33.855 169.495,35.861L169.211,36.022L163.528,37.916L157.845,36.969L155.95,34.128L150.267,34.128L147.425,36.969L148.372,43.6L155.003,46.442L158.792,45.494L161.634,47.389L161.634,51.178L163.528,54.967L165.422,58.756L165.422,62.545L167.98,65.102C162.837,72.389 154.455,76.733 145.536,76.733C130.467,76.733 118.067,64.333 118.067,49.263C118.067,45.618 118.792,42.008 120.201,38.646L121.85,43.6L124.691,45.494L127.533,47.389L125.639,49.283L125.639,52.125L127.533,55.914L132.269,56.861L132.269,66.334L134.164,71.07L137.005,72.017L137.005,67.281L140.794,64.439L140.794,61.597L144.583,57.808L145.531,53.072L141.742,53.072L138.9,48.336L132.269,48.336L130.375,44.547L127.533,47.389L127.533,43.6L125.639,41.705L125.639,38.864L132.269,37.916L137.005,35.075L139.847,30.339L142.689,29.391L143.636,26.55L137.953,25.602L135.263,23.803C142.543,20.87 150.742,21.195 157.769,24.693L154.056,26.55L150.267,26.55L148.372,30.339L151.214,31.286Z" style="fill:rgb(134,218,241);fill-rule:nonzero;"/>
                        </g>
                        <g transform="matrix(0.257781,0,0,0.18536,215.925,1094.28)">
                            <path d="M165.422,30.339L162.581,32.233L157.844,31.286L155.003,30.339L151.214,31.286L148.372,30.339L150.266,26.55L154.055,26.55L157.769,24.693C160.632,26.11 163.223,28.021 165.422,30.339Z" style="fill:rgb(3,170,111);fill-rule:nonzero;"/>
                            <path d="M143.636,26.55L142.689,29.391L139.847,30.339L137.005,35.075L132.269,37.917L125.638,38.864L125.638,41.706L127.533,43.6L127.533,47.389L124.691,45.494L121.85,43.6L120.201,38.646C123.037,31.888 128.464,26.54 135.262,23.803L137.953,25.603L143.636,26.55Z" style="fill:rgb(3,170,111);fill-rule:nonzero;"/>
                            <path d="M145.53,53.072L144.583,57.808L140.794,61.597L140.794,64.439L137.005,67.281L137.005,72.017L134.164,71.07L132.269,66.333L132.269,56.861L127.533,55.914L125.639,52.125L125.639,49.283L130.375,44.547L132.269,48.336L138.9,48.336L141.741,53.072L145.53,53.072Z" style="fill:rgb(3,170,111);fill-rule:nonzero;"/>
                            <path d="M169.495,35.861C174.658,45.07 174.067,56.476 167.98,65.102L165.422,62.544L165.422,58.756L163.528,54.967L161.633,51.178L161.633,47.389L158.792,45.494L155.003,46.441L148.372,43.6L147.425,36.969L150.267,34.127L155.95,34.127L157.844,36.969L163.528,37.916L169.211,36.022L169.495,35.861Z" style="fill:rgb(3,170,111);fill-rule:nonzero;"/>
                            <path d="M151.214,31.286L155.003,30.339L157.845,31.286L162.581,32.233L165.422,30.339C167.009,31.999 168.378,33.855 169.495,35.861L169.211,36.022L163.528,37.916L157.845,36.969L155.95,34.128L150.267,34.128L147.425,36.969L148.372,43.6L155.003,46.442L158.792,45.494L161.634,47.389L161.634,51.178L163.528,54.967L165.422,58.756L165.422,62.545L167.98,65.102C162.837,72.389 154.455,76.733 145.536,76.733C130.467,76.733 118.067,64.333 118.067,49.263C118.067,45.618 118.792,42.008 120.201,38.646L121.85,43.6L124.691,45.494L127.533,47.389L125.639,49.283L125.639,52.125L127.533,55.914L132.269,56.861L132.269,66.334L134.164,71.07L137.005,72.017L137.005,67.281L140.794,64.439L140.794,61.597L144.583,57.808L145.531,53.072L141.742,53.072L138.9,48.336L132.269,48.336L130.375,44.547L127.533,47.389L127.533,43.6L125.639,41.705L125.639,38.864L132.269,37.916L137.005,35.075L139.847,30.339L142.689,29.391L143.636,26.55L137.953,25.602L135.263,23.803C142.543,20.87 150.742,21.195 157.769,24.693L154.056,26.55L150.267,26.55L148.372,30.339L151.214,31.286Z" style="fill:rgb(134,218,241);fill-rule:nonzero;"/>
                        </g>
                        <g transform="matrix(0.257781,0,0,0.18536,80.2859,1094.28)">
                            <path d="M165.422,30.339L162.581,32.233L157.844,31.286L155.003,30.339L151.214,31.286L148.372,30.339L150.266,26.55L154.055,26.55L157.769,24.693C160.632,26.11 163.223,28.021 165.422,30.339Z" style="fill:rgb(3,170,111);fill-rule:nonzero;"/>
                            <path d="M143.636,26.55L142.689,29.391L139.847,30.339L137.005,35.075L132.269,37.917L125.638,38.864L125.638,41.706L127.533,43.6L127.533,47.389L124.691,45.494L121.85,43.6L120.201,38.646C123.037,31.888 128.464,26.54 135.262,23.803L137.953,25.603L143.636,26.55Z" style="fill:rgb(3,170,111);fill-rule:nonzero;"/>
                            <path d="M145.53,53.072L144.583,57.808L140.794,61.597L140.794,64.439L137.005,67.281L137.005,72.017L134.164,71.07L132.269,66.333L132.269,56.861L127.533,55.914L125.639,52.125L125.639,49.283L130.375,44.547L132.269,48.336L138.9,48.336L141.741,53.072L145.53,53.072Z" style="fill:rgb(3,170,111);fill-rule:nonzero;"/>
                            <path d="M169.495,35.861C174.658,45.07 174.067,56.476 167.98,65.102L165.422,62.544L165.422,58.756L163.528,54.967L161.633,51.178L161.633,47.389L158.792,45.494L155.003,46.441L148.372,43.6L147.425,36.969L150.267,34.127L155.95,34.127L157.844,36.969L163.528,37.916L169.211,36.022L169.495,35.861Z" style="fill:rgb(3,170,111);fill-rule:nonzero;"/>
                            <path d="M151.214,31.286L155.003,30.339L157.845,31.286L162.581,32.233L165.422,30.339C167.009,31.999 168.378,33.855 169.495,35.861L169.211,36.022L163.528,37.916L157.845,36.969L155.95,34.128L150.267,34.128L147.425,36.969L148.372,43.6L155.003,46.442L158.792,45.494L161.634,47.389L161.634,51.178L163.528,54.967L165.422,58.756L165.422,62.545L167.98,65.102C162.837,72.389 154.455,76.733 145.536,76.733C130.467,76.733 118.067,64.333 118.067,49.263C118.067,45.618 118.792,42.008 120.201,38.646L121.85,43.6L124.691,45.494L127.533,47.389L125.639,49.283L125.639,52.125L127.533,55.914L132.269,56.861L132.269,66.334L134.164,71.07L137.005,72.017L137.005,67.281L140.794,64.439L140.794,61.597L144.583,57.808L145.531,53.072L141.742,53.072L138.9,48.336L132.269,48.336L130.375,44.547L127.533,47.389L127.533,43.6L125.639,41.705L125.639,38.864L132.269,37.916L137.005,35.075L139.847,30.339L142.689,29.391L143.636,26.55L137.953,25.602L135.263,23.803C142.543,20.87 150.742,21.195 157.769,24.693L154.056,26.55L150.267,26.55L148.372,30.339L151.214,31.286Z" style="fill:rgb(134,218,241);fill-rule:nonzero;"/>
                        </g>
                        <g id="Layer_2-101" serif:id="Layer_2-10" transform="matrix(0.257781,0,0,0.18536,256.478,1044.24)">
                            <g id="Layer_1-2-31" serif:id="Layer_1-2-3">
                                <path d="M271.814,42.705C270.886,42.705 269.959,42.797 269.049,42.981C267.985,37.674 263.282,33.819 257.868,33.819C256.214,33.819 254.58,34.179 253.079,34.874C250.899,28.869 245.16,24.847 238.772,24.847C230.422,24.847 223.551,31.718 223.551,40.068C223.551,41.839 223.86,43.597 224.465,45.262C217.659,45.477 212.178,51.134 212.178,57.944C212.178,64.897 217.893,70.621 224.846,70.632L271.814,70.632C279.47,70.626 285.767,64.324 285.767,56.668C285.767,49.013 279.472,42.712 271.817,42.705L271.814,42.705L271.814,42.705Z" style="fill:rgb(192,231,255);fill-rule:nonzero;"/>
                            </g>
                        </g>
                        <g id="Layer_2-102" serif:id="Layer_2-10" transform="matrix(0.257781,0,0,0.18536,224.236,1094.56)">
                            <g id="Layer_1-2-32" serif:id="Layer_1-2-3">
                                <path d="M271.814,42.705C270.886,42.705 269.959,42.797 269.049,42.981C267.985,37.674 263.282,33.819 257.868,33.819C256.214,33.819 254.58,34.179 253.079,34.874C250.899,28.869 245.16,24.847 238.772,24.847C230.422,24.847 223.551,31.718 223.551,40.068C223.551,41.839 223.86,43.597 224.465,45.262C217.659,45.477 212.178,51.134 212.178,57.944C212.178,64.897 217.893,70.621 224.846,70.632L271.814,70.632C279.47,70.626 285.767,64.324 285.767,56.668C285.767,49.013 279.472,42.712 271.817,42.705L271.814,42.705L271.814,42.705Z" style="fill:rgb(192,231,255);fill-rule:nonzero;"/>
                            </g>
                        </g>
                        <g id="Layer_2-103" serif:id="Layer_2-10" transform="matrix(0.257781,0,0,0.18536,88.597,1094.56)">
                            <g id="Layer_1-2-33" serif:id="Layer_1-2-3">
                                <path d="M271.814,42.705C270.886,42.705 269.959,42.797 269.049,42.981C267.985,37.674 263.282,33.819 257.868,33.819C256.214,33.819 254.58,34.179 253.079,34.874C250.899,28.869 245.16,24.847 238.772,24.847C230.422,24.847 223.551,31.718 223.551,40.068C223.551,41.839 223.86,43.597 224.465,45.262C217.659,45.477 212.178,51.134 212.178,57.944C212.178,64.897 217.893,70.621 224.846,70.632L271.814,70.632C279.47,70.626 285.767,64.324 285.767,56.668C285.767,49.013 279.472,42.712 271.817,42.705L271.814,42.705L271.814,42.705Z" style="fill:rgb(192,231,255);fill-rule:nonzero;"/>
                            </g>
                        </g>
                    </g>
                </g>
                <path d="M400,75.792C400,71.013 395.479,67.133 389.91,67.133L125.976,67.133C120.407,67.133 115.886,71.013 115.886,75.792L115.886,148.836C115.886,153.615 120.407,157.495 125.976,157.495L389.91,157.495C395.479,157.495 400,153.615 400,148.836L400,75.792Z" style="fill:none;stroke:black;stroke-width:1.84px;"/>
            </g>
        </g>
    </g>
</svg>
