<?xml version="1.0" encoding="UTF-8" standalone="no"?>
<!DOCTYPE svg PUBLIC "-//W3C//DTD SVG 1.1//EN" "http://www.w3.org/Graphics/SVG/1.1/DTD/svg11.dtd">
<svg width="100%" height="100%" viewBox="0 0 285 106" version="1.1" xmlns="http://www.w3.org/2000/svg" xmlns:xlink="http://www.w3.org/1999/xlink" xml:space="preserve" xmlns:serif="http://www.serif.com/" style="fill-rule:evenodd;clip-rule:evenodd;stroke-linejoin:round;stroke-miterlimit:2;">
    <g transform="matrix(1,0,0,1,-102,-827)">
        <g transform="matrix(1.03258,0,0,1.69762,0,0)">
            <g id="life-checklist" transform="matrix(0.968444,0,0,0.686408,-12.7638,441.156)">
                <path d="M400,75.792C400,71.013 395.479,67.133 389.91,67.133L125.976,67.133C120.407,67.133 115.886,71.013 115.886,75.792L115.886,148.836C115.886,153.615 120.407,157.495 125.976,157.495L389.91,157.495C395.479,157.495 400,153.615 400,148.836L400,75.792Z" style="fill:rgb(167,234,195);"/>
                <clipPath id="_clip1">
                    <path d="M400,75.792C400,71.013 395.479,67.133 389.91,67.133L125.976,67.133C120.407,67.133 115.886,71.013 115.886,75.792L115.886,148.836C115.886,153.615 120.407,157.495 125.976,157.495L389.91,157.495C395.479,157.495 400,153.615 400,148.836L400,75.792Z"/>
                </clipPath>
                <g clip-path="url(#_clip1)">
                    <g transform="matrix(1.03258,0,0,0.85672,13.1797,-642.702)">
                        <g transform="matrix(0.968444,0,0,1.0017,0,0)">
                            <rect x="102.706" y="827.141" width="27.859" height="27.859" style="fill:rgb(203,243,220);"/>
                        </g>
                        <g transform="matrix(0.968444,0,0,1.0017,26.9796,0)">
                            <rect x="102.706" y="827.141" width="27.859" height="27.859" style="fill:rgb(47,204,113);"/>
                        </g>
                        <g transform="matrix(0.968444,0,0,1.0017,53.9592,0)">
                            <rect x="102.706" y="827.141" width="27.859" height="27.859" style="fill:rgb(203,243,220);"/>
                        </g>
                        <g transform="matrix(0.968444,0,0,1.0017,80.9388,0)">
                            <rect x="102.706" y="827.141" width="27.859" height="27.859" style="fill:rgb(203,243,220);"/>
                        </g>
                        <g transform="matrix(0.968444,0,0,1.0017,107.918,0)">
                            <rect x="102.706" y="827.141" width="27.859" height="27.859" style="fill:rgb(47,204,113);"/>
                        </g>
                        <g transform="matrix(0.968444,0,0,1.0017,134.898,0)">
                            <rect x="102.706" y="827.141" width="27.859" height="27.859" style="fill:rgb(203,243,220);"/>
                        </g>
                        <g transform="matrix(0.968444,0,0,1.0017,161.878,0)">
                            <rect x="102.706" y="827.141" width="27.859" height="27.859" style="fill:rgb(203,243,220);"/>
                        </g>
                        <g transform="matrix(0.968444,0,0,1.0017,188.857,0)">
                            <rect x="102.706" y="827.141" width="27.859" height="27.859" style="fill:rgb(203,243,220);"/>
                        </g>
                        <g transform="matrix(0.968444,0,0,1.0017,215.837,0)">
                            <rect x="102.706" y="827.141" width="27.859" height="27.859" style="fill:rgb(203,243,220);"/>
                        </g>
                        <g transform="matrix(0.968444,0,0,1.0017,242.816,0)">
                            <rect x="102.706" y="827.141" width="27.859" height="27.859" style="fill:rgb(47,204,113);"/>
                        </g>
                        <g transform="matrix(0.968444,0,0,1.0017,269.796,0)">
                            <rect x="102.706" y="827.141" width="27.859" height="27.859" style="fill:rgb(203,243,220);"/>
                        </g>
                    </g>
                    <g transform="matrix(1.03258,0,0,0.85672,13.1797,-618.794)">
                        <g transform="matrix(0.968444,0,0,1.0017,0,0)">
                            <rect x="102.706" y="827.141" width="27.859" height="27.859" style="fill:rgb(203,243,220);"/>
                        </g>
                        <g transform="matrix(0.968444,0,0,1.0017,26.9796,0)">
                            <rect x="102.706" y="827.141" width="27.859" height="27.859" style="fill:rgb(203,243,220);"/>
                        </g>
                        <g transform="matrix(0.968444,0,0,1.0017,53.9592,0)">
                            <rect x="102.706" y="827.141" width="27.859" height="27.859" style="fill:rgb(203,243,220);"/>
                        </g>
                        <g transform="matrix(0.968444,0,0,1.0017,80.9388,0)">
                            <rect x="102.706" y="827.141" width="27.859" height="27.859" style="fill:rgb(47,204,113);"/>
                        </g>
                        <g transform="matrix(0.968444,0,0,1.0017,107.918,0)">
                            <rect x="102.706" y="827.141" width="27.859" height="27.859" style="fill:rgb(203,243,220);"/>
                        </g>
                        <g transform="matrix(0.968444,0,0,1.0017,134.898,0)">
                            <rect x="102.706" y="827.141" width="27.859" height="27.859" style="fill:rgb(203,243,220);"/>
                        </g>
                        <g transform="matrix(0.968444,0,0,1.0017,161.878,0)">
                            <rect x="102.706" y="827.141" width="27.859" height="27.859" style="fill:rgb(203,243,220);"/>
                        </g>
                        <g transform="matrix(0.968444,0,0,1.0017,188.857,0)">
                            <rect x="102.706" y="827.141" width="27.859" height="27.859" style="fill:rgb(203,243,220);"/>
                        </g>
                        <g transform="matrix(0.968444,0,0,1.0017,215.837,0)">
                            <rect x="102.706" y="827.141" width="27.859" height="27.859" style="fill:rgb(203,243,220);"/>
                        </g>
                        <g transform="matrix(0.968444,0,0,1.0017,242.816,0)">
                            <rect x="102.706" y="827.141" width="27.859" height="27.859" style="fill:rgb(203,243,220);"/>
                        </g>
                        <g transform="matrix(0.968444,0,0,1.0017,269.796,0)">
                            <rect x="102.706" y="827.141" width="27.859" height="27.859" style="fill:rgb(203,243,220);"/>
                        </g>
                    </g>
                    <g transform="matrix(1.03258,0,0,0.85672,13.1797,-594.887)">
                        <g transform="matrix(0.968444,0,0,1.0017,0,0)">
                            <rect x="102.706" y="827.141" width="27.859" height="27.859" style="fill:rgb(158,233,189);"/>
                        </g>
                        <g transform="matrix(0.968444,0,0,1.0017,26.9796,0)">
                            <rect x="102.706" y="827.141" width="27.859" height="27.859" style="fill:rgb(47,204,113);"/>
                        </g>
                        <g transform="matrix(0.968444,0,0,1.0017,53.9592,0)">
                            <rect x="102.706" y="827.141" width="27.859" height="27.859" style="fill:rgb(203,243,220);"/>
                        </g>
                        <g transform="matrix(0.968444,0,0,1.0017,80.9388,0)">
                            <rect x="102.706" y="827.141" width="27.859" height="27.859" style="fill:rgb(203,243,220);"/>
                        </g>
                        <g transform="matrix(0.968444,0,0,1.0017,107.918,0)">
                            <rect x="102.706" y="827.141" width="27.859" height="27.859" style="fill:rgb(203,243,220);"/>
                        </g>
                        <g transform="matrix(0.968444,0,0,1.0017,134.898,0)">
                            <rect x="102.706" y="827.141" width="27.859" height="27.859" style="fill:rgb(203,243,220);"/>
                        </g>
                        <g transform="matrix(0.968444,0,0,1.0017,161.878,0)">
                            <rect x="102.706" y="827.141" width="27.859" height="27.859" style="fill:rgb(203,243,220);"/>
                        </g>
                        <g transform="matrix(0.968444,0,0,1.0017,188.857,0)">
                            <rect x="102.706" y="827.141" width="27.859" height="27.859" style="fill:rgb(203,243,220);"/>
                        </g>
                        <g transform="matrix(0.968444,0,0,1.0017,215.837,0)">
                            <rect x="102.706" y="827.141" width="27.859" height="27.859" style="fill:rgb(47,204,113);"/>
                        </g>
                        <g transform="matrix(0.968444,0,0,1.0017,242.816,0)">
                            <rect x="102.706" y="827.141" width="27.859" height="27.859" style="fill:rgb(203,243,220);"/>
                        </g>
                        <g transform="matrix(0.968444,0,0,1.0017,269.796,0)">
                            <rect x="102.706" y="827.141" width="27.859" height="27.859" style="fill:rgb(203,243,220);"/>
                        </g>
                    </g>
                    <g transform="matrix(1.03258,0,0,0.85672,13.1797,-570.979)">
                        <g transform="matrix(0.968444,0,0,1.0017,0,0)">
                            <rect x="102.706" y="827.141" width="27.859" height="27.859" style="fill:rgb(203,243,220);"/>
                        </g>
                        <g transform="matrix(0.968444,0,0,1.0017,26.9796,0)">
                            <rect x="102.706" y="827.141" width="27.859" height="27.859" style="fill:rgb(203,243,220);"/>
                        </g>
                        <g transform="matrix(0.968444,0,0,1.0017,53.9592,0)">
                            <rect x="102.706" y="827.141" width="27.859" height="27.859" style="fill:rgb(203,243,220);"/>
                        </g>
                        <g transform="matrix(0.968444,0,0,1.0017,80.9388,0)">
                            <rect x="102.706" y="827.141" width="27.859" height="27.859" style="fill:rgb(203,243,220);"/>
                        </g>
                        <g transform="matrix(0.968444,0,0,1.0017,107.918,0)">
                            <rect x="102.706" y="827.141" width="27.859" height="27.859" style="fill:rgb(47,204,113);"/>
                        </g>
                        <g transform="matrix(0.968444,0,0,1.0017,134.898,0)">
                            <rect x="102.706" y="827.141" width="27.859" height="27.859" style="fill:rgb(203,243,220);"/>
                        </g>
                        <g transform="matrix(0.968444,0,0,1.0017,161.878,0)">
                            <rect x="102.706" y="827.141" width="27.859" height="27.859" style="fill:rgb(203,243,220);"/>
                        </g>
                        <g transform="matrix(0.968444,0,0,1.0017,188.857,0)">
                            <rect x="102.706" y="827.141" width="27.859" height="27.859" style="fill:rgb(203,243,220);"/>
                        </g>
                        <g transform="matrix(0.968444,0,0,1.0017,215.837,0)">
                            <rect x="102.706" y="827.141" width="27.859" height="27.859" style="fill:rgb(203,243,220);"/>
                        </g>
                        <g transform="matrix(0.968444,0,0,1.0017,242.816,0)">
                            <rect x="102.706" y="827.141" width="27.859" height="27.859" style="fill:rgb(47,204,113);"/>
                        </g>
                        <g transform="matrix(0.968444,0,0,1.0017,269.796,0)">
                            <rect x="102.706" y="827.141" width="27.859" height="27.859" style="fill:rgb(203,243,220);"/>
                        </g>
                    </g>
                    <g transform="matrix(0.338681,0,0,0.290649,149.693,120.261)">
                        <g>
                            <path d="M20.687,38.332C18.615,40.404 15.253,40.404 13.182,38.332L1.554,26.704C-0.518,24.633 -0.518,21.271 1.554,19.2C3.625,17.128 6.987,17.128 9.059,19.2L15.987,26.127C16.51,26.649 17.359,26.649 17.883,26.127L36.642,7.368C38.713,5.296 42.075,5.296 44.147,7.368C45.142,8.363 45.701,9.713 45.701,11.12C45.701,12.527 45.142,13.877 44.147,14.872L20.687,38.332Z" style="fill:white;fill-rule:nonzero;"/>
                        </g>
                        <g transform="matrix(1,0,0,1,0,-167.078)">
                            <path d="M20.687,38.332C18.615,40.404 15.253,40.404 13.182,38.332L1.554,26.704C-0.518,24.633 -0.518,21.271 1.554,19.2C3.625,17.128 6.987,17.128 9.059,19.2L15.987,26.127C16.51,26.649 17.359,26.649 17.883,26.127L36.642,7.368C38.713,5.296 42.075,5.296 44.147,7.368C45.142,8.363 45.701,9.713 45.701,11.12C45.701,12.527 45.142,13.877 44.147,14.872L20.687,38.332Z" style="fill:white;fill-rule:nonzero;"/>
                        </g>
                        <g transform="matrix(1,0,0,1,247.352,-167.078)">
                            <path d="M20.687,38.332C18.615,40.404 15.253,40.404 13.182,38.332L1.554,26.704C-0.518,24.633 -0.518,21.271 1.554,19.2C3.625,17.128 6.987,17.128 9.059,19.2L15.987,26.127C16.51,26.649 17.359,26.649 17.883,26.127L36.642,7.368C38.713,5.296 42.075,5.296 44.147,7.368C45.142,8.363 45.701,9.713 45.701,11.12C45.701,12.527 45.142,13.877 44.147,14.872L20.687,38.332Z" style="fill:white;fill-rule:nonzero;"/>
                        </g>
                        <g transform="matrix(1,0,0,1,658.765,82.2565)">
                            <path d="M20.687,38.332C18.615,40.404 15.253,40.404 13.182,38.332L1.554,26.704C-0.518,24.633 -0.518,21.271 1.554,19.2C3.625,17.128 6.987,17.128 9.059,19.2L15.987,26.127C16.51,26.649 17.359,26.649 17.883,26.127L36.642,7.368C38.713,5.296 42.075,5.296 44.147,7.368C45.142,8.363 45.701,9.713 45.701,11.12C45.701,12.527 45.142,13.877 44.147,14.872L20.687,38.332Z" style="fill:white;fill-rule:nonzero;"/>
                        </g>
                        <g transform="matrix(1,0,0,1,246.635,82.2565)">
                            <path d="M20.687,38.332C18.615,40.404 15.253,40.404 13.182,38.332L1.554,26.704C-0.518,24.633 -0.518,21.271 1.554,19.2C3.625,17.128 6.987,17.128 9.059,19.2L15.987,26.127C16.51,26.649 17.359,26.649 17.883,26.127L36.642,7.368C38.713,5.296 42.075,5.296 44.147,7.368C45.142,8.363 45.701,9.713 45.701,11.12C45.701,12.527 45.142,13.877 44.147,14.872L20.687,38.332Z" style="fill:white;fill-rule:nonzero;"/>
                        </g>
                        <g transform="matrix(1,0,0,1,165.347,-82.2565)">
                            <path d="M20.687,38.332C18.615,40.404 15.253,40.404 13.182,38.332L1.554,26.704C-0.518,24.633 -0.518,21.271 1.554,19.2C3.625,17.128 6.987,17.128 9.059,19.2L15.987,26.127C16.51,26.649 17.359,26.649 17.883,26.127L36.642,7.368C38.713,5.296 42.075,5.296 44.147,7.368C45.142,8.363 45.701,9.713 45.701,11.12C45.701,12.527 45.142,13.877 44.147,14.872L20.687,38.332Z" style="fill:white;fill-rule:nonzero;"/>
                        </g>
                        <g transform="matrix(1,0,0,1,576.508,-1.91139)">
                            <path d="M20.687,38.332C18.615,40.404 15.253,40.404 13.182,38.332L1.554,26.704C-0.518,24.633 -0.518,21.271 1.554,19.2C3.625,17.128 6.987,17.128 9.059,19.2L15.987,26.127C16.51,26.649 17.359,26.649 17.883,26.127L36.642,7.368C38.713,5.296 42.075,5.296 44.147,7.368C45.142,8.363 45.701,9.713 45.701,11.12C45.701,12.527 45.142,13.877 44.147,14.872L20.687,38.332Z" style="fill:white;fill-rule:nonzero;"/>
                        </g>
                        <g transform="matrix(1,0,0,1,659.182,-164.306)">
                            <path d="M20.687,38.332C18.615,40.404 15.253,40.404 13.182,38.332L1.554,26.704C-0.518,24.633 -0.518,21.271 1.554,19.2C3.625,17.128 6.987,17.128 9.059,19.2L15.987,26.127C16.51,26.649 17.359,26.649 17.883,26.127L36.642,7.368C38.713,5.296 42.075,5.296 44.147,7.368C45.142,8.363 45.701,9.713 45.701,11.12C45.701,12.527 45.142,13.877 44.147,14.872L20.687,38.332Z" style="fill:white;fill-rule:nonzero;"/>
                        </g>
                        <g transform="matrix(3.06267,0,0,2.93918,-432.264,-2615.29)">
                            <rect x="165" y="865" width="161" height="31" style="fill:white;"/>
                        </g>
                        <g transform="matrix(1.33807,0,0,1.33807,-97.2643,-522.753)">
                            <path d="M170.839,384.402L186.817,384.402L186.817,388.037L166.37,388.037L166.37,354.322L170.839,354.322L170.839,384.402Z" style="fill-rule:nonzero;stroke:black;stroke-width:2.21px;"/>
                            <path d="M195.871,388.037L191.587,388.037L191.587,362.982L195.871,362.982L195.871,388.037ZM191.24,356.336C191.24,355.642 191.452,355.055 191.877,354.576C192.301,354.098 192.93,353.859 193.764,353.859C194.598,353.859 195.23,354.098 195.663,354.576C196.095,355.055 196.311,355.642 196.311,356.336C196.311,357.031 196.095,357.61 195.663,358.073C195.23,358.536 194.598,358.768 193.764,358.768C192.93,358.768 192.301,358.536 191.877,358.073C191.452,357.61 191.24,357.031 191.24,356.336Z" style="fill-rule:nonzero;stroke:black;stroke-width:2.21px;"/>
                            <path d="M204.833,388.037L204.833,366.293L200.873,366.293L200.873,362.982L204.833,362.982L204.833,360.412C204.833,357.726 205.55,355.649 206.986,354.183C208.422,352.716 210.452,351.983 213.076,351.983C214.064,351.983 215.044,352.114 216.017,352.377L215.785,355.85C215.06,355.711 214.288,355.642 213.47,355.642C212.08,355.642 211.008,356.047 210.251,356.857C209.495,357.668 209.116,358.829 209.116,360.342L209.116,362.982L214.466,362.982L214.466,366.293L209.116,366.293L209.116,388.037L204.833,388.037Z" style="fill-rule:nonzero;stroke:black;stroke-width:2.21px;"/>
                            <path d="M229.031,388.5C225.635,388.5 222.871,387.385 220.741,385.154C218.611,382.923 217.545,379.94 217.545,376.204L217.545,375.417C217.545,372.932 218.02,370.712 218.969,368.76C219.919,366.807 221.246,365.278 222.952,364.175C224.658,363.071 226.507,362.519 228.498,362.519C231.756,362.519 234.287,363.592 236.093,365.738C237.9,367.883 238.803,370.956 238.803,374.954L238.803,376.737L221.829,376.737C221.891,379.207 222.613,381.202 223.994,382.723C225.376,384.243 227.132,385.004 229.262,385.004C230.775,385.004 232.057,384.695 233.106,384.077C234.156,383.46 235.075,382.642 235.862,381.623L238.479,383.661C236.379,386.887 233.23,388.5 229.031,388.5ZM228.498,366.039C226.769,366.039 225.318,366.668 224.145,367.926C222.972,369.184 222.246,370.948 221.968,373.217L234.519,373.217L234.519,372.893C234.395,370.716 233.809,369.03 232.759,367.833C231.709,366.637 230.289,366.039 228.498,366.039Z" style="fill-rule:nonzero;stroke:black;stroke-width:2.21px;"/>
                            <path d="M280.97,377.339C280.553,380.905 279.237,383.657 277.022,385.594C274.807,387.532 271.862,388.5 268.188,388.5C264.205,388.5 261.013,387.072 258.613,384.216C256.212,381.36 255.012,377.54 255.012,372.754L255.012,369.512C255.012,366.378 255.572,363.623 256.691,361.245C257.81,358.868 259.396,357.042 261.45,355.769C263.503,354.495 265.88,353.859 268.582,353.859C272.163,353.859 275.035,354.858 277.196,356.857C279.357,358.856 280.615,361.624 280.97,365.159L276.501,365.159C276.115,362.473 275.278,360.528 273.989,359.323C272.7,358.119 270.897,357.517 268.582,357.517C265.741,357.517 263.514,358.567 261.901,360.666C260.288,362.766 259.481,365.753 259.481,369.628L259.481,372.893C259.481,376.552 260.245,379.462 261.774,381.623C263.302,383.784 265.44,384.865 268.188,384.865C270.658,384.865 272.553,384.305 273.873,383.186C275.193,382.067 276.069,380.118 276.501,377.339L280.97,377.339Z" style="fill-rule:nonzero;stroke:black;stroke-width:2.21px;"/>
                            <path d="M290.65,366.016C292.548,363.684 295.018,362.519 298.06,362.519C303.355,362.519 306.025,365.506 306.072,371.48L306.072,388.037L301.788,388.037L301.788,371.457C301.772,369.651 301.359,368.316 300.549,367.451C299.738,366.587 298.476,366.154 296.763,366.154C295.373,366.154 294.154,366.525 293.104,367.266C292.054,368.007 291.236,368.98 290.65,370.184L290.65,388.037L286.366,388.037L286.366,352.469L290.65,352.469L290.65,366.016Z" style="fill-rule:nonzero;stroke:black;stroke-width:2.21px;"/>
                            <path d="M322.883,388.5C319.487,388.5 316.723,387.385 314.593,385.154C312.463,382.923 311.398,379.94 311.398,376.204L311.398,375.417C311.398,372.932 311.872,370.712 312.822,368.76C313.771,366.807 315.099,365.278 316.805,364.175C318.51,363.071 320.359,362.519 322.35,362.519C325.608,362.519 328.139,363.592 329.946,365.738C331.752,367.883 332.655,370.956 332.655,374.954L332.655,376.737L315.681,376.737C315.743,379.207 316.465,381.202 317.847,382.723C319.228,384.243 320.984,385.004 323.115,385.004C324.627,385.004 325.909,384.695 326.959,384.077C328.008,383.46 328.927,382.642 329.714,381.623L332.331,383.661C330.231,386.887 327.082,388.5 322.883,388.5ZM322.35,366.039C320.621,366.039 319.17,366.668 317.997,367.926C316.824,369.184 316.098,370.948 315.82,373.217L328.371,373.217L328.371,372.893C328.248,370.716 327.661,369.03 326.611,367.833C325.561,366.637 324.141,366.039 322.35,366.039Z" style="fill-rule:nonzero;stroke:black;stroke-width:2.21px;"/>
                            <path d="M347.66,385.004C349.188,385.004 350.524,384.541 351.666,383.614C352.809,382.688 353.442,381.53 353.565,380.141L357.617,380.141C357.54,381.577 357.046,382.943 356.135,384.239C355.225,385.536 354.009,386.571 352.488,387.342C350.968,388.114 349.358,388.5 347.66,388.5C344.248,388.5 341.535,387.362 339.521,385.085C337.506,382.808 336.499,379.693 336.499,375.741L336.499,375.023C336.499,372.584 336.947,370.415 337.842,368.516C338.737,366.618 340.022,365.143 341.697,364.094C343.372,363.044 345.352,362.519 347.637,362.519C350.447,362.519 352.782,363.36 354.642,365.043C356.502,366.726 357.494,368.91 357.617,371.596L353.565,371.596C353.442,369.975 352.828,368.644 351.724,367.602C350.62,366.56 349.258,366.039 347.637,366.039C345.46,366.039 343.774,366.822 342.577,368.389C341.381,369.956 340.783,372.221 340.783,375.185L340.783,375.996C340.783,378.883 341.377,381.106 342.566,382.665C343.754,384.224 345.453,385.004 347.66,385.004Z" style="fill-rule:nonzero;stroke:black;stroke-width:2.21px;"/>
                            <path d="M369.427,376.436L366.741,379.238L366.741,388.037L362.457,388.037L362.457,352.469L366.741,352.469L366.741,373.981L369.033,371.226L376.837,362.982L382.047,362.982L372.298,373.449L383.182,388.037L378.157,388.037L369.427,376.436Z" style="fill-rule:nonzero;stroke:black;stroke-width:2.21px;"/>
                            <rect x="386.841" y="352.469" width="4.284" height="35.568" style="fill-rule:nonzero;stroke:black;stroke-width:2.21px;"/>
                            <path d="M402.633,388.037L398.349,388.037L398.349,362.982L402.633,362.982L402.633,388.037ZM398.002,356.336C398.002,355.642 398.214,355.055 398.639,354.576C399.063,354.098 399.692,353.859 400.526,353.859C401.359,353.859 401.992,354.098 402.425,354.576C402.857,355.055 403.073,355.642 403.073,356.336C403.073,357.031 402.857,357.61 402.425,358.073C401.992,358.536 401.359,358.768 400.526,358.768C399.692,358.768 399.063,358.536 398.639,358.073C398.214,357.61 398.002,357.031 398.002,356.336Z" style="fill-rule:nonzero;stroke:black;stroke-width:2.21px;"/>
                            <path d="M424.076,381.391C424.076,380.233 423.64,379.334 422.767,378.694C421.895,378.053 420.375,377.501 418.206,377.038C416.037,376.575 414.315,376.019 413.042,375.371C411.768,374.722 410.826,373.95 410.217,373.055C409.607,372.16 409.302,371.094 409.302,369.859C409.302,367.806 410.17,366.07 411.907,364.649C413.644,363.229 415.863,362.519 418.565,362.519C421.405,362.519 423.709,363.252 425.477,364.719C427.244,366.185 428.128,368.061 428.128,370.346L423.821,370.346C423.821,369.173 423.323,368.161 422.327,367.312C421.332,366.463 420.077,366.039 418.565,366.039C417.005,366.039 415.786,366.378 414.906,367.058C414.026,367.737 413.586,368.624 413.586,369.721C413.586,370.755 413.995,371.534 414.813,372.059C415.631,372.584 417.11,373.086 419.248,373.564C421.386,374.043 423.119,374.614 424.446,375.278C425.774,375.942 426.758,376.741 427.399,377.675C428.039,378.609 428.36,379.747 428.36,381.09C428.36,383.329 427.464,385.123 425.673,386.474C423.883,387.825 421.559,388.5 418.703,388.5C416.697,388.5 414.921,388.145 413.378,387.435C411.834,386.725 410.626,385.733 409.754,384.459C408.881,383.186 408.445,381.808 408.445,380.326L412.729,380.326C412.806,381.762 413.381,382.9 414.454,383.742C415.527,384.583 416.944,385.004 418.703,385.004C420.324,385.004 421.625,384.676 422.605,384.019C423.586,383.363 424.076,382.487 424.076,381.391Z" style="fill-rule:nonzero;stroke:black;stroke-width:2.21px;"/>
                            <path d="M439.752,356.915L439.752,362.982L444.43,362.982L444.43,366.293L439.752,366.293L439.752,381.831C439.752,382.835 439.961,383.587 440.378,384.089C440.795,384.591 441.505,384.842 442.508,384.842C443.002,384.842 443.681,384.749 444.546,384.564L444.546,388.037C443.419,388.346 442.323,388.5 441.258,388.5C439.343,388.5 437.9,387.921 436.927,386.764C435.955,385.606 435.469,383.962 435.469,381.831L435.469,366.293L430.907,366.293L430.907,362.982L435.469,362.982L435.469,356.915L439.752,356.915Z" style="fill-rule:nonzero;stroke:black;stroke-width:2.21px;"/>
                        </g>
                    </g>
                </g>
            </g>
        </g>
    </g>
</svg>
