<?xml version="1.0" encoding="UTF-8" standalone="no"?>
<!DOCTYPE svg PUBLIC "-//W3C//DTD SVG 1.1//EN" "http://www.w3.org/Graphics/SVG/1.1/DTD/svg11.dtd">
<svg width="100%" height="100%" viewBox="0 0 287 108" version="1.1" xmlns="http://www.w3.org/2000/svg" xmlns:xlink="http://www.w3.org/1999/xlink" xml:space="preserve" xmlns:serif="http://www.serif.com/" style="fill-rule:evenodd;clip-rule:evenodd;stroke-linecap:round;stroke-linejoin:round;stroke-miterlimit:1.5;">
    <g transform="matrix(1,0,0,1,-413,-691)">
        <g transform="matrix(1.03258,0,0,1.69762,0,0)">
            <g id="logos-from-memory" transform="matrix(0.968444,0,0,0.686408,289.391,361.633)">
                <path d="M400,75.792C400,71.013 395.479,67.133 389.91,67.133L125.976,67.133C120.407,67.133 115.886,71.013 115.886,75.792L115.886,148.836C115.886,153.615 120.407,157.495 125.976,157.495L389.91,157.495C395.479,157.495 400,153.615 400,148.836L400,75.792Z" style="fill:rgb(241,242,246);"/>
                <clipPath id="_clip1">
                    <path d="M400,75.792C400,71.013 395.479,67.133 389.91,67.133L125.976,67.133C120.407,67.133 115.886,71.013 115.886,75.792L115.886,148.836C115.886,153.615 120.407,157.495 125.976,157.495L389.91,157.495C395.479,157.495 400,153.615 400,148.836L400,75.792Z"/>
                </clipPath>
                <g clip-path="url(#_clip1)">
                    <g transform="matrix(0.70538,0,0,0.605342,42.9949,-124.895)">
                        <path d="M218.794,344.644C220.501,344.644 222.019,345.269 223.347,346.517C224.675,347.766 225.789,349.41 226.69,351.45C227.591,353.489 228.279,355.805 228.753,358.397C229.227,360.99 229.465,363.645 229.465,366.364C229.465,369.083 229.227,371.739 228.753,374.332C228.279,376.924 227.591,379.24 226.69,381.279C225.789,383.318 224.675,384.962 223.347,386.211C222.019,387.46 220.501,388.085 218.794,388.085C218.288,388.085 217.846,387.942 217.466,387.658C217.087,387.373 216.779,387.002 216.542,386.543C216.304,386.085 216.123,385.587 215.996,385.049C215.87,384.512 215.807,383.99 215.807,383.484L215.807,374.071C215.807,372 215.814,369.803 215.83,367.479C215.846,365.155 215.854,362.887 215.854,360.673L215.854,349.434C215.854,348.075 216.067,346.936 216.494,346.019C216.921,345.103 217.688,344.644 218.794,344.644ZM217.798,383.532C217.798,383.816 217.814,384.117 217.846,384.433C217.877,384.749 217.956,385.049 218.083,385.334C218.209,385.618 218.375,385.856 218.581,386.045C218.786,386.235 219.079,386.33 219.458,386.33C220.691,386.33 221.79,385.761 222.754,384.623C223.718,383.484 224.533,381.975 225.196,380.094C225.86,378.212 226.374,376.078 226.738,373.691C227.101,371.304 227.283,368.862 227.283,366.364C227.283,363.867 227.101,361.424 226.738,359.037C226.374,356.65 225.86,354.524 225.196,352.659C224.533,350.793 223.718,349.284 222.754,348.13C221.79,346.976 220.691,346.399 219.458,346.399C219.016,346.399 218.66,346.517 218.391,346.755C218.122,346.992 217.956,347.537 217.893,348.391L217.893,353.299C217.893,355.307 217.885,357.472 217.869,359.796C217.854,362.12 217.846,364.491 217.846,366.91C217.846,369.328 217.838,371.573 217.822,373.644C217.806,375.715 217.798,377.501 217.798,379.003L217.798,383.532Z" style="fill-rule:nonzero;"/>
                        <path d="M241.653,387.563C241.02,386.456 240.483,385.176 240.04,383.722C239.598,382.267 239.21,380.734 238.878,379.121C238.546,377.509 238.262,375.857 238.025,374.166C237.788,372.474 237.55,370.822 237.313,369.21C237.076,367.597 236.831,366.072 236.578,364.633C236.325,363.195 236.025,361.922 235.677,360.816C235.519,360.816 235.361,360.824 235.203,360.839C235.045,360.855 234.744,360.863 234.302,360.863L234.302,363.329C234.302,364.151 234.318,364.973 234.349,365.795C234.349,365.89 234.341,366.017 234.326,366.175C234.31,366.333 234.286,366.617 234.254,367.028C234.223,367.439 234.191,368.032 234.16,368.807C234.128,369.581 234.096,370.64 234.065,371.984C234.033,373.328 234.009,374.996 233.994,376.987C233.978,378.979 233.97,381.414 233.97,384.291L233.97,386.994C233.907,387.278 233.772,387.5 233.567,387.658C233.361,387.816 233.116,387.895 232.832,387.895C232.674,387.863 232.539,387.776 232.429,387.634C232.318,387.492 232.263,387.278 232.263,386.994C232.199,386.172 232.152,385.294 232.12,384.362C232.089,383.429 232.073,382.457 232.073,381.445C232.073,380.939 232.081,380.196 232.097,379.216C232.112,378.236 232.12,377.09 232.12,375.778C232.12,374.466 232.128,373.027 232.144,371.462C232.16,369.897 232.168,368.261 232.168,366.554C232.168,363.582 232.215,360.555 232.31,357.472C232.405,354.39 232.452,351.363 232.452,348.391L232.452,345.688C232.516,345.403 232.65,345.182 232.855,345.024C233.061,344.866 233.306,344.786 233.59,344.786L233.78,344.881C234.254,344.786 234.76,344.739 235.298,344.739C235.646,344.739 236.057,344.747 236.531,344.763C237.005,344.779 237.471,344.802 237.93,344.834C238.388,344.866 238.815,344.929 239.21,345.024C239.605,345.118 239.929,345.229 240.182,345.356C241.574,346.178 242.577,347.3 243.194,348.723C243.81,350.145 244.119,351.616 244.119,353.133C244.119,353.86 244.024,354.595 243.834,355.338C243.644,356.081 243.297,356.785 242.791,357.449C242.285,358.113 241.613,358.713 240.775,359.251C239.937,359.788 238.886,360.199 237.622,360.484C238.159,362.729 238.57,364.957 238.855,367.171C239.139,369.384 239.447,371.597 239.779,373.81C240.111,376.023 240.538,378.205 241.06,380.354C241.581,382.504 242.316,384.623 243.265,386.709C243.423,386.931 243.502,387.104 243.502,387.231C243.502,387.484 243.399,387.681 243.194,387.824C242.988,387.966 242.759,388.037 242.506,388.037C242.158,388.037 241.874,387.879 241.653,387.563ZM234.397,346.683L234.397,359.535C236.009,359.377 237.337,359.101 238.38,358.705C239.424,358.31 240.238,357.836 240.823,357.283C241.408,356.729 241.811,356.113 242.032,355.433C242.253,354.753 242.364,354.034 242.364,353.275C242.364,352.675 242.301,352.003 242.174,351.26C242.048,350.517 241.826,349.813 241.51,349.149C241.194,348.486 240.759,347.924 240.206,347.466C239.653,347.007 238.965,346.747 238.143,346.683L234.397,346.683Z" style="fill-rule:nonzero;"/>
                        <path d="M252.939,345.735C252.971,345.482 253.066,345.277 253.224,345.118C253.382,344.96 253.572,344.881 253.793,344.881C254.014,344.881 254.22,344.992 254.41,345.213C255.516,348.659 256.425,352.145 257.136,355.67C257.848,359.195 258.464,362.736 258.986,366.293C259.508,369.85 260.006,373.423 260.48,377.011C260.954,380.599 261.507,384.164 262.14,387.705C262.14,388.053 262.037,388.33 261.831,388.535C261.626,388.741 261.397,388.843 261.144,388.843C260.733,388.843 260.48,388.575 260.385,388.037C260.069,386.772 259.784,385.366 259.531,383.816C259.278,382.267 259.041,380.726 258.82,379.193C258.599,377.659 258.401,376.189 258.227,374.782C258.053,373.375 257.903,372.182 257.777,371.202C256.702,371.265 255.619,371.336 254.528,371.415C253.437,371.494 252.339,371.549 251.232,371.581C251.042,372.94 250.805,374.284 250.521,375.612C250.236,376.94 249.936,378.268 249.62,379.596C249.304,380.924 249.019,382.259 248.766,383.603C248.513,384.947 248.339,386.298 248.244,387.658C248.181,387.911 248.055,388.108 247.865,388.251C247.675,388.393 247.486,388.464 247.296,388.464C246.853,388.464 246.585,388.195 246.49,387.658C247.818,380.702 248.995,373.739 250.023,366.767C251.05,359.796 252.023,352.785 252.939,345.735ZM254.172,349.387C253.73,352.801 253.287,356.2 252.845,359.583C252.402,362.966 251.928,366.364 251.422,369.779C252.465,369.747 253.501,369.692 254.528,369.613C255.556,369.534 256.575,369.463 257.587,369.399L254.172,349.387Z" style="fill-rule:nonzero;"/>
                        <path d="M285.472,383.532C285.915,380.149 286.397,376.892 286.919,373.762C287.44,370.633 287.875,367.36 288.223,363.946L291.4,346.067C291.464,345.814 291.59,345.616 291.78,345.474C291.969,345.332 292.159,345.261 292.349,345.261C292.791,345.261 293.06,345.529 293.155,346.067C291.859,352.991 290.689,359.828 289.646,366.578C288.602,373.328 287.622,380.196 286.705,387.183C286.674,387.436 286.579,387.642 286.421,387.8C286.263,387.958 286.073,388.037 285.852,388.037C285.63,388.037 285.425,387.926 285.235,387.705C284.603,385.713 284.057,383.951 283.599,382.417C283.141,380.884 282.738,379.469 282.39,378.173C282.042,376.877 281.726,375.636 281.441,374.45C281.157,373.265 280.872,372.016 280.588,370.704C280.303,369.392 279.987,367.953 279.639,366.388C279.291,364.823 278.88,363.013 278.406,360.958C278.058,362.95 277.718,364.697 277.386,366.198C277.055,367.7 276.73,369.091 276.414,370.372C276.098,371.652 275.79,372.861 275.49,374C275.189,375.138 274.897,376.347 274.612,377.628C274.328,378.908 274.043,380.315 273.759,381.848C273.474,383.382 273.205,385.16 272.952,387.183C272.921,387.436 272.826,387.642 272.668,387.8C272.51,387.958 272.32,388.037 272.099,388.037C271.877,388.037 271.672,387.926 271.482,387.705C270.376,384.259 269.467,380.813 268.755,377.367C268.044,373.921 267.427,370.467 266.906,367.005C266.384,363.543 265.886,360.065 265.412,356.571C264.938,353.078 264.384,349.56 263.752,346.019C263.752,345.672 263.855,345.395 264.06,345.19C264.266,344.984 264.495,344.881 264.748,344.881C265.159,344.881 265.412,345.15 265.507,345.688C265.823,346.952 266.108,348.359 266.36,349.908C266.613,351.457 266.85,352.999 267.072,354.532C267.293,356.065 267.483,357.536 267.641,358.943C267.799,360.349 267.957,361.543 268.115,362.523C268.115,362.618 268.123,362.744 268.139,362.902C268.155,363.06 268.202,363.369 268.281,363.827C268.36,364.286 268.471,364.95 268.613,365.819C268.755,366.688 268.961,367.89 269.23,369.423C269.498,370.957 269.83,372.869 270.225,375.162C270.621,377.454 271.119,380.244 271.719,383.532C272.099,381.73 272.494,379.856 272.905,377.912C273.316,375.968 273.719,374.039 274.114,372.126C274.509,370.214 274.881,368.372 275.229,366.601C275.576,364.831 275.901,363.203 276.201,361.717C276.501,360.231 276.762,358.95 276.983,357.875C277.205,356.801 277.379,356.01 277.505,355.504C277.568,355.157 277.687,354.88 277.861,354.674C278.035,354.469 278.248,354.366 278.501,354.366C278.912,354.366 279.165,354.635 279.26,355.172L279.402,355.552C279.402,355.583 279.394,355.607 279.378,355.623C279.362,355.639 279.355,355.662 279.355,355.694C279.576,356.99 279.853,358.437 280.185,360.033C280.516,361.63 280.864,363.282 281.228,364.989C281.591,366.696 281.979,368.419 282.39,370.158C282.801,371.897 283.196,373.581 283.575,375.209C283.955,376.837 284.31,378.363 284.642,379.785C284.974,381.208 285.251,382.457 285.472,383.532Z" style="fill-rule:nonzero;"/>
                        <path d="M313.737,378.552C313.737,379.564 313.745,380.37 313.761,380.971C313.776,381.572 313.792,382.03 313.808,382.346C313.824,382.662 313.832,382.884 313.832,383.01L313.832,385.215C313.832,385.516 313.816,385.808 313.784,386.093L321.23,386.093C321.262,386.093 321.404,386.18 321.657,386.354C321.91,386.527 322.068,386.709 322.131,386.899C322.131,387.183 322.052,387.428 321.894,387.634C321.736,387.84 321.514,387.974 321.23,388.037L313.168,388.037C312.82,388.037 312.543,387.974 312.338,387.847C312.132,387.721 312.03,387.278 312.03,386.52L312.03,384.433C312.03,383.295 312.022,382.141 312.006,380.971C311.99,379.801 311.966,378.616 311.935,377.414L311.935,377.177C311.872,375.343 311.824,373.51 311.793,371.676C311.761,369.842 311.745,368.04 311.745,366.27C311.745,364.562 311.737,362.926 311.721,361.361C311.706,359.796 311.698,358.358 311.698,357.046C311.698,355.733 311.69,354.587 311.674,353.607C311.658,352.627 311.65,351.884 311.65,351.378L311.65,348.486C311.65,347.411 311.682,346.51 311.745,345.782C311.745,345.403 311.84,345.142 312.03,345C312.219,344.858 312.425,344.786 312.646,344.786C312.899,344.786 313.113,344.858 313.286,345C313.46,345.142 313.547,345.403 313.547,345.782L313.737,378.552Z" style="fill-rule:nonzero;"/>
                        <path d="M340.057,366.364C340.057,368.988 339.947,371.557 339.725,374.071C339.504,376.584 339.101,378.845 338.516,380.852C337.931,382.86 337.133,384.512 336.121,385.808C335.109,387.104 333.797,387.847 332.185,388.037C330.572,387.847 329.252,387.104 328.225,385.808C327.197,384.512 326.375,382.86 325.759,380.852C325.142,378.845 324.716,376.584 324.478,374.071C324.241,371.557 324.123,368.988 324.123,366.364C324.123,363.74 324.241,361.164 324.478,358.634C324.716,356.105 325.142,353.837 325.759,351.829C326.375,349.821 327.197,348.161 328.225,346.849C329.252,345.537 330.572,344.786 332.185,344.597C333.797,344.66 335.109,345.332 336.121,346.612C337.133,347.893 337.931,349.56 338.516,351.616C339.101,353.671 339.504,355.986 339.725,358.563C339.947,361.14 340.057,363.74 340.057,366.364ZM332.185,386.33C333.418,386.33 334.398,385.753 335.125,384.599C335.852,383.445 336.421,381.935 336.832,380.07C337.243,378.205 337.512,376.078 337.639,373.691C337.765,371.304 337.828,368.862 337.828,366.364C337.828,363.898 337.765,361.464 337.639,359.061C337.512,356.658 337.243,354.524 336.832,352.659C336.421,350.793 335.852,349.284 335.125,348.13C334.398,346.976 333.418,346.399 332.185,346.399C330.952,346.399 329.964,346.976 329.221,348.13C328.478,349.284 327.909,350.793 327.514,352.659C327.118,354.524 326.85,356.658 326.707,359.061C326.565,361.464 326.494,363.898 326.494,366.364C326.494,368.862 326.565,371.304 326.707,373.691C326.85,376.078 327.118,378.205 327.514,380.07C327.909,381.935 328.478,383.445 329.221,384.599C329.964,385.753 330.952,386.33 332.185,386.33Z" style="fill-rule:nonzero;"/>
                        <path d="M353.194,344.644C354.016,344.644 354.703,344.96 355.257,345.593C355.81,346.225 356.134,347.316 356.229,348.865C356.197,349.308 356.071,349.663 355.849,349.932C355.628,350.201 355.391,350.335 355.138,350.335C354.885,350.335 354.672,350.224 354.498,350.003C354.324,349.782 354.205,349.402 354.142,348.865C354.047,347.79 353.881,347.11 353.644,346.826C353.407,346.541 353.036,346.399 352.53,346.399C351.297,346.399 350.206,346.976 349.257,348.13C348.309,349.284 347.503,350.793 346.839,352.659C346.175,354.524 345.669,356.65 345.321,359.037C344.974,361.424 344.8,363.867 344.8,366.364C344.8,368.862 344.974,371.304 345.321,373.691C345.669,376.078 346.175,378.212 346.839,380.094C347.503,381.975 348.309,383.484 349.257,384.623C350.206,385.761 351.297,386.33 352.53,386.33C353.036,386.33 353.407,386.188 353.644,385.903C353.881,385.618 354.047,384.939 354.142,383.864C354.142,382.441 354.166,380.987 354.213,379.501C354.261,378.015 354.284,376.371 354.284,374.569L354.284,373.549C354.284,373.154 354.269,372.782 354.237,372.435C354.205,372.087 354.15,371.786 354.071,371.534C353.992,371.281 353.889,371.154 353.763,371.154L351.913,371.154C351.281,371.154 350.696,371.17 350.159,371.202C349.842,371.202 349.613,371.123 349.471,370.964C349.329,370.806 349.257,370.617 349.257,370.395C349.257,370.174 349.337,369.969 349.495,369.779C349.653,369.589 349.874,369.463 350.159,369.399C350.791,369.368 351.399,369.352 351.984,369.352L353.763,369.352C354.016,369.352 354.395,369.384 354.901,369.447C355.407,369.51 355.739,369.716 355.897,370.063C355.96,370.791 356.007,371.494 356.039,372.174C356.071,372.854 356.087,373.557 356.087,374.284C356.087,374.885 356.118,375.723 356.181,376.798C356.245,377.873 356.276,379.011 356.276,380.212C356.276,381.161 356.237,382.109 356.158,383.058C356.079,384.006 355.928,384.852 355.707,385.595C355.486,386.338 355.178,386.938 354.782,387.397C354.387,387.855 353.858,388.085 353.194,388.085C351.486,388.085 349.969,387.46 348.641,386.211C347.313,384.962 346.199,383.318 345.298,381.279C344.397,379.24 343.709,376.924 343.235,374.332C342.76,371.739 342.523,369.083 342.523,366.364C342.523,363.645 342.76,360.99 343.235,358.397C343.709,355.805 344.397,353.489 345.298,351.45C346.199,349.41 347.313,347.766 348.641,346.517C349.969,345.269 351.486,344.644 353.194,344.644Z" style="fill-rule:nonzero;"/>
                        <path d="M374.345,366.364C374.345,368.988 374.234,371.557 374.013,374.071C373.791,376.584 373.388,378.845 372.803,380.852C372.219,382.86 371.42,384.512 370.409,385.808C369.397,387.104 368.085,387.847 366.472,388.037C364.86,387.847 363.54,387.104 362.512,385.808C361.485,384.512 360.663,382.86 360.046,380.852C359.43,378.845 359.003,376.584 358.766,374.071C358.529,371.557 358.41,368.988 358.41,366.364C358.41,363.74 358.529,361.164 358.766,358.634C359.003,356.105 359.43,353.837 360.046,351.829C360.663,349.821 361.485,348.161 362.512,346.849C363.54,345.537 364.86,344.786 366.472,344.597C368.085,344.66 369.397,345.332 370.409,346.612C371.42,347.893 372.219,349.56 372.803,351.616C373.388,353.671 373.791,355.986 374.013,358.563C374.234,361.14 374.345,363.74 374.345,366.364ZM366.472,386.33C367.705,386.33 368.685,385.753 369.413,384.599C370.14,383.445 370.709,381.935 371.12,380.07C371.531,378.205 371.8,376.078 371.926,373.691C372.053,371.304 372.116,368.862 372.116,366.364C372.116,363.898 372.053,361.464 371.926,359.061C371.8,356.658 371.531,354.524 371.12,352.659C370.709,350.793 370.14,349.284 369.413,348.13C368.685,346.976 367.705,346.399 366.472,346.399C365.239,346.399 364.251,346.976 363.508,348.13C362.765,349.284 362.196,350.793 361.801,352.659C361.406,354.524 361.137,356.658 360.995,359.061C360.853,361.464 360.782,363.898 360.782,366.364C360.782,368.862 360.853,371.304 360.995,373.691C361.137,376.078 361.406,378.205 361.801,380.07C362.196,381.935 362.765,383.445 363.508,384.599C364.251,385.753 365.239,386.33 366.472,386.33Z" style="fill-rule:nonzero;"/>
                        <path d="M385.205,388.085C384.794,388.085 384.264,388.005 383.616,387.847C382.968,387.689 382.336,387.444 381.719,387.112C381.103,386.78 380.557,386.346 380.083,385.808C379.609,385.271 379.356,384.623 379.324,383.864C379.356,383.421 379.482,383.065 379.704,382.797C379.925,382.528 380.162,382.394 380.415,382.394C380.668,382.394 380.881,382.504 381.055,382.726C381.229,382.947 381.348,383.326 381.411,383.864C381.443,384.401 381.648,384.828 382.027,385.144C382.407,385.46 382.842,385.705 383.332,385.879C383.822,386.053 384.304,386.172 384.778,386.235C385.252,386.298 385.616,386.33 385.869,386.33C386.375,386.33 386.888,386.227 387.41,386.022C387.932,385.816 388.398,385.516 388.809,385.121C389.22,384.725 389.552,384.243 389.805,383.674C390.058,383.105 390.184,382.473 390.184,381.777C390.184,380.702 389.852,379.88 389.188,379.311C388.525,378.742 387.703,378.244 386.722,377.817C385.742,377.39 384.667,376.964 383.498,376.537C382.328,376.11 381.253,375.501 380.273,374.711C379.293,373.921 378.471,372.877 377.807,371.581C377.143,370.285 376.811,368.546 376.811,366.364C376.811,363.645 377.048,360.99 377.522,358.397C377.996,355.805 378.684,353.489 379.585,351.45C380.486,349.41 381.601,347.766 382.928,346.517C384.256,345.269 385.774,344.644 387.481,344.644C388.398,344.644 389.165,344.873 389.781,345.332C390.398,345.79 390.888,346.399 391.251,347.158C391.615,347.916 391.876,348.802 392.034,349.813C392.192,350.825 392.271,351.868 392.271,352.943C392.271,353.196 392.129,353.402 391.844,353.56C391.56,353.718 391.291,353.797 391.038,353.797C390.627,353.797 390.421,353.655 390.421,353.37C390.421,352.453 390.358,351.576 390.232,350.738C390.105,349.9 389.9,349.157 389.615,348.509C389.331,347.861 388.959,347.347 388.501,346.968C388.042,346.589 387.481,346.399 386.817,346.399C385.584,346.399 384.501,346.968 383.569,348.106C382.636,349.244 381.854,350.746 381.221,352.611C380.589,354.477 380.107,356.595 379.775,358.966C379.443,361.337 379.277,363.756 379.277,366.222C379.277,368.151 379.601,369.684 380.249,370.822C380.897,371.96 381.703,372.877 382.668,373.573C383.632,374.268 384.683,374.822 385.821,375.233C386.96,375.644 388.011,376.094 388.975,376.584C389.939,377.074 390.746,377.699 391.394,378.457C392.042,379.216 392.366,380.26 392.366,381.587C392.366,382.568 392.145,383.453 391.702,384.243C391.259,385.034 390.698,385.713 390.018,386.282C389.339,386.852 388.572,387.294 387.718,387.61C386.865,387.926 386.027,388.085 385.205,388.085Z" style="fill-rule:nonzero;"/>
                        <path d="M210.946,407.205L210.946,438.077C210.946,438.457 210.859,438.718 210.685,438.86C210.511,439.002 210.297,439.073 210.044,439.073C209.823,439.073 209.618,439.002 209.428,438.86C209.238,438.718 209.143,438.457 209.143,438.077C209.08,437.35 209.049,436.449 209.049,435.374L209.049,432.481C209.049,431.976 209.056,431.233 209.072,430.253C209.088,429.272 209.096,428.126 209.096,426.814C209.096,425.502 209.104,424.064 209.12,422.499C209.136,420.934 209.143,419.298 209.143,417.59C209.143,415.82 209.167,414.018 209.215,412.184C209.262,410.35 209.286,408.517 209.286,406.683L209.286,400.707C209.286,400.296 209.302,399.87 209.333,399.427L209.428,397.34C209.428,396.582 209.531,396.139 209.736,396.012C209.942,395.886 210.218,395.823 210.566,395.823L218.628,395.823C218.913,395.886 219.134,396.02 219.292,396.226C219.45,396.431 219.529,396.676 219.529,396.961C219.466,397.151 219.308,397.332 219.055,397.506C218.802,397.68 218.66,397.767 218.628,397.767L211.183,397.767C211.214,398.052 211.23,398.344 211.23,398.644L211.23,400.85C211.23,400.976 211.222,401.197 211.206,401.514C211.191,401.83 211.175,402.288 211.159,402.889C211.143,403.49 211.135,404.296 211.135,405.308L215.214,405.308C215.814,405.402 216.115,405.734 216.115,406.303C216.083,406.462 215.996,406.659 215.854,406.896C215.712,407.133 215.498,407.252 215.214,407.252L210.946,407.205Z" style="fill-rule:nonzero;"/>
                        <path d="M231.29,438.599C230.658,437.493 230.121,436.212 229.678,434.758C229.235,433.303 228.848,431.77 228.516,430.158C228.184,428.545 227.9,426.893 227.662,425.202C227.425,423.51 227.188,421.859 226.951,420.246C226.714,418.634 226.469,417.108 226.216,415.67C225.963,414.231 225.663,412.959 225.315,411.852C225.157,411.852 224.999,411.86 224.841,411.876C224.683,411.892 224.382,411.899 223.94,411.899L223.94,414.366C223.94,415.188 223.956,416.01 223.987,416.832C223.987,416.926 223.979,417.053 223.963,417.211C223.948,417.369 223.924,417.654 223.892,418.065C223.861,418.476 223.829,419.068 223.797,419.843C223.766,420.618 223.734,421.677 223.703,423.02C223.671,424.364 223.647,426.032 223.631,428.024C223.616,430.015 223.608,432.45 223.608,435.327L223.608,438.03C223.545,438.315 223.41,438.536 223.205,438.694C222.999,438.852 222.754,438.931 222.47,438.931C222.311,438.9 222.177,438.813 222.066,438.67C221.956,438.528 221.9,438.315 221.9,438.03C221.837,437.208 221.79,436.331 221.758,435.398C221.727,434.465 221.711,433.493 221.711,432.481C221.711,431.976 221.719,431.233 221.734,430.253C221.75,429.272 221.758,428.126 221.758,426.814C221.758,425.502 221.766,424.064 221.782,422.499C221.798,420.934 221.806,419.298 221.806,417.59C221.806,414.618 221.853,411.591 221.948,408.509C222.043,405.426 222.09,402.399 222.09,399.427L222.09,396.724C222.153,396.439 222.288,396.218 222.493,396.06C222.699,395.902 222.944,395.823 223.228,395.823L223.418,395.918C223.892,395.823 224.398,395.775 224.936,395.775C225.283,395.775 225.694,395.783 226.169,395.799C226.643,395.815 227.109,395.839 227.568,395.87C228.026,395.902 228.453,395.965 228.848,396.06C229.243,396.155 229.567,396.265 229.82,396.392C231.211,397.214 232.215,398.336 232.832,399.759C233.448,401.182 233.756,402.652 233.756,404.169C233.756,404.897 233.662,405.632 233.472,406.375C233.282,407.118 232.934,407.821 232.429,408.485C231.923,409.149 231.251,409.75 230.413,410.287C229.575,410.825 228.524,411.236 227.259,411.52C227.797,413.765 228.208,415.994 228.492,418.207C228.777,420.42 229.085,422.633 229.417,424.846C229.749,427.059 230.176,429.241 230.698,431.391C231.219,433.541 231.954,435.659 232.903,437.746C233.061,437.967 233.14,438.141 233.14,438.267C233.14,438.52 233.037,438.718 232.832,438.86C232.626,439.002 232.397,439.073 232.144,439.073C231.796,439.073 231.512,438.915 231.29,438.599ZM224.035,397.72L224.035,410.572C225.647,410.414 226.975,410.137 228.018,409.742C229.061,409.346 229.876,408.872 230.461,408.319C231.045,407.766 231.449,407.149 231.67,406.469C231.891,405.79 232.002,405.07 232.002,404.312C232.002,403.711 231.939,403.039 231.812,402.296C231.686,401.553 231.464,400.85 231.148,400.186C230.832,399.522 230.397,398.961 229.844,398.502C229.291,398.044 228.603,397.783 227.781,397.72L224.035,397.72Z" style="fill-rule:nonzero;"/>
                        <path d="M252.157,417.401C252.157,420.025 252.046,422.594 251.825,425.107C251.604,427.621 251.201,429.881 250.616,431.889C250.031,433.896 249.232,435.548 248.221,436.844C247.209,438.141 245.897,438.884 244.285,439.073C242.672,438.884 241.352,438.141 240.325,436.844C239.297,435.548 238.475,433.896 237.859,431.889C237.242,429.881 236.815,427.621 236.578,425.107C236.341,422.594 236.223,420.025 236.223,417.401C236.223,414.777 236.341,412.2 236.578,409.671C236.815,407.141 237.242,404.873 237.859,402.865C238.475,400.858 239.297,399.198 240.325,397.886C241.352,396.574 242.672,395.823 244.285,395.633C245.897,395.696 247.209,396.368 248.221,397.649C249.232,398.929 250.031,400.597 250.616,402.652C251.201,404.707 251.604,407.023 251.825,409.599C252.046,412.176 252.157,414.777 252.157,417.401ZM244.285,437.366C245.518,437.366 246.498,436.789 247.225,435.635C247.952,434.481 248.521,432.972 248.932,431.106C249.343,429.241 249.612,427.115 249.738,424.728C249.865,422.341 249.928,419.898 249.928,417.401C249.928,414.935 249.865,412.5 249.738,410.097C249.612,407.695 249.343,405.56 248.932,403.695C248.521,401.83 247.952,400.32 247.225,399.166C246.498,398.012 245.518,397.435 244.285,397.435C243.052,397.435 242.064,398.012 241.321,399.166C240.578,400.32 240.009,401.83 239.613,403.695C239.218,405.56 238.949,407.695 238.807,410.097C238.665,412.5 238.594,414.935 238.594,417.401C238.594,419.898 238.665,422.341 238.807,424.728C238.949,427.115 239.218,429.241 239.613,431.106C240.009,432.972 240.578,434.481 241.321,435.635C242.064,436.789 243.052,437.366 244.285,437.366Z" style="fill-rule:nonzero;"/>
                        <path d="M271.79,416.832C271.79,415.409 271.783,414.026 271.767,412.682C271.751,411.338 271.743,410.074 271.743,408.888C271.743,407.702 271.735,406.628 271.719,405.663C271.704,404.699 271.696,403.901 271.696,403.268C271.095,405.64 270.51,408.042 269.941,410.477C269.372,412.911 268.771,415.282 268.139,417.59C267.633,419.487 267.167,421.289 266.74,422.997C266.313,424.704 265.926,426.253 265.578,427.644C265.515,427.992 265.388,428.245 265.199,428.403C265.009,428.561 264.803,428.64 264.582,428.64C264.329,428.64 264.116,428.545 263.942,428.356C263.768,428.166 263.649,427.929 263.586,427.644L261.025,417.59C260.393,415.282 259.792,412.911 259.223,410.477C258.654,408.042 258.069,405.64 257.468,403.268C257.468,403.901 257.461,404.699 257.445,405.663C257.429,406.628 257.413,407.702 257.397,408.888C257.381,410.074 257.374,411.338 257.374,412.682L257.374,418.729C257.342,421.542 257.287,424.317 257.208,427.051C257.129,429.786 257.089,432.545 257.089,435.327L257.089,438.03C257.026,438.315 256.891,438.536 256.686,438.694C256.48,438.852 256.235,438.931 255.951,438.931C255.793,438.9 255.658,438.813 255.548,438.67C255.437,438.528 255.382,438.315 255.382,438.03C255.319,437.208 255.271,436.331 255.24,435.398C255.208,434.465 255.192,433.493 255.192,432.481C255.192,431.976 255.2,431.233 255.216,430.253C255.232,429.272 255.24,428.126 255.24,426.814C255.24,425.502 255.247,424.064 255.263,422.499C255.279,420.934 255.287,419.298 255.287,417.59C255.287,414.618 255.334,411.591 255.429,408.509C255.524,405.426 255.571,402.399 255.571,399.427L255.571,396.724C255.603,396.408 255.761,396.171 256.046,396.012L256.283,395.918C256.409,395.854 256.552,395.823 256.71,395.823L256.994,395.965C257.216,396.123 257.374,396.376 257.468,396.724C257.785,397.546 258.077,398.423 258.346,399.356C258.615,400.289 258.875,401.261 259.128,402.272C259.255,402.747 259.46,403.466 259.745,404.43C260.029,405.394 260.345,406.525 260.693,407.821C261.041,409.117 261.413,410.532 261.808,412.065C262.203,413.599 262.59,415.188 262.97,416.832L264.487,423.423L266.289,416.832C266.7,415.219 267.103,413.646 267.499,412.113C267.894,410.58 268.257,409.157 268.589,407.845C268.921,406.533 269.214,405.394 269.467,404.43C269.72,403.466 269.909,402.747 270.036,402.272C270.289,401.261 270.55,400.289 270.818,399.356C271.087,398.423 271.379,397.546 271.696,396.724C271.79,396.344 271.933,396.091 272.122,395.965C272.186,395.902 272.249,395.87 272.312,395.87C272.375,395.87 272.47,395.854 272.597,395.823C272.66,395.823 272.755,395.854 272.881,395.918L273.071,396.012C273.387,396.171 273.561,396.408 273.593,396.724L273.593,399.427C273.593,402.399 273.64,405.426 273.735,408.509C273.83,411.591 273.877,414.618 273.877,417.59C273.877,419.298 273.885,420.934 273.901,422.499C273.917,424.064 273.925,425.502 273.925,426.814C273.925,428.126 273.932,429.272 273.948,430.253C273.964,431.233 273.972,431.976 273.972,432.481C273.972,433.493 273.956,434.465 273.925,435.398C273.893,436.331 273.846,437.208 273.782,438.03C273.782,438.315 273.727,438.528 273.616,438.67C273.506,438.813 273.371,438.9 273.213,438.931C272.929,438.931 272.684,438.852 272.478,438.694C272.273,438.536 272.138,438.315 272.075,438.03L272.075,435.327C272.075,432.545 272.035,429.786 271.956,427.051C271.877,424.317 271.822,421.542 271.79,418.729L271.79,416.832Z" style="fill-rule:nonzero;"/>
                        <path d="M309.967,416.832C309.967,415.409 309.959,414.026 309.943,412.682C309.927,411.338 309.919,410.074 309.919,408.888C309.919,407.702 309.911,406.628 309.896,405.663C309.88,404.699 309.872,403.901 309.872,403.268C309.271,405.64 308.686,408.042 308.117,410.477C307.548,412.911 306.947,415.282 306.315,417.59C305.809,419.487 305.343,421.289 304.916,422.997C304.489,424.704 304.102,426.253 303.754,427.644C303.691,427.992 303.565,428.245 303.375,428.403C303.185,428.561 302.98,428.64 302.758,428.64C302.505,428.64 302.292,428.545 302.118,428.356C301.944,428.166 301.826,427.929 301.762,427.644L299.202,417.59C298.569,415.282 297.968,412.911 297.399,410.477C296.83,408.042 296.245,405.64 295.645,403.268C295.645,403.901 295.637,404.699 295.621,405.663C295.605,406.628 295.589,407.702 295.574,408.888C295.558,410.074 295.55,411.338 295.55,412.682L295.55,418.729C295.518,421.542 295.463,424.317 295.384,427.051C295.305,429.786 295.265,432.545 295.265,435.327L295.265,438.03C295.202,438.315 295.068,438.536 294.862,438.694C294.657,438.852 294.412,438.931 294.127,438.931C293.969,438.9 293.835,438.813 293.724,438.67C293.613,438.528 293.558,438.315 293.558,438.03C293.495,437.208 293.447,436.331 293.416,435.398C293.384,434.465 293.368,433.493 293.368,432.481C293.368,431.976 293.376,431.233 293.392,430.253C293.408,429.272 293.416,428.126 293.416,426.814C293.416,425.502 293.424,424.064 293.44,422.499C293.455,420.934 293.463,419.298 293.463,417.59C293.463,414.618 293.511,411.591 293.605,408.509C293.7,405.426 293.748,402.399 293.748,399.427L293.748,396.724C293.779,396.408 293.937,396.171 294.222,396.012L294.459,395.918C294.586,395.854 294.728,395.823 294.886,395.823L295.17,395.965C295.392,396.123 295.55,396.376 295.645,396.724C295.961,397.546 296.253,398.423 296.522,399.356C296.791,400.289 297.052,401.261 297.305,402.272C297.431,402.747 297.637,403.466 297.921,404.43C298.206,405.394 298.522,406.525 298.87,407.821C299.217,409.117 299.589,410.532 299.984,412.065C300.379,413.599 300.767,415.188 301.146,416.832L302.663,423.423L304.466,416.832C304.877,415.219 305.28,413.646 305.675,412.113C306.07,410.58 306.434,409.157 306.766,407.845C307.098,406.533 307.39,405.394 307.643,404.43C307.896,403.466 308.086,402.747 308.212,402.272C308.465,401.261 308.726,400.289 308.995,399.356C309.263,398.423 309.556,397.546 309.872,396.724C309.967,396.344 310.109,396.091 310.299,395.965C310.362,395.902 310.425,395.87 310.488,395.87C310.552,395.87 310.646,395.854 310.773,395.823C310.836,395.823 310.931,395.854 311.058,395.918L311.247,396.012C311.563,396.171 311.737,396.408 311.769,396.724L311.769,399.427C311.769,402.399 311.816,405.426 311.911,408.509C312.006,411.591 312.053,414.618 312.053,417.59C312.053,419.298 312.061,420.934 312.077,422.499C312.093,424.064 312.101,425.502 312.101,426.814C312.101,428.126 312.109,429.272 312.125,430.253C312.14,431.233 312.148,431.976 312.148,432.481C312.148,433.493 312.132,434.465 312.101,435.398C312.069,436.331 312.022,437.208 311.959,438.03C311.959,438.315 311.903,438.528 311.793,438.67C311.682,438.813 311.548,438.9 311.389,438.931C311.105,438.931 310.86,438.852 310.654,438.694C310.449,438.536 310.315,438.315 310.251,438.03L310.251,435.327C310.251,432.545 310.212,429.786 310.133,427.051C310.054,424.317 309.998,421.542 309.967,418.729L309.967,416.832Z" style="fill-rule:nonzero;"/>
                        <path d="M324.953,395.68C325.87,395.68 326.636,395.91 327.253,396.368C327.869,396.827 328.359,397.435 328.723,398.194C329.087,398.953 329.347,399.838 329.505,400.85C329.663,401.861 329.743,402.905 329.743,403.98C329.743,406.224 329.49,408.477 328.984,410.738C328.478,412.998 327.703,415.069 326.66,416.95C325.617,418.831 324.297,420.428 322.7,421.74C321.103,423.052 319.214,423.866 317.033,424.182C317.254,426.016 317.578,427.731 318.005,429.328C318.432,430.924 318.954,432.315 319.57,433.501C320.187,434.687 320.89,435.627 321.68,436.323C322.471,437.018 323.34,437.366 324.289,437.366C324.795,437.366 325.166,437.224 325.403,436.939C325.64,436.655 325.806,435.975 325.901,434.9C325.964,434.363 326.083,433.983 326.257,433.762C326.431,433.541 326.644,433.43 326.897,433.43C327.15,433.43 327.387,433.564 327.608,433.833C327.83,434.102 327.956,434.457 327.988,434.9C327.893,436.449 327.569,437.54 327.016,438.172C326.462,438.805 325.775,439.121 324.953,439.121C323.245,439.121 321.728,438.496 320.4,437.248C319.072,435.999 317.958,434.355 317.057,432.315C316.156,430.276 315.468,427.96 314.994,425.368C314.519,422.775 314.282,420.12 314.282,417.401C314.282,414.682 314.519,412.026 314.994,409.433C315.468,406.841 316.156,404.525 317.057,402.486C317.958,400.447 319.072,398.803 320.4,397.554C321.728,396.305 323.245,395.68 324.953,395.68ZM316.559,417.401C316.559,418.159 316.582,418.918 316.63,419.677C316.677,420.436 316.733,421.179 316.796,421.906C318.598,421.685 320.187,421.005 321.562,419.867C322.937,418.729 324.099,417.33 325.048,415.67C325.996,414.01 326.707,412.192 327.182,410.216C327.656,408.24 327.893,406.303 327.893,404.406C327.893,403.49 327.83,402.612 327.703,401.774C327.577,400.937 327.371,400.194 327.087,399.546C326.802,398.897 326.431,398.384 325.972,398.004C325.514,397.625 324.953,397.435 324.289,397.435C323.056,397.435 321.965,398.012 321.017,399.166C320.068,400.32 319.262,401.83 318.598,403.695C317.934,405.56 317.428,407.687 317.08,410.074C316.733,412.461 316.559,414.903 316.559,417.401Z" style="fill-rule:nonzero;"/>
                        <path d="M348.807,416.832C348.807,415.409 348.799,414.026 348.783,412.682C348.767,411.338 348.76,410.074 348.76,408.888C348.76,407.702 348.752,406.628 348.736,405.663C348.72,404.699 348.712,403.901 348.712,403.268C348.111,405.64 347.527,408.042 346.957,410.477C346.388,412.911 345.788,415.282 345.155,417.59C344.649,419.487 344.183,421.289 343.756,422.997C343.329,424.704 342.942,426.253 342.594,427.644C342.531,427.992 342.405,428.245 342.215,428.403C342.025,428.561 341.82,428.64 341.599,428.64C341.346,428.64 341.132,428.545 340.958,428.356C340.784,428.166 340.666,427.929 340.603,427.644L338.042,417.59C337.409,415.282 336.809,412.911 336.24,410.477C335.671,408.042 335.086,405.64 334.485,403.268C334.485,403.901 334.477,404.699 334.461,405.663C334.445,406.628 334.43,407.702 334.414,408.888C334.398,410.074 334.39,411.338 334.39,412.682L334.39,418.729C334.358,421.542 334.303,424.317 334.224,427.051C334.145,429.786 334.106,432.545 334.106,435.327L334.106,438.03C334.042,438.315 333.908,438.536 333.702,438.694C333.497,438.852 333.252,438.931 332.967,438.931C332.809,438.9 332.675,438.813 332.564,438.67C332.454,438.528 332.398,438.315 332.398,438.03C332.335,437.208 332.288,436.331 332.256,435.398C332.224,434.465 332.209,433.493 332.209,432.481C332.209,431.976 332.216,431.233 332.232,430.253C332.248,429.272 332.256,428.126 332.256,426.814C332.256,425.502 332.264,424.064 332.28,422.499C332.296,420.934 332.303,419.298 332.303,417.59C332.303,414.618 332.351,411.591 332.446,408.509C332.541,405.426 332.588,402.399 332.588,399.427L332.588,396.724C332.62,396.408 332.778,396.171 333.062,396.012L333.299,395.918C333.426,395.854 333.568,395.823 333.726,395.823L334.011,395.965C334.232,396.123 334.39,396.376 334.485,396.724C334.801,397.546 335.094,398.423 335.362,399.356C335.631,400.289 335.892,401.261 336.145,402.272C336.271,402.747 336.477,403.466 336.761,404.43C337.046,405.394 337.362,406.525 337.71,407.821C338.058,409.117 338.429,410.532 338.824,412.065C339.219,413.599 339.607,415.188 339.986,416.832L341.504,423.423L343.306,416.832C343.717,415.219 344.12,413.646 344.515,412.113C344.91,410.58 345.274,409.157 345.606,407.845C345.938,406.533 346.23,405.394 346.483,404.43C346.736,403.466 346.926,402.747 347.052,402.272C347.305,401.261 347.566,400.289 347.835,399.356C348.104,398.423 348.396,397.546 348.712,396.724C348.807,396.344 348.949,396.091 349.139,395.965C349.202,395.902 349.265,395.87 349.329,395.87C349.392,395.87 349.487,395.854 349.613,395.823C349.676,395.823 349.771,395.854 349.898,395.918L350.087,396.012C350.404,396.171 350.577,396.408 350.609,396.724L350.609,399.427C350.609,402.399 350.656,405.426 350.751,408.509C350.846,411.591 350.894,414.618 350.894,417.59C350.894,419.298 350.902,420.934 350.917,422.499C350.933,424.064 350.941,425.502 350.941,426.814C350.941,428.126 350.949,429.272 350.965,430.253C350.981,431.233 350.988,431.976 350.988,432.481C350.988,433.493 350.973,434.465 350.941,435.398C350.909,436.331 350.862,437.208 350.799,438.03C350.799,438.315 350.743,438.528 350.633,438.67C350.522,438.813 350.388,438.9 350.23,438.931C349.945,438.931 349.7,438.852 349.495,438.694C349.289,438.536 349.155,438.315 349.092,438.03L349.092,435.327C349.092,432.545 349.052,429.786 348.973,427.051C348.894,424.317 348.839,421.542 348.807,418.729L348.807,416.832Z" style="fill-rule:nonzero;"/>
                        <path d="M369.579,417.401C369.579,420.025 369.468,422.594 369.247,425.107C369.025,427.621 368.622,429.881 368.037,431.889C367.452,433.896 366.654,435.548 365.642,436.844C364.631,438.141 363.319,438.884 361.706,439.073C360.094,438.884 358.774,438.141 357.746,436.844C356.719,435.548 355.897,433.896 355.28,431.889C354.664,429.881 354.237,427.621 354,425.107C353.763,422.594 353.644,420.025 353.644,417.401C353.644,414.777 353.763,412.2 354,409.671C354.237,407.141 354.664,404.873 355.28,402.865C355.897,400.858 356.719,399.198 357.746,397.886C358.774,396.574 360.094,395.823 361.706,395.633C363.319,395.696 364.631,396.368 365.642,397.649C366.654,398.929 367.452,400.597 368.037,402.652C368.622,404.707 369.025,407.023 369.247,409.599C369.468,412.176 369.579,414.777 369.579,417.401ZM361.706,437.366C362.939,437.366 363.919,436.789 364.647,435.635C365.374,434.481 365.943,432.972 366.354,431.106C366.765,429.241 367.034,427.115 367.16,424.728C367.286,422.341 367.35,419.898 367.35,417.401C367.35,414.935 367.286,412.5 367.16,410.097C367.034,407.695 366.765,405.56 366.354,403.695C365.943,401.83 365.374,400.32 364.647,399.166C363.919,398.012 362.939,397.435 361.706,397.435C360.473,397.435 359.485,398.012 358.742,399.166C357.999,400.32 357.43,401.83 357.035,403.695C356.64,405.56 356.371,407.695 356.229,410.097C356.087,412.5 356.015,414.935 356.015,417.401C356.015,419.898 356.087,422.341 356.229,424.728C356.371,427.115 356.64,429.241 357.035,431.106C357.43,432.972 357.999,434.481 358.742,435.635C359.485,436.789 360.473,437.366 361.706,437.366Z" style="fill-rule:nonzero;"/>
                        <path d="M382.193,438.599C381.561,437.493 381.024,436.212 380.581,434.758C380.138,433.303 379.751,431.77 379.419,430.158C379.087,428.545 378.803,426.893 378.565,425.202C378.328,423.51 378.091,421.859 377.854,420.246C377.617,418.634 377.372,417.108 377.119,415.67C376.866,414.231 376.566,412.959 376.218,411.852C376.06,411.852 375.902,411.86 375.744,411.876C375.586,411.892 375.285,411.899 374.843,411.899L374.843,414.366C374.843,415.188 374.859,416.01 374.89,416.832C374.89,416.926 374.882,417.053 374.866,417.211C374.851,417.369 374.827,417.654 374.795,418.065C374.764,418.476 374.732,419.068 374.7,419.843C374.669,420.618 374.637,421.677 374.606,423.02C374.574,424.364 374.55,426.032 374.534,428.024C374.519,430.015 374.511,432.45 374.511,435.327L374.511,438.03C374.448,438.315 374.313,438.536 374.108,438.694C373.902,438.852 373.657,438.931 373.373,438.931C373.214,438.9 373.08,438.813 372.969,438.67C372.859,438.528 372.803,438.315 372.803,438.03C372.74,437.208 372.693,436.331 372.661,435.398C372.63,434.465 372.614,433.493 372.614,432.481C372.614,431.976 372.622,431.233 372.637,430.253C372.653,429.272 372.661,428.126 372.661,426.814C372.661,425.502 372.669,424.064 372.685,422.499C372.701,420.934 372.709,419.298 372.709,417.59C372.709,414.618 372.756,411.591 372.851,408.509C372.946,405.426 372.993,402.399 372.993,399.427L372.993,396.724C373.056,396.439 373.191,396.218 373.396,396.06C373.602,395.902 373.847,395.823 374.131,395.823L374.321,395.918C374.795,395.823 375.301,395.775 375.839,395.775C376.186,395.775 376.597,395.783 377.072,395.799C377.546,395.815 378.012,395.839 378.471,395.87C378.929,395.902 379.356,395.965 379.751,396.06C380.146,396.155 380.47,396.265 380.723,396.392C382.114,397.214 383.118,398.336 383.735,399.759C384.351,401.182 384.659,402.652 384.659,404.169C384.659,404.897 384.565,405.632 384.375,406.375C384.185,407.118 383.837,407.821 383.332,408.485C382.826,409.149 382.154,409.75 381.316,410.287C380.478,410.825 379.427,411.236 378.162,411.52C378.7,413.765 379.111,415.994 379.395,418.207C379.68,420.42 379.988,422.633 380.32,424.846C380.652,427.059 381.079,429.241 381.601,431.391C382.122,433.541 382.857,435.659 383.806,437.746C383.964,437.967 384.043,438.141 384.043,438.267C384.043,438.52 383.94,438.718 383.735,438.86C383.529,439.002 383.3,439.073 383.047,439.073C382.699,439.073 382.415,438.915 382.193,438.599ZM374.938,397.72L374.938,410.572C376.55,410.414 377.878,410.137 378.921,409.742C379.964,409.346 380.779,408.872 381.364,408.319C381.948,407.766 382.351,407.149 382.573,406.469C382.794,405.79 382.905,405.07 382.905,404.312C382.905,403.711 382.842,403.039 382.715,402.296C382.589,401.553 382.367,400.85 382.051,400.186C381.735,399.522 381.3,398.961 380.747,398.502C380.194,398.044 379.506,397.783 378.684,397.72L374.938,397.72Z" style="fill-rule:nonzero;"/>
                        <path d="M398.128,421.574C397.211,423.977 396.049,425.913 394.642,427.383C393.235,428.854 391.583,429.589 389.686,429.589C388.959,429.589 388.398,429.312 388.003,428.759C387.608,428.205 387.315,427.494 387.126,426.625C386.936,425.755 386.825,424.783 386.794,423.708C386.762,422.633 386.746,421.59 386.746,420.578C386.746,420.072 386.754,419.709 386.77,419.487C386.786,419.266 386.794,418.942 386.794,418.515C386.794,418.088 386.801,417.464 386.817,416.642C386.833,415.82 386.841,414.555 386.841,412.848C386.841,411.394 386.857,410.153 386.888,409.125C386.92,408.098 386.952,407.11 386.983,406.161C387.015,405.213 387.046,404.233 387.078,403.221C387.11,402.209 387.126,400.96 387.126,399.474L387.126,396.771C387.189,396.487 387.323,396.265 387.529,396.107C387.734,395.949 387.979,395.87 388.264,395.87C388.422,395.902 388.556,395.989 388.667,396.131C388.777,396.273 388.833,396.487 388.833,396.771C388.896,397.593 388.943,398.463 388.975,399.38C389.007,400.296 389.022,401.261 389.022,402.272C389.022,402.747 389.015,403.221 388.999,403.695C388.983,404.169 388.975,404.762 388.975,405.474C388.975,406.185 388.967,407.062 388.951,408.106C388.936,409.149 388.928,410.477 388.928,412.089L388.928,413.986C388.928,414.903 388.92,415.654 388.904,416.239C388.888,416.824 388.864,417.314 388.833,417.709C388.801,418.104 388.777,418.452 388.762,418.752C388.746,419.053 388.73,419.392 388.714,419.772C388.698,420.151 388.683,420.625 388.667,421.195C388.651,421.764 388.643,422.507 388.643,423.423C388.643,426.364 389.212,427.834 390.35,427.834C391.52,427.834 392.587,427.296 393.551,426.222C394.516,425.147 395.346,423.708 396.041,421.906C396.737,420.104 397.274,418.009 397.654,415.622C398.033,413.235 398.223,410.73 398.223,408.106C398.223,407.125 398.231,406.367 398.246,405.829C398.262,405.292 398.278,404.865 398.294,404.549C398.31,404.233 398.333,403.972 398.365,403.766C398.397,403.561 398.42,403.3 398.436,402.984C398.452,402.668 398.468,402.241 398.484,401.703C398.499,401.166 398.507,400.407 398.507,399.427L398.507,396.724C398.57,396.439 398.705,396.218 398.91,396.06C399.116,395.902 399.361,395.823 399.645,395.823C399.804,395.854 399.938,395.941 400.049,396.084C400.159,396.226 400.215,396.439 400.215,396.724C400.278,397.546 400.325,398.423 400.357,399.356C400.388,400.289 400.404,401.261 400.404,402.272C400.404,402.747 400.396,403.221 400.381,403.695C400.365,404.169 400.357,404.762 400.357,405.474C400.357,406.185 400.349,407.062 400.333,408.106C400.317,409.149 400.309,410.477 400.309,412.089C400.309,413.227 400.301,414.223 400.286,415.077C400.27,415.931 400.246,416.729 400.215,417.472C400.183,418.215 400.151,418.95 400.12,419.677C400.088,420.404 400.056,421.226 400.025,422.143C400.025,422.428 400.017,422.902 400.001,423.566C399.985,424.23 399.969,424.941 399.954,425.7C399.938,426.459 399.906,427.17 399.859,427.834C399.811,428.498 399.772,428.972 399.74,429.257C399.645,430.49 399.424,431.699 399.076,432.885C398.729,434.07 398.239,435.121 397.606,436.038C396.974,436.955 396.191,437.69 395.259,438.243C394.326,438.797 393.212,439.073 391.915,439.073C390.556,439.073 389.378,438.623 388.382,437.722C387.386,436.821 386.888,435.406 386.888,433.477L386.888,432.339C386.888,432.086 386.896,431.825 386.912,431.557C386.928,431.288 386.967,431.027 387.031,430.774C387.126,430.49 387.284,430.292 387.505,430.181C387.726,430.071 387.916,430.015 388.074,430.015C388.137,430.015 388.185,430.023 388.216,430.039C388.248,430.055 388.279,430.063 388.311,430.063C388.564,430.126 388.722,430.268 388.785,430.49C388.849,430.711 388.88,430.964 388.88,431.248C388.88,431.501 388.864,431.786 388.833,432.102C388.801,432.418 388.785,432.703 388.785,432.956L388.785,433.24C388.785,434.031 388.896,434.695 389.117,435.232C389.339,435.77 389.615,436.196 389.947,436.513C390.279,436.829 390.643,437.05 391.038,437.176C391.433,437.303 391.82,437.366 392.2,437.366C392.864,437.366 393.551,437.153 394.263,436.726C394.974,436.299 395.622,435.619 396.207,434.687C396.792,433.754 397.274,432.561 397.654,431.106C398.033,429.652 398.223,427.897 398.223,425.842L398.223,424.325C398.223,424.103 398.215,423.819 398.199,423.471C398.183,423.123 398.159,422.681 398.128,422.143L398.128,421.574Z" style="fill-rule:nonzero;"/>
                    </g>
                    <g transform="matrix(1,0,0,0.858179,-275.067,-540.562)">
                        <path d="M640,739C640,739 642.074,757.688 656,731" style="fill:none;stroke:black;stroke-width:2.5px;"/>
                    </g>
                    <g transform="matrix(0.761291,-0.556452,0.755566,0.761291,-47.9235,150.877)">
                        <g transform="matrix(0.734254,0,0,0.630121,-171.364,-360.963)">
                            <path d="M450,711.451C450,711.451 433.824,724.369 451,727.18C468.176,729.992 458.942,705.614 450,711.451Z" style="fill:none;stroke:rgb(0,112,74);stroke-width:2.04px;"/>
                        </g>
                        <g transform="matrix(0.707947,0.167157,-0.194781,0.607545,-18.7599,-420.186)">
                            <path d="M441,734.361C441,734.361 437.934,711.798 452.863,710.545C462.821,709.709 459.015,722.625 463,734.361" style="fill:none;stroke:rgb(0,112,74);stroke-width:2.04px;"/>
                        </g>
                    </g>
                    <g transform="matrix(1,0,0,0.858179,-286.017,-556.803)">
                        <path d="M437,772.046C437,772.046 440.159,737.787 447,763C451.204,778.492 440.481,724.412 459,766" style="fill:none;stroke:rgb(255,199,44);stroke-width:2px;"/>
                    </g>
                    <g transform="matrix(1.03258,0,0,0.85672,-294.82,-531.905)">
                        <g transform="matrix(0.559963,-0.282933,0.279229,0.59124,49.4139,510.876)">
                            <path d="M641,769C641,769 647.58,748.288 661,767C674.42,785.712 635.911,781.097 641,769Z" style="fill:none;stroke:rgb(29,161,242);stroke-width:2.31px;"/>
                        </g>
                        <g transform="matrix(0.559963,-0.282933,0.279229,0.59124,49.4139,510.876)">
                            <path d="M659.984,765.641L677,764L663.856,775" style="fill:none;stroke:rgb(29,161,242);stroke-width:2.31px;"/>
                        </g>
                    </g>
                </g>
                <path d="M400,75.792C400,71.013 395.479,67.133 389.91,67.133L125.976,67.133C120.407,67.133 115.886,71.013 115.886,75.792L115.886,148.836C115.886,153.615 120.407,157.495 125.976,157.495L389.91,157.495C395.479,157.495 400,153.615 400,148.836L400,75.792Z" style="fill:none;stroke:black;stroke-width:1.84px;"/>
            </g>
        </g>
    </g>
</svg>
