<?xml version="1.0" encoding="UTF-8" standalone="no"?>
<!DOCTYPE svg PUBLIC "-//W3C//DTD SVG 1.1//EN" "http://www.w3.org/Graphics/SVG/1.1/DTD/svg11.dtd">
<svg width="100%" height="100%" viewBox="0 0 287 108" version="1.1" xmlns="http://www.w3.org/2000/svg" xmlns:xlink="http://www.w3.org/1999/xlink" xml:space="preserve" xmlns:serif="http://www.serif.com/" style="fill-rule:evenodd;clip-rule:evenodd;stroke-linecap:round;stroke-linejoin:round;stroke-miterlimit:1.5;">
    <g transform="matrix(1,0,0,1,-99,-691)">
        <g transform="matrix(1.03258,0,0,1.69762,0,0)">
            <g id="printing-money" transform="matrix(0.968444,0,0,0.686408,-14.7007,361.633)">
                <path d="M400,75.792C400,71.013 395.479,67.133 389.91,67.133L125.976,67.133C120.407,67.133 115.886,71.013 115.886,75.792L115.886,148.836C115.886,153.615 120.407,157.495 125.976,157.495L389.91,157.495C395.479,157.495 400,153.615 400,148.836L400,75.792Z" style="fill:rgb(248,243,218);"/>
                <clipPath id="_clip1">
                    <path d="M400,75.792C400,71.013 395.479,67.133 389.91,67.133L125.976,67.133C120.407,67.133 115.886,71.013 115.886,75.792L115.886,148.836C115.886,153.615 120.407,157.495 125.976,157.495L389.91,157.495C395.479,157.495 400,153.615 400,148.836L400,75.792Z"/>
                </clipPath>
                <g clip-path="url(#_clip1)">
                    <g transform="matrix(0.592235,0,0,0.508243,64.9048,-78.7089)">
                        <path d="M170.446,385.524C171.299,385.618 172.105,385.769 172.864,385.974C173.623,386.18 174.334,386.409 174.998,386.662L174.998,388.037L162.004,388.037L162.004,386.662C162.636,386.346 163.284,386.109 163.948,385.95C164.612,385.792 165.26,385.65 165.893,385.524L165.893,357.401C165.166,357.275 164.486,357.109 163.854,356.903C163.221,356.698 162.605,356.469 162.004,356.216L162.004,354.84L166.272,354.84C167.537,354.84 168.912,354.777 170.398,354.651C171.884,354.524 173.307,354.461 174.666,354.461C176.215,354.461 177.733,354.627 179.219,354.959C180.705,355.291 182.025,355.852 183.179,356.642C184.333,357.433 185.265,358.484 185.977,359.796C186.688,361.108 187.044,362.744 187.044,364.705C187.044,366.57 186.68,368.166 185.953,369.494C185.226,370.822 184.254,371.913 183.037,372.767C181.819,373.62 180.436,374.245 178.887,374.64C177.338,375.035 175.741,375.233 174.097,375.233L173.362,375.233C173.03,375.233 172.674,375.225 172.295,375.209C171.916,375.193 171.552,375.169 171.204,375.138C170.857,375.106 170.604,375.075 170.446,375.043L170.446,385.524ZM173.67,356.927C172.912,356.927 172.295,356.943 171.821,356.974C171.347,357.006 170.888,357.069 170.446,357.164L170.446,372.529C170.604,372.593 170.833,372.632 171.133,372.648C171.434,372.664 171.75,372.688 172.082,372.719C172.414,372.751 172.738,372.767 173.054,372.767L173.813,372.767C174.919,372.767 175.962,372.616 176.943,372.316C177.923,372.016 178.784,371.534 179.527,370.87C180.27,370.206 180.863,369.368 181.306,368.356C181.748,367.344 181.97,366.127 181.97,364.705C181.97,362.112 181.234,360.168 179.764,358.871C178.294,357.575 176.263,356.927 173.67,356.927Z" style="fill-rule:nonzero;"/>
                        <path d="M200.465,367.882C200.117,368.072 199.682,368.459 199.161,369.044C198.639,369.629 198.173,370.49 197.762,371.628L197.762,385.713C198.394,385.777 199.026,385.895 199.659,386.069C200.291,386.243 200.923,386.504 201.556,386.852L201.556,388.037L190.364,388.037L190.364,386.852C190.933,386.535 191.47,386.298 191.976,386.14C192.482,385.982 192.988,385.84 193.494,385.713L193.494,367.076L190.364,366.696L190.364,365.463C191.375,365.021 192.419,364.665 193.494,364.396C194.568,364.128 195.596,363.914 196.576,363.756L197.762,363.756L197.762,368.783L197.951,368.783C198.236,368.151 198.639,367.518 199.161,366.886C199.682,366.254 200.283,365.685 200.963,365.179C201.643,364.673 202.386,364.286 203.192,364.017C203.998,363.748 204.828,363.661 205.681,363.756C205.903,364.167 206.1,364.618 206.274,365.108C206.448,365.598 206.614,366.111 206.772,366.649L206.772,367.882L200.465,367.882Z" style="fill-rule:nonzero;"/>
                        <path d="M219.577,388.037L209.049,388.037L209.049,386.852C209.523,386.599 210.013,386.385 210.519,386.211C211.025,386.037 211.578,385.871 212.179,385.713L212.179,367.076L209.049,366.696L209.049,365.463C209.965,365.084 210.961,364.752 212.036,364.467C213.111,364.183 214.186,363.946 215.261,363.756L216.447,363.756L216.447,385.713C217.079,385.871 217.648,386.037 218.154,386.211C218.66,386.385 219.134,386.599 219.577,386.852L219.577,388.037ZM211.278,356.263C211.278,355.409 211.554,354.73 212.107,354.224C212.661,353.718 213.396,353.465 214.313,353.465C215.23,353.465 215.957,353.718 216.494,354.224C217.032,354.73 217.3,355.409 217.3,356.263C217.3,357.117 217.032,357.789 216.494,358.279C215.957,358.769 215.23,359.014 214.313,359.014C213.396,359.014 212.661,358.769 212.107,358.279C211.554,357.789 211.278,357.117 211.278,356.263Z" style="fill-rule:nonzero;"/>
                        <path d="M248.742,388.037L238.546,388.037L238.546,386.852C239.4,386.409 240.333,386.029 241.344,385.713L241.344,374.474C241.344,372.071 240.997,370.174 240.301,368.783C239.605,367.392 238.341,366.696 236.507,366.696C235.717,366.696 234.982,366.839 234.302,367.123C233.622,367.408 233.021,367.795 232.5,368.285C231.978,368.775 231.528,369.328 231.148,369.945C230.769,370.561 230.468,371.202 230.247,371.866L230.247,385.713C231.227,385.903 232.176,386.282 233.093,386.852L233.093,388.037L222.849,388.037L222.849,386.852C223.639,386.44 224.683,386.061 225.979,385.713L225.979,367.076L222.849,366.696L222.849,365.463C223.671,365.116 224.619,364.799 225.694,364.515C226.769,364.23 227.892,363.977 229.061,363.756L230.247,363.756L230.247,369.068L230.295,369.068C230.958,367.613 231.915,366.364 233.164,365.321C234.413,364.278 235.922,363.756 237.693,363.756C238.957,363.756 240.088,363.906 241.083,364.207C242.079,364.507 242.909,365.036 243.573,365.795C244.237,366.554 244.743,367.574 245.091,368.854C245.439,370.135 245.612,371.755 245.612,373.715L245.612,385.713C246.877,385.935 247.92,386.314 248.742,386.852L248.742,388.037Z" style="fill-rule:nonzero;"/>
                        <path d="M250.26,365.463C251.461,364.705 252.726,364.167 254.054,363.851L254.054,359.82C254.465,359.504 254.947,359.195 255.5,358.895C256.054,358.595 256.599,358.334 257.136,358.113L258.322,358.113L258.322,364.325L265.436,364.325L265.436,366.696L258.322,366.696L258.322,380.449C258.322,382.346 258.622,383.69 259.223,384.48C259.824,385.271 260.725,385.666 261.926,385.666C262.495,385.666 263.207,385.626 264.06,385.547C264.914,385.468 265.641,385.318 266.242,385.097L266.574,385.808C266.321,386.093 265.965,386.393 265.507,386.709C265.048,387.025 264.527,387.326 263.942,387.61C263.357,387.895 262.717,388.132 262.021,388.322C261.326,388.511 260.614,388.606 259.887,388.606C257.99,388.606 256.544,388.069 255.548,386.994C254.552,385.919 254.054,384.18 254.054,381.777L254.054,366.696L250.26,366.696L250.26,365.463Z" style="fill-rule:nonzero;"/>
                        <path d="M279.615,388.037L269.087,388.037L269.087,386.852C269.562,386.599 270.052,386.385 270.557,386.211C271.063,386.037 271.617,385.871 272.217,385.713L272.217,367.076L269.087,366.696L269.087,365.463C270.004,365.084 271,364.752 272.075,364.467C273.15,364.183 274.225,363.946 275.3,363.756L276.485,363.756L276.485,385.713C277.118,385.871 277.687,386.037 278.193,386.211C278.699,386.385 279.173,386.599 279.615,386.852L279.615,388.037ZM271.316,356.263C271.316,355.409 271.593,354.73 272.146,354.224C272.699,353.718 273.435,353.465 274.351,353.465C275.268,353.465 275.995,353.718 276.533,354.224C277.07,354.73 277.339,355.409 277.339,356.263C277.339,357.117 277.07,357.789 276.533,358.279C275.995,358.769 275.268,359.014 274.351,359.014C273.435,359.014 272.699,358.769 272.146,358.279C271.593,357.789 271.316,357.117 271.316,356.263Z" style="fill-rule:nonzero;"/>
                        <path d="M308.781,388.037L298.585,388.037L298.585,386.852C299.439,386.409 300.371,386.029 301.383,385.713L301.383,374.474C301.383,372.071 301.035,370.174 300.34,368.783C299.644,367.392 298.379,366.696 296.546,366.696C295.755,366.696 295.02,366.839 294.341,367.123C293.661,367.408 293.06,367.795 292.538,368.285C292.017,368.775 291.566,369.328 291.187,369.945C290.807,370.561 290.507,371.202 290.286,371.866L290.286,385.713C291.266,385.903 292.214,386.282 293.131,386.852L293.131,388.037L282.888,388.037L282.888,386.852C283.678,386.44 284.721,386.061 286.018,385.713L286.018,367.076L282.888,366.696L282.888,365.463C283.71,365.116 284.658,364.799 285.733,364.515C286.808,364.23 287.93,363.977 289.1,363.756L290.286,363.756L290.286,369.068L290.333,369.068C290.997,367.613 291.954,366.364 293.202,365.321C294.451,364.278 295.961,363.756 297.731,363.756C298.996,363.756 300.126,363.906 301.122,364.207C302.118,364.507 302.948,365.036 303.612,365.795C304.276,366.554 304.782,367.574 305.13,368.854C305.477,370.135 305.651,371.755 305.651,373.715L305.651,385.713C306.916,385.935 307.959,386.314 308.781,386.852L308.781,388.037Z" style="fill-rule:nonzero;"/>
                        <path d="M321.301,363.756C323.008,363.756 324.447,363.922 325.617,364.254C326.786,364.586 327.767,365.1 328.557,365.795C330.422,364.531 332.367,363.614 334.39,363.045C334.643,363.392 334.825,363.819 334.935,364.325C335.046,364.831 335.101,365.305 335.101,365.748L334.485,366.886L329.505,366.886C330.296,368.024 330.691,369.526 330.691,371.391C330.691,373.668 329.893,375.517 328.296,376.94C326.699,378.363 324.368,379.074 321.301,379.074C320.7,379.074 320.21,379.058 319.831,379.027C319.452,378.995 319.025,378.948 318.55,378.884C318.392,379.169 318.211,379.485 318.005,379.833C317.8,380.181 317.697,380.544 317.697,380.924C317.697,381.556 318.06,382.054 318.788,382.417C319.515,382.781 320.424,383.105 321.514,383.39C322.605,383.674 323.791,383.967 325.071,384.267C326.352,384.567 327.545,384.978 328.652,385.5C329.758,386.022 330.683,386.701 331.426,387.539C332.169,388.377 332.556,389.46 332.588,390.788C332.62,391.926 332.359,392.953 331.805,393.87C331.252,394.787 330.486,395.554 329.505,396.17C328.525,396.787 327.348,397.261 325.972,397.593C324.597,397.925 323.087,398.091 321.443,398.091C317.997,398.091 315.397,397.506 313.642,396.336C311.887,395.167 311.01,393.696 311.01,391.926C311.01,391.072 311.144,390.329 311.413,389.697C311.682,389.065 312.069,388.511 312.575,388.037C313.081,387.563 313.713,387.144 314.472,386.78C315.231,386.417 316.1,386.077 317.08,385.761C316.385,385.445 315.808,385.01 315.349,384.457C314.891,383.903 314.662,383.231 314.662,382.441C314.662,381.714 314.97,380.995 315.586,380.283C316.203,379.572 316.827,379.011 317.46,378.6C315.658,378.125 314.274,377.224 313.31,375.897C312.346,374.569 311.864,373.067 311.864,371.391C311.864,370.316 312.069,369.313 312.48,368.38C312.891,367.447 313.492,366.633 314.282,365.938C315.073,365.242 316.053,364.705 317.223,364.325C318.392,363.946 319.752,363.756 321.301,363.756ZM328.32,391.878C328.32,390.867 327.98,390.061 327.3,389.46C326.62,388.859 325.775,388.369 324.763,387.99C323.751,387.61 322.661,387.294 321.491,387.041C320.321,386.788 319.23,386.504 318.219,386.188C317.017,386.915 316.227,387.681 315.847,388.488C315.468,389.294 315.278,390.124 315.278,390.977C315.278,392.653 315.879,393.91 317.08,394.748C318.282,395.585 320.021,396.004 322.297,396.004C323.467,396.004 324.439,395.894 325.214,395.672C325.988,395.451 326.605,395.159 327.063,394.795C327.522,394.431 327.846,393.997 328.035,393.491C328.225,392.985 328.32,392.448 328.32,391.878ZM316.132,371.391C316.132,372.15 316.219,372.869 316.393,373.549C316.567,374.229 316.851,374.822 317.246,375.327C317.642,375.833 318.171,376.236 318.835,376.537C319.499,376.837 320.321,376.987 321.301,376.987C323.135,376.987 324.447,376.45 325.237,375.375C326.028,374.3 326.423,372.972 326.423,371.391C326.423,369.684 326.036,368.332 325.261,367.337C324.486,366.341 323.166,365.843 321.301,365.843C319.372,365.843 318.029,366.325 317.27,367.289C316.511,368.253 316.132,369.621 316.132,371.391Z" style="fill-rule:nonzero;"/>
                        <path d="M385.75,388.037L373.989,388.037L373.989,386.662C374.621,386.409 375.254,386.195 375.886,386.022C376.518,385.848 377.166,385.682 377.83,385.524L377.83,364.183L378.02,358.634L377.641,358.634L376.076,363.709L366.354,388.037L365.121,388.037L355.873,363.709L354.166,358.16L353.739,358.16L353.786,364.183L353.786,385.524C354.387,385.65 354.988,385.808 355.589,385.998C356.189,386.188 356.79,386.409 357.391,386.662L357.391,388.037L347.479,388.037L347.479,386.662C348.08,386.409 348.704,386.18 349.352,385.974C350,385.769 350.656,385.603 351.32,385.476L351.32,357.401C350.656,357.275 350,357.109 349.352,356.903C348.704,356.698 348.064,356.469 347.432,356.216L347.432,354.84L357.154,354.84L365.405,376.513L367.018,381.398L367.065,381.398L368.678,376.418L377.214,354.84L385.798,354.84L385.798,356.216C385.229,356.469 384.644,356.698 384.043,356.903C383.442,357.109 382.826,357.275 382.193,357.401L382.193,385.571C382.857,385.698 383.482,385.848 384.067,386.022C384.652,386.195 385.213,386.409 385.75,386.662L385.75,388.037Z" style="fill-rule:nonzero;"/>
                        <path d="M389.117,376.181C389.117,374.189 389.378,372.427 389.9,370.893C390.421,369.36 391.172,368.064 392.152,367.005C393.133,365.945 394.31,365.139 395.686,364.586C397.061,364.033 398.586,363.756 400.262,363.756C402.222,363.756 403.914,364.056 405.336,364.657C406.759,365.258 407.921,366.104 408.822,367.194C409.723,368.285 410.387,369.589 410.814,371.107C411.241,372.624 411.454,374.316 411.454,376.181C411.454,380.165 410.442,383.231 408.419,385.381C406.395,387.531 403.676,388.606 400.262,388.606C398.365,388.606 396.721,388.314 395.33,387.729C393.939,387.144 392.785,386.306 391.868,385.215C390.951,384.125 390.263,382.813 389.805,381.279C389.347,379.746 389.117,378.046 389.117,376.181ZM393.67,376.181C393.67,377.604 393.804,378.948 394.073,380.212C394.342,381.477 394.769,382.575 395.354,383.508C395.938,384.441 396.705,385.176 397.654,385.713C398.602,386.251 399.74,386.52 401.068,386.52C402.775,386.52 404.174,385.682 405.265,384.006C406.356,382.33 406.901,379.722 406.901,376.181C406.901,374.727 406.767,373.375 406.498,372.126C406.229,370.878 405.811,369.787 405.241,368.854C404.672,367.921 403.945,367.186 403.06,366.649C402.175,366.111 401.116,365.843 399.883,365.843C398.017,365.843 396.515,366.681 395.377,368.356C394.239,370.032 393.67,372.64 393.67,376.181Z" style="fill-rule:nonzero;"/>
                        <path d="M440.762,388.037L430.566,388.037L430.566,386.852C431.419,386.409 432.352,386.029 433.364,385.713L433.364,374.474C433.364,372.071 433.016,370.174 432.321,368.783C431.625,367.392 430.36,366.696 428.527,366.696C427.736,366.696 427.001,366.839 426.321,367.123C425.642,367.408 425.041,367.795 424.519,368.285C423.998,368.775 423.547,369.328 423.168,369.945C422.788,370.561 422.488,371.202 422.267,371.866L422.267,385.713C423.247,385.903 424.195,386.282 425.112,386.852L425.112,388.037L414.869,388.037L414.869,386.852C415.659,386.44 416.702,386.061 417.998,385.713L417.998,367.076L414.869,366.696L414.869,365.463C415.691,365.116 416.639,364.799 417.714,364.515C418.789,364.23 419.911,363.977 421.081,363.756L422.267,363.756L422.267,369.068L422.314,369.068C422.978,367.613 423.934,366.364 425.183,365.321C426.432,364.278 427.942,363.756 429.712,363.756C430.977,363.756 432.107,363.906 433.103,364.207C434.099,364.507 434.929,365.036 435.593,365.795C436.257,366.554 436.763,367.574 437.11,368.854C437.458,370.135 437.632,371.755 437.632,373.715L437.632,385.713C438.897,385.935 439.94,386.314 440.762,386.852L440.762,388.037Z" style="fill-rule:nonzero;"/>
                        <path d="M462.719,384.717C462.466,385.255 462.071,385.761 461.534,386.235C460.996,386.709 460.38,387.12 459.684,387.468C458.989,387.816 458.23,388.092 457.408,388.298C456.586,388.503 455.748,388.606 454.894,388.606C453.029,388.606 451.385,388.314 449.962,387.729C448.54,387.144 447.354,386.306 446.405,385.215C445.457,384.125 444.738,382.82 444.248,381.303C443.758,379.785 443.513,378.078 443.513,376.181C443.513,372.134 444.445,369.052 446.311,366.933C448.176,364.815 450.816,363.756 454.23,363.756C455.337,363.756 456.428,363.906 457.503,364.207C458.578,364.507 459.534,365.005 460.372,365.7C461.21,366.396 461.889,367.321 462.411,368.475C462.933,369.629 463.194,371.059 463.194,372.767C463.194,373.304 463.17,373.849 463.122,374.403C463.075,374.956 462.988,375.549 462.862,376.181L448.065,376.181C448.065,377.509 448.231,378.75 448.563,379.904C448.895,381.058 449.393,382.062 450.057,382.915C450.721,383.769 451.559,384.441 452.571,384.931C453.582,385.421 454.768,385.666 456.127,385.666C457.234,385.666 458.356,385.508 459.494,385.192C460.633,384.876 461.486,384.465 462.055,383.959L462.719,384.717ZM454.041,365.843C452.239,365.843 450.863,366.451 449.915,367.669C448.966,368.886 448.397,371.028 448.208,374.094L458.641,374.094C458.672,373.81 458.696,373.533 458.712,373.265C458.728,372.996 458.736,372.735 458.736,372.482C458.736,370.459 458.356,368.846 457.597,367.645C456.839,366.443 455.653,365.843 454.041,365.843Z" style="fill-rule:nonzero;"/>
                        <path d="M467.414,366.696C466.94,366.57 466.505,366.412 466.11,366.222C465.715,366.032 465.312,365.811 464.901,365.558L464.901,364.325L474.812,364.325L474.812,365.511C474.148,365.953 473.247,366.349 472.109,366.696L478.179,380.734L479.081,383.674L479.175,383.674L479.887,380.686L484.392,366.696C483.444,366.507 482.574,366.127 481.784,365.558L481.784,364.325L489.893,364.325L489.893,365.558C489.229,366.001 488.328,366.38 487.19,366.696L479.792,388.037C479.033,390.061 478.314,391.697 477.634,392.945C476.954,394.194 476.275,395.182 475.595,395.909C474.915,396.637 474.22,397.166 473.508,397.498C472.797,397.83 472.03,398.075 471.208,398.233C470.86,397.633 470.552,396.969 470.283,396.241C470.015,395.514 469.785,394.819 469.596,394.155L470.212,393.017L475.144,393.017C475.334,392.764 475.5,392.519 475.642,392.282C475.785,392.044 475.935,391.752 476.093,391.404C476.251,391.056 476.425,390.614 476.614,390.076C476.804,389.539 477.026,388.859 477.278,388.037L467.414,366.696Z" style="fill-rule:nonzero;"/>
                    </g>
                    <g transform="matrix(0.393356,0,0,0.241687,-63.7248,-59.5196)">
                        <rect x="456.611" y="758.046" width="114.307" height="70.225" style="fill:rgb(248,243,218);"/>
                    </g>
                    <g transform="matrix(1,0,0,0.822294,-0.429188,33.995)">
                        <g transform="matrix(0.843913,0,0,0.858179,30.8986,-526.848)">
                            <rect x="100.706" y="758.046" width="44.963" height="19.777" style="fill:rgb(239,227,170);"/>
                        </g>
                        <g transform="matrix(0.843913,0,0,0.858179,68.8986,-526.848)">
                            <rect x="100.706" y="758.046" width="44.963" height="19.777" style="fill:rgb(236,217,155);"/>
                        </g>
                        <g transform="matrix(0.843913,0,0,0.858179,106.899,-526.848)">
                            <rect x="100.706" y="758.046" width="44.963" height="19.777" style="fill:rgb(239,227,170);"/>
                        </g>
                        <g transform="matrix(0.843913,0,0,0.858179,144.899,-526.848)">
                            <rect x="100.706" y="758.046" width="44.963" height="19.777" style="fill:rgb(236,217,155);"/>
                        </g>
                        <g transform="matrix(0.843913,0,0,0.858179,182.899,-526.848)">
                            <rect x="100.706" y="758.046" width="44.963" height="19.777" style="fill:rgb(239,227,170);"/>
                        </g>
                        <g transform="matrix(0.843913,0,0,0.858179,220.899,-526.848)">
                            <rect x="100.706" y="758.046" width="44.963" height="19.777" style="fill:rgb(236,217,155);"/>
                        </g>
                        <g transform="matrix(0.843913,0,0,0.858179,258.899,-526.848)">
                            <rect x="100.706" y="758.046" width="44.963" height="19.777" style="fill:rgb(239,227,170);"/>
                        </g>
                        <g transform="matrix(0.843913,0,0,0.858179,296.899,-526.848)">
                            <rect x="100.706" y="758.046" width="44.963" height="19.777" style="fill:rgb(236,217,155);"/>
                        </g>
                        <g transform="matrix(0.843913,0,0,0.858179,11.926,-510.016)">
                            <rect x="100.706" y="758.046" width="44.963" height="19.777" style="fill:rgb(239,238,170);"/>
                        </g>
                        <g transform="matrix(0.843913,0,0,0.858179,49.8712,-510.016)">
                            <rect x="100.706" y="758.046" width="44.963" height="19.777" style="fill:rgb(239,227,170);"/>
                        </g>
                        <g transform="matrix(0.843913,0,0,0.858179,87.8165,-510.016)">
                            <rect x="100.706" y="758.046" width="44.963" height="19.777" style="fill:rgb(239,238,170);"/>
                        </g>
                        <g transform="matrix(0.843913,0,0,0.858179,125.762,-510.016)">
                            <rect x="100.706" y="758.046" width="44.963" height="19.777" style="fill:rgb(239,227,170);"/>
                        </g>
                        <g transform="matrix(0.843913,0,0,0.858179,163.707,-510.016)">
                            <rect x="100.706" y="758.046" width="44.963" height="19.777" style="fill:rgb(239,238,170);"/>
                        </g>
                        <g transform="matrix(0.843913,0,0,0.858179,201.652,-510.016)">
                            <rect x="100.706" y="758.046" width="44.963" height="19.777" style="fill:rgb(239,227,170);"/>
                        </g>
                        <g transform="matrix(0.843913,0,0,0.858179,239.597,-510.016)">
                            <rect x="100.706" y="758.046" width="44.963" height="19.777" style="fill:rgb(239,238,170);"/>
                        </g>
                        <g transform="matrix(0.843913,0,0,0.858179,277.543,-510.016)">
                            <rect x="100.706" y="758.046" width="44.963" height="19.777" style="fill:rgb(239,227,170);"/>
                        </g>
                    </g>
                    <g transform="matrix(0.017571,-8.37054e-19,-1.95077e-18,0.015079,243.931,138.823)">
                        <path d="M278.622,224.006L278.622,110.243C302.958,114.348 325.905,124.334 345.523,139.33C349.434,142.012 354.023,143.467 358.774,143.531C373.996,143.531 386.407,131.282 386.568,116.06C386.6,109.532 384.047,103.262 379.458,98.608C351.114,74.336 315.563,60.019 278.299,57.886L278.299,19.749C278.299,8.857 269.476,0.034 258.584,0.034C258.358,0.002 258.131,0.002 257.905,0.002C246.852,-0.16 237.738,8.664 237.576,19.749L237.576,56.593C164.858,61.764 115.41,106.688 115.41,166.478C115.41,239.842 177.786,260.204 237.576,276.363L237.576,405.64C206.032,401.406 176.299,388.317 151.93,367.827C147.341,364.175 141.652,362.139 135.77,362.01C120.871,363.044 109.398,375.519 109.591,390.451C109.559,396.979 112.112,403.249 116.701,407.903C150.087,437.96 193.007,455.251 237.898,456.705L237.898,492.256C237.898,492.482 237.93,492.709 237.93,492.935C238.447,503.988 247.852,512.52 258.905,511.971C269.797,511.971 278.62,503.148 278.62,492.256L278.62,456.059C366.851,450.242 402.402,396.592 402.402,339.71C402.404,263.436 338.413,240.166 278.622,224.006ZM237.9,213.664C202.672,203.322 175.201,192.657 175.201,162.6C175.201,132.543 200.087,110.889 237.9,107.981L237.9,213.664ZM278.622,406.286L278.622,288.645C315.143,298.987 343.583,312.884 343.26,346.819C343.26,371.382 326.454,400.469 278.622,406.286Z" style="fill-opacity:0.09;fill-rule:nonzero;"/>
                    </g>
                    <g transform="matrix(0.017571,-8.37054e-19,-1.95077e-18,0.015079,319.931,138.823)">
                        <path d="M278.622,224.006L278.622,110.243C302.958,114.348 325.905,124.334 345.523,139.33C349.434,142.012 354.023,143.467 358.774,143.531C373.996,143.531 386.407,131.282 386.568,116.06C386.6,109.532 384.047,103.262 379.458,98.608C351.114,74.336 315.563,60.019 278.299,57.886L278.299,19.749C278.299,8.857 269.476,0.034 258.584,0.034C258.358,0.002 258.131,0.002 257.905,0.002C246.852,-0.16 237.738,8.664 237.576,19.749L237.576,56.593C164.858,61.764 115.41,106.688 115.41,166.478C115.41,239.842 177.786,260.204 237.576,276.363L237.576,405.64C206.032,401.406 176.299,388.317 151.93,367.827C147.341,364.175 141.652,362.139 135.77,362.01C120.871,363.044 109.398,375.519 109.591,390.451C109.559,396.979 112.112,403.249 116.701,407.903C150.087,437.96 193.007,455.251 237.898,456.705L237.898,492.256C237.898,492.482 237.93,492.709 237.93,492.935C238.447,503.988 247.852,512.52 258.905,511.971C269.797,511.971 278.62,503.148 278.62,492.256L278.62,456.059C366.851,450.242 402.402,396.592 402.402,339.71C402.404,263.436 338.413,240.166 278.622,224.006ZM237.9,213.664C202.672,203.322 175.201,192.657 175.201,162.6C175.201,132.543 200.087,110.889 237.9,107.981L237.9,213.664ZM278.622,406.286L278.622,288.645C315.143,298.987 343.583,312.884 343.26,346.819C343.26,371.382 326.454,400.469 278.622,406.286Z" style="fill-opacity:0.09;fill-rule:nonzero;"/>
                    </g>
                    <g transform="matrix(0.017571,-8.37054e-19,-1.95077e-18,0.015079,167.931,138.823)">
                        <path d="M278.622,224.006L278.622,110.243C302.958,114.348 325.905,124.334 345.523,139.33C349.434,142.012 354.023,143.467 358.774,143.531C373.996,143.531 386.407,131.282 386.568,116.06C386.6,109.532 384.047,103.262 379.458,98.608C351.114,74.336 315.563,60.019 278.299,57.886L278.299,19.749C278.299,8.857 269.476,0.034 258.584,0.034C258.358,0.002 258.131,0.002 257.905,0.002C246.852,-0.16 237.738,8.664 237.576,19.749L237.576,56.593C164.858,61.764 115.41,106.688 115.41,166.478C115.41,239.842 177.786,260.204 237.576,276.363L237.576,405.64C206.032,401.406 176.299,388.317 151.93,367.827C147.341,364.175 141.652,362.139 135.77,362.01C120.871,363.044 109.398,375.519 109.591,390.451C109.559,396.979 112.112,403.249 116.701,407.903C150.087,437.96 193.007,455.251 237.898,456.705L237.898,492.256C237.898,492.482 237.93,492.709 237.93,492.935C238.447,503.988 247.852,512.52 258.905,511.971C269.797,511.971 278.62,503.148 278.62,492.256L278.62,456.059C366.851,450.242 402.402,396.592 402.402,339.71C402.404,263.436 338.413,240.166 278.622,224.006ZM237.9,213.664C202.672,203.322 175.201,192.657 175.201,162.6C175.201,132.543 200.087,110.889 237.9,107.981L237.9,213.664ZM278.622,406.286L278.622,288.645C315.143,298.987 343.583,312.884 343.26,346.819C343.26,371.382 326.454,400.469 278.622,406.286Z" style="fill-opacity:0.09;fill-rule:nonzero;"/>
                    </g>
                    <g transform="matrix(0.017571,-8.37054e-19,-1.95077e-18,0.015079,129.931,138.823)">
                        <path d="M278.622,224.006L278.622,110.243C302.958,114.348 325.905,124.334 345.523,139.33C349.434,142.012 354.023,143.467 358.774,143.531C373.996,143.531 386.407,131.282 386.568,116.06C386.6,109.532 384.047,103.262 379.458,98.608C351.114,74.336 315.563,60.019 278.299,57.886L278.299,19.749C278.299,8.857 269.476,0.034 258.584,0.034C258.358,0.002 258.131,0.002 257.905,0.002C246.852,-0.16 237.738,8.664 237.576,19.749L237.576,56.593C164.858,61.764 115.41,106.688 115.41,166.478C115.41,239.842 177.786,260.204 237.576,276.363L237.576,405.64C206.032,401.406 176.299,388.317 151.93,367.827C147.341,364.175 141.652,362.139 135.77,362.01C120.871,363.044 109.398,375.519 109.591,390.451C109.559,396.979 112.112,403.249 116.701,407.903C150.087,437.96 193.007,455.251 237.898,456.705L237.898,492.256C237.898,492.482 237.93,492.709 237.93,492.935C238.447,503.988 247.852,512.52 258.905,511.971C269.797,511.971 278.62,503.148 278.62,492.256L278.62,456.059C366.851,450.242 402.402,396.592 402.402,339.71C402.404,263.436 338.413,240.166 278.622,224.006ZM237.9,213.664C202.672,203.322 175.201,192.657 175.201,162.6C175.201,132.543 200.087,110.889 237.9,107.981L237.9,213.664ZM278.622,406.286L278.622,288.645C315.143,298.987 343.583,312.884 343.26,346.819C343.26,371.382 326.454,400.469 278.622,406.286Z" style="fill-opacity:0.09;fill-rule:nonzero;"/>
                    </g>
                    <g transform="matrix(0.017571,-8.37054e-19,-1.95077e-18,0.015079,205.931,138.823)">
                        <path d="M278.622,224.006L278.622,110.243C302.958,114.348 325.905,124.334 345.523,139.33C349.434,142.012 354.023,143.467 358.774,143.531C373.996,143.531 386.407,131.282 386.568,116.06C386.6,109.532 384.047,103.262 379.458,98.608C351.114,74.336 315.563,60.019 278.299,57.886L278.299,19.749C278.299,8.857 269.476,0.034 258.584,0.034C258.358,0.002 258.131,0.002 257.905,0.002C246.852,-0.16 237.738,8.664 237.576,19.749L237.576,56.593C164.858,61.764 115.41,106.688 115.41,166.478C115.41,239.842 177.786,260.204 237.576,276.363L237.576,405.64C206.032,401.406 176.299,388.317 151.93,367.827C147.341,364.175 141.652,362.139 135.77,362.01C120.871,363.044 109.398,375.519 109.591,390.451C109.559,396.979 112.112,403.249 116.701,407.903C150.087,437.96 193.007,455.251 237.898,456.705L237.898,492.256C237.898,492.482 237.93,492.709 237.93,492.935C238.447,503.988 247.852,512.52 258.905,511.971C269.797,511.971 278.62,503.148 278.62,492.256L278.62,456.059C366.851,450.242 402.402,396.592 402.402,339.71C402.404,263.436 338.413,240.166 278.622,224.006ZM237.9,213.664C202.672,203.322 175.201,192.657 175.201,162.6C175.201,132.543 200.087,110.889 237.9,107.981L237.9,213.664ZM278.622,406.286L278.622,288.645C315.143,298.987 343.583,312.884 343.26,346.819C343.26,371.382 326.454,400.469 278.622,406.286Z" style="fill-opacity:0.09;fill-rule:nonzero;"/>
                    </g>
                    <g transform="matrix(0.017571,-8.37054e-19,-1.95077e-18,0.015079,281.931,138.823)">
                        <path d="M278.622,224.006L278.622,110.243C302.958,114.348 325.905,124.334 345.523,139.33C349.434,142.012 354.023,143.467 358.774,143.531C373.996,143.531 386.407,131.282 386.568,116.06C386.6,109.532 384.047,103.262 379.458,98.608C351.114,74.336 315.563,60.019 278.299,57.886L278.299,19.749C278.299,8.857 269.476,0.034 258.584,0.034C258.358,0.002 258.131,0.002 257.905,0.002C246.852,-0.16 237.738,8.664 237.576,19.749L237.576,56.593C164.858,61.764 115.41,106.688 115.41,166.478C115.41,239.842 177.786,260.204 237.576,276.363L237.576,405.64C206.032,401.406 176.299,388.317 151.93,367.827C147.341,364.175 141.652,362.139 135.77,362.01C120.871,363.044 109.398,375.519 109.591,390.451C109.559,396.979 112.112,403.249 116.701,407.903C150.087,437.96 193.007,455.251 237.898,456.705L237.898,492.256C237.898,492.482 237.93,492.709 237.93,492.935C238.447,503.988 247.852,512.52 258.905,511.971C269.797,511.971 278.62,503.148 278.62,492.256L278.62,456.059C366.851,450.242 402.402,396.592 402.402,339.71C402.404,263.436 338.413,240.166 278.622,224.006ZM237.9,213.664C202.672,203.322 175.201,192.657 175.201,162.6C175.201,132.543 200.087,110.889 237.9,107.981L237.9,213.664ZM278.622,406.286L278.622,288.645C315.143,298.987 343.583,312.884 343.26,346.819C343.26,371.382 326.454,400.469 278.622,406.286Z" style="fill-opacity:0.09;fill-rule:nonzero;"/>
                    </g>
                    <g transform="matrix(0.017571,-8.37054e-19,-1.95077e-18,0.015079,357.931,138.823)">
                        <path d="M278.622,224.006L278.622,110.243C302.958,114.348 325.905,124.334 345.523,139.33C349.434,142.012 354.023,143.467 358.774,143.531C373.996,143.531 386.407,131.282 386.568,116.06C386.6,109.532 384.047,103.262 379.458,98.608C351.114,74.336 315.563,60.019 278.299,57.886L278.299,19.749C278.299,8.857 269.476,0.034 258.584,0.034C258.358,0.002 258.131,0.002 257.905,0.002C246.852,-0.16 237.738,8.664 237.576,19.749L237.576,56.593C164.858,61.764 115.41,106.688 115.41,166.478C115.41,239.842 177.786,260.204 237.576,276.363L237.576,405.64C206.032,401.406 176.299,388.317 151.93,367.827C147.341,364.175 141.652,362.139 135.77,362.01C120.871,363.044 109.398,375.519 109.591,390.451C109.559,396.979 112.112,403.249 116.701,407.903C150.087,437.96 193.007,455.251 237.898,456.705L237.898,492.256C237.898,492.482 237.93,492.709 237.93,492.935C238.447,503.988 247.852,512.52 258.905,511.971C269.797,511.971 278.62,503.148 278.62,492.256L278.62,456.059C366.851,450.242 402.402,396.592 402.402,339.71C402.404,263.436 338.413,240.166 278.622,224.006ZM237.9,213.664C202.672,203.322 175.201,192.657 175.201,162.6C175.201,132.543 200.087,110.889 237.9,107.981L237.9,213.664ZM278.622,406.286L278.622,288.645C315.143,298.987 343.583,312.884 343.26,346.819C343.26,371.382 326.454,400.469 278.622,406.286Z" style="fill-opacity:0.09;fill-rule:nonzero;"/>
                    </g>
                    <g transform="matrix(0.017571,-8.37054e-19,-1.95077e-18,0.015079,186.958,152.664)">
                        <path d="M278.622,224.006L278.622,110.243C302.958,114.348 325.905,124.334 345.523,139.33C349.434,142.012 354.023,143.467 358.774,143.531C373.996,143.531 386.407,131.282 386.568,116.06C386.6,109.532 384.047,103.262 379.458,98.608C351.114,74.336 315.563,60.019 278.299,57.886L278.299,19.749C278.299,8.857 269.476,0.034 258.584,0.034C258.358,0.002 258.131,0.002 257.905,0.002C246.852,-0.16 237.738,8.664 237.576,19.749L237.576,56.593C164.858,61.764 115.41,106.688 115.41,166.478C115.41,239.842 177.786,260.204 237.576,276.363L237.576,405.64C206.032,401.406 176.299,388.317 151.93,367.827C147.341,364.175 141.652,362.139 135.77,362.01C120.871,363.044 109.398,375.519 109.591,390.451C109.559,396.979 112.112,403.249 116.701,407.903C150.087,437.96 193.007,455.251 237.898,456.705L237.898,492.256C237.898,492.482 237.93,492.709 237.93,492.935C238.447,503.988 247.852,512.52 258.905,511.971C269.797,511.971 278.62,503.148 278.62,492.256L278.62,456.059C366.851,450.242 402.402,396.592 402.402,339.71C402.404,263.436 338.413,240.166 278.622,224.006ZM237.9,213.664C202.672,203.322 175.201,192.657 175.201,162.6C175.201,132.543 200.087,110.889 237.9,107.981L237.9,213.664ZM278.622,406.286L278.622,288.645C315.143,298.987 343.583,312.884 343.26,346.819C343.26,371.382 326.454,400.469 278.622,406.286Z" style="fill-opacity:0.09;fill-rule:nonzero;"/>
                    </g>
                    <g transform="matrix(0.017571,-8.37054e-19,-1.95077e-18,0.015079,262.739,152.664)">
                        <path d="M278.622,224.006L278.622,110.243C302.958,114.348 325.905,124.334 345.523,139.33C349.434,142.012 354.023,143.467 358.774,143.531C373.996,143.531 386.407,131.282 386.568,116.06C386.6,109.532 384.047,103.262 379.458,98.608C351.114,74.336 315.563,60.019 278.299,57.886L278.299,19.749C278.299,8.857 269.476,0.034 258.584,0.034C258.358,0.002 258.131,0.002 257.905,0.002C246.852,-0.16 237.738,8.664 237.576,19.749L237.576,56.593C164.858,61.764 115.41,106.688 115.41,166.478C115.41,239.842 177.786,260.204 237.576,276.363L237.576,405.64C206.032,401.406 176.299,388.317 151.93,367.827C147.341,364.175 141.652,362.139 135.77,362.01C120.871,363.044 109.398,375.519 109.591,390.451C109.559,396.979 112.112,403.249 116.701,407.903C150.087,437.96 193.007,455.251 237.898,456.705L237.898,492.256C237.898,492.482 237.93,492.709 237.93,492.935C238.447,503.988 247.852,512.52 258.905,511.971C269.797,511.971 278.62,503.148 278.62,492.256L278.62,456.059C366.851,450.242 402.402,396.592 402.402,339.71C402.404,263.436 338.413,240.166 278.622,224.006ZM237.9,213.664C202.672,203.322 175.201,192.657 175.201,162.6C175.201,132.543 200.087,110.889 237.9,107.981L237.9,213.664ZM278.622,406.286L278.622,288.645C315.143,298.987 343.583,312.884 343.26,346.819C343.26,371.382 326.454,400.469 278.622,406.286Z" style="fill-opacity:0.09;fill-rule:nonzero;"/>
                    </g>
                    <g transform="matrix(0.017571,-8.37054e-19,-1.95077e-18,0.015079,338.63,152.664)">
                        <path d="M278.622,224.006L278.622,110.243C302.958,114.348 325.905,124.334 345.523,139.33C349.434,142.012 354.023,143.467 358.774,143.531C373.996,143.531 386.407,131.282 386.568,116.06C386.6,109.532 384.047,103.262 379.458,98.608C351.114,74.336 315.563,60.019 278.299,57.886L278.299,19.749C278.299,8.857 269.476,0.034 258.584,0.034C258.358,0.002 258.131,0.002 257.905,0.002C246.852,-0.16 237.738,8.664 237.576,19.749L237.576,56.593C164.858,61.764 115.41,106.688 115.41,166.478C115.41,239.842 177.786,260.204 237.576,276.363L237.576,405.64C206.032,401.406 176.299,388.317 151.93,367.827C147.341,364.175 141.652,362.139 135.77,362.01C120.871,363.044 109.398,375.519 109.591,390.451C109.559,396.979 112.112,403.249 116.701,407.903C150.087,437.96 193.007,455.251 237.898,456.705L237.898,492.256C237.898,492.482 237.93,492.709 237.93,492.935C238.447,503.988 247.852,512.52 258.905,511.971C269.797,511.971 278.62,503.148 278.62,492.256L278.62,456.059C366.851,450.242 402.402,396.592 402.402,339.71C402.404,263.436 338.413,240.166 278.622,224.006ZM237.9,213.664C202.672,203.322 175.201,192.657 175.201,162.6C175.201,132.543 200.087,110.889 237.9,107.981L237.9,213.664ZM278.622,406.286L278.622,288.645C315.143,298.987 343.583,312.884 343.26,346.819C343.26,371.382 326.454,400.469 278.622,406.286Z" style="fill-opacity:0.09;fill-rule:nonzero;"/>
                    </g>
                    <g transform="matrix(0.017571,-8.37054e-19,-1.95077e-18,0.015079,395.931,138.823)">
                        <path d="M278.622,224.006L278.622,110.243C302.958,114.348 325.905,124.334 345.523,139.33C349.434,142.012 354.023,143.467 358.774,143.531C373.996,143.531 386.407,131.282 386.568,116.06C386.6,109.532 384.047,103.262 379.458,98.608C351.114,74.336 315.563,60.019 278.299,57.886L278.299,19.749C278.299,8.857 269.476,0.034 258.584,0.034C258.358,0.002 258.131,0.002 257.905,0.002C246.852,-0.16 237.738,8.664 237.576,19.749L237.576,56.593C164.858,61.764 115.41,106.688 115.41,166.478C115.41,239.842 177.786,260.204 237.576,276.363L237.576,405.64C206.032,401.406 176.299,388.317 151.93,367.827C147.341,364.175 141.652,362.139 135.77,362.01C120.871,363.044 109.398,375.519 109.591,390.451C109.559,396.979 112.112,403.249 116.701,407.903C150.087,437.96 193.007,455.251 237.898,456.705L237.898,492.256C237.898,492.482 237.93,492.709 237.93,492.935C238.447,503.988 247.852,512.52 258.905,511.971C269.797,511.971 278.62,503.148 278.62,492.256L278.62,456.059C366.851,450.242 402.402,396.592 402.402,339.71C402.404,263.436 338.413,240.166 278.622,224.006ZM237.9,213.664C202.672,203.322 175.201,192.657 175.201,162.6C175.201,132.543 200.087,110.889 237.9,107.981L237.9,213.664ZM278.622,406.286L278.622,288.645C315.143,298.987 343.583,312.884 343.26,346.819C343.26,371.382 326.454,400.469 278.622,406.286Z" style="fill-opacity:0.09;fill-rule:nonzero;"/>
                    </g>
                    <g transform="matrix(0.017571,-8.37054e-19,-1.95077e-18,0.015079,224.794,152.664)">
                        <path d="M278.622,224.006L278.622,110.243C302.958,114.348 325.905,124.334 345.523,139.33C349.434,142.012 354.023,143.467 358.774,143.531C373.996,143.531 386.407,131.282 386.568,116.06C386.6,109.532 384.047,103.262 379.458,98.608C351.114,74.336 315.563,60.019 278.299,57.886L278.299,19.749C278.299,8.857 269.476,0.034 258.584,0.034C258.358,0.002 258.131,0.002 257.905,0.002C246.852,-0.16 237.738,8.664 237.576,19.749L237.576,56.593C164.858,61.764 115.41,106.688 115.41,166.478C115.41,239.842 177.786,260.204 237.576,276.363L237.576,405.64C206.032,401.406 176.299,388.317 151.93,367.827C147.341,364.175 141.652,362.139 135.77,362.01C120.871,363.044 109.398,375.519 109.591,390.451C109.559,396.979 112.112,403.249 116.701,407.903C150.087,437.96 193.007,455.251 237.898,456.705L237.898,492.256C237.898,492.482 237.93,492.709 237.93,492.935C238.447,503.988 247.852,512.52 258.905,511.971C269.797,511.971 278.62,503.148 278.62,492.256L278.62,456.059C366.851,450.242 402.402,396.592 402.402,339.71C402.404,263.436 338.413,240.166 278.622,224.006ZM237.9,213.664C202.672,203.322 175.201,192.657 175.201,162.6C175.201,132.543 200.087,110.889 237.9,107.981L237.9,213.664ZM278.622,406.286L278.622,288.645C315.143,298.987 343.583,312.884 343.26,346.819C343.26,371.382 326.454,400.469 278.622,406.286Z" style="fill-opacity:0.09;fill-rule:nonzero;"/>
                    </g>
                    <g transform="matrix(0.017571,-8.37054e-19,-1.95077e-18,0.015079,300.685,152.664)">
                        <path d="M278.622,224.006L278.622,110.243C302.958,114.348 325.905,124.334 345.523,139.33C349.434,142.012 354.023,143.467 358.774,143.531C373.996,143.531 386.407,131.282 386.568,116.06C386.6,109.532 384.047,103.262 379.458,98.608C351.114,74.336 315.563,60.019 278.299,57.886L278.299,19.749C278.299,8.857 269.476,0.034 258.584,0.034C258.358,0.002 258.131,0.002 257.905,0.002C246.852,-0.16 237.738,8.664 237.576,19.749L237.576,56.593C164.858,61.764 115.41,106.688 115.41,166.478C115.41,239.842 177.786,260.204 237.576,276.363L237.576,405.64C206.032,401.406 176.299,388.317 151.93,367.827C147.341,364.175 141.652,362.139 135.77,362.01C120.871,363.044 109.398,375.519 109.591,390.451C109.559,396.979 112.112,403.249 116.701,407.903C150.087,437.96 193.007,455.251 237.898,456.705L237.898,492.256C237.898,492.482 237.93,492.709 237.93,492.935C238.447,503.988 247.852,512.52 258.905,511.971C269.797,511.971 278.62,503.148 278.62,492.256L278.62,456.059C366.851,450.242 402.402,396.592 402.402,339.71C402.404,263.436 338.413,240.166 278.622,224.006ZM237.9,213.664C202.672,203.322 175.201,192.657 175.201,162.6C175.201,132.543 200.087,110.889 237.9,107.981L237.9,213.664ZM278.622,406.286L278.622,288.645C315.143,298.987 343.583,312.884 343.26,346.819C343.26,371.382 326.454,400.469 278.622,406.286Z" style="fill-opacity:0.09;fill-rule:nonzero;"/>
                    </g>
                    <g transform="matrix(0.017571,-8.37054e-19,-1.95077e-18,0.015079,148.958,152.664)">
                        <path d="M278.622,224.006L278.622,110.243C302.958,114.348 325.905,124.334 345.523,139.33C349.434,142.012 354.023,143.467 358.774,143.531C373.996,143.531 386.407,131.282 386.568,116.06C386.6,109.532 384.047,103.262 379.458,98.608C351.114,74.336 315.563,60.019 278.299,57.886L278.299,19.749C278.299,8.857 269.476,0.034 258.584,0.034C258.358,0.002 258.131,0.002 257.905,0.002C246.852,-0.16 237.738,8.664 237.576,19.749L237.576,56.593C164.858,61.764 115.41,106.688 115.41,166.478C115.41,239.842 177.786,260.204 237.576,276.363L237.576,405.64C206.032,401.406 176.299,388.317 151.93,367.827C147.341,364.175 141.652,362.139 135.77,362.01C120.871,363.044 109.398,375.519 109.591,390.451C109.559,396.979 112.112,403.249 116.701,407.903C150.087,437.96 193.007,455.251 237.898,456.705L237.898,492.256C237.898,492.482 237.93,492.709 237.93,492.935C238.447,503.988 247.852,512.52 258.905,511.971C269.797,511.971 278.62,503.148 278.62,492.256L278.62,456.059C366.851,450.242 402.402,396.592 402.402,339.71C402.404,263.436 338.413,240.166 278.622,224.006ZM237.9,213.664C202.672,203.322 175.201,192.657 175.201,162.6C175.201,132.543 200.087,110.889 237.9,107.981L237.9,213.664ZM278.622,406.286L278.622,288.645C315.143,298.987 343.583,312.884 343.26,346.819C343.26,371.382 326.454,400.469 278.622,406.286Z" style="fill-opacity:0.09;fill-rule:nonzero;"/>
                    </g>
                    <g transform="matrix(0.017571,-8.37054e-19,-1.95077e-18,0.015079,376.575,152.664)">
                        <path d="M278.622,224.006L278.622,110.243C302.958,114.348 325.905,124.334 345.523,139.33C349.434,142.012 354.023,143.467 358.774,143.531C373.996,143.531 386.407,131.282 386.568,116.06C386.6,109.532 384.047,103.262 379.458,98.608C351.114,74.336 315.563,60.019 278.299,57.886L278.299,19.749C278.299,8.857 269.476,0.034 258.584,0.034C258.358,0.002 258.131,0.002 257.905,0.002C246.852,-0.16 237.738,8.664 237.576,19.749L237.576,56.593C164.858,61.764 115.41,106.688 115.41,166.478C115.41,239.842 177.786,260.204 237.576,276.363L237.576,405.64C206.032,401.406 176.299,388.317 151.93,367.827C147.341,364.175 141.652,362.139 135.77,362.01C120.871,363.044 109.398,375.519 109.591,390.451C109.559,396.979 112.112,403.249 116.701,407.903C150.087,437.96 193.007,455.251 237.898,456.705L237.898,492.256C237.898,492.482 237.93,492.709 237.93,492.935C238.447,503.988 247.852,512.52 258.905,511.971C269.797,511.971 278.62,503.148 278.62,492.256L278.62,456.059C366.851,450.242 402.402,396.592 402.402,339.71C402.404,263.436 338.413,240.166 278.622,224.006ZM237.9,213.664C202.672,203.322 175.201,192.657 175.201,162.6C175.201,132.543 200.087,110.889 237.9,107.981L237.9,213.664ZM278.622,406.286L278.622,288.645C315.143,298.987 343.583,312.884 343.26,346.819C343.26,371.382 326.454,400.469 278.622,406.286Z" style="fill-opacity:0.09;fill-rule:nonzero;"/>
                    </g>
                </g>
                <path d="M400,75.792C400,71.013 395.479,67.133 389.91,67.133L125.976,67.133C120.407,67.133 115.886,71.013 115.886,75.792L115.886,148.836C115.886,153.615 120.407,157.495 125.976,157.495L389.91,157.495C395.479,157.495 400,153.615 400,148.836L400,75.792Z" style="fill:none;stroke:rgb(236,217,155);stroke-width:1.84px;"/>
            </g>
        </g>
    </g>
</svg>
