<?xml version="1.0" encoding="UTF-8" standalone="no"?>
<!DOCTYPE svg PUBLIC "-//W3C//DTD SVG 1.1//EN" "http://www.w3.org/Graphics/SVG/1.1/DTD/svg11.dtd">
<svg width="100%" height="100%" viewBox="0 0 287 108" version="1.1" xmlns="http://www.w3.org/2000/svg" xmlns:xlink="http://www.w3.org/1999/xlink" xml:space="preserve" xmlns:serif="http://www.serif.com/" style="fill-rule:evenodd;clip-rule:evenodd;stroke-linecap:round;stroke-linejoin:round;stroke-miterlimit:1.5;">
    <g transform="matrix(1,0,0,1,-103,-1099)">
        <g transform="matrix(1.03258,0,0,1.69762,0,0)">
            <g id="progress" transform="matrix(0.968444,0,0,0.686408,-10.7811,601.969)">
                <path d="M400,75.792C400,71.013 395.479,67.133 389.91,67.133L125.976,67.133C120.407,67.133 115.886,71.013 115.886,75.792L115.886,148.836C115.886,153.615 120.407,157.495 125.976,157.495L389.91,157.495C395.479,157.495 400,153.615 400,148.836L400,75.792Z" style="fill:white;"/>
                <clipPath id="_clip1">
                    <path d="M400,75.792C400,71.013 395.479,67.133 389.91,67.133L125.976,67.133C120.407,67.133 115.886,71.013 115.886,75.792L115.886,148.836C115.886,153.615 120.407,157.495 125.976,157.495L389.91,157.495C395.479,157.495 400,153.615 400,148.836L400,75.792Z"/>
                </clipPath>
                <g clip-path="url(#_clip1)">
                    <g transform="matrix(0.753911,0,0,0.64699,-155.775,-539.806)">
                        <path d="M488.822,1006.63L488.822,1014.03L484.027,1014.03L484.027,993.028L493.106,993.028C494.853,993.028 496.39,993.317 497.717,993.894C499.044,994.471 500.064,995.291 500.778,996.353C501.492,997.416 501.849,998.625 501.849,999.981C501.849,1002.04 501.068,1003.66 499.507,1004.85C497.946,1006.04 495.786,1006.63 493.026,1006.63L488.822,1006.63ZM488.822,1003.13L493.106,1003.13C494.374,1003.13 495.341,1002.86 496.007,1002.32C496.673,1001.78 497.006,1001.01 497.006,1000.01C497.006,998.981 496.67,998.149 495.999,997.515C495.327,996.88 494.4,996.553 493.218,996.534L488.822,996.534L488.822,1003.13Z" style="fill-rule:nonzero;"/>
                        <path d="M514.555,1002.33C513.926,1002.26 513.372,1002.22 512.893,1002.22C511.145,1002.22 510,1002.75 509.457,1003.82L509.457,1014.03L504.837,1014.03L504.837,998.423L509.201,998.423L509.329,1000.28C510.256,998.851 511.54,998.135 513.181,998.135C513.692,998.135 514.172,998.197 514.619,998.322L514.555,1002.33Z" style="fill-rule:nonzero;"/>
                        <path d="M515.538,1006.08C515.538,1004.53 515.869,1003.15 516.529,1001.94C517.19,1000.73 518.141,999.794 519.382,999.13C520.623,998.467 522.065,998.135 523.706,998.135C526.039,998.135 527.944,998.779 529.419,1000.07C530.895,1001.36 531.718,1003.11 531.889,1005.32L531.921,1006.39C531.921,1008.78 531.18,1010.7 529.699,1012.15C528.218,1013.6 526.231,1014.32 523.738,1014.32C521.244,1014.32 519.254,1013.6 517.768,1012.16C516.281,1010.71 515.538,1008.75 515.538,1006.27L515.538,1006.08ZM520.157,1006.39C520.157,1007.87 520.466,1009 521.084,1009.78C521.702,1010.57 522.587,1010.96 523.738,1010.96C524.856,1010.96 525.73,1010.57 526.359,1009.8C526.987,1009.02 527.302,1007.78 527.302,1006.08C527.302,1004.63 526.987,1003.51 526.359,1002.71C525.73,1001.91 524.846,1001.51 523.706,1001.51C522.576,1001.51 521.702,1001.91 521.084,1002.7C520.466,1003.49 520.157,1004.72 520.157,1006.39Z" style="fill-rule:nonzero;"/>
                        <path d="M534.095,1006.11C534.095,1003.72 534.726,1001.79 535.989,1000.33C537.251,998.866 538.953,998.135 541.095,998.135C542.992,998.135 544.468,998.722 545.522,999.895L545.714,998.423L549.902,998.423L549.902,1013.51C549.902,1014.88 549.558,1016.07 548.871,1017.08C548.184,1018.09 547.217,1018.85 545.97,1019.38C544.723,1019.91 543.263,1020.18 541.591,1020.18C540.323,1020.18 539.087,1019.95 537.883,1019.49C536.678,1019.03 535.767,1018.45 535.149,1017.72L537.195,1015.19C538.346,1016.35 539.742,1016.93 541.383,1016.93C542.608,1016.93 543.562,1016.63 544.244,1016.04C544.926,1015.45 545.267,1014.61 545.267,1013.53L545.267,1012.69C544.201,1013.78 542.8,1014.32 541.063,1014.32C538.985,1014.32 537.304,1013.59 536.02,1012.12C534.737,1010.65 534.095,1008.71 534.095,1006.28L534.095,1006.11ZM538.714,1006.42C538.714,1007.83 539.028,1008.94 539.657,1009.74C540.285,1010.54 541.148,1010.94 542.246,1010.94C543.652,1010.94 544.659,1010.47 545.267,1009.52L545.267,1002.95C544.649,1002 543.652,1001.52 542.278,1001.52C541.17,1001.52 540.299,1001.93 539.665,1002.75C539.031,1003.57 538.714,1004.79 538.714,1006.42Z" style="fill-rule:nonzero;"/>
                        <path d="M563.168,1002.33C562.539,1002.26 561.985,1002.22 561.505,1002.22C559.758,1002.22 558.613,1002.75 558.069,1003.82L558.069,1014.03L553.45,1014.03L553.45,998.423L557.813,998.423L557.941,1000.28C558.868,998.851 560.152,998.135 561.793,998.135C562.305,998.135 562.784,998.197 563.232,998.322L563.168,1002.33Z" style="fill-rule:nonzero;"/>
                        <path d="M573.075,1014.32C570.539,1014.32 568.474,1013.62 566.881,1012.21C565.288,1010.81 564.492,1008.94 564.492,1006.6L564.492,1006.2C564.492,1004.63 564.828,1003.23 565.499,1001.99C566.17,1000.76 567.121,999.806 568.352,999.137C569.583,998.469 570.986,998.135 572.563,998.135C574.929,998.135 576.791,998.808 578.149,1000.15C579.508,1001.5 580.187,1003.41 580.187,1005.88L580.187,1007.58L569.175,1007.58C569.324,1008.6 569.774,1009.42 570.526,1010.04C571.277,1010.65 572.228,1010.96 573.379,1010.96C575.158,1010.96 576.549,1010.38 577.55,1009.21L579.82,1011.51C579.127,1012.39 578.189,1013.08 577.007,1013.58C575.824,1014.07 574.513,1014.32 573.075,1014.32ZM572.547,1001.51C571.631,1001.51 570.888,1001.79 570.318,1002.35C569.748,1002.9 569.383,1003.7 569.223,1004.74L575.648,1004.74L575.648,1004.41C575.627,1003.49 575.35,1002.77 574.817,1002.27C574.284,1001.76 573.528,1001.51 572.547,1001.51Z" style="fill-rule:nonzero;"/>
                        <path d="M592.175,1009.72C592.175,1009.21 591.895,1008.81 591.336,1008.51C590.776,1008.22 589.878,1007.96 588.642,1007.73C584.529,1006.95 582.473,1005.37 582.473,1003C582.473,1001.61 583.11,1000.46 584.383,999.527C585.656,998.599 587.321,998.135 589.378,998.135C591.573,998.135 593.328,998.601 594.644,999.534C595.96,1000.47 596.618,1001.68 596.618,1003.17L591.999,1003.17C591.999,1002.57 591.786,1002.08 591.359,1001.69C590.933,1001.3 590.267,1001.11 589.362,1001.11C588.584,1001.11 587.982,1001.26 587.556,1001.58C587.129,1001.9 586.916,1002.3 586.916,1002.79C586.916,1003.26 587.159,1003.63 587.643,1003.91C588.128,1004.2 588.946,1004.44 590.097,1004.65C591.248,1004.86 592.217,1005.09 593.006,1005.35C595.446,1006.15 596.666,1007.55 596.666,1009.55C596.666,1010.97 595.989,1012.12 594.636,1013C593.283,1013.88 591.535,1014.32 589.394,1014.32C587.944,1014.32 586.658,1014.09 585.534,1013.62C584.41,1013.15 583.528,1012.51 582.888,1011.7C582.249,1010.89 581.929,1010.01 581.929,1009.07L586.309,1009.07C586.351,1009.81 586.655,1010.38 587.22,1010.77C587.785,1011.17 588.541,1011.36 589.489,1011.36C590.374,1011.36 591.042,1011.21 591.495,1010.91C591.948,1010.61 592.175,1010.21 592.175,1009.72Z" style="fill-rule:nonzero;"/>
                        <path d="M609.005,1009.72C609.005,1009.21 608.725,1008.81 608.166,1008.51C607.606,1008.22 606.709,1007.96 605.473,1007.73C601.36,1006.95 599.303,1005.37 599.303,1003C599.303,1001.61 599.94,1000.46 601.213,999.527C602.486,998.599 604.151,998.135 606.208,998.135C608.403,998.135 610.158,998.601 611.474,999.534C612.79,1000.47 613.448,1001.68 613.448,1003.17L608.829,1003.17C608.829,1002.57 608.616,1002.08 608.19,1001.69C607.763,1001.3 607.097,1001.11 606.192,1001.11C605.414,1001.11 604.812,1001.26 604.386,1001.58C603.959,1001.9 603.746,1002.3 603.746,1002.79C603.746,1003.26 603.989,1003.63 604.474,1003.91C604.958,1004.2 605.776,1004.44 606.927,1004.65C608.078,1004.86 609.047,1005.09 609.836,1005.35C612.276,1006.15 613.496,1007.55 613.496,1009.55C613.496,1010.97 612.819,1012.12 611.466,1013C610.113,1013.88 608.365,1014.32 606.224,1014.32C604.775,1014.32 603.488,1014.09 602.364,1013.62C601.24,1013.15 600.358,1012.51 599.719,1011.7C599.079,1010.89 598.76,1010.01 598.76,1009.07L603.139,1009.07C603.182,1009.81 603.485,1010.38 604.05,1010.77C604.615,1011.17 605.371,1011.36 606.32,1011.36C607.204,1011.36 607.873,1011.21 608.325,1010.91C608.778,1010.61 609.005,1010.21 609.005,1009.72Z" style="fill-rule:nonzero;"/>
                    </g>
                    <g transform="matrix(1.05499,0,0,1.10587,5.37199,-1149.48)">
                        <rect x="104.753" y="1100.14" width="90.925" height="13.859" style="fill:rgb(46,204,113);"/>
                    </g>
                    <g transform="matrix(0.670056,0,0,1.10587,45.6951,-1134.16)">
                        <rect x="104.753" y="1100.14" width="90.925" height="13.859" style="fill:rgb(203,243,220);"/>
                    </g>
                    <g transform="matrix(0.912015,0,0,1.10587,20.3492,-1118.83)">
                        <rect x="104.753" y="1100.14" width="90.925" height="13.859" style="fill:rgb(46,204,113);"/>
                    </g>
                    <g transform="matrix(0.335028,0,0,1.10587,80.7905,-1103.51)">
                        <rect x="104.753" y="1100.14" width="90.925" height="13.859" style="fill:rgb(203,243,220);"/>
                    </g>
                    <g transform="matrix(2.45767,0,0,1.10587,-141.563,-1088.18)">
                        <rect x="104.753" y="1100.14" width="90.925" height="13.859" style="fill:rgb(46,204,113);"/>
                    </g>
                    <g transform="matrix(1.6548,0,0,1.10587,-57.4604,-1072.85)">
                        <rect x="104.753" y="1100.14" width="90.925" height="13.859" style="fill:rgb(203,243,220);"/>
                    </g>
                </g>
                <path d="M400,75.792C400,71.013 395.479,67.133 389.91,67.133L125.976,67.133C120.407,67.133 115.886,71.013 115.886,75.792L115.886,148.836C115.886,153.615 120.407,157.495 125.976,157.495L389.91,157.495C395.479,157.495 400,153.615 400,148.836L400,75.792Z" style="fill:none;stroke:black;stroke-width:1.84px;"/>
            </g>
        </g>
    </g>
</svg>
