<?xml version="1.0" encoding="UTF-8" standalone="no"?>
<!DOCTYPE svg PUBLIC "-//W3C//DTD SVG 1.1//EN" "http://www.w3.org/Graphics/SVG/1.1/DTD/svg11.dtd">
<svg width="100%" height="100%" viewBox="0 0 287 108" version="1.1" xmlns="http://www.w3.org/2000/svg" xmlns:xlink="http://www.w3.org/1999/xlink" xml:space="preserve" xmlns:serif="http://www.serif.com/" style="fill-rule:evenodd;clip-rule:evenodd;stroke-linecap:round;stroke-linejoin:round;stroke-miterlimit:1.5;">
    <g transform="matrix(1,0,0,1,-99,-421)">
        <g transform="matrix(1.03258,0,0,1.69762,0,0)">
            <g id="rocks" transform="matrix(0.968444,0,0,0.686408,-14.7007,202.878)">
                <path d="M400,75.792C400,71.013 395.479,67.133 389.91,67.133L125.976,67.133C120.407,67.133 115.886,71.013 115.886,75.792L115.886,148.836C115.886,153.615 120.407,157.495 125.976,157.495L389.91,157.495C395.479,157.495 400,153.615 400,148.836L400,75.792Z" style="fill:rgb(249,225,204);"/>
                <clipPath id="_clip1">
                    <path d="M400,75.792C400,71.013 395.479,67.133 389.91,67.133L125.976,67.133C120.407,67.133 115.886,71.013 115.886,75.792L115.886,148.836C115.886,153.615 120.407,157.495 125.976,157.495L389.91,157.495C395.479,157.495 400,153.615 400,148.836L400,75.792Z"/>
                </clipPath>
                <g clip-path="url(#_clip1)">
                    <g transform="matrix(1.33038,0,0,0.776631,9.02332,-176.452)">
                        <path d="M169.497,387.99C169.371,387.99 169.22,387.958 169.046,387.895C168.873,387.832 168.77,387.768 168.738,387.705C168.675,387.484 168.643,387.183 168.643,386.804C168.801,384.812 168.881,383.247 168.881,382.109C168.881,379.548 168.564,377.24 167.932,375.185C167.521,374.047 167.015,373.209 166.414,372.672C165.529,371.881 164.597,371.486 163.616,371.486C163.395,371.486 163.095,371.518 162.715,371.581L162.526,372.34C162.399,375.944 162.336,378.616 162.336,380.354C162.336,382.188 162.415,384.053 162.573,385.95C162.605,386.109 162.621,386.33 162.621,386.614C162.621,386.994 162.605,387.278 162.573,387.468C162.542,387.563 162.455,387.65 162.312,387.729C162.17,387.808 162.02,387.847 161.862,387.847C161.735,387.847 161.585,387.808 161.411,387.729C161.237,387.65 161.135,387.563 161.103,387.468C160.882,386.425 160.755,385.508 160.724,384.717C160.66,383.263 160.629,382.157 160.629,381.398L160.676,378.932C160.739,374.411 160.866,367.313 161.056,357.638L161.056,357.259C161.087,356.469 161.174,355.915 161.316,355.599C161.459,355.283 161.719,355.093 162.099,355.03C162.478,354.967 163.158,354.935 164.138,354.935C165.403,354.935 166.446,355.046 167.268,355.267C167.995,355.457 168.612,355.899 169.118,356.595C170.066,357.796 170.54,359.14 170.54,360.626L170.54,361.622C170.667,364.91 169.592,367.692 167.316,369.969C167.252,370 167.142,370.142 166.984,370.395C166.984,370.395 166.952,370.474 166.889,370.633C166.984,370.727 167.102,370.846 167.244,370.988C167.387,371.13 167.505,371.233 167.6,371.296C168.485,371.992 169.133,373.02 169.544,374.379C170.24,376.529 170.588,378.442 170.588,380.117C170.588,381.919 170.509,384.243 170.351,387.089C170.351,387.12 170.335,387.215 170.303,387.373C170.272,387.531 170.208,387.658 170.114,387.753C169.955,387.911 169.75,387.99 169.497,387.99ZM162.763,369.494C163.49,369.463 164.122,369.384 164.66,369.257C165.197,369.131 165.687,368.894 166.13,368.546C167.553,367.281 168.375,365.874 168.596,364.325C168.722,363.187 168.786,362.333 168.786,361.764C168.786,361.1 168.738,360.436 168.643,359.772C168.422,358.097 167.6,357.132 166.177,356.88C165.608,356.785 165.039,356.737 164.47,356.737C164.122,356.737 163.632,356.769 163,356.832C162.873,357.401 162.771,358.476 162.692,360.057C162.613,361.638 162.573,363.282 162.573,364.989C162.573,367.234 162.636,368.736 162.763,369.494Z" style="fill-rule:nonzero;"/>
                        <path d="M175.804,387.705C174.318,387.073 173.37,385.998 172.959,384.48C172.738,383.595 172.611,382.805 172.58,382.109C172.516,381.414 172.485,380.718 172.485,380.022C172.485,377.778 172.627,376.118 172.912,375.043C173.259,373.62 173.702,372.561 174.239,371.866C174.556,371.423 174.959,371.091 175.449,370.87C175.939,370.648 176.453,370.538 176.99,370.538C177.749,370.538 178.46,370.743 179.124,371.154C179.788,371.565 180.278,372.103 180.594,372.767C180.847,373.557 180.989,374 181.021,374.094C181.464,376.371 181.685,378.41 181.685,380.212C181.685,381.793 181.511,383.184 181.163,384.385C180.974,385.081 180.784,385.603 180.594,385.95C180.278,386.583 179.812,387.081 179.195,387.444C178.579,387.808 177.923,387.99 177.227,387.99C176.753,387.99 176.279,387.895 175.804,387.705ZM178.128,386.14C178.792,385.887 179.282,385.263 179.598,384.267C179.914,383.271 180.073,382.03 180.073,380.544C180.073,378.426 179.835,376.213 179.361,373.905C179.235,373.399 178.926,372.972 178.436,372.624C177.946,372.277 177.433,372.103 176.895,372.103C176.294,372.103 175.82,372.34 175.472,372.814C175.378,373.004 175.227,373.296 175.022,373.691C174.816,374.087 174.65,374.458 174.524,374.806C174.081,376.197 173.86,377.794 173.86,379.596C173.86,381.176 174.05,382.568 174.429,383.769C174.809,384.97 175.393,385.745 176.184,386.093C176.468,386.251 176.8,386.33 177.18,386.33C177.527,386.33 177.844,386.267 178.128,386.14Z" style="fill-rule:nonzero;"/>
                        <path d="M189.131,388.085C188.53,388.085 187.945,387.966 187.376,387.729C186.807,387.492 186.317,387.152 185.906,386.709C185.179,385.982 184.673,385.16 184.388,384.243C183.882,382.726 183.629,381.398 183.629,380.26C183.629,379.817 183.645,379.485 183.677,379.264C183.961,377.398 184.167,376.102 184.293,375.375C184.451,374.332 184.799,373.383 185.337,372.529C186.253,371.17 187.328,370.49 188.561,370.49C189.573,370.49 190.648,370.964 191.786,371.913C191.976,372.039 192.118,372.261 192.213,372.577L192.213,372.672C192.213,372.83 192.15,372.972 192.023,373.099C191.929,373.193 191.77,373.241 191.549,373.241C191.423,373.241 191.296,373.193 191.17,373.099C191.043,373.004 190.948,372.94 190.885,372.909C190.727,372.814 190.522,372.688 190.269,372.529C190.016,372.371 189.794,372.261 189.605,372.198C189.194,372.039 188.83,371.96 188.514,371.96C187.945,371.96 187.423,372.261 186.949,372.861C186.443,373.462 186.095,374.174 185.906,374.996C185.463,376.703 185.242,378.394 185.242,380.07C185.242,381.113 185.329,382.046 185.503,382.868C185.676,383.69 186.016,384.449 186.522,385.144C186.933,385.745 187.407,386.172 187.945,386.425C188.388,386.614 188.783,386.709 189.131,386.709C189.573,386.709 189.968,386.583 190.316,386.33C190.474,386.172 190.553,386.093 190.553,386.093C190.806,385.935 191.027,385.856 191.217,385.856C191.375,385.856 191.502,385.919 191.597,386.045C191.691,386.172 191.739,386.314 191.739,386.472C191.739,386.693 191.66,386.883 191.502,387.041C190.838,387.737 190.047,388.085 189.131,388.085Z" style="fill-rule:nonzero;"/>
                        <path d="M195.39,388.654C195.359,388.685 195.296,388.701 195.201,388.701C195.074,388.701 194.972,388.638 194.893,388.511C194.814,388.385 194.758,388.243 194.727,388.085C194.505,387.136 194.379,386.267 194.347,385.476L194.347,384.812C194.347,382.568 194.284,380.544 194.157,378.742L194.11,377.414L194.11,361.669C194.11,361.164 194.142,360.602 194.205,359.986C194.268,359.369 194.316,358.935 194.347,358.682C194.347,358.302 194.442,358.002 194.632,357.781C194.758,357.528 194.885,357.417 195.011,357.449C195.138,357.449 195.256,357.488 195.367,357.567C195.477,357.646 195.564,357.733 195.628,357.828C195.722,358.239 195.77,358.666 195.77,359.108C195.77,359.393 195.738,359.82 195.675,360.389L195.628,361.575L195.628,375.802C195.628,375.928 195.691,376.134 195.817,376.418C196.576,376.355 197.556,375.849 198.758,374.901C199.959,373.952 200.813,372.925 201.318,371.818C201.477,371.565 201.611,371.344 201.722,371.154C201.832,370.964 201.935,370.791 202.03,370.633C202.251,370.285 202.536,370.111 202.883,370.111C203.136,370.111 203.342,370.182 203.5,370.324C203.658,370.467 203.737,370.648 203.737,370.87L203.642,371.249C203.547,371.502 203.374,371.85 203.121,372.292C202.299,373.683 201.224,374.885 199.896,375.897C199.801,375.96 199.485,376.165 198.947,376.513C198.505,376.766 198.125,377.019 197.809,377.272C199.358,377.967 200.449,378.6 201.081,379.169C201.714,379.738 202.148,380.433 202.386,381.255C202.623,382.077 202.852,383.5 203.073,385.524L203.263,387.278C203.263,387.594 203.215,387.816 203.121,387.942C202.868,388.195 202.615,388.337 202.362,388.369L202.22,388.369C201.903,388.369 201.714,388.211 201.65,387.895C201.587,387.705 201.556,387.373 201.556,386.899L201.461,385.381C201.461,385.065 201.429,384.559 201.366,383.864C201.303,383.326 201.145,382.599 200.892,381.682C200.576,380.734 199.999,379.959 199.161,379.359C198.323,378.758 197.461,378.457 196.576,378.457C196.26,378.457 196.039,378.473 195.912,378.505C195.912,378.568 195.888,378.695 195.841,378.884C195.794,379.074 195.786,379.248 195.817,379.406L195.96,386.52C195.991,386.709 196.007,386.994 196.007,387.373C196.007,387.658 195.991,387.879 195.96,388.037C195.928,388.164 195.857,388.282 195.746,388.393C195.636,388.503 195.517,388.59 195.39,388.654Z" style="fill-rule:nonzero;"/>
                        <path d="M209.997,388.322C209.112,388.322 208.353,388.053 207.721,387.515C206.646,386.662 206.108,385.618 206.108,384.385C206.108,384.038 206.124,383.785 206.156,383.627C206.156,383.5 206.219,383.374 206.345,383.247C206.567,383.089 206.756,383.01 206.915,383.01C207.167,383.073 207.341,383.184 207.436,383.342C207.499,383.532 207.539,383.698 207.555,383.84C207.571,383.982 207.578,384.101 207.578,384.196C207.673,384.891 207.926,385.492 208.337,385.998C208.78,386.535 209.333,386.804 209.997,386.804C210.282,386.804 210.566,386.757 210.851,386.662C211.894,386.314 212.669,385.634 213.174,384.623C213.269,384.37 213.317,384.117 213.317,383.864C213.317,383.579 213.269,383.295 213.174,383.01C212.7,381.872 211.799,380.892 210.471,380.07L209.191,379.359C207.642,378.505 206.867,377.256 206.867,375.612C206.867,373.968 207.499,372.609 208.764,371.534C209.46,370.933 210.203,370.633 210.993,370.633C211.878,370.633 212.669,370.964 213.364,371.628C214.186,372.45 214.645,373.494 214.739,374.758C214.739,374.916 214.708,375.011 214.645,375.043C214.455,375.296 214.265,375.438 214.076,375.47L214.028,375.47C213.807,375.47 213.649,375.391 213.554,375.233C213.459,375.043 213.396,374.877 213.364,374.735C213.333,374.592 213.301,374.474 213.269,374.379C213.174,374.158 213.095,373.944 213.032,373.739C212.969,373.533 212.89,373.32 212.795,373.099C212.352,372.403 211.815,372.055 211.183,372.055C210.645,372.055 210.139,372.292 209.665,372.767C209.254,373.146 208.954,373.581 208.764,374.071C208.574,374.561 208.48,375.154 208.48,375.849C208.48,376.798 209.017,377.588 210.092,378.22C210.598,378.537 211.357,379.042 212.368,379.738C213.412,380.433 214.202,381.493 214.739,382.915C214.866,383.295 214.929,383.642 214.929,383.959C214.929,384.686 214.692,385.389 214.218,386.069C213.744,386.749 213.127,387.294 212.368,387.705C211.609,388.116 210.819,388.322 209.997,388.322Z" style="fill-rule:nonzero;"/>
                    </g>
                    <g transform="matrix(1,0,0,0.858179,15.1797,-295.564)">
                        <path d="M97.376,507C97.376,507 334.095,495.374 386.868,512C439.64,528.626 386.868,530 386.868,530L99,530L97.376,507Z" style="fill:rgb(148,89,67);"/>
                    </g>
                    <g transform="matrix(1,0,0,0.858179,13.1797,-292.99)">
                        <path d="M156.574,483.038C154.398,482.406 152.053,483.105 150.578,484.826C150.199,485.268 149.807,485.725 149.427,486.168C148.001,487.832 147.892,490.253 149.163,492.039C151.117,494.783 153.934,498.74 155.605,501.087C156.48,502.317 157.896,503.047 159.406,503.047C162.673,503.047 168.474,503.047 171.69,503.047C173.153,503.047 174.541,502.396 175.475,501.27C177.193,499.201 180.041,495.77 181.967,493.449C182.417,492.908 182.563,492.177 182.357,491.504C182.15,490.832 181.619,490.309 180.944,490.113C175.176,488.438 162.718,484.821 156.574,483.038Z" style="fill:rgb(251,152,110);"/>
                    </g>
                    <g transform="matrix(1,0,0,0.858179,9.58725,-297.281)">
                        <path d="M163.025,488.682C163.289,488.864 163.575,489.01 163.878,489.116C165.642,489.755 173.313,492.46 178.091,494.145C179.079,494.494 180.169,494.4 181.082,493.887C181.996,493.375 182.644,492.494 182.862,491.47C183.722,487.424 185.044,481.204 185.961,476.887C186.203,475.749 185.886,474.564 185.109,473.699C184.331,472.833 183.187,472.391 182.03,472.51C175.975,473.131 165.815,474.174 159.826,474.788C158.657,474.908 157.617,475.585 157.035,476.607C156.453,477.628 156.4,478.868 156.892,479.935C158.333,483.024 160.489,486.84 163.025,488.682Z" style="fill:rgb(228,91,54);"/>
                    </g>
                    <g transform="matrix(0.746599,-0.0568335,0.0883563,0.854822,53.5914,-274.933)">
                        <path d="M315.143,503.67C313.637,503.517 312.302,502.866 311.506,501.895C310.711,500.923 310.54,499.736 311.041,498.66C311.956,496.692 313.034,494.376 313.951,492.406C314.452,491.327 315.575,490.476 317.008,490.087C318.441,489.698 320.031,489.814 321.337,490.402C326.225,492.601 333.027,495.662 335.259,496.666C335.749,496.887 336.286,497.044 336.847,497.13C338.389,497.368 341.755,497.885 344.554,498.316C347.084,498.705 348.818,500.46 348.577,502.387C348.549,502.611 348.52,502.838 348.492,503.064C348.363,504.093 347.681,505.038 346.601,505.681C345.522,506.324 344.139,506.609 342.773,506.47C335.608,505.744 322.759,504.442 315.143,503.67Z" style="fill:rgb(228,91,54);"/>
                    </g>
                    <g transform="matrix(0.980952,-0.166703,0.194252,0.841832,-74.5332,-261.44)">
                        <path d="M170.675,473.859C169.068,474.715 167.099,474.475 165.744,473.26C163.036,470.83 158.438,466.705 155.089,463.7C154.097,462.81 153.57,461.513 153.66,460.182C153.75,458.852 154.447,457.638 155.55,456.889C158.208,455.086 161.432,452.899 163.525,451.48C164.865,450.571 166.6,450.485 168.024,451.258C170.256,452.469 173.679,454.327 176.368,455.786C177.424,456.359 178.194,457.344 178.496,458.506C178.797,459.669 178.603,460.904 177.958,461.918C176.942,463.518 176,465 176,465C176,465 176.539,467.962 176.826,469.535C176.93,470.104 176.653,470.676 176.142,470.948C174.897,471.611 172.535,472.869 170.675,473.859Z" style="fill:rgb(148,89,67);"/>
                    </g>
                </g>
                <path d="M400,75.792C400,71.013 395.479,67.133 389.91,67.133L125.976,67.133C120.407,67.133 115.886,71.013 115.886,75.792L115.886,148.836C115.886,153.615 120.407,157.495 125.976,157.495L389.91,157.495C395.479,157.495 400,153.615 400,148.836L400,75.792Z" style="fill:none;stroke:rgb(148,89,67);stroke-width:1.84px;"/>
            </g>
        </g>
    </g>
</svg>
