<?xml version="1.0" encoding="UTF-8" standalone="no"?>
<!DOCTYPE svg PUBLIC "-//W3C//DTD SVG 1.1//EN" "http://www.w3.org/Graphics/SVG/1.1/DTD/svg11.dtd">
<svg width="100%" height="100%" viewBox="0 0 285 106" version="1.1" xmlns="http://www.w3.org/2000/svg" xmlns:xlink="http://www.w3.org/1999/xlink" xml:space="preserve" xmlns:serif="http://www.serif.com/" style="fill-rule:evenodd;clip-rule:evenodd;stroke-linejoin:round;stroke-miterlimit:2;">
    <g transform="matrix(1,0,0,1,-102,-1233)">
        <g transform="matrix(1.03258,0,0,1.69762,0,0)">
            <g id="share-this-page" transform="matrix(0.968444,0,0,0.686408,-12.718,680.314)">
                <path d="M400,75.792C400,71.013 395.479,67.133 389.91,67.133L125.976,67.133C120.407,67.133 115.886,71.013 115.886,75.792L115.886,148.836C115.886,153.615 120.407,157.495 125.976,157.495L389.91,157.495C395.479,157.495 400,153.615 400,148.836L400,75.792Z" style="fill:rgb(228,241,254);"/>
                <clipPath id="_clip1">
                    <path d="M400,75.792C400,71.013 395.479,67.133 389.91,67.133L125.976,67.133C120.407,67.133 115.886,71.013 115.886,75.792L115.886,148.836C115.886,153.615 120.407,157.495 125.976,157.495L389.91,157.495C395.479,157.495 400,153.615 400,148.836L400,75.792Z"/>
                </clipPath>
                <g clip-path="url(#_clip1)">
                    <g transform="matrix(1.03258,0,0,1.01231,7.75475,-993.389)">
                        <g transform="matrix(0.968444,0,0,0.847741,18.1616,-1.92754e-13)">
                            <rect x="84" y="1233.14" width="36.859" height="36.859" style="fill:rgb(0,206,201);"/>
                        </g>
                        <g transform="matrix(0.968444,0,0,0.847741,53.8572,-1.00974e-28)">
                            <rect x="84" y="1233.14" width="36.859" height="36.859" style="fill:rgb(245,205,120);"/>
                        </g>
                        <g transform="matrix(0.968444,0,0,0.847741,89.5528,-1.00974e-28)">
                            <rect x="84" y="1233.14" width="36.859" height="36.859" style="fill:rgb(255,118,117);"/>
                        </g>
                        <g transform="matrix(0.968444,0,0,0.847741,125.248,-1.00974e-28)">
                            <rect x="84" y="1233.14" width="36.859" height="36.859" style="fill:rgb(0,206,201);"/>
                        </g>
                        <g transform="matrix(0.968444,0,0,0.847741,160.944,-1.00974e-28)">
                            <rect x="84" y="1233.14" width="36.859" height="36.859" style="fill:rgb(228,241,254);"/>
                        </g>
                        <g transform="matrix(0.968444,0,0,0.847741,196.64,-1.00974e-28)">
                            <rect x="84" y="1233.14" width="36.859" height="36.859" style="fill:rgb(255,118,117);"/>
                        </g>
                        <g transform="matrix(0.968444,0,0,0.847741,232.335,-2.31305e-12)">
                            <rect x="84" y="1233.14" width="36.859" height="36.859" style="fill:rgb(0,206,201);"/>
                        </g>
                        <g transform="matrix(0.968444,0,0,0.847741,268.031,-2.5058e-12)">
                            <rect x="84" y="1233.14" width="36.859" height="36.859" style="fill:rgb(245,205,120);"/>
                        </g>
                        <g transform="matrix(0.968444,0,0,0.847741,18.1616,31.2466)">
                            <rect x="84" y="1233.14" width="36.859" height="36.859" style="fill:rgb(102,153,204);"/>
                        </g>
                        <g transform="matrix(0.968444,0,0,0.847741,53.8572,31.2466)">
                            <rect x="84" y="1233.14" width="36.859" height="36.859" style="fill:rgb(228,241,254);"/>
                        </g>
                        <g transform="matrix(0.968444,0,0,0.847741,89.5528,31.2466)">
                            <rect x="84" y="1233.14" width="36.859" height="36.859" style="fill:rgb(228,241,254);"/>
                        </g>
                        <g transform="matrix(0.968444,0,0,0.847741,125.248,31.2466)">
                            <rect x="84" y="1233.14" width="36.859" height="36.859" style="fill:rgb(228,241,254);"/>
                        </g>
                        <g transform="matrix(0.968444,0,0,0.847741,160.944,31.2466)">
                            <rect x="84" y="1233.14" width="36.859" height="36.859" style="fill:rgb(228,241,254);"/>
                        </g>
                        <g transform="matrix(0.968444,0,0,0.847741,196.64,31.2466)">
                            <rect x="84" y="1233.14" width="36.859" height="36.859" style="fill:rgb(228,241,254);"/>
                        </g>
                        <g transform="matrix(0.968444,0,0,0.847741,232.335,31.2466)">
                            <rect x="84" y="1233.14" width="36.859" height="36.859" style="fill:rgb(228,241,254);"/>
                        </g>
                        <g transform="matrix(0.968444,0,0,0.847741,268.031,31.2466)">
                            <rect x="84" y="1233.14" width="36.859" height="36.859" style="fill:rgb(228,241,254);"/>
                        </g>
                        <g transform="matrix(0.968444,0,0,0.847741,18.1616,62.4933)">
                            <rect x="84" y="1233.14" width="36.859" height="36.859" style="fill:rgb(245,205,120);"/>
                        </g>
                        <g transform="matrix(0.968444,0,0,0.847741,53.8572,62.4933)">
                            <rect x="84" y="1233.14" width="36.859" height="36.859" style="fill:rgb(228,241,254);"/>
                        </g>
                        <g transform="matrix(0.968444,0,0,0.847741,89.5528,62.4933)">
                            <rect x="84" y="1233.14" width="36.859" height="36.859" style="fill:rgb(161,155,254);"/>
                        </g>
                        <g transform="matrix(0.968444,0,0,0.847741,125.248,62.4933)">
                            <rect x="84" y="1233.14" width="36.859" height="36.859" style="fill:rgb(0,206,201);"/>
                        </g>
                        <g transform="matrix(0.968444,0,0,0.847741,160.944,62.4933)">
                            <rect x="84" y="1233.14" width="36.859" height="36.859" style="fill:rgb(245,205,120);"/>
                        </g>
                        <g transform="matrix(0.968444,0,0,0.847741,196.64,62.4933)">
                            <rect x="84" y="1233.14" width="36.859" height="36.859" style="fill:rgb(161,155,254);"/>
                        </g>
                        <g transform="matrix(0.968444,0,0,0.847741,232.335,62.4933)">
                            <rect x="84" y="1233.14" width="36.859" height="36.859" style="fill:rgb(102,153,204);"/>
                        </g>
                        <g transform="matrix(0.968444,0,0,0.847741,268.031,62.4933)">
                            <rect x="84" y="1233.14" width="36.859" height="36.859" style="fill:rgb(255,118,117);"/>
                        </g>
                        <g transform="matrix(0.696363,0,0,0.609571,36.4544,306.504)">
                            <path d="M200.406,1292.78C200.406,1292 200.103,1291.41 199.498,1290.99C198.892,1290.58 197.801,1290.14 196.225,1289.68C194.65,1289.22 193.403,1288.77 192.484,1288.32C189.979,1287.1 188.727,1285.45 188.727,1283.38C188.727,1282.31 189.063,1281.35 189.734,1280.51C190.406,1279.66 191.37,1279.01 192.628,1278.53C193.885,1278.06 195.296,1277.82 196.862,1277.82C198.437,1277.82 199.841,1278.08 201.073,1278.59C202.305,1279.11 203.262,1279.84 203.944,1280.77C204.625,1281.71 204.966,1282.78 204.966,1283.97L200.422,1283.97C200.422,1283.06 200.103,1282.35 199.467,1281.85C198.831,1281.34 197.937,1281.09 196.786,1281.09C195.675,1281.09 194.812,1281.3 194.196,1281.72C193.58,1282.15 193.271,1282.71 193.271,1283.4C193.271,1284.05 193.633,1284.59 194.355,1285.03C195.077,1285.46 196.14,1285.87 197.543,1286.26C200.129,1286.96 202.012,1287.83 203.194,1288.87C204.375,1289.91 204.966,1291.2 204.966,1292.75C204.966,1294.47 204.244,1295.82 202.8,1296.8C201.356,1297.78 199.412,1298.27 196.968,1298.27C195.271,1298.27 193.726,1297.99 192.332,1297.43C190.939,1296.87 189.876,1296.1 189.144,1295.13C188.411,1294.15 188.045,1293.02 188.045,1291.74L192.605,1291.74C192.605,1293.93 194.059,1295.03 196.968,1295.03C198.048,1295.03 198.892,1294.84 199.498,1294.44C200.103,1294.04 200.406,1293.49 200.406,1292.78Z" style="fill-opacity:0.97;fill-rule:nonzero;"/>
                            <path d="M212.025,1284.82C213.187,1283.56 214.646,1282.93 216.403,1282.93C219.958,1282.93 221.761,1284.8 221.811,1288.53L221.811,1298L217.433,1298L217.433,1288.63C217.433,1287.79 217.231,1287.16 216.827,1286.76C216.424,1286.35 215.752,1286.15 214.813,1286.15C213.53,1286.15 212.601,1286.59 212.025,1287.49L212.025,1298L207.647,1298L207.647,1277L212.025,1277L212.025,1284.82Z" style="fill-opacity:0.97;fill-rule:nonzero;"/>
                            <path d="M234.612,1298C234.41,1297.64 234.263,1297.2 234.173,1296.67C233.112,1297.74 231.734,1298.27 230.037,1298.27C228.431,1298.27 227.101,1297.85 226.045,1297.02C224.99,1296.18 224.462,1295.12 224.462,1293.84C224.462,1292.28 225.106,1291.07 226.394,1290.23C227.681,1289.4 229.542,1288.97 231.976,1288.96L233.991,1288.96L233.991,1288.12C233.991,1287.43 233.796,1286.88 233.408,1286.48C233.019,1286.06 232.405,1285.86 231.567,1285.86C230.83,1285.86 230.252,1286.02 229.833,1286.34C229.413,1286.66 229.204,1287.09 229.204,1287.65L224.826,1287.65C224.826,1286.79 225.119,1286 225.705,1285.27C226.29,1284.54 227.118,1283.97 228.189,1283.56C229.259,1283.14 230.461,1282.93 231.794,1282.93C233.814,1282.93 235.417,1283.39 236.604,1284.31C237.791,1285.22 238.384,1286.51 238.384,1288.17L238.384,1294.58C238.394,1295.99 238.611,1297.05 239.035,1297.77L239.035,1298L234.612,1298ZM230.991,1295.25C231.638,1295.25 232.234,1295.12 232.779,1294.86C233.324,1294.6 233.728,1294.25 233.991,1293.82L233.991,1291.27L232.355,1291.27C230.163,1291.27 228.997,1291.96 228.855,1293.32L228.84,1293.56C228.84,1294.05 229.032,1294.45 229.416,1294.77C229.8,1295.09 230.325,1295.25 230.991,1295.25Z" style="fill-opacity:0.97;fill-rule:nonzero;"/>
                            <path d="M250.957,1286.91C250.361,1286.84 249.836,1286.8 249.382,1286.8C247.725,1286.8 246.64,1287.31 246.125,1288.32L246.125,1298L241.747,1298L241.747,1283.21L245.882,1283.21L246.004,1284.97C246.882,1283.61 248.099,1282.93 249.654,1282.93C250.139,1282.93 250.594,1282.99 251.018,1283.11L250.957,1286.91Z" style="fill-opacity:0.97;fill-rule:nonzero;"/>
                            <path d="M260.347,1298.27C257.943,1298.27 255.987,1297.61 254.477,1296.28C252.967,1294.95 252.212,1293.17 252.212,1290.96L252.212,1290.58C252.212,1289.09 252.53,1287.76 253.167,1286.59C253.803,1285.42 254.704,1284.52 255.871,1283.88C257.037,1283.25 258.368,1282.93 259.862,1282.93C262.104,1282.93 263.869,1283.57 265.157,1284.85C266.444,1286.12 267.088,1287.93 267.088,1290.28L267.088,1291.89L256.651,1291.89C256.792,1292.86 257.219,1293.63 257.931,1294.21C258.643,1294.8 259.544,1295.09 260.635,1295.09C262.321,1295.09 263.639,1294.54 264.589,1293.43L266.74,1295.61C266.083,1296.45 265.195,1297.1 264.074,1297.57C262.953,1298.04 261.71,1298.27 260.347,1298.27ZM259.847,1286.13C258.979,1286.13 258.274,1286.4 257.734,1286.93C257.194,1287.45 256.848,1288.21 256.696,1289.19L262.786,1289.19L262.786,1288.88C262.766,1288.01 262.503,1287.33 261.998,1286.85C261.493,1286.37 260.776,1286.13 259.847,1286.13Z" style="fill-opacity:0.97;fill-rule:nonzero;"/>
                            <path d="M282.54,1279.57L282.54,1283.21L285.342,1283.21L285.342,1286.11L282.54,1286.11L282.54,1293.49C282.54,1294.04 282.656,1294.43 282.888,1294.66C283.12,1294.9 283.565,1295.02 284.221,1295.02C284.706,1295.02 285.135,1294.99 285.509,1294.92L285.509,1297.92C284.65,1298.15 283.767,1298.27 282.858,1298.27C279.788,1298.27 278.222,1296.87 278.162,1294.08L278.162,1286.11L275.768,1286.11L275.768,1283.21L278.162,1283.21L278.162,1279.57L282.54,1279.57Z" style="fill-opacity:0.97;fill-rule:nonzero;"/>
                            <path d="M292.053,1284.82C293.214,1283.56 294.674,1282.93 296.431,1282.93C299.986,1282.93 301.788,1284.8 301.839,1288.53L301.839,1298L297.461,1298L297.461,1288.63C297.461,1287.79 297.259,1287.16 296.855,1286.76C296.451,1286.35 295.779,1286.15 294.84,1286.15C293.558,1286.15 292.629,1286.59 292.053,1287.49L292.053,1298L287.675,1298L287.675,1277L292.053,1277L292.053,1284.82Z" style="fill-opacity:0.97;fill-rule:nonzero;"/>
                            <path d="M309.762,1298L305.368,1298L305.368,1283.21L309.762,1283.21L309.762,1298ZM305.111,1279.38C305.111,1278.79 305.331,1278.3 305.77,1277.92C306.209,1277.53 306.808,1277.34 307.565,1277.34C308.312,1277.34 308.908,1277.53 309.353,1277.92C309.797,1278.3 310.019,1278.79 310.019,1279.38C310.019,1279.98 309.794,1280.47 309.345,1280.86C308.896,1281.24 308.302,1281.43 307.565,1281.43C306.828,1281.43 306.234,1281.24 305.785,1280.86C305.336,1280.47 305.111,1279.98 305.111,1279.38Z" style="fill-opacity:0.97;fill-rule:nonzero;"/>
                            <path d="M322.244,1293.91C322.244,1293.43 321.979,1293.05 321.449,1292.77C320.918,1292.49 320.068,1292.24 318.896,1292.03C314.998,1291.29 313.049,1289.79 313.049,1287.54C313.049,1286.23 313.652,1285.13 314.859,1284.25C316.066,1283.37 317.644,1282.93 319.593,1282.93C321.673,1282.93 323.337,1283.38 324.584,1284.26C325.832,1285.14 326.455,1286.29 326.455,1287.7L322.077,1287.7C322.077,1287.14 321.875,1286.67 321.471,1286.3C321.067,1285.93 320.436,1285.75 319.578,1285.75C318.841,1285.75 318.27,1285.9 317.866,1286.2C317.462,1286.5 317.26,1286.88 317.26,1287.35C317.26,1287.79 317.49,1288.14 317.949,1288.41C318.409,1288.68 319.184,1288.91 320.275,1289.11C321.365,1289.3 322.284,1289.52 323.032,1289.77C325.344,1290.54 326.501,1291.86 326.501,1293.75C326.501,1295.1 325.859,1296.19 324.577,1297.02C323.294,1297.86 321.638,1298.27 319.608,1298.27C318.235,1298.27 317.015,1298.05 315.95,1297.61C314.884,1297.17 314.049,1296.56 313.443,1295.79C312.837,1295.02 312.534,1294.19 312.534,1293.3L316.684,1293.3C316.725,1294 317.013,1294.54 317.548,1294.91C318.083,1295.28 318.8,1295.47 319.699,1295.47C320.537,1295.47 321.171,1295.33 321.6,1295.04C322.029,1294.75 322.244,1294.38 322.244,1293.91Z" style="fill-opacity:0.97;fill-rule:nonzero;"/>
                            <path d="M351.799,1290.74C351.799,1293.02 351.226,1294.84 350.079,1296.22C348.933,1297.59 347.386,1298.27 345.436,1298.27C343.78,1298.27 342.442,1297.75 341.422,1296.71L341.422,1303.69L337.044,1303.69L337.044,1283.21L341.104,1283.21L341.255,1284.66C342.316,1283.51 343.699,1282.93 345.406,1282.93C347.426,1282.93 348.996,1283.61 350.117,1284.96C351.238,1286.31 351.799,1288.16 351.799,1290.54L351.799,1290.74ZM347.421,1290.45C347.421,1289.08 347.151,1288.02 346.61,1287.27C346.07,1286.52 345.285,1286.15 344.255,1286.15C342.881,1286.15 341.937,1286.62 341.422,1287.57L341.422,1293.62C341.957,1294.6 342.912,1295.09 344.285,1295.09C346.376,1295.09 347.421,1293.54 347.421,1290.45Z" style="fill-opacity:0.97;fill-rule:nonzero;"/>
                            <path d="M364.009,1298C363.807,1297.64 363.66,1297.2 363.569,1296.67C362.509,1297.74 361.13,1298.27 359.434,1298.27C357.828,1298.27 356.497,1297.85 355.442,1297.02C354.387,1296.18 353.859,1295.12 353.859,1293.84C353.859,1292.28 354.503,1291.07 355.79,1290.23C357.078,1289.4 358.939,1288.97 361.373,1288.96L363.387,1288.96L363.387,1288.12C363.387,1287.43 363.193,1286.88 362.804,1286.48C362.415,1286.06 361.802,1285.86 360.964,1285.86C360.226,1285.86 359.648,1286.02 359.229,1286.34C358.81,1286.66 358.6,1287.09 358.6,1287.65L354.223,1287.65C354.223,1286.79 354.515,1286 355.101,1285.27C355.687,1284.54 356.515,1283.97 357.586,1283.56C358.656,1283.14 359.858,1282.93 361.191,1282.93C363.211,1282.93 364.814,1283.39 366.001,1284.31C367.187,1285.22 367.781,1286.51 367.781,1288.17L367.781,1294.58C367.791,1295.99 368.008,1297.05 368.432,1297.77L368.432,1298L364.009,1298ZM360.388,1295.25C361.034,1295.25 361.63,1295.12 362.176,1294.86C362.721,1294.6 363.125,1294.25 363.387,1293.82L363.387,1291.27L361.751,1291.27C359.56,1291.27 358.393,1291.96 358.252,1293.32L358.237,1293.56C358.237,1294.05 358.429,1294.45 358.813,1294.77C359.196,1295.09 359.721,1295.25 360.388,1295.25Z" style="fill-opacity:0.97;fill-rule:nonzero;"/>
                            <path d="M370.507,1290.49C370.507,1288.23 371.106,1286.4 372.302,1285.01C373.499,1283.63 375.112,1282.93 377.142,1282.93C378.94,1282.93 380.339,1283.49 381.338,1284.6L381.52,1283.21L385.489,1283.21L385.489,1297.51C385.489,1298.8 385.163,1299.93 384.512,1300.88C383.861,1301.84 382.944,1302.57 381.763,1303.07C380.581,1303.57 379.197,1303.82 377.612,1303.82C376.41,1303.82 375.239,1303.61 374.097,1303.17C372.956,1302.74 372.093,1302.18 371.507,1301.5L373.446,1299.09C374.537,1300.2 375.86,1300.75 377.415,1300.75C378.576,1300.75 379.48,1300.47 380.127,1299.91C380.773,1299.35 381.096,1298.55 381.096,1297.52L381.096,1296.73C380.086,1297.76 378.758,1298.27 377.112,1298.27C375.143,1298.27 373.55,1297.58 372.333,1296.19C371.116,1294.8 370.507,1292.95 370.507,1290.66L370.507,1290.49ZM374.885,1290.78C374.885,1292.12 375.183,1293.17 375.779,1293.93C376.375,1294.69 377.193,1295.07 378.233,1295.07C379.566,1295.07 380.52,1294.62 381.096,1293.72L381.096,1287.5C380.51,1286.6 379.566,1286.15 378.263,1286.15C377.213,1286.15 376.387,1286.53 375.787,1287.31C375.186,1288.08 374.885,1289.24 374.885,1290.78Z" style="fill-opacity:0.97;fill-rule:nonzero;"/>
                            <path d="M396.396,1298.27C393.993,1298.27 392.036,1297.61 390.526,1296.28C389.016,1294.95 388.261,1293.17 388.261,1290.96L388.261,1290.58C388.261,1289.09 388.579,1287.76 389.216,1286.59C389.852,1285.42 390.753,1284.52 391.92,1283.88C393.086,1283.25 394.417,1282.93 395.911,1282.93C398.153,1282.93 399.918,1283.57 401.206,1284.85C402.493,1286.12 403.137,1287.93 403.137,1290.28L403.137,1291.89L392.7,1291.89C392.841,1292.86 393.268,1293.63 393.98,1294.21C394.692,1294.8 395.593,1295.09 396.684,1295.09C398.37,1295.09 399.688,1294.54 400.638,1293.43L402.789,1295.61C402.132,1296.45 401.244,1297.1 400.123,1297.57C399.002,1298.04 397.759,1298.27 396.396,1298.27ZM395.896,1286.13C395.028,1286.13 394.323,1286.4 393.783,1286.93C393.243,1287.45 392.897,1288.21 392.745,1289.19L398.835,1289.19L398.835,1288.88C398.815,1288.01 398.552,1287.33 398.047,1286.85C397.542,1286.37 396.825,1286.13 395.896,1286.13Z" style="fill-opacity:0.97;fill-rule:nonzero;"/>
                        </g>
                    </g>
                </g>
            </g>
        </g>
    </g>
</svg>
