<?xml version="1.0" encoding="UTF-8" standalone="no"?>
<!DOCTYPE svg PUBLIC "-//W3C//DTD SVG 1.1//EN" "http://www.w3.org/Graphics/SVG/1.1/DTD/svg11.dtd">
<svg width="100%" height="100%" viewBox="0 0 287 108" version="1.1" xmlns="http://www.w3.org/2000/svg" xmlns:xlink="http://www.w3.org/1999/xlink" xml:space="preserve" xmlns:serif="http://www.serif.com/" style="fill-rule:evenodd;clip-rule:evenodd;stroke-linecap:round;stroke-linejoin:round;stroke-miterlimit:1.5;">
    <g transform="matrix(1,0,0,1,-101,-1625)">
        <g transform="matrix(1.03258,0,0,1.69762,0,0)">
            <g id="speed" transform="matrix(0.968444,0,0,0.686408,-12.718,912.061)">
                <path d="M400,75.792C400,71.013 395.479,67.133 389.91,67.133L125.976,67.133C120.407,67.133 115.886,71.013 115.886,75.792L115.886,148.836C115.886,153.615 120.407,157.495 125.976,157.495L389.91,157.495C395.479,157.495 400,153.615 400,148.836L400,75.792Z" style="fill:rgb(235,236,242);"/>
                <clipPath id="_clip1">
                    <path d="M400,75.792C400,71.013 395.479,67.133 389.91,67.133L125.976,67.133C120.407,67.133 115.886,71.013 115.886,75.792L115.886,148.836C115.886,153.615 120.407,157.495 125.976,157.495L389.91,157.495C395.479,157.495 400,153.615 400,148.836L400,75.792Z"/>
                </clipPath>
                <g clip-path="url(#_clip1)">
                    <g transform="matrix(1.03258,0,0,1.32275,13.1324,-1331.32)">
                        <g transform="matrix(0.576157,0,0,0.389269,40.4923,431.221)">
                            <path d="M320,1637.25C320,1636.56 319.435,1636 318.739,1636L104.014,1636C103.318,1636 102.753,1636.56 102.753,1637.25L102.753,1639.75C102.753,1640.44 103.318,1641 104.014,1641L318.739,1641C319.435,1641 320,1640.44 320,1639.75L320,1637.25Z" style="fill-opacity:0.08;"/>
                        </g>
                        <g transform="matrix(0.46917,0,0,0.648781,51.4024,20.8481)">
                            <path d="M320,1637.25C320,1636.56 318.844,1636 317.42,1636L105.334,1636C103.909,1636 102.753,1636.56 102.753,1637.25L102.753,1639.75C102.753,1640.44 103.909,1641 105.334,1641L317.42,1641C318.844,1641 320,1640.44 320,1639.75L320,1637.25Z" style="fill-opacity:0.08;"/>
                        </g>
                        <g transform="matrix(1.01748,0,0,0.648781,-4.85513,36.3358)">
                            <path d="M320,1637.25C320,1636.56 319.467,1636 318.81,1636L103.943,1636C103.286,1636 102.753,1636.56 102.753,1637.25L102.753,1639.75C102.753,1640.44 103.286,1641 103.943,1641L318.81,1641C319.467,1641 320,1640.44 320,1639.75L320,1637.25Z" style="fill-opacity:0.22;"/>
                        </g>
                        <g transform="matrix(1.16013,0,0,0.389269,-19.6964,477.684)">
                            <path d="M320,1637.25C320,1636.56 319.719,1636 319.374,1636L103.379,1636C103.034,1636 102.753,1636.56 102.753,1637.25L102.753,1639.75C102.753,1640.44 103.034,1641 103.379,1641L319.374,1641C319.719,1641 320,1640.44 320,1639.75L320,1637.25Z" style="fill-opacity:0.22;"/>
                        </g>
                        <g transform="matrix(0.910493,0,0,0.648781,78.5316,59.5673)">
                            <path d="M320,1637.25C320,1636.56 319.404,1636 318.67,1636L104.083,1636C103.349,1636 102.753,1636.56 102.753,1637.25L102.753,1639.75C102.753,1640.44 103.349,1641 104.083,1641L318.67,1641C319.404,1641 320,1640.44 320,1639.75L320,1637.25Z" style="fill-opacity:0.08;"/>
                        </g>
                        <g transform="matrix(0.981818,0,0,0.648781,60.4875,44.0796)">
                            <path d="M320,1637.25C320,1636.56 319.448,1636 318.767,1636L103.986,1636C103.306,1636 102.753,1636.56 102.753,1637.25L102.753,1639.75C102.753,1640.44 103.306,1641 103.986,1641L318.767,1641C319.448,1641 320,1640.44 320,1639.75L320,1637.25Z" style="fill-opacity:0.08;"/>
                        </g>
                        <g transform="matrix(1.20025,0,0,0.648781,-9.75585,28.592)">
                            <path d="M320,1637.25C320,1636.56 319.548,1636 318.991,1636L103.762,1636C103.205,1636 102.753,1636.56 102.753,1637.25L102.753,1639.75C102.753,1640.44 103.205,1641 103.762,1641L318.991,1641C319.548,1641 320,1640.44 320,1639.75L320,1637.25Z" style="fill-opacity:0.08;"/>
                        </g>
                        <g transform="matrix(0.981818,0,0,0.648781,60.7817,13.1043)">
                            <path d="M320,1637.25C320,1636.56 319.448,1636 318.767,1636L103.986,1636C103.306,1636 102.753,1636.56 102.753,1637.25L102.753,1639.75C102.753,1640.44 103.306,1641 103.986,1641L318.767,1641C319.448,1641 320,1640.44 320,1639.75L320,1637.25Z" style="fill-opacity:0.22;"/>
                        </g>
                        <g transform="matrix(0.981818,0,0,0.389269,59.486,423.477)">
                            <path d="M320,1637.25C320,1636.56 319.669,1636 319.26,1636L103.493,1636C103.085,1636 102.753,1636.56 102.753,1637.25L102.753,1639.75C102.753,1640.44 103.085,1641 103.493,1641L319.26,1641C319.669,1641 320,1640.44 320,1639.75L320,1637.25Z" style="fill-opacity:0.22;"/>
                        </g>
                    </g>
                    <g transform="matrix(0.661438,0,0,0.854267,95.56,-639.868)">
                        <rect x="165" y="865" width="161" height="31" style="fill:white;"/>
                    </g>
                    <g transform="matrix(0.532843,0,0,0.457275,151.727,-539.247)">
                        <path d="M163.15,1430.03C163.15,1429 162.785,1428.2 162.055,1427.65C161.325,1427.09 160.011,1426.51 158.114,1425.9C156.216,1425.28 154.713,1424.68 153.606,1424.08C150.589,1422.45 149.08,1420.25 149.08,1417.49C149.08,1416.06 149.485,1414.78 150.294,1413.65C151.103,1412.53 152.265,1411.65 153.779,1411.01C155.294,1410.38 156.994,1410.07 158.88,1410.07C160.778,1410.07 162.469,1410.41 163.953,1411.1C165.437,1411.78 166.59,1412.75 167.411,1414.01C168.233,1415.26 168.643,1416.68 168.643,1418.28L163.169,1418.28C163.169,1417.06 162.785,1416.11 162.019,1415.44C161.252,1414.76 160.176,1414.43 158.789,1414.43C157.451,1414.43 156.41,1414.71 155.668,1415.28C154.926,1415.84 154.555,1416.59 154.555,1417.51C154.555,1418.37 154.99,1419.1 155.86,1419.68C156.73,1420.27 158.01,1420.81 159.701,1421.32C162.816,1422.26 165.085,1423.42 166.508,1424.81C167.931,1426.2 168.643,1427.92 168.643,1429.99C168.643,1432.29 167.773,1434.1 166.034,1435.4C164.294,1436.71 161.952,1437.37 159.008,1437.37C156.964,1437.37 155.103,1436.99 153.424,1436.24C151.745,1435.49 150.464,1434.47 149.582,1433.17C148.7,1431.87 148.259,1430.36 148.259,1428.64L153.752,1428.64C153.752,1431.57 155.504,1433.04 159.008,1433.04C160.31,1433.04 161.325,1432.78 162.055,1432.25C162.785,1431.72 163.15,1430.98 163.15,1430.03Z" style="fill-rule:nonzero;"/>
                        <path d="M189.775,1427.31C189.775,1430.35 189.085,1432.79 187.704,1434.62C186.323,1436.45 184.459,1437.37 182.111,1437.37C180.116,1437.37 178.504,1436.67 177.275,1435.29L177.275,1444.59L172.001,1444.59L172.001,1417.26L176.892,1417.26L177.074,1419.19C178.352,1417.66 180.018,1416.89 182.074,1416.89C184.508,1416.89 186.399,1417.79 187.75,1419.59C189.1,1421.39 189.775,1423.87 189.775,1427.04L189.775,1427.31ZM184.501,1426.93C184.501,1425.09 184.176,1423.67 183.525,1422.67C182.874,1421.68 181.928,1421.18 180.687,1421.18C179.033,1421.18 177.895,1421.81 177.275,1423.08L177.275,1431.16C177.92,1432.46 179.069,1433.11 180.724,1433.11C183.242,1433.11 184.501,1431.05 184.501,1426.93Z" style="fill-rule:nonzero;"/>
                        <path d="M202.13,1437.37C199.234,1437.37 196.877,1436.48 195.058,1434.7C193.24,1432.92 192.33,1430.56 192.33,1427.6L192.33,1427.09C192.33,1425.11 192.713,1423.34 193.48,1421.77C194.246,1420.21 195.332,1419 196.737,1418.16C198.143,1417.31 199.745,1416.89 201.546,1416.89C204.247,1416.89 206.373,1417.74 207.924,1419.44C209.475,1421.15 210.251,1423.56 210.251,1426.69L210.251,1428.84L197.677,1428.84C197.848,1430.13 198.362,1431.17 199.219,1431.94C200.077,1432.72 201.163,1433.11 202.477,1433.11C204.508,1433.11 206.096,1432.38 207.24,1430.9L209.831,1433.81C209.04,1434.93 207.97,1435.8 206.619,1436.42C205.269,1437.05 203.772,1437.37 202.13,1437.37ZM201.528,1421.16C200.481,1421.16 199.633,1421.51 198.982,1422.22C198.331,1422.92 197.914,1423.93 197.732,1425.25L205.068,1425.25L205.068,1424.83C205.044,1423.66 204.727,1422.76 204.119,1422.12C203.511,1421.48 202.647,1421.16 201.528,1421.16Z" style="fill-rule:nonzero;"/>
                        <path d="M222.331,1437.37C219.436,1437.37 217.079,1436.48 215.26,1434.7C213.441,1432.92 212.532,1430.56 212.532,1427.6L212.532,1427.09C212.532,1425.11 212.915,1423.34 213.681,1421.77C214.448,1420.21 215.534,1419 216.939,1418.16C218.344,1417.31 219.947,1416.89 221.747,1416.89C224.448,1416.89 226.574,1417.74 228.125,1419.44C229.677,1421.15 230.452,1423.56 230.452,1426.69L230.452,1428.84L217.879,1428.84C218.049,1430.13 218.563,1431.17 219.421,1431.94C220.278,1432.72 221.364,1433.11 222.678,1433.11C224.71,1433.11 226.298,1432.38 227.441,1430.9L230.032,1433.81C229.242,1434.93 228.171,1435.8 226.821,1436.42C225.47,1437.05 223.974,1437.37 222.331,1437.37ZM221.729,1421.16C220.683,1421.16 219.834,1421.51 219.184,1422.22C218.533,1422.92 218.116,1423.93 217.933,1425.25L225.27,1425.25L225.27,1424.83C225.245,1423.66 224.929,1422.76 224.321,1422.12C223.712,1421.48 222.848,1421.16 221.729,1421.16Z" style="fill-rule:nonzero;"/>
                        <path d="M232.624,1426.98C232.624,1423.9 233.314,1421.45 234.695,1419.63C236.076,1417.8 237.965,1416.89 240.361,1416.89C242.284,1416.89 243.871,1417.61 245.124,1419.04L245.124,1408.97L250.416,1408.97L250.416,1437L245.654,1437L245.398,1434.9C244.084,1436.54 242.393,1437.37 240.325,1437.37C238.001,1437.37 236.137,1436.45 234.732,1434.62C233.326,1432.79 232.624,1430.24 232.624,1426.98ZM237.898,1427.37C237.898,1429.21 238.22,1430.63 238.865,1431.62C239.51,1432.6 240.447,1433.1 241.675,1433.1C243.306,1433.1 244.455,1432.41 245.124,1431.03L245.124,1423.24C244.467,1421.87 243.33,1421.18 241.712,1421.18C239.169,1421.18 237.898,1423.24 237.898,1427.37Z" style="fill-rule:nonzero;"/>
                    </g>
                </g>
                <path d="M400,75.792C400,71.013 395.479,67.133 389.91,67.133L125.976,67.133C120.407,67.133 115.886,71.013 115.886,75.792L115.886,148.836C115.886,153.615 120.407,157.495 125.976,157.495L389.91,157.495C395.479,157.495 400,153.615 400,148.836L400,75.792Z" style="fill:none;stroke:black;stroke-width:1.84px;"/>
            </g>
        </g>
    </g>
</svg>
