<?xml version="1.0" encoding="UTF-8" standalone="no"?>
<!DOCTYPE svg PUBLIC "-//W3C//DTD SVG 1.1//EN" "http://www.w3.org/Graphics/SVG/1.1/DTD/svg11.dtd">
<svg width="100%" height="100%" viewBox="0 0 285 106" version="1.1" xmlns="http://www.w3.org/2000/svg" xmlns:xlink="http://www.w3.org/1999/xlink" xml:space="preserve" xmlns:serif="http://www.serif.com/" style="fill-rule:evenodd;clip-rule:evenodd;stroke-linejoin:round;stroke-miterlimit:2;">
    <g transform="matrix(1,0,0,1,-416,-422)">
        <g transform="matrix(1.03258,0,0,1.69762,0,0)">
            <g id="spend" transform="matrix(0.968444,0,0,0.686408,291.228,202.878)">
                <path d="M400,75.792C400,71.013 395.479,67.133 389.91,67.133L125.976,67.133C120.407,67.133 115.886,71.013 115.886,75.792L115.886,148.836C115.886,153.615 120.407,157.495 125.976,157.495L389.91,157.495C395.479,157.495 400,153.615 400,148.836L400,75.792Z" style="fill:url(#_Linear1);"/>
                <clipPath id="_clip2">
                    <path d="M400,75.792C400,71.013 395.479,67.133 389.91,67.133L125.976,67.133C120.407,67.133 115.886,71.013 115.886,75.792L115.886,148.836C115.886,153.615 120.407,157.495 125.976,157.495L389.91,157.495C395.479,157.495 400,153.615 400,148.836L400,75.792Z"/>
                </clipPath>
                <g clip-path="url(#_clip2)">
                    <g transform="matrix(0.54501,0,0,0.467716,-57.8884,-69.0726)">
                        <path d="M484.567,368.627C484.567,366.944 484.112,365.655 483.201,364.76C482.29,363.865 480.646,362.992 478.269,362.143C475.891,361.294 474.074,360.403 472.816,359.469C471.557,358.535 470.616,357.47 469.99,356.273C469.365,355.077 469.053,353.707 469.053,352.163C469.053,349.492 469.944,347.293 471.727,345.564C473.51,343.835 475.845,342.97 478.732,342.97C480.708,342.97 482.468,343.414 484.012,344.302C485.555,345.189 486.744,346.42 487.578,347.995C488.411,349.57 488.828,351.299 488.828,353.182L484.567,353.182C484.567,351.098 484.066,349.485 483.062,348.342C482.059,347.2 480.615,346.629 478.732,346.629C477.018,346.629 475.691,347.107 474.749,348.064C473.807,349.022 473.337,350.365 473.337,352.094C473.337,353.514 473.846,354.703 474.865,355.66C475.884,356.617 477.458,357.474 479.589,358.23C482.908,359.326 485.281,360.677 486.709,362.282C488.137,363.888 488.851,365.987 488.851,368.581C488.851,371.313 487.964,373.502 486.188,375.146C484.413,376.79 481.997,377.612 478.94,377.612C476.98,377.612 475.17,377.183 473.51,376.327C471.851,375.47 470.546,374.266 469.597,372.714C468.647,371.163 468.173,369.384 468.173,367.377L472.433,367.377C472.433,369.461 473.016,371.082 474.182,372.239C475.347,373.397 476.934,373.976 478.94,373.976C480.808,373.976 482.213,373.498 483.155,372.541C484.096,371.583 484.567,370.279 484.567,368.627Z" style="fill:white;fill-rule:nonzero;"/>
                        <path d="M498.646,363.95L498.646,377.149L494.409,377.149L494.409,343.433L505.153,343.433C508.287,343.433 510.749,344.371 512.54,346.247C514.331,348.122 515.226,350.619 515.226,353.738C515.226,356.98 514.373,359.477 512.667,361.229C510.962,362.981 508.557,363.888 505.454,363.95L498.646,363.95ZM498.646,360.314L505.153,360.314C507.037,360.314 508.48,359.751 509.483,358.624C510.487,357.497 510.989,355.883 510.989,353.784C510.989,351.762 510.471,350.141 509.437,348.921C508.403,347.702 506.983,347.092 505.176,347.092L498.646,347.092L498.646,360.314Z" style="fill:white;fill-rule:nonzero;"/>
                        <path d="M536.854,361.564L524.929,361.564L524.929,373.513L538.822,373.513L538.822,377.149L520.691,377.149L520.691,343.433L538.591,343.433L538.591,347.092L524.929,347.092L524.929,357.929L536.854,357.929L536.854,361.564Z" style="fill:white;fill-rule:nonzero;"/>
                        <path d="M566.262,377.149L562.002,377.149L548.502,351.167L548.502,377.149L544.241,377.149L544.241,343.433L548.502,343.433L562.048,369.53L562.048,343.433L566.262,343.433L566.262,377.149Z" style="fill:white;fill-rule:nonzero;"/>
                        <path d="M573.603,377.149L573.603,343.433L581.638,343.433C585.575,343.433 588.631,344.664 590.808,347.127C592.985,349.589 594.073,353.051 594.073,357.512L594.073,363.162C594.073,367.624 592.969,371.07 590.762,373.502C588.554,375.933 585.351,377.149 581.152,377.149L573.603,377.149ZM577.841,347.092L577.841,373.513L581.245,373.513C584.224,373.513 586.401,372.66 587.775,370.954C589.149,369.248 589.851,366.721 589.882,363.371L589.882,357.396C589.882,353.846 589.199,351.241 587.833,349.581C586.466,347.922 584.402,347.092 581.638,347.092L577.841,347.092Z" style="fill:white;fill-rule:nonzero;"/>
                        <path d="M611.533,377.149L611.533,343.433L621.143,343.433C624.215,343.433 626.527,344.182 628.078,345.679C629.63,347.177 630.405,349.423 630.405,352.418C630.405,353.992 630.012,355.382 629.224,356.586C628.437,357.79 627.372,358.724 626.029,359.388C627.572,359.851 628.796,360.8 629.699,362.236C630.602,363.672 631.054,365.401 631.054,367.423C631.054,370.449 630.224,372.826 628.564,374.555C626.905,376.284 624.539,377.149 621.467,377.149L611.533,377.149ZM615.771,361.379L615.771,373.513L621.56,373.513C623.165,373.513 624.439,372.984 625.38,371.927C626.322,370.869 626.793,369.384 626.793,367.469C626.793,363.409 625.079,361.379 621.652,361.379L615.771,361.379ZM615.771,357.813L621.212,357.813C622.679,357.813 623.864,357.319 624.767,356.331C625.67,355.343 626.121,354.031 626.121,352.395C626.121,350.542 625.712,349.195 624.894,348.354C624.076,347.512 622.825,347.092 621.143,347.092L615.771,347.092L615.771,357.813Z" style="fill:white;fill-rule:nonzero;"/>
                        <rect x="637.584" y="343.433" width="4.238" height="33.715" style="fill:white;fill-rule:nonzero;"/>
                        <path d="M653.515,373.513L666.737,373.513L666.737,377.149L649.254,377.149L649.254,343.433L653.515,343.433L653.515,373.513Z" style="fill:white;fill-rule:nonzero;"/>
                        <path d="M676.046,373.513L689.268,373.513L689.268,377.149L671.785,377.149L671.785,343.433L676.046,343.433L676.046,373.513Z" style="fill:white;fill-rule:nonzero;"/>
                        <path d="M459.987,428.002L459.246,428.928C457.116,431.414 453.997,432.657 449.891,432.657C446.248,432.657 443.388,431.449 441.312,429.033C439.235,426.617 438.174,423.201 438.128,418.786L438.128,412.163C438.128,407.439 439.073,403.9 440.964,401.546C442.855,399.192 445.684,398.015 449.451,398.015C452.662,398.015 455.174,398.91 456.988,400.701C458.802,402.492 459.802,405.047 459.987,408.366L455.749,408.366C455.58,406.266 454.997,404.626 454.001,403.445C453.005,402.264 451.496,401.674 449.474,401.674C447.05,401.674 445.275,402.465 444.148,404.047C443.021,405.629 442.435,408.157 442.388,411.631L442.388,418.508C442.388,421.904 443.037,424.509 444.333,426.323C445.63,428.137 447.49,429.044 449.914,429.044C452.199,429.044 453.936,428.488 455.124,427.377L455.749,426.798L455.749,419.018L449.59,419.018L449.59,415.405L459.987,415.405L459.987,428.002Z" style="fill:white;fill-rule:nonzero;"/>
                        <path d="M482.634,423.394L471.241,423.394L468.624,432.193L464.271,432.193L475.131,398.478L478.767,398.478L489.65,432.193L485.297,432.193L482.634,423.394ZM472.352,419.735L481.545,419.735L476.937,404.406L472.352,419.735Z" style="fill:white;fill-rule:nonzero;"/>
                        <path d="M510.954,402.137L502.085,402.137L502.085,432.193L497.847,432.193L497.847,402.137L489.002,402.137L489.002,398.478L510.954,398.478L510.954,402.137Z" style="fill:white;fill-rule:nonzero;"/>
                        <path d="M532.095,416.609L520.17,416.609L520.17,428.558L534.064,428.558L534.064,432.193L515.932,432.193L515.932,398.478L533.832,398.478L533.832,402.137L520.17,402.137L520.17,412.974L532.095,412.974L532.095,416.609Z" style="fill:white;fill-rule:nonzero;"/>
                        <path d="M554.21,423.672C554.21,421.989 553.754,420.7 552.843,419.805C551.933,418.91 550.289,418.037 547.911,417.188C545.534,416.339 543.716,415.448 542.458,414.514C541.2,413.58 540.258,412.515 539.633,411.318C539.008,410.122 538.695,408.752 538.695,407.208C538.695,404.537 539.587,402.337 541.37,400.608C543.153,398.879 545.488,398.015 548.374,398.015C550.35,398.015 552.11,398.459 553.654,399.346C555.198,400.234 556.386,401.465 557.22,403.04C558.054,404.614 558.47,406.343 558.47,408.227L554.21,408.227C554.21,406.143 553.708,404.53 552.705,403.387C551.701,402.245 550.258,401.674 548.374,401.674C546.661,401.674 545.333,402.152 544.391,403.109C543.45,404.066 542.979,405.409 542.979,407.138C542.979,408.559 543.488,409.747 544.507,410.704C545.526,411.662 547.101,412.518 549.231,413.275C552.55,414.371 554.924,415.722 556.352,417.327C557.78,418.933 558.494,421.032 558.494,423.626C558.494,426.358 557.606,428.546 555.831,430.19C554.055,431.835 551.639,432.657 548.583,432.657C546.622,432.657 544.812,432.228 543.153,431.371C541.493,430.515 540.189,429.311 539.239,427.759C538.29,426.208 537.815,424.428 537.815,422.422L542.076,422.422C542.076,424.506 542.659,426.127 543.824,427.284C544.99,428.442 546.576,429.021 548.583,429.021C550.451,429.021 551.855,428.543 552.797,427.585C553.739,426.628 554.21,425.324 554.21,423.672Z" style="fill:white;fill-rule:nonzero;"/>
                        <path d="M566.274,399.196L565.788,407.717L562.801,407.717L562.824,396.626L566.274,396.626L566.274,399.196Z" style="fill:white;fill-rule:nonzero;"/>
                        <path d="M588.643,398.478L597.442,425.988L606.242,398.478L611.707,398.478L611.707,432.193L607.469,432.193L607.469,419.064L607.863,405.911L599.04,432.193L595.798,432.193L587.022,406.004L587.416,419.064L587.416,432.193L583.178,432.193L583.178,398.478L588.643,398.478Z" style="fill:white;fill-rule:nonzero;"/>
                        <path d="M640.93,418.3C640.93,422.9 639.949,426.443 637.989,428.928C636.028,431.414 633.242,432.657 629.63,432.657C626.156,432.657 623.412,431.449 621.397,429.033C619.383,426.617 618.337,423.201 618.26,418.786L618.26,412.441C618.26,407.933 619.256,404.402 621.247,401.847C623.238,399.292 626.017,398.015 629.583,398.015C633.134,398.015 635.901,399.238 637.885,401.685C639.868,404.132 640.883,407.625 640.93,412.163L640.93,418.3ZM636.692,412.395C636.692,408.829 636.109,406.177 634.944,404.441C633.778,402.704 631.991,401.836 629.583,401.836C627.252,401.836 625.488,402.716 624.292,404.475C623.096,406.235 622.49,408.829 622.474,412.256L622.474,418.3C622.474,421.742 623.072,424.367 624.269,426.173C625.465,427.979 627.252,428.882 629.63,428.882C632.007,428.882 633.767,428.049 634.909,426.381C636.051,424.714 636.646,422.159 636.692,418.717L636.692,412.395Z" style="fill:white;fill-rule:nonzero;"/>
                        <path d="M669.505,432.193L665.244,432.193L651.744,406.212L651.744,432.193L647.483,432.193L647.483,398.478L651.744,398.478L665.29,424.575L665.29,398.478L669.505,398.478L669.505,432.193Z" style="fill:white;fill-rule:nonzero;"/>
                        <path d="M693.008,416.609L681.083,416.609L681.083,428.558L694.976,428.558L694.976,432.193L676.845,432.193L676.845,398.478L694.745,398.478L694.745,402.137L681.083,402.137L681.083,412.974L693.008,412.974L693.008,416.609Z" style="fill:white;fill-rule:nonzero;"/>
                        <path d="M709.171,415.405L716.072,398.478L720.865,398.478L711.278,419.62L711.278,432.193L707.041,432.193L707.041,419.62L697.454,398.478L702.271,398.478L709.171,415.405Z" style="fill:white;fill-rule:nonzero;"/>
                    </g>
                    <g transform="matrix(0.0633188,0.0132295,-0.0154157,0.0543388,125.561,123.278)">
                        <path d="M309.43,219.944C290.43,209.444 270.23,201.444 250.23,193.144C238.63,188.344 227.53,182.744 217.73,174.944C198.43,159.544 202.13,134.544 224.73,124.644C231.13,121.844 237.83,120.944 244.63,120.544C270.83,119.144 295.73,123.944 319.43,135.344C331.23,141.044 335.13,139.244 339.13,126.944C343.33,113.944 346.83,100.744 350.73,87.644C353.33,78.844 350.13,73.044 341.83,69.344C326.63,62.644 311.03,57.844 294.63,55.244C273.23,51.944 273.23,51.844 273.13,30.344C273.03,0.044 273.03,0.044 242.63,0.044C238.23,0.044 233.83,-0.056 229.43,0.044C215.23,0.444 212.83,2.944 212.43,17.244C212.23,23.644 212.43,30.044 212.33,36.544C212.23,55.544 212.13,55.244 193.93,61.844C149.93,77.844 122.73,107.844 119.83,155.844C117.23,198.344 139.43,227.044 174.33,247.944C195.83,260.844 219.63,268.444 242.43,278.544C251.33,282.444 259.83,286.944 267.23,293.144C289.13,311.244 285.13,341.344 259.13,352.744C245.23,358.844 230.53,360.344 215.43,358.444C192.13,355.544 169.83,349.444 148.83,338.544C136.53,332.144 132.93,333.844 128.73,347.144C125.13,358.644 121.93,370.244 118.73,381.844C114.43,397.444 116.03,401.144 130.93,408.444C149.93,417.644 170.23,422.344 190.93,425.644C207.13,428.244 207.63,428.944 207.83,445.744C207.93,453.344 207.93,461.044 208.03,468.644C208.13,478.244 212.73,483.844 222.63,484.044C233.83,484.244 245.13,484.244 256.33,483.944C265.53,483.744 270.23,478.744 270.23,469.444C270.23,459.044 270.73,448.544 270.33,438.144C269.83,427.544 274.43,422.144 284.63,419.344C308.13,412.944 328.13,400.344 343.53,381.544C386.33,329.544 370.03,253.444 309.43,219.944Z" style="fill:white;fill-opacity:0.49;fill-rule:nonzero;"/>
                    </g>
                    <g transform="matrix(0.0317153,-0.00945066,0.0110125,0.0272174,170.836,142.087)">
                        <path d="M309.43,219.944C290.43,209.444 270.23,201.444 250.23,193.144C238.63,188.344 227.53,182.744 217.73,174.944C198.43,159.544 202.13,134.544 224.73,124.644C231.13,121.844 237.83,120.944 244.63,120.544C270.83,119.144 295.73,123.944 319.43,135.344C331.23,141.044 335.13,139.244 339.13,126.944C343.33,113.944 346.83,100.744 350.73,87.644C353.33,78.844 350.13,73.044 341.83,69.344C326.63,62.644 311.03,57.844 294.63,55.244C273.23,51.944 273.23,51.844 273.13,30.344C273.03,0.044 273.03,0.044 242.63,0.044C238.23,0.044 233.83,-0.056 229.43,0.044C215.23,0.444 212.83,2.944 212.43,17.244C212.23,23.644 212.43,30.044 212.33,36.544C212.23,55.544 212.13,55.244 193.93,61.844C149.93,77.844 122.73,107.844 119.83,155.844C117.23,198.344 139.43,227.044 174.33,247.944C195.83,260.844 219.63,268.444 242.43,278.544C251.33,282.444 259.83,286.944 267.23,293.144C289.13,311.244 285.13,341.344 259.13,352.744C245.23,358.844 230.53,360.344 215.43,358.444C192.13,355.544 169.83,349.444 148.83,338.544C136.53,332.144 132.93,333.844 128.73,347.144C125.13,358.644 121.93,370.244 118.73,381.844C114.43,397.444 116.03,401.144 130.93,408.444C149.93,417.644 170.23,422.344 190.93,425.644C207.13,428.244 207.63,428.944 207.83,445.744C207.93,453.344 207.93,461.044 208.03,468.644C208.13,478.244 212.73,483.844 222.63,484.044C233.83,484.244 245.13,484.244 256.33,483.944C265.53,483.744 270.23,478.744 270.23,469.444C270.23,459.044 270.73,448.544 270.33,438.144C269.83,427.544 274.43,422.144 284.63,419.344C308.13,412.944 328.13,400.344 343.53,381.544C386.33,329.544 370.03,253.444 309.43,219.944Z" style="fill:white;fill-opacity:0.32;fill-rule:nonzero;"/>
                    </g>
                    <g transform="matrix(0.0290749,0.0144057,-0.0167864,0.0249515,258.537,136.436)">
                        <path d="M309.43,219.944C290.43,209.444 270.23,201.444 250.23,193.144C238.63,188.344 227.53,182.744 217.73,174.944C198.43,159.544 202.13,134.544 224.73,124.644C231.13,121.844 237.83,120.944 244.63,120.544C270.83,119.144 295.73,123.944 319.43,135.344C331.23,141.044 335.13,139.244 339.13,126.944C343.33,113.944 346.83,100.744 350.73,87.644C353.33,78.844 350.13,73.044 341.83,69.344C326.63,62.644 311.03,57.844 294.63,55.244C273.23,51.944 273.23,51.844 273.13,30.344C273.03,0.044 273.03,0.044 242.63,0.044C238.23,0.044 233.83,-0.056 229.43,0.044C215.23,0.444 212.83,2.944 212.43,17.244C212.23,23.644 212.43,30.044 212.33,36.544C212.23,55.544 212.13,55.244 193.93,61.844C149.93,77.844 122.73,107.844 119.83,155.844C117.23,198.344 139.43,227.044 174.33,247.944C195.83,260.844 219.63,268.444 242.43,278.544C251.33,282.444 259.83,286.944 267.23,293.144C289.13,311.244 285.13,341.344 259.13,352.744C245.23,358.844 230.53,360.344 215.43,358.444C192.13,355.544 169.83,349.444 148.83,338.544C136.53,332.144 132.93,333.844 128.73,347.144C125.13,358.644 121.93,370.244 118.73,381.844C114.43,397.444 116.03,401.144 130.93,408.444C149.93,417.644 170.23,422.344 190.93,425.644C207.13,428.244 207.63,428.944 207.83,445.744C207.93,453.344 207.93,461.044 208.03,468.644C208.13,478.244 212.73,483.844 222.63,484.044C233.83,484.244 245.13,484.244 256.33,483.944C265.53,483.744 270.23,478.744 270.23,469.444C270.23,459.044 270.73,448.544 270.33,438.144C269.83,427.544 274.43,422.144 284.63,419.344C308.13,412.944 328.13,400.344 343.53,381.544C386.33,329.544 370.03,253.444 309.43,219.944Z" style="fill:white;fill-opacity:0.26;fill-rule:nonzero;"/>
                    </g>
                    <g transform="matrix(0.0420582,0.00511013,-0.00595462,0.0360935,214.023,144.068)">
                        <path d="M309.43,219.944C290.43,209.444 270.23,201.444 250.23,193.144C238.63,188.344 227.53,182.744 217.73,174.944C198.43,159.544 202.13,134.544 224.73,124.644C231.13,121.844 237.83,120.944 244.63,120.544C270.83,119.144 295.73,123.944 319.43,135.344C331.23,141.044 335.13,139.244 339.13,126.944C343.33,113.944 346.83,100.744 350.73,87.644C353.33,78.844 350.13,73.044 341.83,69.344C326.63,62.644 311.03,57.844 294.63,55.244C273.23,51.944 273.23,51.844 273.13,30.344C273.03,0.044 273.03,0.044 242.63,0.044C238.23,0.044 233.83,-0.056 229.43,0.044C215.23,0.444 212.83,2.944 212.43,17.244C212.23,23.644 212.43,30.044 212.33,36.544C212.23,55.544 212.13,55.244 193.93,61.844C149.93,77.844 122.73,107.844 119.83,155.844C117.23,198.344 139.43,227.044 174.33,247.944C195.83,260.844 219.63,268.444 242.43,278.544C251.33,282.444 259.83,286.944 267.23,293.144C289.13,311.244 285.13,341.344 259.13,352.744C245.23,358.844 230.53,360.344 215.43,358.444C192.13,355.544 169.83,349.444 148.83,338.544C136.53,332.144 132.93,333.844 128.73,347.144C125.13,358.644 121.93,370.244 118.73,381.844C114.43,397.444 116.03,401.144 130.93,408.444C149.93,417.644 170.23,422.344 190.93,425.644C207.13,428.244 207.63,428.944 207.83,445.744C207.93,453.344 207.93,461.044 208.03,468.644C208.13,478.244 212.73,483.844 222.63,484.044C233.83,484.244 245.13,484.244 256.33,483.944C265.53,483.744 270.23,478.744 270.23,469.444C270.23,459.044 270.73,448.544 270.33,438.144C269.83,427.544 274.43,422.144 284.63,419.344C308.13,412.944 328.13,400.344 343.53,381.544C386.33,329.544 370.03,253.444 309.43,219.944Z" style="fill:white;fill-opacity:0.46;fill-rule:nonzero;"/>
                    </g>
                    <g transform="matrix(0.0314177,-0.026962,0.0314177,0.026962,289.625,153.945)">
                        <path d="M309.43,219.944C290.43,209.444 270.23,201.444 250.23,193.144C238.63,188.344 227.53,182.744 217.73,174.944C198.43,159.544 202.13,134.544 224.73,124.644C231.13,121.844 237.83,120.944 244.63,120.544C270.83,119.144 295.73,123.944 319.43,135.344C331.23,141.044 335.13,139.244 339.13,126.944C343.33,113.944 346.83,100.744 350.73,87.644C353.33,78.844 350.13,73.044 341.83,69.344C326.63,62.644 311.03,57.844 294.63,55.244C273.23,51.944 273.23,51.844 273.13,30.344C273.03,0.044 273.03,0.044 242.63,0.044C238.23,0.044 233.83,-0.056 229.43,0.044C215.23,0.444 212.83,2.944 212.43,17.244C212.23,23.644 212.43,30.044 212.33,36.544C212.23,55.544 212.13,55.244 193.93,61.844C149.93,77.844 122.73,107.844 119.83,155.844C117.23,198.344 139.43,227.044 174.33,247.944C195.83,260.844 219.63,268.444 242.43,278.544C251.33,282.444 259.83,286.944 267.23,293.144C289.13,311.244 285.13,341.344 259.13,352.744C245.23,358.844 230.53,360.344 215.43,358.444C192.13,355.544 169.83,349.444 148.83,338.544C136.53,332.144 132.93,333.844 128.73,347.144C125.13,358.644 121.93,370.244 118.73,381.844C114.43,397.444 116.03,401.144 130.93,408.444C149.93,417.644 170.23,422.344 190.93,425.644C207.13,428.244 207.63,428.944 207.83,445.744C207.93,453.344 207.93,461.044 208.03,468.644C208.13,478.244 212.73,483.844 222.63,484.044C233.83,484.244 245.13,484.244 256.33,483.944C265.53,483.744 270.23,478.744 270.23,469.444C270.23,459.044 270.73,448.544 270.33,438.144C269.83,427.544 274.43,422.144 284.63,419.344C308.13,412.944 328.13,400.344 343.53,381.544C386.33,329.544 370.03,253.444 309.43,219.944Z" style="fill:white;fill-opacity:0.47;fill-rule:nonzero;"/>
                    </g>
                    <g transform="matrix(0.263931,0.0510087,-0.0594383,0.2265,339.894,102.867)">
                        <path d="M145.3,80.3C145.5,81.2 144.9,82 145,83.1C145.9,82.8 146.7,82.5 147.6,82.2C147,83.2 147,83.2 145.6,83.7C145.2,83.8 144.7,83.9 144.8,84.5C144.9,85.2 145.5,84.9 145.8,84.7C153.4,81.7 161.2,82.4 169,83.2C170.9,83.4 172.7,83.8 174.4,84.7C175.4,85.2 176.2,85.9 176.5,87C176.9,89 178.5,88.2 179.6,88.3C180.9,88.4 180.7,87.3 180.8,86.5C180.8,86.1 180.8,85.7 181,85.2C181.2,86.4 182.5,86.7 182.9,87.8C183.3,88.8 184.6,88.6 185.5,88.6C186.4,88.6 186,87.7 186,87.2C185.8,85.2 185.2,83.3 184.3,81.5C184.1,81.1 183.9,80.8 183.5,80C184.6,80.9 184.9,81.9 185.7,83C185.2,79.7 183.5,77.3 182.2,74.8C183.6,76 184.5,77.7 185.5,79.1C184.9,76.9 184,74.8 182.3,73.5C178.6,70.5 177.5,66.4 176.7,62.1C176.1,58.3 176,54.4 175.3,50.6C176.6,53.2 177,55.9 177.4,58.7C178.2,63.7 179.9,68.3 183.2,72.2C183.7,72.8 184.1,72.8 184.6,72.4C184.6,72.7 184.6,72.9 184.5,73.2C184.4,74 184.8,74.7 185.4,75.2C185.5,75.3 185.8,75.1 185.9,74.9C186.3,74 185.9,73.4 185.3,72.7C185.1,72.5 184.8,72.4 184.6,72.5C184.8,71.2 183.7,70.5 183.1,69.5C182.8,68.9 182.4,68.3 182.2,67.7C183.7,69.2 185.2,70.7 186.6,72.3C188.6,74.6 189.2,77.4 189.2,80.4C189.2,83.4 189.4,83.5 190.6,84.8C190.7,83.8 189.9,82.9 190.2,81.9C191,84 191.8,86 194.1,87.5C192,85.1 190.7,82.8 190.9,79.8C191.4,82.1 192.5,84.1 194.2,85.8C195.6,87.2 197,87.4 198.8,86.6C201.2,85.6 202.9,83.9 204.3,81.8C203,84.5 201.9,87.5 198.4,88.1C199.1,89.2 200.2,88.5 201,89.4C199.2,89.5 197.4,88.1 195.6,90.1C197.5,88.8 198.8,90.6 200.3,90.3C201.8,90 203,88.9 204.1,87.8C203,90.5 200.9,92.1 198.2,92.7C196.6,93 196.2,93.5 196.2,95.1C196.4,98.9 196.7,102.6 195.7,106.4C195.4,107.8 195.7,109.3 195.7,110.8C195.7,111.9 196.9,111.3 197.3,112C196.6,112.5 195.1,111.8 195.2,113.5C195.3,114.5 195.2,115.3 195.7,116.2C196.2,116.9 196.1,117.9 196.5,118.7C196.9,119.5 196.1,120.1 195.3,120.2C194.3,120.3 193.9,120.8 193.7,121.7C193,124.1 191.7,126 190,127.9C188.9,129 188.2,130.6 187.4,131.9C186.8,133 186,133.8 185,134.5C184.1,135 183.8,135.8 183.5,136.7C183.3,137.3 183.4,137.7 184.1,138C187,139 188.5,141.4 189.1,144C190.2,148.3 192.2,152.1 194.2,156C196.7,160.9 198.4,166 198.8,171.6C198.9,172.5 199.3,172.9 200,173.3C216.6,180.7 233.3,188 249.8,195.6C259.8,200.2 267.8,207.3 274.7,215.7C280,222.2 284,229.3 285.7,237.6C286,239.1 286.1,240.7 286.4,242.2C286.5,243 286.4,243.7 285.4,243.5C284.6,243.4 283.4,244.2 283.2,242.5C282.8,237.2 281.4,232.1 278.8,227.4C276.9,223.9 274.5,220.7 272,217.6C266.8,211 260.5,205.9 253.7,201.3C248.2,197.7 242,195.5 236.1,192.8C224.5,187.5 212.7,182.3 201.1,177.1C199,176.2 197.8,176.6 197.7,178.9C197.5,182.4 195.8,185.1 193.8,187.6C190.5,191.8 188.6,196.6 186,201.2C185.6,201.9 185.2,202.6 184.9,203.3C184.7,203.7 184.4,204.2 185,204.6C185.5,204.9 185.8,204.6 186.1,204.2C187.4,202.6 188.7,200.9 190,199.3C190.9,198.2 191.9,197.2 192.9,196.2C190.7,200.5 188.8,205 184.7,207.9C181.9,209.9 179.8,212.5 178.2,215.6C175.7,220.6 173,225.6 169.8,230.2C167.1,234.1 164.4,238 162.1,242.2C161.7,243 161,243.7 160.4,244.3C158.9,245.7 157.2,245.5 156.4,243.6C153.2,236 149.1,228.6 150.2,219.9L150.2,218.9C150.2,218.8 150.1,218.7 150.1,218.7C146.3,228.4 144.1,238.7 139.5,248.1C143.1,235 147.5,222.1 150.6,208.5C148.4,209 147.1,209.7 146.4,211.7C144.4,217.2 143,222.9 141.2,228.4C140.6,230.1 139.9,231.8 139.1,233.5C141.6,225.9 143.3,218 145.9,210.1C141.2,211.6 136.6,213 131.9,211.4C133.9,211.1 136,211.3 138,210.8C141.8,209.8 145.5,208.5 149.2,207C149.8,206.7 150.2,206.4 150,205.6C149.7,203.5 149.2,201.3 148.4,199.4C148.2,199 148.1,198.4 147.5,198.7C146.1,199.5 144.6,198 143.2,199.1C143.7,198 144.7,197.6 145.5,197C145.8,196.8 146.2,196.5 146,196.1C145.8,195.7 145.3,195.7 145,195.9C141.4,197.5 137.6,198.8 134.3,200.9C131.8,202.5 131.4,205.7 130.8,208.5C130.2,211.6 130.4,214.9 129.7,218C128.5,223.5 126.3,228.6 124.2,233.7C123.7,234.9 123.2,236.1 122.4,237.2C122.9,235.5 123.4,233.8 123.9,232.1C125.7,226 127.7,219.9 128.5,213.6C128.6,213.1 129,212.4 128.3,212.2C127.7,212 127.2,212.6 126.9,213.1C125.7,214.8 125.1,216.8 124.5,218.7C121.8,228.4 119.1,238 116.4,247.7C116.2,248.2 116.1,248.6 115.5,248.6C114.5,248.6 113.5,248.5 112.8,247.8C112.2,247.3 113.1,247 113.3,246.6C114.2,244.6 114.6,242.5 115.1,240.4C117.2,233 119.2,225.5 121.4,218.1C122.2,215.6 122,213.6 119.9,212C119.8,211.9 119.8,211.7 119.7,211.3C121.2,211.5 121.7,212.8 123.1,213.6C122.2,210.6 119.2,210.2 117.6,208.3C119.7,209.3 122.1,209.7 124.2,210.7C124.5,210.2 124.2,209.9 124,209.6C122,206 120,202.4 118.1,198.8C117.6,197.8 117,197.1 115.7,196.9C113.7,196.6 111.9,195.8 110,195C110.6,196.1 111.1,197.2 112.6,197.5C115.6,198.1 117.3,200.7 116.7,203.8C116.6,204.1 116.6,204.1 117.4,204.4C117.3,204.4 117.3,204.5 117.2,204.5C114.4,205.5 114.5,205.5 114.8,208.4C115.3,211.9 116.3,215.3 117.2,218.6C117.4,219.2 117.7,219.8 117.5,220.7C116,217.1 114.6,213.7 113.8,210C113.2,207.3 112.8,204.6 110.5,202.6C109.9,202.1 109.7,201.3 109.6,200.5C109.5,198.5 108.4,196.8 107.5,195.1C107.2,194.6 106.5,193.8 106.4,193.9C105.9,194.9 104.9,193.9 104.2,194.7C101.7,197.4 101.4,200.5 101.9,203.8C102.5,208 104,211.9 106,215.7C106.3,216.2 106.4,216.8 106.7,217.3C106.8,217.6 106.8,218.2 107.4,217.9C107.7,217.8 108,217.4 108,217C108,216.6 107.9,216.2 107.8,215.7C106.5,210.7 105.9,205.6 105.8,200.5C106.3,202.8 106.7,205.2 107.2,207.5C108,211.2 109.2,214.9 110.4,218.5C111.7,222.5 112.4,226.5 111.5,230.7C110.9,233.3 110.9,236 109.7,238.5C109,240.1 107.9,241.2 106.2,241.8C105.9,241.9 105.5,241.9 105.6,241.6C105.9,240.7 105,239.8 105.5,239.2C106.6,237.8 106.3,236.4 106.1,234.9C106,233.9 106.6,232.6 104.8,232.3C104.3,232.2 104.3,231.3 104.3,230.7C104.2,229.3 104.2,228 104.2,226.6C104.2,226.2 104.1,225.8 104.5,225.6C105.9,225 105.4,224 105.1,223C104.4,221.1 103.6,219.3 102.8,217.5C102.3,217.5 102.3,217.9 102.3,218.2C102.2,218.7 101.9,219.1 101.4,219.2C100.8,219.2 100.6,218.7 100.5,218.2C100.4,217.5 99.9,217.2 99.4,217C95.2,215.3 91.9,212.8 90.7,208.1C90.4,207.1 89.5,206.5 89.5,205.4C90.3,206.6 92.2,206.8 92.2,208.8C92.2,209.3 92.8,209.7 93.3,209.8C94,210 93.8,209.2 94.2,208.9C96.2,212.2 99.6,213.8 102.7,216C97.7,206.3 98.1,195.9 99.2,185.4C94.6,187.1 90.2,188.7 87.3,192.8C84.3,197 79.9,198.8 74.9,199.1C72.7,199.3 70.5,199.5 68.2,199C70.1,198.7 72.1,198.5 74,198.2C78.8,197.5 83,195.4 86.2,191.8C89.4,188.1 93.5,185.7 98,184.2C99,183.9 99.5,183.3 99.6,182.3C99.7,181 100,179.7 100.2,178.2C98.4,178.5 96.8,179.2 95.2,179.8C76.1,187.9 57.7,197.1 39.9,207.7C35.2,210.5 31.8,214.3 29.3,219C25,226.9 22.3,235.4 20.3,244.1C19.9,245.7 19.3,245.6 18,245.4C16.4,245.1 17,244.2 17.1,243.4C19,235.1 21.6,227.1 25.4,219.4C28.5,213.1 32.9,208 39.1,204.5C57.1,194.2 75.3,184.6 94.5,176.7C96.3,176 98,175.3 99.9,175C100.8,174.8 101.1,174.4 101.3,173.5C102.5,168.6 104.1,163.8 106.2,159.1C106.5,158.4 106.4,157.8 106.1,157.1C105.2,155.2 104.1,153.5 102.6,151.9C97.8,146.5 93.9,140.6 92.4,133.4C92.1,132 92.1,130.7 90.1,130.3C88.9,130.1 88.2,128.8 87.6,127.7C85.4,123.2 85,118.3 84,113.5C83.6,111.5 83.1,109.6 82.5,107.7C81.8,105.5 81.7,103.2 82.5,101C83.1,99.3 83,97.6 82.6,95.9C82.3,94.7 82.1,93.5 82,92.2C82,90.6 82.6,89.6 84.5,89.2C82.8,91.4 83.4,93.6 83.8,95.8C84.1,97.7 84.1,99.6 83.8,101.4C83.4,104.2 83.5,106.9 84.5,109.5C86,113.6 86.8,117.9 87.2,122.3C87.4,124.7 88.6,126.7 90.2,128.4C90.5,128.7 90.8,129.1 91.3,128.9C91.7,128.7 91.5,128.2 91.5,127.9C91.5,125.9 91.4,123.9 91.4,121.9C91.4,121.4 91.6,120.8 91.2,120.3C90.3,119.2 91.9,119.3 92,118.5C86.4,115.1 87.2,109.9 88.4,104.4C89.1,104.9 88.8,105.5 88.7,106C88.5,107.7 88.4,109.4 88.6,111.2C88.7,112.1 89.1,112.1 89.7,111.5C90,112 89.6,112.1 89.4,112.3C89,112.7 89.1,113.2 89.5,113.4C89.9,113.7 90.1,113.1 90.3,112.9C90.8,112.2 91.2,111.4 91.6,110.7C91.9,110.1 92.1,109.3 91.8,108.8C90.2,106.3 90.1,103.4 89.2,100.8C89.2,100.7 89.1,100.5 89.1,100.5C86.6,99.4 87.1,95.8 84.4,94.8C85.6,94.7 86.3,95.7 87.3,96.2C86.8,94.4 88.2,92.6 87,90.9C86.8,90.6 87.3,90.4 87.3,90.1C87.4,89.6 87.4,89.2 86.7,89.5C86.4,89.6 85.9,89.9 85.9,89.5C86.1,87.5 84.7,88.4 83.8,88.3C83.2,88.2 82.5,88.3 81.9,88L82,87.9C82.8,87.7 84,88.3 84.4,87.4C84.7,86.7 83.6,86.2 83.2,85.6C82.6,84.8 82.4,83.8 82.3,82.9C82.2,81.9 81.9,81.2 80.8,81C79.2,80.7 78.3,79.5 78,78C77.5,75.9 77.4,73.8 76.4,71.8C76.2,71.4 76.1,70.8 76.5,70.4C76.7,70.2 77,69.9 76.7,69.8C75.7,69.2 76.3,68.2 76,67.2C77.7,68.9 79.6,69.4 81.7,69.3C82.2,69.3 83,69.4 83,68.7C83,67.9 82.3,68.3 81.9,68.3C80.4,68.1 79.1,67.7 78,66.6C77.1,65.7 76.7,64.8 78,63.9C77.9,64.7 78.3,65.1 79.2,65.3C80.6,65.7 82,65.4 83.7,65.6C82,66.5 80.5,65.8 79.1,66C80.2,66.6 81.4,67 82.5,67.4C84.4,68.2 84.5,68.6 83.7,70.6C83.2,71.7 82.8,72.9 82.4,74.1C82.6,74.2 82.8,74.3 82.9,74.3C83.7,72.3 84.5,70.3 85.9,68.6C85.4,70.4 84.3,72.1 84.2,74.1C85.5,71.3 87.4,68.9 89.1,66.2C88.2,66.2 87.7,67 86.8,66.7C87.4,66.2 88.3,66 88.7,65.3C88.1,65.2 87.7,65.7 87.2,65.8C86.7,65.9 86.2,66.3 85.4,65.9C87.7,65.3 89.3,63.9 90.8,61.9C88.7,63 87.3,64.8 85,64.4C88,63.9 89.9,61.9 91.6,59.6C89.2,61 86.9,62.5 83.9,62L84,62C84.2,61.6 84.6,61.6 85,61.6C87.9,61.4 90.1,59.7 92.2,57.8C90.5,58.4 88.8,59.1 87,59.1C86.5,59.1 85.8,59.4 85.5,58.6C89.4,58.9 92.4,57.1 95.2,54.6C94,54.6 93,55.2 92,55.6C89.9,56.5 87.7,57.2 85.4,56.1C84.7,55.8 84.4,56.3 83.7,56.5C84.3,55.6 83.4,54.3 84.8,53.7C85,54.5 84.8,55.6 86.2,55.7C87.1,55.7 88,55.8 88.9,55.5C90.5,54.9 92,54 93.4,53C95.4,51.5 97.8,51 100.2,50.7C100.8,50.6 101.1,51.4 101.7,51.4C103.8,51.2 105.2,52.4 106.4,53.9C106.9,54.6 108,54.1 108.8,54.5C107.6,54.6 106.4,55.4 105.3,54.8C102.5,53.4 100.2,54.8 97.9,56.1C96.9,56.7 96.2,57.5 95.6,58.6C96.9,57.7 98.5,57.1 100,56.4C96.5,59.2 92.9,61.9 91.5,66.1C92.1,65.5 92.9,64.7 93.6,64C93.7,64.1 93.8,64.2 94,64.3C92.5,66.3 91,68.2 89.4,70.2C89.5,70.3 89.5,70.3 89.6,70.4C90.1,69.9 90.6,69.5 91.1,69C91.2,69 91.2,69.1 91.3,69.1C90.4,70.4 89.4,71.7 88.5,73C88.6,73.1 88.6,73.1 88.7,73.2C90.4,71.4 92,69.6 93.7,67.8C93,69.9 91.3,71.3 90.3,73.3C91.1,73.3 91.2,72.4 91.9,72.4C91.5,73.9 90,74.7 89.7,76.2C90.3,75.5 91,74.7 91.8,73.8C91.9,76.9 89,78.9 89.4,81.9C90,81.6 90,81 90.3,80.5C91.1,81.6 89.9,82.1 89.6,83C90.4,83 90.6,82.1 91.4,81.9C90.7,84.3 89.7,86.5 90.6,89C92.2,88.1 92.1,86.6 92,85.1C92,84.6 92,84.1 91.9,83.6C91.7,82.6 91.9,82.3 93,82.3C94.9,82.4 96.8,82.3 98.7,82.3C99.4,82.3 99.9,82.3 100.5,81.7C102.7,79.3 105.8,78.1 108.1,75.8C108.2,75.7 108.5,75.6 108.7,75.5C109,76 108.3,76.4 108.5,77C111.6,75.8 114.9,76.2 118.1,75.8C119.7,75.6 121.1,75.9 122.2,77.2C122.3,77.3 123.1,78.2 122.8,76.9C122.6,76.3 123.4,76.3 123.7,76.4C124.9,76.8 125.9,77.5 126.5,78.9C124.9,78.4 123.4,79.1 122,78.6C121.9,78.6 121.5,78.9 121.4,79.1C121.3,79.4 121.7,79.6 121.9,79.6C123.7,80 125.6,80.5 127.3,81.3C128.3,81.8 128.4,80.1 129.5,80.2C129.5,81 128.2,81.1 128.5,81.9C129,82.2 129,81.2 129.5,81.5C129.8,82.2 128.6,82.6 128.9,82.8C130,83.3 130.1,84.5 130.9,85.2C131.3,85.5 131.5,85.2 131.7,84.7C131.8,84.2 132,83.7 132.7,83.4C132.7,84.3 132.3,85.3 133.1,85.8C133.9,86.3 134.9,86.1 135.8,85.9C137.8,85.5 139.8,85.1 142.2,85.4C141.3,85.5 140.7,85.6 139.8,85.7C141,86.4 142,86.2 143,86C143.5,85.9 143.4,85.6 143.4,85.2C143.7,84 144.1,82 145.3,80.3ZM109,169.5C109,169.6 108.9,169.7 108.9,169.8C107.5,175 107,180.2 108.6,185.5C108.6,185.6 108.6,185.9 108.5,185.9C107.3,186.7 108.7,186.8 108.9,187.2C108.7,187.7 107.9,187.5 107.8,188.2C109.7,188.3 109,191 111,191.2C110,187.5 108.9,183.9 110,179.9C110.4,180.9 110.2,181.5 110.2,182.1C110.2,182.4 110,183 110.6,183C111,183 111.3,182.6 111.3,182.3C111.4,182 111.4,181.7 111.3,181.3C111,178.8 110.9,176.3 110.4,173.9C110.1,172.3 110.3,170.5 109.2,169C109.8,167.1 108.6,165.5 108.2,163.7C104.3,173.1 102.3,182.7 101.8,192.9C103.9,191.5 106.3,190.7 105.7,187.4C105.5,186 106,184.4 105.9,182.8C105.8,178.1 106.2,173.5 109,169.5ZM175.3,91.2C174.9,90.8 174.6,90.4 174.2,90C171.7,87.2 169.2,84.3 165,83.9C163.1,83.7 161.2,83.6 159.3,83.8C155.7,84.1 152.3,84.9 149.7,87.8C147.9,89.8 148.1,92.4 150.2,94.2C151.2,95.1 152.2,95.7 153.7,96C151.1,97.6 150.1,95.1 148.4,94.5C148.3,97.9 148.9,98.5 152.3,98.9C157.2,99.5 162.2,99.7 167.2,99.5C168.9,99.4 170.6,99.5 172.2,99C172.6,98.9 173,98.8 173,98.3C173.1,97.8 172.6,97.7 172.3,97.5C171.7,97.2 171.1,96.9 170.2,96.5C171.3,96.3 172.1,96.4 172.8,96.7C173.6,97 173.9,96.6 174.2,96.1C174.5,95.5 175,94.9 174.7,94.3C174.3,93.7 173.5,93.9 172.9,94.1C172.1,94.4 171.3,94.9 170.2,95C170.9,94.2 172.1,94.5 172.5,93.5C172.8,92.7 173.2,92.7 173.9,92.9C174.3,93.1 174.9,93.4 175.1,92.6C175.2,92 174.6,91.7 174.2,91.7C172.4,91.9 171.5,90.7 170.4,89.6C169.9,89.1 169.5,88.5 168.6,88.6C167.4,88.7 166.2,89.3 165,89.4C164.1,89.5 163.4,89 162.3,89.6C160.1,90.6 157.7,90.2 155.6,88.7C156.6,88.6 157.5,89.2 158.6,88.9C157.8,88.3 158.3,86.8 157,86.9C156.1,87 155.5,87.7 155.7,88.8C155.2,88.9 154.6,88.6 154.1,88.9C152.6,89.8 151,89.4 149.3,89.5C150,88.5 150.8,88.1 151.7,87.9C152.8,87.5 153.9,87.1 154.9,86.6C157.7,85 160.6,84.4 163.8,84.6C165.4,84.7 166.7,85.1 167.8,86.2C169.6,88.2 171.8,89.6 174,91.1C174.4,91.5 174.8,91.6 175.3,91.2C175.4,90.2 175.5,89.2 175.6,88.2C175.6,86.4 174.6,85.4 172.9,85.3C172.5,87.3 174,88.6 174.9,90.2C175,90.5 175.1,90.8 175.3,91.2ZM129.2,94.9C128.9,95.4 128.7,95.9 128,95.6C127.6,95.5 127.5,95.6 127.4,96C126.6,98.5 123.6,99.8 121.2,98.8C122,98.3 123.2,99 124,98.1C123.1,98.2 122.4,98.2 121.6,98.3C115.7,98.8 109.9,98.1 104.2,96.4C102.5,95.9 100.9,94.9 99.2,96.4C99.7,95.6 101.1,95.6 100.8,94.7C100.6,93.9 99.6,94.8 98.9,94.6C99,93.9 99.9,94.4 100.1,93.8C99.2,93 98,93.2 97,92.5C97.3,92.2 97.6,92.3 97.8,92.4C99.1,92.7 99.9,92.6 99.4,90.9L99.4,90.4C99.2,88.8 100.2,86.6 99,85.6C97.8,84.6 95.7,85.4 94,85.3C93,85.2 92.5,85.6 92.6,86.7C92.9,88.3 92.4,89.6 91.4,90.9C90.5,92 90.5,93.3 90.7,94.6C91.4,99.4 92.7,104.2 92.9,109.1C92.9,109.6 92.9,110.1 93.6,110.1C94.4,110.2 94.3,109.5 94.4,109.1C94.7,107.8 95.2,106.6 96.1,105.5C95.6,106.8 95.2,108.1 95.1,109.5C95.1,109.8 94.9,110.3 94.7,110.3C93.2,110.5 93.8,111.6 93.8,112.4C93.8,112.9 93.9,113.5 93.7,114C93.1,115.8 93.2,117.5 94.1,119.3C94.6,120.3 94.7,121.3 94.6,122.4C94.3,125.9 94.6,129.4 95.4,132.8C96.3,136.4 97.6,139.8 99.7,142.9C101.3,145.3 102.3,148.1 105.2,149.3C105.3,149.3 105.4,149.5 105.3,149.5C104.5,150.7 105.9,150.7 106.1,151.3C106.7,151 105.8,150.5 106.5,150.2C107.2,151.4 108.1,152.5 108.7,153.8C110.3,157.6 113.8,158.9 117.1,160.4C117.4,160.5 118.4,161.2 118.2,159.8C118.1,159 119.5,160 119.8,159.1C119.8,159.1 120.3,159.4 120.4,159.7C120.8,161 121.9,161.7 122.8,162.4C126.5,165.1 130.9,165.3 135.1,165.8C135.8,165.9 136.4,164.4 137.4,165.5C138,163.9 139.9,163.9 140.7,162.6C141,162.1 141.5,161.5 142.3,161.3C142.7,163.1 141.8,164.5 140.7,166C144.7,165.7 148.3,165.2 151.6,163.5C153.9,162.3 155.8,160.7 156.7,158.3C157.2,156.6 157.8,155.6 159.8,155.9C160.2,156 160.6,155.6 160.6,156.3C160.6,156.9 161.1,156.5 161.3,156.4C163.8,154.8 166.4,153.1 168.4,150.7C170.1,148.6 171.9,146.6 173.9,144.7C176.6,142 178.9,139 180.4,135.5C183.3,128.6 184.1,121.3 184.4,114C184.4,112.9 184.5,111.8 184.9,110.7C185.1,110.1 185.4,110.1 185.9,110.2C186.2,110.3 186.8,110.1 186.9,110.5C187.1,111 186.5,111.2 186.1,111.4C185.8,111.5 185.6,111.6 185.5,111.9C188.2,111.6 189.6,108.6 188.5,105C187.9,105.9 187.5,106.9 187.2,107.8C187,108.5 187,109.7 186.2,109.6C185.2,109.5 185.4,108.2 185.3,107.4C185.3,107.1 185.4,106.9 185.4,106.6C186.1,104.2 186.2,101.7 185.5,99.2C185.8,99.4 186,99.7 186.2,99.7C186.6,99.7 186.5,99.3 186.5,99.1C186.2,98 185.9,97 185.5,95.5C186.7,97.2 186.7,98.8 187.3,100.6C188.2,96.7 185.9,93.6 186,90.1C183.1,90.5 180.3,89.9 177.4,89.9C177,89.9 176.5,89.1 176.3,90C176.1,90.6 176.3,91 177,91.4C178.2,91.9 179.3,91.7 180.5,91.8C180.8,91.8 181.2,91.9 181.1,92.3C181,92.7 180.7,92.6 180.5,92.6C179.4,92.5 178.3,92.4 177.3,92.2C176.4,92 176,92.4 175.8,93.2C175.4,95.4 175.1,97.7 173.2,99.2C172.7,99.6 172.7,100 173.3,100.1C175.5,100.6 176.4,102.4 177.4,104.1C178.9,106.3 179.9,108.7 181,111.1C180.5,108.2 179.7,105.5 178.7,102.8C180.6,105.3 181.6,108.1 182.1,111.1C182.7,111 182.3,110.2 183,110.4C183,110.7 183.1,110.9 183.1,111.2C183.1,112.1 183.3,113.3 182.2,113.5C181.4,113.7 181.1,112.5 180.8,111.8C179.3,108.4 177.2,105.3 174.6,102.6C172.8,100.7 171.1,99.5 168.5,100.3C167.9,100.5 167.2,100.4 166.6,100.4C161.7,100.5 156.8,100.5 151.6,99.7C152.7,100.4 153.7,100.2 154.9,100.7C152.6,100.7 150.6,100.9 148.9,99.9C146.8,98.7 147.4,96.2 146.7,94.4C144.9,95.5 144.8,95.8 145.8,99.2C145.2,99 144.7,99 144.1,99.3C143.5,99.6 142.9,99.5 143,98.6C143.2,95.5 142.2,92.4 142.5,89.2C142.5,88.8 142.7,88.4 142.1,88.4C140.9,88.4 139.4,88 138.5,88.5C137.1,89.3 135.8,88.9 134.3,89C135.1,88.1 136.2,88.5 137.3,88.2C135.4,87.2 133.8,88.3 132.2,88.1C131.9,88.1 132,88.5 132,88.8C131.2,91.2 130.7,93.6 129.5,95.8C129.4,95.9 129.3,96 129.2,96C129,95.8 129.4,95.4 129.2,94.9ZM159.2,241.2C162,235.6 166.2,231 169.3,225.7C178.6,209.6 187,193 195.6,176.6C195.9,176.1 195.9,175.6 196,175C196.1,171 195.5,167.1 194.2,163.4C192.9,159.6 190.9,156.2 189.1,152.6C188,150.4 187.1,148.2 186.6,145.8C186.2,143.7 185,142.2 183.2,141.1C182.6,140.8 182,140.7 181.9,141.6C181.5,144.6 181.8,147.5 181.9,150.5C182.5,149 182.9,147.5 183.3,146C183.4,145.4 183.7,145.1 184.3,145.3C185.3,145.6 183.9,145.9 184.3,146.3C186.3,146.2 186.6,146.6 186.1,148.4C185.7,149.7 185.3,151.1 184.8,152.4C180.4,164.1 172.9,173.7 163.8,182.2C159.4,186.3 154.8,190.1 149.7,193.4C149,193.9 148.6,194.2 149.4,195C151,196.7 151.9,198.9 152.5,201.1C154,206.3 153.9,211.7 153.9,217C153.9,219.6 153.5,222.2 153.7,224.8C153.9,230.7 156.7,235.8 159.2,241.2ZM127.2,208.8L127.5,208.8C127.7,207.9 128,207 128.2,206.1C129.3,201.5 131.4,197.9 136.3,196.6C137.3,196.3 138.5,196.1 139.1,195.1C141.8,190.8 145.5,187.1 146.5,181.9C146.5,181.7 146.6,181.5 147,181.6C146.8,182.6 146.6,183.5 146.5,184.5C147.8,184.5 148.5,183.6 149.7,182.7C149.2,183.9 148.6,184.6 147.9,184.8C145.9,185.3 145.7,186.8 145.3,188.4C146.9,188.4 148,187.4 149.2,186.7C148.9,187.8 149.3,188.9 148.7,189.9C149.1,189.7 149.2,189.7 149.3,189.6C159.9,182 169.2,173.1 176.3,161.9C177.7,159.8 178.4,157.7 178.3,155.1C178.1,151.8 178.3,148.5 178.3,145.1C178.1,145.2 178,145.2 177.9,145.4C175.3,148.7 172.6,152 170.4,155.6C169.9,156.5 169.2,157.4 167.9,157.7C168,156.3 169.8,156.1 169.8,154.6C166.6,157.5 163,159.6 159.4,161.8C158.9,162.1 158.6,162.5 158.2,162.9C156.4,165.1 154.1,166.6 151.5,167.6C146.3,169.6 140.9,169.9 135.4,169.3C131.7,168.9 128,168.6 124.4,167.6C126.7,168.6 129,169.5 131.7,170.6C130.2,170.8 129.2,170.3 128.3,170C125.2,168.8 122.3,167.4 119.5,165.3C117.1,163.5 113.8,162.8 110.8,161C113.9,171.3 114.6,181.6 115.1,192C117.1,190.9 115.8,189.3 115.7,187.8C117.5,191 119.1,194.3 120.8,197.5C121,197.9 121.1,198.6 121.7,198.3C122.2,198.1 122.4,197.6 122.2,197.1C122.1,196.9 122,196.6 122.3,196.4C123.3,197.6 123.4,197.7 122.3,198.6C121.3,199.4 122.3,199.9 122.5,200.5C122.6,200.8 122.8,201.2 123.2,200.8C123.8,200.3 123.7,199.8 123.4,199.2C123.3,198.9 123,198.5 123.5,198.4C124,198.2 124.2,198.6 124.3,199C124.8,200.5 125.2,202 125.7,203.5C126.3,205.2 126.7,207 127.2,208.8ZM112,85.4C109,85.1 107.3,86.7 106.2,89C105.5,90.5 104.6,91.8 103.6,93.1C102.3,94.7 102.3,94.7 104.3,95.4C104.7,95.5 105,95.6 105.4,95.7C111.3,96.9 117.3,97.6 123.4,97.2C125,97.1 125.8,96.4 126.3,94.9C127.1,92.5 127.4,90 127.6,87.4C127.7,85.9 127.4,84.7 126.2,83.8C126.1,83.7 125.9,83.6 126.1,83.4C126.2,83.4 126.4,83.5 126.5,83.5C126.7,83.6 126.8,83.6 126.9,83.2C125.1,82 123,81.2 120.8,81.5C117.5,81.9 114.1,81.4 110.8,81.4C111.7,81.2 112.5,81.1 113.8,80.8C110.4,80.4 107.6,80.9 104.9,83C105,82.2 105.8,81.4 104.7,81.2C103.3,80.8 101.6,81.8 101,83.2C100,85.9 100.4,88.7 100.5,91.5C100.5,91.7 100.7,92.1 100.8,92.2C101.2,92.4 101.4,92 101.5,91.8C102,91 102.5,90.2 103.5,89.8C103.2,90.3 102.9,90.7 102.5,91.5C104.1,90.8 104.6,89.6 105.3,88.6C108.4,84.1 112.9,83.3 117.9,83.7C121,83.9 123.4,85.8 126,87.1C126.4,87.3 127.1,87.4 126.7,88.1C126.4,88.6 125.8,88.5 125.4,88.3C124.2,87.9 123.3,87.1 122.2,86.5C120.8,85.7 119.4,84.7 117.6,84.7C118.8,85.6 120.1,86.4 121.2,87.4C122.4,88.5 123.9,88.7 125.4,89.1C120.2,90.4 116.8,91 112.8,88.8C112.8,89.6 113.8,89.6 114.1,90.3C111.5,91 109.5,89.6 107.4,88.8C108.9,87.6 110.5,86.5 112,85.4ZM189.6,95.2C189.9,96.6 190.2,97.7 190.4,98.7C190.5,99 190.8,99.4 190.4,99.7C188.7,101 189,102.9 189.2,104.6C189.6,108 189.7,111.4 188.1,114.6C187.9,114.9 187.8,115.3 187.8,115.7C187.6,119.5 187.2,123.3 186.5,127.1C186.3,128.1 186.8,128.2 187.6,127.9C189.8,127 191.1,125.3 191.9,123.1C193.4,119.3 193.8,115.2 193.9,111.2C194,107.3 193.9,103.3 194,99.4C194,98.9 193.7,98.2 194.4,97.8C194.6,99.2 194.5,100.7 195.1,102C195.4,99.3 195.7,96.6 195.9,93.9C195.9,93.5 195.8,93.3 195.4,93.3C194.1,93.3 193,92.9 191.9,92.3C191.4,92.1 190.9,92.2 190.6,92.6C190.3,93 190.7,93.4 190.9,93.7C191.2,94.2 191.9,94.4 192,95.2C191,95 190.9,94 190,93.8C190.1,95.3 191.5,96.1 191.7,97.7C190.9,96.8 190.4,96.1 189.6,95.2ZM114.9,201.6C114.9,199.8 113.8,198.6 112.1,198.6C111.2,198.6 110.5,198.8 110.5,199.9C110.5,201.6 112.1,203.5 113.5,203.5C114.8,203.5 114.8,202.4 114.9,201.6ZM105.1,54.1C103,51.7 96.9,51 93.6,54.1C97.4,52.1 101.2,52.4 105.1,54.1ZM142.4,193.7C144.7,192.6 146.7,191.8 147.9,189.8C146.3,191.1 143.5,190.8 142.4,193.7ZM106,232.4C106.8,230.7 106.5,229.1 106.4,227.6C106.4,227.3 106.3,226.9 105.8,227C105.4,227.1 105,227.3 105.1,227.7C105.3,229.3 105.3,230.8 106,232.4ZM76.8,69.1C77.5,70.2 78.5,70.9 79.7,71.3C80.5,71.5 81.3,71.7 82,71.2C82.2,71.1 82.4,70.8 82.4,70.6C82.4,70.3 82.1,70.2 81.8,70.3C80.1,70.3 78.4,70 76.8,69.1ZM144.2,190.9C146.8,190 148,189.2 148.5,187.5C147.1,189 144.5,188.3 144.2,190.9ZM112.4,89.6C112.1,88.9 111.8,88.2 111.6,87.6C111.4,87.1 111.3,86.8 110.7,87.2C110.3,87.6 109.4,87.6 109.5,88.3C109.5,89 110.3,89.1 110.8,89.4C111.2,89.6 111.7,89.7 112.4,89.6ZM145.2,92.4C145.3,92.4 145.4,92.4 145.6,92.3C145.5,91.1 145.5,90 145.4,88.8C145.4,88.3 145.1,87.8 144.5,88C143.9,88.1 143.8,88.6 144,89.1C144.4,90.3 144.8,91.3 145.2,92.4ZM107.9,234.7C108.2,232.4 108.5,230.2 107.6,227.9C107.8,230.3 107,232.5 107.9,234.7ZM77.2,71.4C78,72.9 79.2,73.7 80.8,74.1C81.2,74.2 81.4,74.1 81.5,73.7C81.6,73.4 81.4,73.2 81.1,73.1C79.7,72.8 78.5,72 77.2,71.4ZM166.2,88.9C166.8,88.6 167.9,88.5 168.1,87.8C168.2,87.3 167.4,86.6 166.8,86.6C165.7,86.6 166.2,87.7 165.8,88.3C165.5,88.6 165.6,89 166.2,88.9ZM90.6,65.5C90.5,65.4 90.4,65.3 90.3,65.3C89.1,67.3 87.9,69.2 86.7,71.2C87.6,70.7 88.1,69.9 88.6,69.2C89.3,67.9 90,66.7 90.6,65.5ZM94,210.6C93.6,210.7 93.2,210.8 93.3,211.2C93.5,212 94.1,212.5 94.8,212.8C95.1,213 95.5,212.6 95.4,212.3C95.2,211.5 94.6,211 94,210.6ZM119.1,89.4C120,89.5 120.9,89.6 121.4,88.8C121.6,88.5 120.8,87.9 120.4,87.9C119.4,87.8 119.6,88.9 119.1,89.4ZM116.6,191.3C116.1,192 115.7,192.5 115.4,193C115.3,193.2 115.2,193.4 115.4,193.6C115.6,193.8 115.9,193.8 116,193.6C116.6,192.2 116.8,194 117.4,193.7C117.1,193 116.9,192.3 116.6,191.3ZM101.8,54.2C99.2,54.2 97.3,55 96.4,56.6C97.7,55.1 99.6,54.8 101.8,54.2ZM151.9,84.3C151.4,84.2 151.2,84.1 151,84.1C150.3,84.2 149.6,84.2 149.1,84.8C149,84.9 149.3,85.3 149.5,85.4C150.3,85.9 150.6,84.9 151.1,84.8C151.4,84.9 151.5,84.7 151.9,84.3ZM92.2,112C91.5,113 90.8,114 90.1,115C91.6,114.5 91.9,113.2 92.2,112ZM89.9,78C88.9,79 88.4,80.2 88.4,81.7C88.9,80.4 89.4,79.2 89.9,78ZM97.9,214.5C97.5,214 97,213.6 96.7,213C96.6,212.7 96.3,212.5 95.9,212.7C95.8,212.8 95.6,212.9 95.6,213C95.5,213.4 95.8,213.7 96.1,213.7C96.7,213.9 97.1,214.5 97.9,214.5ZM77.9,73.4C78.9,74.9 79.7,75.4 81.1,75.3C79.9,74.8 78.9,74.2 77.9,73.4Z" style="fill:white;fill-opacity:0.68;fill-rule:nonzero;"/>
                        <path d="M175.5,33.2C173.8,29.2 170.4,27.4 166.6,26.2C160.3,24.1 154,22.8 147.3,24C143.2,24.8 139.3,26.2 135.5,27.8C131.2,29.5 127,31.1 122.4,31.7C120.9,31.9 119.5,31.9 118,31.7C114.9,31.2 111.8,31 108.7,31.2C107.2,31.3 105.7,31 104.1,30.6C107.5,30.3 110.1,28.3 112.8,26.3C112.2,27.5 111.7,27.9 109.6,29.8C110.9,29.4 112.3,29.1 113.6,28.7C115,28.2 116.3,27.7 117.7,27.2C119,26.7 120.3,26.1 121.6,25.6C122.9,25.1 124.3,24.5 125.8,24.4C121.4,25.8 118.1,29.2 113.7,30.5C120,30.2 126,28.5 131.8,26.1C130.6,27.3 129,27.7 127.7,28.6C130.4,28 133.1,27.1 135.7,26.2C139.9,24.6 144.1,23 148.6,22.4C151.8,21.9 154.9,22.1 158.1,22.4C155.4,21.4 152.7,20.6 149.7,20.7C152.2,19.7 154.6,20.3 157.1,20.6C154.9,19.9 152.7,19.2 150.6,18.5C144,16.4 137.3,15.3 130.4,17C126.3,18 122.5,19.5 118.7,21.1C112.4,23.9 105.9,26.2 99.9,29.6C97,31.3 94.3,33.1 92.1,35.6C90.5,37.3 89.4,39.3 88.8,41.8C89.7,41.2 89.8,40.1 91,39.5C89.6,41.8 88.5,43.8 88.1,46.1C87.9,47 87.8,47.8 87.9,48.7C88.2,50.6 87.1,51.9 85.9,53.1C85.7,53.3 85.4,53.4 85.2,53.4C84.8,53.3 84.9,52.9 84.9,52.6C85.9,43.8 87.9,35.7 96,30.4C102.6,26.1 109.8,23.3 117,20.3C121.9,18.3 126.8,16.3 132,15.4C139.1,14.2 145.9,15.4 152.5,17.8C155,18.7 157.4,19.8 159.8,20.8C160.8,21.2 161.8,21.6 162.4,22.4C163.8,24.2 165.9,24.9 167.9,25.7C169.8,26.4 171.6,27.2 173.2,28.5C174.7,29.6 175.6,31.1 175.5,33.2Z" style="fill:white;fill-opacity:0.68;fill-rule:nonzero;"/>
                        <path d="M116.8,55.9C120.9,56.3 124.6,55.2 128.4,53.4C125.3,53.8 122.4,54.1 119.5,54.5C115.6,55 112,54.5 108.4,52.7C105.1,51 101.5,50.1 98,48.8C97.4,48.6 96.9,48.8 96.4,48.9C95.3,49.2 94.2,49.4 93,48.8C93.8,48 94.8,48.3 95.7,48.1C99.8,47.1 103.5,49.3 107.5,49.6C110.2,49.8 112.8,49.7 115.7,49.4C114.2,50.2 112.7,49.9 111.4,50.5C117,50.7 122.5,49.9 127.9,48.5C123.8,50.1 119.5,51.1 115.2,52C121.5,52.3 127.5,50.5 133.5,49C132.2,49.5 130.9,50 129.6,50.4C128.3,50.9 127,51.3 125.7,52C127.5,51.7 129.3,51.4 131,51C138.5,49.4 146,47.8 153.4,46.1C158,45 162.1,43 165.2,39C164,38.7 162.9,39 161.9,39.2C159,39.9 156.5,41.5 153.7,42.7C152,43.4 150.4,44.1 148.6,44.4C152.6,42.7 156.3,40.7 160.2,38.7C156.2,39.7 152.7,42 148.5,42.4C152.7,40.9 156.5,38.3 160.8,37.1C162.8,36.5 164.9,36.3 167,37.1C167.4,37.2 167.8,37.5 167.9,36.9C168.1,36.2 168.1,35.5 167.3,35.1C165.3,34.1 163.2,33.5 160.9,33.4C157.3,33.3 154,34.3 150.6,35.1C148.2,35.7 145.7,36.4 143.2,36.4C148.4,35.3 153.2,33 158.4,32.2C160.9,31.8 163.3,32 165.7,33C166.2,33.2 166.8,33.6 166.7,32.7C169.3,33.8 168.4,36.1 168.5,38.2C168.5,38.9 168.4,39.6 167.5,38.7C167.3,38.6 167.1,38.5 167,38.8C166.2,42.3 163.1,43.9 160.6,45.8C156.3,49.1 151.2,50.3 145.8,50.7C150.3,49.9 154.8,48.9 158.7,46.2C151.1,48.8 143.1,49.7 135.2,51.4C131.4,52.2 127.8,53.8 124.2,55.1C121.8,56.6 119.3,56.7 116.8,55.9Z" style="fill:white;fill-opacity:0.68;fill-rule:nonzero;"/>
                        <path d="M187.2,64.3C185.7,60.1 183.8,56.1 180.7,52.7C182,53.5 183.1,54.6 183.9,55.9C184.8,57.2 185.6,58.5 186.6,59.8C185.1,56.3 183.9,52.7 181.2,49.8C178.5,46.9 175.4,44.7 172,42.8C174.2,42.8 175.8,44 177.7,44.9C177,44.3 176.3,43.6 175.6,43C174.8,42.4 174.1,41.8 173.2,41.3C172.3,40.8 171.4,40.4 170.6,39.8C173,40.4 175.2,41.5 177.2,43C179.1,44.5 180.7,46.4 182.4,48.3C181.7,45.1 180.1,42.5 177.1,39.6C177.6,39.4 177.8,39.7 178,39.9C181.2,42.4 183,45.8 184.5,49.4C186.9,55.1 189.2,60.9 192.3,66.3C193.5,68.4 195.3,69.9 196.6,71.9C197,72.5 197.5,73.1 197,73.8C196.5,74.5 195.9,73.8 195.5,73.5C193.2,72.3 191.9,70 190.1,68.2C189.7,67.8 189.4,67.4 189,67C188.4,66 188.2,64.9 187.2,64.3Z" style="fill:white;fill-opacity:0.68;fill-rule:nonzero;"/>
                        <path d="M145.3,80.3C150.1,76.2 156,76.5 161.7,75.7C165.9,75.1 169.9,75.5 173.5,77.9C174.5,78.6 175.9,78.9 175.9,80.6C175.9,81.2 176.5,81.8 176.8,82.4C177.4,82.1 176.8,81.4 177.4,81.1C177.1,82.9 176.4,83 174.7,82.1C171.7,80.4 168.4,79 165.1,78.9C163.5,78.9 161.6,78.2 159.9,79.3C158.8,79.9 157.4,79.9 156.1,79.5C155.2,79.2 154.3,79.3 153.4,79.7C152.8,80 152.1,80.2 151.1,80.5C152,79.6 153,79.7 153.7,78.8C151.4,78.2 149.4,78.7 147.4,79.7C146.7,79.8 146.2,80.7 145.3,80.3Z" style="fill:white;fill-opacity:0.68;fill-rule:nonzero;"/>
                        <path d="M196.5,64.9C196.5,64.2 196.4,64 196.5,63.8C196.7,63.5 196.9,63.7 197,63.9C197.9,65.8 199.7,67.2 200.3,69.4C198,69.5 196.5,68.4 195.4,66.8C194.1,65 193.3,62.9 192.6,60.8C190.8,55.9 189,51.1 186.7,46.4C185,42.8 182.8,39.4 179.2,37.3C177.9,36.5 176.5,36.1 175.2,35.4C178,35.5 180.3,36.6 182.4,38.4C185.1,40.8 187,43.7 188.4,47C190.9,52.4 193.3,57.9 195.7,63.4C195.9,63.7 196.1,64.1 196.5,64.9Z" style="fill:white;fill-opacity:0.68;fill-rule:nonzero;"/>
                        <path d="M39.2,217.4C36.6,222.3 37.2,227.7 36.5,232.9C35.9,237.4 35.4,242 34.9,246.6C34.8,247.5 34.3,248 33.4,248C32.4,247.9 32.9,247.1 32.8,246.5C32.5,244.6 33.4,242.9 33.5,241.1C33.6,239.1 34,237.1 34.3,235.2C34.6,233.2 35,231.3 35.4,229.3C35.8,227.3 36.1,225.4 36.6,223.4C37,221.2 37.7,219.2 39.2,217.4Z" style="fill:white;fill-opacity:0.68;fill-rule:nonzero;"/>
                        <path d="M67.1,199.8C64.4,200.3 62.3,201.8 60.1,203.3C58.3,204.5 56.3,205.4 54.1,205.7C50.1,206.4 46.5,207.9 42.9,209.8C40.4,211.2 37.8,212.5 35.1,213.6C36.1,213 37,212.3 38,211.7C43.2,208.5 48.6,205.7 54.6,204.3C56.9,203.8 58.7,202.5 60.6,201.2C62.4,200 64.2,199.1 66.5,199.3C66.7,199.3 66.8,199.3 67,199.4C67,199.4 67,199.6 67.1,199.8Z" style="fill:white;fill-opacity:0.68;fill-rule:nonzero;"/>
                        <path d="M141.1,30.3C148,29.6 154.8,28 161.8,28.9C164.3,29.2 166.4,30.4 168.6,31.5C170.1,32.3 170.1,33.5 170.9,34.6C171.4,33.9 171,33.2 171.2,32.6C171.8,32.7 171.5,33.4 171.9,33.7C172.5,33.6 172.4,33 172.7,32.5C172.8,33.8 172.5,34.8 171.5,35.3C170.4,35.8 169.6,35.2 168.9,34.3C166.3,30.8 162.6,29.8 158.6,29.5C153.7,29.2 148.8,30 143.9,30.3C142.9,30.4 142,30.3 141.1,30.3Z" style="fill:white;fill-opacity:0.68;fill-rule:nonzero;"/>
                        <path d="M117.8,33.6C115.1,35.2 113.5,37.8 111.6,40.1C110.6,41.3 109.5,42.2 107.9,42.5C107.5,42.6 107.1,42.7 106.8,42.4C106.5,42 107,41.8 107.2,41.5C107.7,40.8 108,40.4 109,40.1C110.7,39.6 111.7,37.8 112.9,36.6C114.3,35.2 115.8,34 117.8,33.6Z" style="fill:white;fill-opacity:0.68;fill-rule:nonzero;"/>
                        <path d="M203.2,75.1C203.1,77.4 202.7,79.6 201.3,81.4C200.2,82.8 198.7,83.4 196.9,83.3C196.5,83.3 196.1,83.1 196.1,82.7C196.1,82.5 196.4,82.3 196.6,82.2C199.9,80.9 202.2,78.5 203.2,75.1Z" style="fill:white;fill-opacity:0.68;fill-rule:nonzero;"/>
                        <path d="M187.2,64.3C188.2,64.9 188.4,66 189,66.9C190.3,70.3 192.8,72.8 195,75.6C190.6,73 189,68.6 187.2,64.3Z" style="fill:white;fill-opacity:0.68;fill-rule:nonzero;"/>
                        <path d="M190.7,74.1C189.7,72.6 188.8,71.1 188.2,69.3C190.1,72.6 193,75 195.6,77.7C194.6,77.6 194,76.9 193.2,76.5C192.2,75.9 191.5,74.9 190.7,74.1Z" style="fill:white;fill-opacity:0.68;fill-rule:nonzero;"/>
                        <path d="M147.2,55.8C144.6,57 136.1,57.6 133.4,57.1C138,57 142.6,56.3 147.2,55.8Z" style="fill:white;fill-opacity:0.68;fill-rule:nonzero;"/>
                        <path d="M163.5,66.7C159.8,66.8 156.2,67 152.5,67.5C156.1,66.8 159.7,65.4 163.5,66.7Z" style="fill:white;fill-opacity:0.68;fill-rule:nonzero;"/>
                        <path d="M190.7,74.1C191.5,75 192.2,75.9 193.2,76.5C193.4,76.8 193.6,77.1 193.8,77.5C194.1,78 193.8,78.3 193.5,78.6C193.1,79.1 192.7,78.8 192.4,78.5C191.8,78.1 191.3,77.7 190.8,76.9C191.7,77.2 192.3,78 193.5,78C192.6,76.9 191.8,76.1 191.1,75.1C190.8,74.9 190,74.6 190.7,74.1Z" style="fill:white;fill-opacity:0.68;fill-rule:nonzero;"/>
                        <path d="M202.5,73.3C202.6,76.1 201.2,77.9 198.5,78.1C200.4,76.9 202.1,75.7 202.5,73.3Z" style="fill:white;fill-opacity:0.68;fill-rule:nonzero;"/>
                        <path d="M97.8,45.4C95.2,46.9 93.3,46.5 91.5,44C91.8,44.2 92.1,44.5 92.4,44.7C94,45.8 95.8,46.5 97.8,45.4Z" style="fill:white;fill-opacity:0.68;fill-rule:nonzero;"/>
                        <path d="M78,64.3C78.1,63.4 78.9,63.2 79.5,63.1C81,63 82.4,62.7 83.9,62.3L83.8,62.3C83.4,62.9 82.7,63.1 82.1,63.3C80.7,63.5 79.3,63.6 78,64.3Z" style="fill:white;fill-opacity:0.68;fill-rule:nonzero;"/>
                        <path d="M102.2,29.6C103.8,29.2 105.3,28.7 106.9,28.3C105.5,29.3 104,29.8 102.2,29.6Z" style="fill:white;fill-opacity:0.68;fill-rule:nonzero;"/>
                        <path d="M195.4,193.6C195.7,191.9 196.6,190.6 198.1,189.7C197.2,191 196.2,192.3 195.4,193.6Z" style="fill:white;fill-opacity:0.68;fill-rule:nonzero;"/>
                        <path d="M197.2,75.1C198.6,73.9 200,73.5 200.8,72.3C200.2,73.8 199.2,74.7 197.2,75.1Z" style="fill:white;fill-opacity:0.68;fill-rule:nonzero;"/>
                        <path d="M85.3,59C83.9,58.5 82.3,59.8 80.9,58.6C81.9,58.8 82.7,58.7 83.6,58.1C84.1,57.8 84.6,58.8 85.3,59Z" style="fill:white;fill-opacity:0.68;fill-rule:nonzero;"/>
                        <path d="M139.9,75.7C140.3,76.8 140.7,78 141.1,79.3C139.9,78.5 139.7,77.9 139.9,75.7Z" style="fill:white;fill-opacity:0.68;fill-rule:nonzero;"/>
                        <path d="M131.5,79.2C132.3,78.1 133.4,77.1 134,75.8C133.7,77.4 132.9,78.5 131.5,79.2Z" style="fill:white;fill-opacity:0.68;fill-rule:nonzero;"/>
                        <path d="M157.9,61.5C157.4,61.9 157.3,62 157.3,62C155.8,62 154.2,62 152.7,61.9C154.3,61.7 155.9,61.6 157.9,61.5Z" style="fill:white;fill-opacity:0.68;fill-rule:nonzero;"/>
                        <path d="M163.4,129.9C163.3,131.1 162.6,131.3 162,131.7C159.9,133.1 157.8,133.8 155.2,133.9C150.8,134.2 146.4,134 142.1,134.3C138.3,134.6 134.6,134.6 130.8,133.8C128.4,133.3 125.9,133.3 123.4,133.3C119.7,133.3 116.2,132.2 114,128.8C113.6,128.2 112.8,127.7 112.8,126.6C113.7,127.3 114.5,127.9 115.1,128.6C117.7,131.5 121.1,131.3 124.5,131.4C128.1,131.5 131.7,131.4 135.3,132.3C136.9,132.7 138.5,132.4 140.1,131.8C140.5,131.6 140.9,131.6 141.4,131.5C145.9,131.4 150.4,131.2 154.9,131.7C157.6,131.9 160.7,131.9 163.4,129.9Z" style="fill:white;fill-opacity:0.68;fill-rule:nonzero;"/>
                        <path d="M167.8,136.9C167.8,135.1 168.4,133.6 168.1,132C167.6,129.7 166.8,127.6 165.3,125.7C163,123 161.2,119.9 158,118C157.7,117.8 157.7,117.5 157.6,117.2C157.3,116.6 157,116 156.1,116.7C155.1,117.6 153.8,116.3 152.5,117.5C153.2,115.7 156.1,115.8 154.8,113.3C153.6,115.5 152,117 149.4,117.8C153.4,113.9 152.9,109.8 148.3,108.4C148.6,108.2 148.9,108.1 149,107.9C150.3,106.7 150.4,106.7 151.2,108.3C151.6,109.2 152.2,110 152.9,111C152.8,109.6 151.5,108.8 151.9,107.4C152.9,109.7 154.7,111.4 155.7,113.7C156,114.4 156.6,114.9 157.2,115.3C161.3,118.1 164.2,122.1 167.3,125.8C168.8,127.6 169.8,129.7 169,132.2C168.5,133.8 168.9,135.4 167.8,136.9Z" style="fill:white;fill-opacity:0.68;fill-rule:nonzero;"/>
                        <path d="M105.2,130.4C105.4,128 104.9,125.5 106.9,123.6C112.9,118.2 119.2,113.1 125.3,107.9L125.8,107.9C125.3,108.5 124.8,109 124.1,109.9C125.5,109.4 126.1,108.3 127.3,108.1C126,109.5 124,110.4 124,112.8C124,115.3 124.5,116.3 127,117.3C126.5,118 125.6,118 125.1,117.7C120.9,115 117.4,117 114.1,119.4C112,120.9 110,122.5 107.9,124.1C106.5,125.2 106,126.9 105.7,128.7C105.7,129.3 105.9,130 105.2,130.4ZM123.4,111.2C121.9,113 119.7,114.2 118.3,116.1C119,115.3 120.7,116.2 120.8,114.3C121.3,114.9 121.6,115.5 122.2,115.8C122.7,116 123.3,116.1 123.1,115.3C122.7,113.9 123.2,112.5 123.4,111.2Z" style="fill:white;fill-opacity:0.68;fill-rule:nonzero;"/>
                        <path d="M103,126.3C102.6,128.7 103.5,130.6 104.6,132.6C106.4,136.1 108.1,139.8 109.9,143.3C110.4,144.3 109.9,145.4 110.7,146.3C108.9,144.9 107,143.5 106.3,141.1C105.2,137.4 103.9,133.7 102.8,130C102.3,128.8 101.9,127.5 103,126.3Z" style="fill:white;fill-opacity:0.68;fill-rule:nonzero;"/>
                        <path d="M148.1,116.4C145,117.3 143.6,120.3 140.9,121.7C142.5,121.5 143.7,120.2 145.3,120.1C143.2,121.4 141.2,122.8 138.6,123C134.6,123.4 131.9,121.7 129.8,118.4C129.3,117.6 128.8,116.8 127.7,116.8C127.3,116.8 127.1,116.5 127.2,116.1C127.3,115.8 127.6,115.5 127.9,115.6C128.7,115.8 129.6,116.1 130.1,116.8C130.8,117.7 131.6,118.5 132.2,119.5C133.4,121.4 135.2,122.1 137.2,122.3C138.2,122.4 139.1,122.1 139.9,121.4C141.2,120.4 142.1,119 143.2,117.9C144.8,116.7 146.3,116 148.1,116.4Z" style="fill:white;fill-opacity:0.68;fill-rule:nonzero;"/>
                        <path d="M179.3,125.3C179.1,122.7 179,120.1 178.7,117.6C178.2,113.4 176.7,109.5 174.7,105.7C174.4,105.2 174.6,105 174.9,104.8C175.4,104.3 175.5,104.9 175.6,105.2C179.4,111.4 180.5,118.1 179.3,125.3Z" style="fill:white;fill-opacity:0.68;fill-rule:nonzero;"/>
                        <path d="M128.7,137.7C132,137.6 135.3,138.2 138.7,137.7C140.2,137.5 141.7,137.2 143.3,137.1C143.8,137 144.5,136.8 144.6,137.7C144.7,138.4 144.1,138.5 143.6,138.8C142,139.6 140.4,139.4 138.7,139.4C135.3,139.2 132,138.8 128.7,137.7Z" style="fill:white;fill-opacity:0.68;fill-rule:nonzero;"/>
                        <path d="M174.9,125C176.6,130.8 174,142.3 170.6,144.6C172.3,141.6 173.1,138.3 173.8,135C174.5,131.8 174.6,128.4 174.9,125Z" style="fill:white;fill-opacity:0.68;fill-rule:nonzero;"/>
                        <path d="M141.8,99.6C142.8,99.7 142.6,100.4 142.9,100.7C143.7,101.4 143.8,102.5 145.1,103.1C146.8,103.9 146.4,108.7 144.9,109.7C144.5,110 144.1,109.6 143.7,109.6C143.2,109.5 143.3,109.1 143.4,108.7C143.9,105.6 143.8,102.7 141.8,99.6Z" style="fill:white;fill-opacity:0.68;fill-rule:nonzero;"/>
                        <path d="M167.3,139.1C169.2,137.9 169.2,135.7 170.3,134C171.3,132.4 171.5,130.3 171.8,128.4C172.9,131.8 171.5,136.6 169.1,138.4C168.6,138.8 168,139.2 167.3,139.1Z" style="fill:white;fill-opacity:0.68;fill-rule:nonzero;"/>
                        <path d="M98.7,125C99.7,129.5 101.4,133.9 103.1,138.6C101,137.2 98.4,128.7 98.7,125Z" style="fill:white;fill-opacity:0.68;fill-rule:nonzero;"/>
                        <path d="M176.3,98.3C179.7,98.2 182.1,100.1 183.1,103.8C181,101.3 179.2,99.1 176.3,98.3Z" style="fill:white;fill-opacity:0.68;fill-rule:nonzero;"/>
                        <path d="M138.7,128.3C137.8,130.5 136.7,130.9 135.5,129.7C135.1,129.3 134.9,128.9 135.2,128.4C135.5,127.8 136,128 136.5,128.2C137.1,128.5 137.7,129 138.7,128.3Z" style="fill:white;fill-opacity:0.68;fill-rule:nonzero;"/>
                        <path d="M140.9,159.8C141.4,159.5 141.7,159.3 142,159.2C142.4,159.1 142.8,158.4 143.3,158.9C143.6,159.2 143.6,159.6 143.5,160C143.3,160.5 143.1,161.1 142.5,161C142,161 141.6,161.2 141,161.4C141.4,160.6 142.4,160.7 142.6,159.9C142,159.5 141.6,160.3 140.9,159.8Z" style="fill:white;fill-opacity:0.68;fill-rule:nonzero;"/>
                        <path d="M124.1,141.4C125.1,142.4 126.8,142.5 127.2,144.1C125.1,144.5 125.3,142.2 124.1,141.4Z" style="fill:white;fill-opacity:0.68;fill-rule:nonzero;"/>
                        <path d="M102.5,99.7C103.6,98.7 105.2,98.8 106.4,98.1C106.6,98 107,98.1 107,98.4C107,98.8 106.7,98.9 106.4,99C105.1,99.3 103.7,99.2 102.5,99.7Z" style="fill:white;fill-opacity:0.68;fill-rule:nonzero;"/>
                        <path d="M161.2,154.9C160.5,155.8 159.7,155.8 158.9,155.7C158.6,155.7 158.2,155.7 158.2,155.2C158.2,154.8 158.4,154.5 158.9,154.5C159.6,154.7 160.3,154.8 161.2,154.9Z" style="fill:white;fill-opacity:0.68;fill-rule:nonzero;"/>
                        <path d="M165.3,142.2C165.5,143.8 163.4,144.3 164.2,145.8C163.2,144.2 164.3,143.3 165.3,142.2Z" style="fill:white;fill-opacity:0.68;fill-rule:nonzero;"/>
                        <path d="M96.7,100.2C97.8,99 99,98 100.7,97.7C99.5,98.7 98,99.2 96.7,100.2Z" style="fill:white;fill-opacity:0.68;fill-rule:nonzero;"/>
                        <path d="M155.8,205.2C158.4,212.5 156.3,220.1 157.2,227.5C156,227.2 155.8,226.3 155.6,225.2C155,221.1 155.5,217.1 155.9,213.1C156,210.5 156.1,207.8 155.8,205.2Z" style="fill:white;fill-opacity:0.68;fill-rule:nonzero;"/>
                        <path d="M190.9,171C190.4,172.9 190.2,174.7 189.2,176.3C188.9,176.7 188.7,177.4 188,177.2C187.3,176.9 187.9,176.4 188,176C188,175.7 188.2,175.4 187.7,175.3C186.5,175.1 187.3,174.5 187.6,174.3C189.5,172.8 189.6,170.7 190,168.6C190.3,166.8 190.6,165.1 191.3,163.4C191.4,163 191.6,162.6 192,162.7C192.5,162.8 192.6,163.3 192.5,163.7C192,165.6 191.6,167.5 191.5,169.4C191.5,170.3 190.6,170.2 190.3,170.7C190.2,170.9 189.9,171.2 190.3,171.4C190.3,171.5 190.6,171.2 190.9,171Z" style="fill:white;fill-opacity:0.68;fill-rule:nonzero;"/>
                        <path d="M119.6,96.5C122.7,96.6 123.7,93.7 125.8,92.1C124.8,95.3 122.5,96.9 119.6,96.5Z" style="fill:white;fill-opacity:0.68;fill-rule:nonzero;"/>
                        <path d="M120.7,91.9C119.5,93.4 117.3,93.8 115.3,92.9C117.5,92.8 119.1,92.5 120.7,91.9Z" style="fill:white;fill-opacity:0.68;fill-rule:nonzero;"/>
                        <path d="M79.6,64.4L83.4,64.4C81.8,65.2 80.7,64.9 79.6,64.4Z" style="fill:white;fill-opacity:0.68;fill-rule:nonzero;"/>
                    </g>
                </g>
            </g>
        </g>
    </g>
    <defs>
        <linearGradient id="_Linear1" x1="0" y1="0" x2="1" y2="0" gradientUnits="userSpaceOnUse" gradientTransform="matrix(6.44747e-15,90.3621,-105.295,5.53308e-15,257.943,67.1328)"><stop offset="0" style="stop-color:rgb(46,204,113);stop-opacity:1"/><stop offset="1" style="stop-color:rgb(26,188,156);stop-opacity:1"/></linearGradient>
    </defs>
</svg>
