<?xml version="1.0" encoding="UTF-8" standalone="no"?>
<!DOCTYPE svg PUBLIC "-//W3C//DTD SVG 1.1//EN" "http://www.w3.org/Graphics/SVG/1.1/DTD/svg11.dtd">
<svg width="100%" height="100%" viewBox="0 0 285 106" version="1.1" xmlns="http://www.w3.org/2000/svg" xmlns:xlink="http://www.w3.org/1999/xlink" xml:space="preserve" xmlns:serif="http://www.serif.com/" style="fill-rule:evenodd;clip-rule:evenodd;stroke-linecap:round;stroke-linejoin:round;stroke-miterlimit:1.5;">
    <g transform="matrix(1,0,0,1,-416,-287)">
        <g transform="matrix(1.03258,0,0,1.69762,0,0)">
            <g id="ten-years-ago" transform="matrix(0.968444,0,0,0.686408,291.228,123.175)">
                <path d="M400,75.792C400,71.013 395.479,67.133 389.91,67.133L125.976,67.133C120.407,67.133 115.886,71.013 115.886,75.792L115.886,148.836C115.886,153.615 120.407,157.495 125.976,157.495L389.91,157.495C395.479,157.495 400,153.615 400,148.836L400,75.792Z" style="fill:rgb(30,13,74);"/>
                <clipPath id="_clip1">
                    <path d="M400,75.792C400,71.013 395.479,67.133 389.91,67.133L125.976,67.133C120.407,67.133 115.886,71.013 115.886,75.792L115.886,148.836C115.886,153.615 120.407,157.495 125.976,157.495L389.91,157.495C395.479,157.495 400,153.615 400,148.836L400,75.792Z"/>
                </clipPath>
                <g clip-path="url(#_clip1)">
                    <g transform="matrix(0.654999,-0.00102644,0.00119606,0.562106,-114.694,-24.0591)">
                        <path d="M428.617,237.086L428.617,259.617L419.216,259.617L419.216,237.086L412.014,237.086L412.014,228.009L435.796,228.009L435.796,237.086L428.617,237.086Z" style="fill:white;fill-rule:nonzero;"/>
                        <path d="M456.127,240.305L456.127,247.344L449.99,247.344C449.157,247.344 448.566,247.468 448.219,247.715C447.872,247.962 447.698,248.378 447.698,248.965C447.698,249.629 447.876,250.065 448.231,250.273C448.586,250.482 449.311,250.586 450.407,250.586L456.729,250.586L456.729,259.617L449.342,259.617C445.869,259.617 443.213,258.787 441.376,257.128C439.539,255.468 438.621,253.071 438.621,249.938L438.621,237.549C438.621,234.523 439.489,232.177 441.226,230.51C442.963,228.842 445.406,228.009 448.555,228.009L456.729,228.009L456.729,237.086L450.731,237.086C449.111,237.086 448.3,237.611 448.3,238.661C448.3,239.278 448.493,239.706 448.879,239.946C449.265,240.185 449.952,240.305 450.94,240.305L456.127,240.305Z" style="fill:white;fill-rule:nonzero;"/>
                        <path d="M461.476,259.617L461.476,239.1C461.476,235.504 462.553,232.624 464.706,230.463C466.86,228.302 469.727,227.221 473.309,227.221C476.875,227.221 479.603,228.271 481.495,230.371C483.386,232.47 484.331,235.488 484.331,239.425L484.331,259.617L474.93,259.617L474.93,239.425C474.93,237.495 474.243,236.53 472.869,236.53C471.541,236.53 470.877,237.495 470.877,239.425L470.877,259.617L461.476,259.617Z" style="fill:white;fill-rule:nonzero;"/>
                        <path d="M524.183,228.009L515.245,242.064L515.245,259.617L505.843,259.617L505.843,242.064L496.836,228.009L506.376,228.009L510.451,234.516L514.828,228.009L524.183,228.009Z" style="fill:white;fill-rule:nonzero;"/>
                        <path d="M542.615,240.305L542.615,247.344L536.479,247.344C535.645,247.344 535.055,247.468 534.708,247.715C534.36,247.962 534.186,248.378 534.186,248.965C534.186,249.629 534.364,250.065 534.719,250.273C535.074,250.482 535.8,250.586 536.896,250.586L543.217,250.586L543.217,259.617L535.831,259.617C532.357,259.617 529.702,258.787 527.865,257.128C526.028,255.468 525.109,253.071 525.109,249.938L525.109,237.549C525.109,234.523 525.978,232.177 527.714,230.51C529.451,228.842 531.894,228.009 535.043,228.009L543.217,228.009L543.217,237.086L537.22,237.086C535.599,237.086 534.789,237.611 534.789,238.661C534.789,239.278 534.982,239.706 535.367,239.946C535.753,240.185 536.44,240.305 537.428,240.305L542.615,240.305Z" style="fill:white;fill-rule:nonzero;"/>
                        <path d="M560.075,243.755L560.075,252.091L557.366,252.091L557.366,259.617L547.964,259.617L547.964,239.517C547.964,235.627 549.026,232.605 551.148,230.452C553.271,228.298 556.254,227.221 560.098,227.221C563.803,227.221 566.543,228.198 568.319,230.151C570.094,232.103 570.982,235.118 570.982,239.193L570.982,259.617L561.58,259.617L561.58,239.818C561.58,238.583 561.434,237.727 561.14,237.248C560.847,236.769 560.322,236.53 559.566,236.53C558.099,236.53 557.366,237.626 557.366,239.818L557.366,243.755L560.075,243.755Z" style="fill:white;fill-rule:nonzero;"/>
                        <path d="M586.08,236.507L586.08,259.617L576.678,259.617L576.678,228.009L588.743,228.009C592.417,228.009 595.265,228.919 597.287,230.741C599.541,232.779 600.668,235.365 600.668,238.498C600.668,241.694 599.271,244.388 596.477,246.58L601.895,259.617L592.031,259.617L587.469,249.428L587.469,241.3L588.21,241.3C590.186,241.3 591.174,240.451 591.174,238.753C591.174,237.256 590.032,236.507 587.747,236.507L586.08,236.507Z" style="fill:white;fill-rule:nonzero;"/>
                        <path d="M619.888,227.87L619.888,236.877C619.208,236.646 618.684,236.53 618.313,236.53C617.603,236.53 616.993,236.793 616.484,237.317C615.974,237.842 615.72,238.475 615.72,239.216C615.72,239.849 615.997,240.652 616.553,241.624L617.271,242.875C618.568,245.129 619.216,247.305 619.216,249.405C619.216,252.477 618.124,255.078 615.94,257.209C613.755,259.339 611.088,260.404 607.939,260.404C606.426,260.404 604.929,260.057 603.447,259.362L603.447,250.215C604.342,250.787 605.137,251.072 605.832,251.072C606.65,251.072 607.333,250.837 607.881,250.366C608.429,249.895 608.703,249.305 608.703,248.595C608.703,248.131 608.263,247.12 607.383,245.561C605.979,243.091 605.276,240.621 605.276,238.151C605.276,235.172 606.337,232.605 608.46,230.452C610.583,228.298 613.118,227.221 616.067,227.221C617.364,227.221 618.637,227.437 619.888,227.87Z" style="fill:white;fill-rule:nonzero;"/>
                        <path d="M647.976,243.755L647.976,252.091L645.267,252.091L645.267,259.617L635.865,259.617L635.865,239.517C635.865,235.627 636.927,232.605 639.049,230.452C641.172,228.298 644.155,227.221 647.999,227.221C651.704,227.221 654.444,228.198 656.22,230.151C657.995,232.103 658.883,235.118 658.883,239.193L658.883,259.617L649.481,259.617L649.481,239.818C649.481,238.583 649.335,237.727 649.041,237.248C648.748,236.769 648.223,236.53 647.467,236.53C646,236.53 645.267,237.626 645.267,239.818L645.267,243.755L647.976,243.755Z" style="fill:white;fill-rule:nonzero;"/>
                        <path d="M677.963,241.902L686.925,241.902C688.855,244.295 689.819,246.819 689.819,249.474C689.819,252.562 688.689,255.155 686.427,257.255C684.165,259.354 681.383,260.404 678.079,260.404C673.788,260.404 670.144,258.776 667.15,255.518C664.155,252.261 662.657,248.293 662.657,243.616C662.657,238.923 664.182,235.017 667.231,231.899C670.279,228.781 674.089,227.221 678.658,227.221C680.217,227.221 681.946,227.538 683.845,228.171L683.845,237.572C682.363,236.877 681.012,236.53 679.793,236.53C677.585,236.53 675.783,237.217 674.386,238.591C672.989,239.965 672.29,241.748 672.29,243.94C672.29,246.179 672.939,247.954 674.235,249.266C675.532,250.578 677.284,251.234 679.492,251.234C680.897,251.234 681.599,250.825 681.599,250.007C681.599,249.39 681.136,249.081 680.21,249.081L677.963,249.081L677.963,241.902Z" style="fill:white;fill-rule:nonzero;"/>
                        <path d="M708.622,227.221C713.099,227.221 716.939,228.85 720.143,232.107C723.346,235.365 724.947,239.263 724.947,243.801C724.947,248.417 723.334,252.338 720.108,255.565C716.881,258.791 712.96,260.404 708.344,260.404C703.76,260.404 699.846,258.783 696.604,255.541C693.362,252.3 691.741,248.386 691.741,243.801C691.741,239.17 693.374,235.249 696.639,232.038C699.904,228.827 703.898,227.221 708.622,227.221ZM708.344,236.53C706.415,236.53 704.771,237.24 703.412,238.661C702.054,240.081 701.374,241.794 701.374,243.801C701.374,245.808 702.058,247.522 703.424,248.942C704.79,250.362 706.43,251.072 708.344,251.072C710.29,251.072 711.938,250.366 713.288,248.953C714.639,247.541 715.314,245.823 715.314,243.801C715.314,241.779 714.639,240.061 713.288,238.649C711.938,237.236 710.29,236.53 708.344,236.53Z" style="fill:white;fill-rule:nonzero;"/>
                    </g>
                    <g transform="matrix(1,0,0,0.858179,-300.717,-179.448)">
                        <path d="M498.5,380.5L530,366" style="fill:none;stroke:white;stroke-opacity:0.15;stroke-width:0.8px;"/>
                    </g>
                    <g transform="matrix(1,0,0,0.858179,-300.717,-179.448)">
                        <path d="M475,370L498.5,380.5" style="fill:none;stroke:white;stroke-opacity:0.15;stroke-width:0.8px;"/>
                    </g>
                    <g transform="matrix(1,0,0,0.858179,-300.717,-179.448)">
                        <path d="M437,310L465.25,314L508,303L458,296" style="fill:none;stroke:white;stroke-opacity:0.15;stroke-width:0.8px;"/>
                    </g>
                    <g transform="matrix(1,0,0,0.858179,-300.717,-179.448)">
                        <path d="M475,370L530.084,365.654" style="fill:none;stroke:white;stroke-opacity:0.15;stroke-width:0.8px;"/>
                    </g>
                    <g transform="matrix(1,0,0,0.858179,-300.717,-179.448)">
                        <path d="M432,352L475,370L443,378L498.5,380.5" style="fill:none;stroke:white;stroke-opacity:0.15;stroke-width:0.8px;"/>
                    </g>
                    <g transform="matrix(1,0,0,0.858179,-300.717,-179.448)">
                        <path d="M584,373.25L613,363L639,385L682,375.25L686,347L639,385L584,373.25Z" style="fill:none;stroke:white;stroke-opacity:0.15;stroke-width:0.8px;"/>
                    </g>
                    <g transform="matrix(1,0,0,0.858179,-300.717,-179.448)">
                        <path d="M562.888,306.117L595,313.968" style="fill:none;stroke:white;stroke-opacity:0.15;stroke-width:0.8px;"/>
                    </g>
                    <g transform="matrix(1,0,0,0.858179,-300.717,-179.448)">
                        <path d="M630,312.468L625,296L669,308.801L680,296L630,312.468Z" style="fill:none;stroke:white;stroke-opacity:0.15;stroke-width:0.8px;"/>
                    </g>
                    <g transform="matrix(1,0,0,0.858179,-300.717,-179.448)">
                        <path d="M595,313.968L625,294" style="fill:none;stroke:white;stroke-opacity:0.15;stroke-width:0.8px;"/>
                    </g>
                    <g transform="matrix(1,0,0,0.858179,-300.717,-179.448)">
                        <path d="M530,366L584,372" style="fill:none;stroke:white;stroke-opacity:0.15;stroke-width:0.8px;"/>
                    </g>
                    <g transform="matrix(0.0857143,0,0,0.0735582,132.34,109.366)">
                        <circle cx="483.5" cy="384.5" r="17.5" style="fill:white;"/>
                    </g>
                    <g transform="matrix(0.0857143,0,0,0.0735582,156.34,118.806)">
                        <circle cx="483.5" cy="384.5" r="17.5" style="fill:white;"/>
                    </g>
                    <g transform="matrix(0.0857143,0,0,0.0735582,187.923,106.065)">
                        <circle cx="483.5" cy="384.5" r="17.5" style="fill:white;"/>
                    </g>
                    <g transform="matrix(0.0857143,0,0,0.0735582,252.154,61.5649)">
                        <circle cx="483.5" cy="384.5" r="17.5" style="fill:white;"/>
                    </g>
                    <g transform="matrix(0.0857143,0,0,0.0735582,282.241,45.3361)">
                        <circle cx="483.5" cy="384.5" r="17.5" style="fill:white;"/>
                    </g>
                    <g transform="matrix(0.0857143,0,0,0.0735582,286.96,60.8045)">
                        <circle cx="483.5" cy="384.5" r="17.5" style="fill:white;"/>
                    </g>
                    <g transform="matrix(0.0857143,0,0,0.0735582,220.728,54.9715)">
                        <circle cx="483.5" cy="384.5" r="17.5" style="fill:white;"/>
                    </g>
                    <g transform="matrix(0.0857143,0,0,0.0735582,94.8924,58.5623)">
                        <circle cx="483.5" cy="384.5" r="17.5" style="fill:white;"/>
                    </g>
                    <g transform="matrix(0.0857143,0,0,0.0735582,115.495,46.3337)">
                        <circle cx="483.5" cy="384.5" r="17.5" style="fill:white;"/>
                    </g>
                    <g transform="matrix(0.0857143,0,0,0.0735582,124.841,61.7092)">
                        <circle cx="483.5" cy="384.5" r="17.5" style="fill:white;"/>
                    </g>
                    <g transform="matrix(0.0857143,0,0,0.0735582,165.941,52.5462)">
                        <circle cx="483.5" cy="384.5" r="17.5" style="fill:white;"/>
                    </g>
                    <g transform="matrix(0.0857143,0,0,0.0735582,89.4273,94.6204)">
                        <circle cx="483.5" cy="384.5" r="17.5" style="fill:white;"/>
                    </g>
                    <g transform="matrix(0.0857143,0,0,0.0735582,100.137,116.64)">
                        <circle cx="483.5" cy="384.5" r="17.5" style="fill:white;"/>
                    </g>
                    <g transform="matrix(0.0857143,0,0,0.0735582,241.355,111.812)">
                        <circle cx="483.5" cy="384.5" r="17.5" style="fill:white;"/>
                    </g>
                    <g transform="matrix(0.0857143,0,0,0.0735582,270.261,103.761)">
                        <circle cx="483.5" cy="384.5" r="17.5" style="fill:white;"/>
                    </g>
                    <g transform="matrix(0.0857143,0,0,0.0735582,296.481,122.735)">
                        <circle cx="483.5" cy="384.5" r="17.5" style="fill:white;"/>
                    </g>
                    <g transform="matrix(0.0857143,0,0,0.0735582,339.42,115.038)">
                        <circle cx="483.5" cy="384.5" r="17.5" style="fill:white;"/>
                    </g>
                    <g transform="matrix(0.0857143,0,0,0.0735582,343.25,90.798)">
                        <circle cx="483.5" cy="384.5" r="17.5" style="fill:white;"/>
                    </g>
                    <g transform="matrix(0.0857143,0,0,0.0735582,327.174,57.5009)">
                        <circle cx="483.5" cy="384.5" r="17.5" style="fill:white;"/>
                    </g>
                    <g transform="matrix(0.0857143,0,0,0.0735582,337.92,48.2517)">
                        <circle cx="483.5" cy="384.5" r="17.5" style="fill:white;"/>
                    </g>
                </g>
            </g>
        </g>
    </g>
</svg>
