<?xml version="1.0" encoding="UTF-8" standalone="no"?>
<!DOCTYPE svg PUBLIC "-//W3C//DTD SVG 1.1//EN" "http://www.w3.org/Graphics/SVG/1.1/DTD/svg11.dtd">
<svg width="100%" height="100%" viewBox="0 0 285 106" version="1.1" xmlns="http://www.w3.org/2000/svg" xmlns:xlink="http://www.w3.org/1999/xlink" xml:space="preserve" xmlns:serif="http://www.serif.com/" style="fill-rule:evenodd;clip-rule:evenodd;stroke-linejoin:round;stroke-miterlimit:2;">
    <g transform="matrix(1,0,0,1,-414,-962)">
        <g transform="matrix(1.03258,0,0,1.69762,0,0)">
            <g id="where-does-the-day-go" transform="matrix(0.968444,0,0,0.686408,289.437,520.679)">
                <path d="M400,75.792C400,71.013 395.479,67.133 389.91,67.133L125.976,67.133C120.407,67.133 115.886,71.013 115.886,75.792L115.886,148.836C115.886,153.615 120.407,157.495 125.976,157.495L389.91,157.495C395.479,157.495 400,153.615 400,148.836L400,75.792Z" style="fill:rgb(116,185,255);"/>
                <clipPath id="_clip1">
                    <path d="M400,75.792C400,71.013 395.479,67.133 389.91,67.133L125.976,67.133C120.407,67.133 115.886,71.013 115.886,75.792L115.886,148.836C115.886,153.615 120.407,157.495 125.976,157.495L389.91,157.495C395.479,157.495 400,153.615 400,148.836L400,75.792Z"/>
                </clipPath>
                <g clip-path="url(#_clip1)">
                    <g transform="matrix(1,0,0,0.858179,-298.868,-758.556)">
                        <rect x="407" y="962.141" width="40" height="105.295" style="fill:rgb(84,239,197);"/>
                    </g>
                    <g transform="matrix(1.15335,0,0,0.858179,-321.28,-758.556)">
                        <rect x="407" y="962.141" width="40" height="105.295" style="fill:rgb(161,155,254);"/>
                    </g>
                    <g transform="matrix(0.453348,0,0,0.858179,9.75364,-758.556)">
                        <rect x="407" y="962.141" width="40" height="105.295" style="fill:rgb(116,185,255);"/>
                    </g>
                    <g transform="matrix(0.978348,0,0,0.858179,-185.787,-758.556)">
                        <rect x="407" y="962.141" width="40" height="105.295" style="fill:rgb(255,234,167);"/>
                    </g>
                    <g transform="matrix(0.160216,0,0,0.858179,186.326,-758.556)">
                        <rect x="407" y="962.141" width="40" height="105.295" style="fill:rgb(250,177,160);"/>
                    </g>
                    <g transform="matrix(0.69648,0,0,0.858179,-25.5245,-758.556)">
                        <rect x="407" y="962.141" width="40" height="105.295" style="fill:rgb(84,239,197);"/>
                    </g>
                    <g transform="matrix(1.30335,0,0,0.858179,-244.661,-758.556)">
                        <rect x="407" y="962.141" width="40" height="105.295" style="fill:rgb(161,155,254);"/>
                    </g>
                    <g transform="matrix(0.403348,0,0,0.858179,173.773,-758.556)">
                        <rect x="407" y="962.141" width="40" height="105.295" style="fill:rgb(84,239,197);"/>
                    </g>
                    <g transform="matrix(0.771577,0,0,0.858179,40.0381,-758.556)">
                        <rect x="407" y="962.141" width="40" height="105.295" style="fill:rgb(255,234,167);"/>
                    </g>
                    <g transform="matrix(0.753348,0,0,0.858179,78.3203,-758.556)">
                        <rect x="407" y="962.141" width="40" height="105.295" style="fill:rgb(116,185,255);"/>
                    </g>
                    <g transform="matrix(1.32917,0,0,0.854267,-74.778,-640.726)">
                        <rect x="165" y="865" width="161" height="31" style="fill:white;"/>
                    </g>
                    <g transform="matrix(0.558167,0,0,0.479007,-115.216,-369.617)">
                        <path d="M502.152,1007.97L505.285,993.028L510.064,993.028L504.901,1014.03L500.074,1014.03L496.286,999.981L492.498,1014.03L487.672,1014.03L482.509,993.028L487.288,993.028L490.437,1007.94L494.273,993.028L498.332,993.028L502.152,1007.97Z" style="fill-rule:nonzero;"/>
                        <path d="M516.857,1000.13C518.082,998.798 519.622,998.135 521.476,998.135C525.226,998.135 527.128,1000.1 527.182,1004.03L527.182,1014.03L522.563,1014.03L522.563,1004.15C522.563,1003.26 522.35,1002.6 521.923,1002.17C521.497,1001.74 520.788,1001.52 519.798,1001.52C518.444,1001.52 517.464,1002 516.857,1002.94L516.857,1014.03L512.238,1014.03L512.238,991.874L516.857,991.874L516.857,1000.13Z" style="fill-rule:nonzero;"/>
                        <path d="M538.626,1014.32C536.09,1014.32 534.025,1013.62 532.432,1012.21C530.839,1010.81 530.043,1008.94 530.043,1006.6L530.043,1006.2C530.043,1004.63 530.378,1003.23 531.05,1001.99C531.721,1000.76 532.672,999.806 533.903,999.137C535.133,998.469 536.537,998.135 538.114,998.135C540.48,998.135 542.342,998.808 543.7,1000.15C545.059,1001.5 545.738,1003.41 545.738,1005.88L545.738,1007.58L534.726,1007.58C534.875,1008.6 535.325,1009.42 536.076,1010.04C536.827,1010.65 537.778,1010.96 538.929,1010.96C540.709,1010.96 542.099,1010.38 543.101,1009.21L545.37,1011.51C544.678,1012.39 543.74,1013.08 542.557,1013.58C541.375,1014.07 540.064,1014.32 538.626,1014.32ZM538.098,1001.51C537.182,1001.51 536.439,1001.79 535.869,1002.35C535.298,1002.9 534.934,1003.7 534.774,1004.74L541.199,1004.74L541.199,1004.41C541.178,1003.49 540.901,1002.77 540.368,1002.27C539.835,1001.76 539.078,1001.51 538.098,1001.51Z" style="fill-rule:nonzero;"/>
                        <path d="M558.077,1002.33C557.448,1002.26 556.894,1002.22 556.415,1002.22C554.667,1002.22 553.522,1002.75 552.978,1003.82L552.978,1014.03L548.359,1014.03L548.359,998.423L552.723,998.423L552.851,1000.28C553.778,998.851 555.062,998.135 556.702,998.135C557.214,998.135 557.693,998.197 558.141,998.322L558.077,1002.33Z" style="fill-rule:nonzero;"/>
                        <path d="M567.984,1014.32C565.448,1014.32 563.384,1013.62 561.791,1012.21C560.198,1010.81 559.401,1008.94 559.401,1006.6L559.401,1006.2C559.401,1004.63 559.737,1003.23 560.408,1001.99C561.079,1000.76 562.03,999.806 563.261,999.137C564.492,998.469 565.896,998.135 567.473,998.135C569.838,998.135 571.7,998.808 573.059,1000.15C574.417,1001.5 575.097,1003.41 575.097,1005.88L575.097,1007.58L564.084,1007.58C564.233,1008.6 564.684,1009.42 565.435,1010.04C566.186,1010.65 567.137,1010.96 568.288,1010.96C570.067,1010.96 571.458,1010.38 572.459,1009.21L574.729,1011.51C574.036,1012.39 573.099,1013.08 571.916,1013.58C570.733,1014.07 569.423,1014.32 567.984,1014.32ZM567.457,1001.51C566.54,1001.51 565.797,1001.79 565.227,1002.35C564.657,1002.9 564.292,1003.7 564.132,1004.74L570.557,1004.74L570.557,1004.41C570.536,1003.49 570.259,1002.77 569.726,1002.27C569.193,1001.76 568.437,1001.51 567.457,1001.51Z" style="fill-rule:nonzero;"/>
                        <path d="M585.15,1006.11C585.15,1003.68 585.755,1001.74 586.964,1000.3C588.173,998.856 589.828,998.135 591.927,998.135C593.61,998.135 595.001,998.702 596.098,999.837L596.098,991.874L600.733,991.874L600.733,1014.03L596.562,1014.03L596.338,1012.37C595.187,1013.67 593.706,1014.32 591.895,1014.32C589.86,1014.32 588.227,1013.6 586.996,1012.15C585.765,1010.7 585.15,1008.69 585.15,1006.11ZM589.769,1006.42C589.769,1007.88 590.051,1009 590.616,1009.78C591.181,1010.56 592.001,1010.94 593.078,1010.94C594.505,1010.94 595.512,1010.4 596.098,1009.31L596.098,1003.15C595.523,1002.07 594.527,1001.52 593.109,1001.52C590.883,1001.52 589.769,1003.15 589.769,1006.42Z" style="fill-rule:nonzero;"/>
                        <path d="M603.594,1006.08C603.594,1004.53 603.925,1003.15 604.585,1001.94C605.246,1000.73 606.197,999.794 607.438,999.13C608.68,998.467 610.121,998.135 611.762,998.135C614.095,998.135 616,998.779 617.476,1000.07C618.951,1001.36 619.775,1003.11 619.945,1005.32L619.977,1006.39C619.977,1008.78 619.236,1010.7 617.755,1012.15C616.274,1013.6 614.287,1014.32 611.794,1014.32C609.3,1014.32 607.31,1013.6 605.824,1012.16C604.338,1010.71 603.594,1008.75 603.594,1006.27L603.594,1006.08ZM608.213,1006.39C608.213,1007.87 608.522,1009 609.14,1009.78C609.758,1010.57 610.643,1010.96 611.794,1010.96C612.912,1010.96 613.786,1010.57 614.415,1009.8C615.044,1009.02 615.358,1007.78 615.358,1006.08C615.358,1004.63 615.044,1003.51 614.415,1002.71C613.786,1001.91 612.902,1001.51 611.762,1001.51C610.632,1001.51 609.758,1001.91 609.14,1002.7C608.522,1003.49 608.213,1004.72 608.213,1006.39Z" style="fill-rule:nonzero;"/>
                        <path d="M630.782,1014.32C628.246,1014.32 626.181,1013.62 624.588,1012.21C622.995,1010.81 622.199,1008.94 622.199,1006.6L622.199,1006.2C622.199,1004.63 622.534,1003.23 623.206,1001.99C623.877,1000.76 624.828,999.806 626.059,999.137C627.289,998.469 628.693,998.135 630.27,998.135C632.636,998.135 634.498,998.808 635.856,1000.15C637.215,1001.5 637.894,1003.41 637.894,1005.88L637.894,1007.58L626.882,1007.58C627.031,1008.6 627.481,1009.42 628.232,1010.04C628.983,1010.65 629.934,1010.96 631.085,1010.96C632.865,1010.96 634.255,1010.38 635.257,1009.21L637.526,1011.51C636.834,1012.39 635.896,1013.08 634.713,1013.58C633.531,1014.07 632.22,1014.32 630.782,1014.32ZM630.254,1001.51C629.338,1001.51 628.595,1001.79 628.024,1002.35C627.454,1002.9 627.089,1003.7 626.93,1004.74L633.355,1004.74L633.355,1004.41C633.334,1003.49 633.056,1002.77 632.524,1002.27C631.991,1001.76 631.234,1001.51 630.254,1001.51Z" style="fill-rule:nonzero;"/>
                        <path d="M649.881,1009.72C649.881,1009.21 649.602,1008.81 649.042,1008.51C648.483,1008.22 647.585,1007.96 646.349,1007.73C642.236,1006.95 640.18,1005.37 640.18,1003C640.18,1001.61 640.816,1000.46 642.09,999.527C643.363,998.599 645.028,998.135 647.084,998.135C649.279,998.135 651.035,998.601 652.351,999.534C653.667,1000.47 654.325,1001.68 654.325,1003.17L649.705,1003.17C649.705,1002.57 649.492,1002.08 649.066,1001.69C648.64,1001.3 647.974,1001.11 647.068,1001.11C646.29,1001.11 645.688,1001.26 645.262,1001.58C644.836,1001.9 644.623,1002.3 644.623,1002.79C644.623,1003.26 644.865,1003.63 645.35,1003.91C645.835,1004.2 646.653,1004.44 647.804,1004.65C648.954,1004.86 649.924,1005.09 650.712,1005.35C653.153,1006.15 654.373,1007.55 654.373,1009.55C654.373,1010.97 653.696,1012.12 652.343,1013C650.989,1013.88 649.242,1014.32 647.1,1014.32C645.651,1014.32 644.364,1014.09 643.24,1013.62C642.116,1013.15 641.234,1012.51 640.595,1011.7C639.956,1010.89 639.636,1010.01 639.636,1009.07L644.016,1009.07C644.058,1009.81 644.362,1010.38 644.927,1010.77C645.491,1011.17 646.248,1011.36 647.196,1011.36C648.081,1011.36 648.749,1011.21 649.202,1010.91C649.655,1010.61 649.881,1010.21 649.881,1009.72Z" style="fill-rule:nonzero;"/>
                        <path d="M671.027,994.586L671.027,998.423L673.984,998.423L673.984,1001.48L671.027,1001.48L671.027,1009.27C671.027,1009.85 671.149,1010.26 671.395,1010.51C671.64,1010.76 672.108,1010.89 672.801,1010.89C673.312,1010.89 673.765,1010.85 674.16,1010.79L674.16,1013.95C673.254,1014.2 672.322,1014.32 671.363,1014.32C668.123,1014.32 666.472,1012.84 666.408,1009.89L666.408,1001.48L663.882,1001.48L663.882,998.423L666.408,998.423L666.408,994.586L671.027,994.586Z" style="fill-rule:nonzero;"/>
                        <path d="M681.064,1000.13C682.29,998.798 683.829,998.135 685.683,998.135C689.434,998.135 691.336,1000.1 691.389,1004.03L691.389,1014.03L686.77,1014.03L686.77,1004.15C686.77,1003.26 686.557,1002.6 686.131,1002.17C685.705,1001.74 684.996,1001.52 684.005,1001.52C682.652,1001.52 681.672,1002 681.064,1002.94L681.064,1014.03L676.445,1014.03L676.445,991.874L681.064,991.874L681.064,1000.13Z" style="fill-rule:nonzero;"/>
                        <path d="M702.833,1014.32C700.297,1014.32 698.233,1013.62 696.64,1012.21C695.047,1010.81 694.25,1008.94 694.25,1006.6L694.25,1006.2C694.25,1004.63 694.586,1003.23 695.257,1001.99C695.929,1000.76 696.879,999.806 698.11,999.137C699.341,998.469 700.745,998.135 702.322,998.135C704.687,998.135 706.549,998.808 707.908,1000.15C709.266,1001.5 709.946,1003.41 709.946,1005.88L709.946,1007.58L698.933,1007.58C699.082,1008.6 699.533,1009.42 700.284,1010.04C701.035,1010.65 701.986,1010.96 703.137,1010.96C704.916,1010.96 706.307,1010.38 707.308,1009.21L709.578,1011.51C708.885,1012.39 707.948,1013.08 706.765,1013.58C705.582,1014.07 704.272,1014.32 702.833,1014.32ZM702.306,1001.51C701.389,1001.51 700.646,1001.79 700.076,1002.35C699.506,1002.9 699.141,1003.7 698.981,1004.74L705.406,1004.74L705.406,1004.41C705.385,1003.49 705.108,1002.77 704.575,1002.27C704.043,1001.76 703.286,1001.51 702.306,1001.51Z" style="fill-rule:nonzero;"/>
                        <path d="M719.999,1006.11C719.999,1003.68 720.604,1001.74 721.813,1000.3C723.022,998.856 724.677,998.135 726.776,998.135C728.459,998.135 729.85,998.702 730.947,999.837L730.947,991.874L735.582,991.874L735.582,1014.03L731.411,1014.03L731.187,1012.37C730.036,1013.67 728.555,1014.32 726.744,1014.32C724.709,1014.32 723.076,1013.6 721.845,1012.15C720.614,1010.7 719.999,1008.69 719.999,1006.11ZM724.618,1006.42C724.618,1007.88 724.9,1009 725.465,1009.78C726.03,1010.56 726.85,1010.94 727.927,1010.94C729.354,1010.94 730.361,1010.4 730.947,1009.31L730.947,1003.15C730.372,1002.07 729.376,1001.52 727.959,1001.52C725.732,1001.52 724.618,1003.15 724.618,1006.42Z" style="fill-rule:nonzero;"/>
                        <path d="M749.184,1014.03C748.971,1013.66 748.816,1013.19 748.721,1012.63C747.602,1013.76 746.147,1014.32 744.357,1014.32C742.663,1014.32 741.259,1013.88 740.146,1012.99C739.032,1012.11 738.475,1010.99 738.475,1009.65C738.475,1007.99 739.155,1006.72 740.513,1005.84C741.872,1004.95 743.835,1004.51 746.403,1004.5L748.529,1004.5L748.529,1003.6C748.529,1002.88 748.324,1002.3 747.913,1001.87C747.503,1001.44 746.856,1001.22 745.971,1001.22C745.194,1001.22 744.584,1001.39 744.141,1001.73C743.699,1002.06 743.478,1002.52 743.478,1003.11L738.859,1003.11C738.859,1002.21 739.168,1001.37 739.786,1000.6C740.404,999.832 741.278,999.229 742.407,998.791C743.537,998.354 744.805,998.135 746.211,998.135C748.342,998.135 750.034,998.618 751.286,999.585C752.538,1000.55 753.164,1001.91 753.164,1003.66L753.164,1010.43C753.174,1011.91 753.404,1013.03 753.851,1013.79L753.851,1014.03L749.184,1014.03ZM745.364,1011.13C746.046,1011.13 746.675,1011 747.25,1010.72C747.826,1010.45 748.252,1010.08 748.529,1009.62L748.529,1006.93L746.803,1006.93C744.49,1006.93 743.26,1007.65 743.11,1009.1L743.095,1009.34C743.095,1009.86 743.297,1010.29 743.702,1010.63C744.107,1010.96 744.661,1011.13 745.364,1011.13Z" style="fill-rule:nonzero;"/>
                        <path d="M762.953,1008.13L766.149,998.423L771.104,998.423L764.152,1016.46L763.768,1017.28C762.734,1019.32 761.03,1020.34 758.653,1020.34C757.982,1020.34 757.3,1020.24 756.608,1020.06L756.608,1016.9L757.311,1016.92C758.185,1016.92 758.837,1016.8 759.269,1016.56C759.7,1016.32 760.039,1015.92 760.284,1015.36L760.827,1014.08L754.77,998.423L759.74,998.423L762.953,1008.13Z" style="fill-rule:nonzero;"/>
                        <path d="M780.406,1006.11C780.406,1003.72 781.038,1001.79 782.3,1000.33C783.563,998.866 785.265,998.135 787.407,998.135C789.304,998.135 790.779,998.722 791.834,999.895L792.026,998.423L796.214,998.423L796.214,1013.51C796.214,1014.88 795.87,1016.07 795.183,1017.08C794.495,1018.09 793.528,1018.85 792.282,1019.38C791.035,1019.91 789.575,1020.18 787.902,1020.18C786.634,1020.18 785.398,1019.95 784.194,1019.49C782.99,1019.03 782.079,1018.45 781.461,1017.72L783.507,1015.19C784.658,1016.35 786.054,1016.93 787.695,1016.93C788.92,1016.93 789.874,1016.63 790.556,1016.04C791.238,1015.45 791.579,1014.61 791.579,1013.53L791.579,1012.69C790.513,1013.78 789.112,1014.32 787.375,1014.32C785.297,1014.32 783.616,1013.59 782.332,1012.12C781.048,1010.65 780.406,1008.71 780.406,1006.28L780.406,1006.11ZM785.025,1006.42C785.025,1007.83 785.34,1008.94 785.968,1009.74C786.597,1010.54 787.46,1010.94 788.558,1010.94C789.964,1010.94 790.971,1010.47 791.579,1009.52L791.579,1002.95C790.961,1002 789.964,1001.52 788.59,1001.52C787.482,1001.52 786.61,1001.93 785.976,1002.75C785.342,1003.57 785.025,1004.79 785.025,1006.42Z" style="fill-rule:nonzero;"/>
                        <path d="M799.043,1006.08C799.043,1004.53 799.373,1003.15 800.034,1001.94C800.694,1000.73 801.645,999.794 802.887,999.13C804.128,998.467 805.569,998.135 807.21,998.135C809.543,998.135 811.448,998.779 812.924,1000.07C814.4,1001.36 815.223,1003.11 815.393,1005.32L815.425,1006.39C815.425,1008.78 814.685,1010.7 813.204,1012.15C811.723,1013.6 809.735,1014.32 807.242,1014.32C804.749,1014.32 802.759,1013.6 801.272,1012.16C799.786,1010.71 799.043,1008.75 799.043,1006.27L799.043,1006.08ZM803.662,1006.39C803.662,1007.87 803.971,1009 804.589,1009.78C805.207,1010.57 806.091,1010.96 807.242,1010.96C808.361,1010.96 809.234,1010.57 809.863,1009.8C810.492,1009.02 810.806,1007.78 810.806,1006.08C810.806,1004.63 810.492,1003.51 809.863,1002.71C809.234,1001.91 808.35,1001.51 807.21,1001.51C806.08,1001.51 805.207,1001.91 804.589,1002.7C803.971,1003.49 803.662,1004.72 803.662,1006.39Z" style="fill-rule:nonzero;"/>
                        <path d="M822.042,1007.58C822.042,1006.24 822.223,1005.17 822.586,1004.37C822.948,1003.57 823.611,1002.78 824.576,1002.01C825.54,1001.23 826.182,1000.6 826.502,1000.12C826.821,999.633 826.981,999.121 826.981,998.582C826.981,996.957 826.15,996.144 824.488,996.144C823.699,996.144 823.068,996.363 822.594,996.801C822.119,997.238 821.872,997.842 821.85,998.611L817.215,998.611C817.237,996.774 817.895,995.336 819.189,994.298C820.484,993.259 822.25,992.74 824.488,992.74C826.747,992.74 828.499,993.233 829.746,994.219C830.993,995.204 831.616,996.596 831.616,998.395C831.616,999.212 831.414,999.984 831.009,1000.71C830.604,1001.44 829.895,1002.24 828.883,1003.13L827.588,1004.24C826.779,1004.94 826.315,1005.76 826.198,1006.7L826.134,1007.58L822.042,1007.58ZM821.579,1012.01C821.579,1011.37 821.821,1010.84 822.306,1010.42C822.791,1010 823.411,1009.79 824.168,1009.79C824.925,1009.79 825.545,1010 826.03,1010.42C826.515,1010.84 826.757,1011.37 826.757,1012.01C826.757,1012.65 826.52,1013.17 826.046,1013.58C825.572,1014 824.946,1014.2 824.168,1014.2C823.39,1014.2 822.764,1014 822.29,1013.58C821.816,1013.17 821.579,1012.65 821.579,1012.01Z" style="fill-rule:nonzero;"/>
                    </g>
                </g>
            </g>
        </g>
    </g>
</svg>
