<?xml version="1.0" encoding="UTF-8" standalone="no"?>
<!DOCTYPE svg PUBLIC "-//W3C//DTD SVG 1.1//EN" "http://www.w3.org/Graphics/SVG/1.1/DTD/svg11.dtd">
<svg width="100%" height="100%" viewBox="0 0 287 108" version="1.1" xmlns="http://www.w3.org/2000/svg" xmlns:xlink="http://www.w3.org/1999/xlink" xml:space="preserve" xmlns:serif="http://www.serif.com/" style="fill-rule:evenodd;clip-rule:evenodd;stroke-linecap:round;stroke-linejoin:round;stroke-miterlimit:1.5;">
    <g transform="matrix(1,0,0,1,-414,-1494)">
        <g transform="matrix(1.03258,0,0,1.69762,0,0)">
            <g id="who-was-alive" transform="matrix(0.968444,0,0,0.686408,290.219,834.894)">
                <path d="M400,75.792C400,71.013 395.479,67.133 389.91,67.133L125.976,67.133C120.407,67.133 115.886,71.013 115.886,75.792L115.886,148.836C115.886,153.615 120.407,157.495 125.976,157.495L389.91,157.495C395.479,157.495 400,153.615 400,148.836L400,75.792Z" style="fill:rgb(237,230,211);"/>
                <clipPath id="_clip1">
                    <path d="M400,75.792C400,71.013 395.479,67.133 389.91,67.133L125.976,67.133C120.407,67.133 115.886,71.013 115.886,75.792L115.886,148.836C115.886,153.615 120.407,157.495 125.976,157.495L389.91,157.495C395.479,157.495 400,153.615 400,148.836L400,75.792Z"/>
                </clipPath>
                <g clip-path="url(#_clip1)">
                    <g transform="matrix(0.88923,0,0,0.88923,32.1941,12.4358)">
                        <g transform="matrix(1.04984,0,0,0.900831,-340.386,-1280.11)">
                            <rect x="415.561" y="1495.56" width="33.441" height="33.441" style="fill:rgb(212,206,188);"/>
                            <g transform="matrix(0.0430179,0,0,0.0430179,422.37,1502.37)">
                                <g>
                                    <path d="M230.432,239.282C296.261,239.282 350.073,185.47 350.073,119.641C350.073,53.812 296.261,0 230.432,0C164.603,0 110.792,53.812 110.792,119.641C110.792,185.47 164.604,239.282 230.432,239.282Z" style="fill:rgb(179,169,137);fill-rule:nonzero;"/>
                                    <path d="M435.755,334.89C432.62,327.053 428.441,319.739 423.739,312.947C399.706,277.42 362.613,253.91 320.817,248.163C315.593,247.641 309.846,248.685 305.666,251.82C283.723,268.016 257.601,276.375 230.433,276.375C203.265,276.375 177.143,268.016 155.2,251.82C151.02,248.685 145.273,247.118 140.049,248.163C98.253,253.91 60.637,277.42 37.127,312.947C32.425,319.739 28.245,327.576 25.111,334.89C23.544,338.025 24.066,341.682 25.633,344.817C29.813,352.131 35.037,359.446 39.739,365.715C47.053,375.642 54.89,384.523 63.772,392.882C71.086,400.196 79.445,406.988 87.805,413.78C129.078,444.605 178.711,460.8 229.911,460.8C281.111,460.8 330.744,444.604 372.017,413.78C380.376,407.511 388.735,400.196 396.05,392.882C404.409,384.523 412.768,375.641 420.083,365.715C425.307,358.923 430.01,352.131 434.189,344.817C436.8,341.682 437.322,338.024 435.755,334.89Z" style="fill:rgb(179,169,137);fill-rule:nonzero;"/>
                                </g>
                            </g>
                        </g>
                        <g transform="matrix(1.04984,0,0,0.900831,-340.386,-1219.86)">
                            <rect x="415.561" y="1495.56" width="33.441" height="33.441" style="fill:rgb(212,206,188);"/>
                            <g transform="matrix(0.0430179,0,0,0.0430179,422.37,1502.37)">
                                <g>
                                    <path d="M230.432,239.282C296.261,239.282 350.073,185.47 350.073,119.641C350.073,53.812 296.261,0 230.432,0C164.603,0 110.792,53.812 110.792,119.641C110.792,185.47 164.604,239.282 230.432,239.282Z" style="fill:rgb(179,169,137);fill-rule:nonzero;"/>
                                    <path d="M435.755,334.89C432.62,327.053 428.441,319.739 423.739,312.947C399.706,277.42 362.613,253.91 320.817,248.163C315.593,247.641 309.846,248.685 305.666,251.82C283.723,268.016 257.601,276.375 230.433,276.375C203.265,276.375 177.143,268.016 155.2,251.82C151.02,248.685 145.273,247.118 140.049,248.163C98.253,253.91 60.637,277.42 37.127,312.947C32.425,319.739 28.245,327.576 25.111,334.89C23.544,338.025 24.066,341.682 25.633,344.817C29.813,352.131 35.037,359.446 39.739,365.715C47.053,375.642 54.89,384.523 63.772,392.882C71.086,400.196 79.445,406.988 87.805,413.78C129.078,444.605 178.711,460.8 229.911,460.8C281.111,460.8 330.744,444.604 372.017,413.78C380.376,407.511 388.735,400.196 396.05,392.882C404.409,384.523 412.768,375.641 420.083,365.715C425.307,358.923 430.01,352.131 434.189,344.817C436.8,341.682 437.322,338.024 435.755,334.89Z" style="fill:rgb(179,169,137);fill-rule:nonzero;"/>
                                </g>
                            </g>
                        </g>
                        <g transform="matrix(1.04984,0,0,0.900831,-199.956,-1280.11)">
                            <rect x="415.561" y="1495.56" width="33.441" height="33.441" style="fill:rgb(212,206,188);"/>
                            <g transform="matrix(0.0430179,0,0,0.0430179,422.37,1502.37)">
                                <g>
                                    <path d="M230.432,239.282C296.261,239.282 350.073,185.47 350.073,119.641C350.073,53.812 296.261,0 230.432,0C164.603,0 110.792,53.812 110.792,119.641C110.792,185.47 164.604,239.282 230.432,239.282Z" style="fill:rgb(179,169,137);fill-rule:nonzero;"/>
                                    <path d="M435.755,334.89C432.62,327.053 428.441,319.739 423.739,312.947C399.706,277.42 362.613,253.91 320.817,248.163C315.593,247.641 309.846,248.685 305.666,251.82C283.723,268.016 257.601,276.375 230.433,276.375C203.265,276.375 177.143,268.016 155.2,251.82C151.02,248.685 145.273,247.118 140.049,248.163C98.253,253.91 60.637,277.42 37.127,312.947C32.425,319.739 28.245,327.576 25.111,334.89C23.544,338.025 24.066,341.682 25.633,344.817C29.813,352.131 35.037,359.446 39.739,365.715C47.053,375.642 54.89,384.523 63.772,392.882C71.086,400.196 79.445,406.988 87.805,413.78C129.078,444.605 178.711,460.8 229.911,460.8C281.111,460.8 330.744,444.604 372.017,413.78C380.376,407.511 388.735,400.196 396.05,392.882C404.409,384.523 412.768,375.641 420.083,365.715C425.307,358.923 430.01,352.131 434.189,344.817C436.8,341.682 437.322,338.024 435.755,334.89Z" style="fill:rgb(179,169,137);fill-rule:nonzero;"/>
                                </g>
                            </g>
                        </g>
                        <g transform="matrix(1.04984,0,0,0.900831,-164.848,-1280.11)">
                            <rect x="415.561" y="1495.56" width="33.441" height="33.441" style="fill:rgb(212,206,188);"/>
                            <g transform="matrix(0.0430179,0,0,0.0430179,422.37,1502.37)">
                                <g>
                                    <path d="M230.432,239.282C296.261,239.282 350.073,185.47 350.073,119.641C350.073,53.812 296.261,0 230.432,0C164.603,0 110.792,53.812 110.792,119.641C110.792,185.47 164.604,239.282 230.432,239.282Z" style="fill:rgb(179,169,137);fill-rule:nonzero;"/>
                                    <path d="M435.755,334.89C432.62,327.053 428.441,319.739 423.739,312.947C399.706,277.42 362.613,253.91 320.817,248.163C315.593,247.641 309.846,248.685 305.666,251.82C283.723,268.016 257.601,276.375 230.433,276.375C203.265,276.375 177.143,268.016 155.2,251.82C151.02,248.685 145.273,247.118 140.049,248.163C98.253,253.91 60.637,277.42 37.127,312.947C32.425,319.739 28.245,327.576 25.111,334.89C23.544,338.025 24.066,341.682 25.633,344.817C29.813,352.131 35.037,359.446 39.739,365.715C47.053,375.642 54.89,384.523 63.772,392.882C71.086,400.196 79.445,406.988 87.805,413.78C129.078,444.605 178.711,460.8 229.911,460.8C281.111,460.8 330.744,444.604 372.017,413.78C380.376,407.511 388.735,400.196 396.05,392.882C404.409,384.523 412.768,375.641 420.083,365.715C425.307,358.923 430.01,352.131 434.189,344.817C436.8,341.682 437.322,338.024 435.755,334.89Z" style="fill:rgb(179,169,137);fill-rule:nonzero;"/>
                                </g>
                            </g>
                        </g>
                        <g transform="matrix(1.04984,0,0,0.900831,-129.741,-1249.99)">
                            <rect x="415.561" y="1495.56" width="33.441" height="33.441" style="fill:rgb(212,206,188);"/>
                            <g transform="matrix(0.0430179,0,0,0.0430179,422.37,1502.37)">
                                <g>
                                    <path d="M230.432,239.282C296.261,239.282 350.073,185.47 350.073,119.641C350.073,53.812 296.261,0 230.432,0C164.603,0 110.792,53.812 110.792,119.641C110.792,185.47 164.604,239.282 230.432,239.282Z" style="fill:rgb(179,169,137);fill-rule:nonzero;"/>
                                    <path d="M435.755,334.89C432.62,327.053 428.441,319.739 423.739,312.947C399.706,277.42 362.613,253.91 320.817,248.163C315.593,247.641 309.846,248.685 305.666,251.82C283.723,268.016 257.601,276.375 230.433,276.375C203.265,276.375 177.143,268.016 155.2,251.82C151.02,248.685 145.273,247.118 140.049,248.163C98.253,253.91 60.637,277.42 37.127,312.947C32.425,319.739 28.245,327.576 25.111,334.89C23.544,338.025 24.066,341.682 25.633,344.817C29.813,352.131 35.037,359.446 39.739,365.715C47.053,375.642 54.89,384.523 63.772,392.882C71.086,400.196 79.445,406.988 87.805,413.78C129.078,444.605 178.711,460.8 229.911,460.8C281.111,460.8 330.744,444.604 372.017,413.78C380.376,407.511 388.735,400.196 396.05,392.882C404.409,384.523 412.768,375.641 420.083,365.715C425.307,358.923 430.01,352.131 434.189,344.817C436.8,341.682 437.322,338.024 435.755,334.89Z" style="fill:rgb(179,169,137);fill-rule:nonzero;"/>
                                </g>
                            </g>
                        </g>
                        <g transform="matrix(1.04984,0,0,0.900831,-59.5255,-1280.11)">
                            <rect x="415.561" y="1495.56" width="33.441" height="33.441" style="fill:rgb(212,206,188);"/>
                            <g transform="matrix(0.0430179,0,0,0.0430179,422.37,1502.37)">
                                <g>
                                    <path d="M230.432,239.282C296.261,239.282 350.073,185.47 350.073,119.641C350.073,53.812 296.261,0 230.432,0C164.603,0 110.792,53.812 110.792,119.641C110.792,185.47 164.604,239.282 230.432,239.282Z" style="fill:rgb(179,169,137);fill-rule:nonzero;"/>
                                    <path d="M435.755,334.89C432.62,327.053 428.441,319.739 423.739,312.947C399.706,277.42 362.613,253.91 320.817,248.163C315.593,247.641 309.846,248.685 305.666,251.82C283.723,268.016 257.601,276.375 230.433,276.375C203.265,276.375 177.143,268.016 155.2,251.82C151.02,248.685 145.273,247.118 140.049,248.163C98.253,253.91 60.637,277.42 37.127,312.947C32.425,319.739 28.245,327.576 25.111,334.89C23.544,338.025 24.066,341.682 25.633,344.817C29.813,352.131 35.037,359.446 39.739,365.715C47.053,375.642 54.89,384.523 63.772,392.882C71.086,400.196 79.445,406.988 87.805,413.78C129.078,444.605 178.711,460.8 229.911,460.8C281.111,460.8 330.744,444.604 372.017,413.78C380.376,407.511 388.735,400.196 396.05,392.882C404.409,384.523 412.768,375.641 420.083,365.715C425.307,358.923 430.01,352.131 434.189,344.817C436.8,341.682 437.322,338.024 435.755,334.89Z" style="fill:rgb(179,169,137);fill-rule:nonzero;"/>
                                </g>
                            </g>
                        </g>
                        <g transform="matrix(1.04984,0,0,0.900831,-94.6331,-1249.99)">
                            <rect x="415.561" y="1495.56" width="33.441" height="33.441" style="fill:rgb(212,206,188);"/>
                            <g transform="matrix(0.0430179,0,0,0.0430179,422.37,1502.37)">
                                <g>
                                    <path d="M230.432,239.282C296.261,239.282 350.073,185.47 350.073,119.641C350.073,53.812 296.261,0 230.432,0C164.603,0 110.792,53.812 110.792,119.641C110.792,185.47 164.604,239.282 230.432,239.282Z" style="fill:rgb(179,169,137);fill-rule:nonzero;"/>
                                    <path d="M435.755,334.89C432.62,327.053 428.441,319.739 423.739,312.947C399.706,277.42 362.613,253.91 320.817,248.163C315.593,247.641 309.846,248.685 305.666,251.82C283.723,268.016 257.601,276.375 230.433,276.375C203.265,276.375 177.143,268.016 155.2,251.82C151.02,248.685 145.273,247.118 140.049,248.163C98.253,253.91 60.637,277.42 37.127,312.947C32.425,319.739 28.245,327.576 25.111,334.89C23.544,338.025 24.066,341.682 25.633,344.817C29.813,352.131 35.037,359.446 39.739,365.715C47.053,375.642 54.89,384.523 63.772,392.882C71.086,400.196 79.445,406.988 87.805,413.78C129.078,444.605 178.711,460.8 229.911,460.8C281.111,460.8 330.744,444.604 372.017,413.78C380.376,407.511 388.735,400.196 396.05,392.882C404.409,384.523 412.768,375.641 420.083,365.715C425.307,358.923 430.01,352.131 434.189,344.817C436.8,341.682 437.322,338.024 435.755,334.89Z" style="fill:rgb(179,169,137);fill-rule:nonzero;"/>
                                </g>
                            </g>
                        </g>
                        <g transform="matrix(1.04984,0,0,0.900831,-199.956,-1219.86)">
                            <rect x="415.561" y="1495.56" width="33.441" height="33.441" style="fill:rgb(212,206,188);"/>
                            <g transform="matrix(0.0430179,0,0,0.0430179,422.37,1502.37)">
                                <g>
                                    <path d="M230.432,239.282C296.261,239.282 350.073,185.47 350.073,119.641C350.073,53.812 296.261,0 230.432,0C164.603,0 110.792,53.812 110.792,119.641C110.792,185.47 164.604,239.282 230.432,239.282Z" style="fill:rgb(179,169,137);fill-rule:nonzero;"/>
                                    <path d="M435.755,334.89C432.62,327.053 428.441,319.739 423.739,312.947C399.706,277.42 362.613,253.91 320.817,248.163C315.593,247.641 309.846,248.685 305.666,251.82C283.723,268.016 257.601,276.375 230.433,276.375C203.265,276.375 177.143,268.016 155.2,251.82C151.02,248.685 145.273,247.118 140.049,248.163C98.253,253.91 60.637,277.42 37.127,312.947C32.425,319.739 28.245,327.576 25.111,334.89C23.544,338.025 24.066,341.682 25.633,344.817C29.813,352.131 35.037,359.446 39.739,365.715C47.053,375.642 54.89,384.523 63.772,392.882C71.086,400.196 79.445,406.988 87.805,413.78C129.078,444.605 178.711,460.8 229.911,460.8C281.111,460.8 330.744,444.604 372.017,413.78C380.376,407.511 388.735,400.196 396.05,392.882C404.409,384.523 412.768,375.641 420.083,365.715C425.307,358.923 430.01,352.131 434.189,344.817C436.8,341.682 437.322,338.024 435.755,334.89Z" style="fill:rgb(179,169,137);fill-rule:nonzero;"/>
                                </g>
                            </g>
                        </g>
                        <g transform="matrix(1.04984,0,0,0.900831,-164.848,-1249.99)">
                            <rect x="415.561" y="1495.56" width="33.441" height="33.441" style="fill:rgb(212,206,188);"/>
                            <g transform="matrix(0.0430179,0,0,0.0430179,422.37,1502.37)">
                                <g>
                                    <path d="M230.432,239.282C296.261,239.282 350.073,185.47 350.073,119.641C350.073,53.812 296.261,0 230.432,0C164.603,0 110.792,53.812 110.792,119.641C110.792,185.47 164.604,239.282 230.432,239.282Z" style="fill:rgb(179,169,137);fill-rule:nonzero;"/>
                                    <path d="M435.755,334.89C432.62,327.053 428.441,319.739 423.739,312.947C399.706,277.42 362.613,253.91 320.817,248.163C315.593,247.641 309.846,248.685 305.666,251.82C283.723,268.016 257.601,276.375 230.433,276.375C203.265,276.375 177.143,268.016 155.2,251.82C151.02,248.685 145.273,247.118 140.049,248.163C98.253,253.91 60.637,277.42 37.127,312.947C32.425,319.739 28.245,327.576 25.111,334.89C23.544,338.025 24.066,341.682 25.633,344.817C29.813,352.131 35.037,359.446 39.739,365.715C47.053,375.642 54.89,384.523 63.772,392.882C71.086,400.196 79.445,406.988 87.805,413.78C129.078,444.605 178.711,460.8 229.911,460.8C281.111,460.8 330.744,444.604 372.017,413.78C380.376,407.511 388.735,400.196 396.05,392.882C404.409,384.523 412.768,375.641 420.083,365.715C425.307,358.923 430.01,352.131 434.189,344.817C436.8,341.682 437.322,338.024 435.755,334.89Z" style="fill:rgb(179,169,137);fill-rule:nonzero;"/>
                                </g>
                            </g>
                        </g>
                        <g transform="matrix(1.04984,0,0,0.900831,-94.6331,-1280.11)">
                            <rect x="415.561" y="1495.56" width="33.441" height="33.441" style="fill:rgb(212,206,188);"/>
                            <g transform="matrix(0.0430179,0,0,0.0430179,422.37,1502.37)">
                                <g>
                                    <path d="M230.432,239.282C296.261,239.282 350.073,185.47 350.073,119.641C350.073,53.812 296.261,0 230.432,0C164.603,0 110.792,53.812 110.792,119.641C110.792,185.47 164.604,239.282 230.432,239.282Z" style="fill:rgb(179,169,137);fill-rule:nonzero;"/>
                                    <path d="M435.755,334.89C432.62,327.053 428.441,319.739 423.739,312.947C399.706,277.42 362.613,253.91 320.817,248.163C315.593,247.641 309.846,248.685 305.666,251.82C283.723,268.016 257.601,276.375 230.433,276.375C203.265,276.375 177.143,268.016 155.2,251.82C151.02,248.685 145.273,247.118 140.049,248.163C98.253,253.91 60.637,277.42 37.127,312.947C32.425,319.739 28.245,327.576 25.111,334.89C23.544,338.025 24.066,341.682 25.633,344.817C29.813,352.131 35.037,359.446 39.739,365.715C47.053,375.642 54.89,384.523 63.772,392.882C71.086,400.196 79.445,406.988 87.805,413.78C129.078,444.605 178.711,460.8 229.911,460.8C281.111,460.8 330.744,444.604 372.017,413.78C380.376,407.511 388.735,400.196 396.05,392.882C404.409,384.523 412.768,375.641 420.083,365.715C425.307,358.923 430.01,352.131 434.189,344.817C436.8,341.682 437.322,338.024 435.755,334.89Z" style="fill:rgb(179,169,137);fill-rule:nonzero;"/>
                                </g>
                            </g>
                        </g>
                        <g transform="matrix(1.04984,0,0,0.900831,-235.064,-1219.86)">
                            <rect x="415.561" y="1495.56" width="33.441" height="33.441" style="fill:rgb(212,206,188);"/>
                            <g transform="matrix(0.0430179,0,0,0.0430179,422.37,1502.37)">
                                <g>
                                    <path d="M230.432,239.282C296.261,239.282 350.073,185.47 350.073,119.641C350.073,53.812 296.261,0 230.432,0C164.603,0 110.792,53.812 110.792,119.641C110.792,185.47 164.604,239.282 230.432,239.282Z" style="fill:rgb(179,169,137);fill-rule:nonzero;"/>
                                    <path d="M435.755,334.89C432.62,327.053 428.441,319.739 423.739,312.947C399.706,277.42 362.613,253.91 320.817,248.163C315.593,247.641 309.846,248.685 305.666,251.82C283.723,268.016 257.601,276.375 230.433,276.375C203.265,276.375 177.143,268.016 155.2,251.82C151.02,248.685 145.273,247.118 140.049,248.163C98.253,253.91 60.637,277.42 37.127,312.947C32.425,319.739 28.245,327.576 25.111,334.89C23.544,338.025 24.066,341.682 25.633,344.817C29.813,352.131 35.037,359.446 39.739,365.715C47.053,375.642 54.89,384.523 63.772,392.882C71.086,400.196 79.445,406.988 87.805,413.78C129.078,444.605 178.711,460.8 229.911,460.8C281.111,460.8 330.744,444.604 372.017,413.78C380.376,407.511 388.735,400.196 396.05,392.882C404.409,384.523 412.768,375.641 420.083,365.715C425.307,358.923 430.01,352.131 434.189,344.817C436.8,341.682 437.322,338.024 435.755,334.89Z" style="fill:rgb(179,169,137);fill-rule:nonzero;"/>
                                </g>
                            </g>
                        </g>
                        <g transform="matrix(1.04984,0,0,0.900831,-270.171,-1249.99)">
                            <rect x="415.561" y="1495.56" width="33.441" height="33.441" style="fill:rgb(212,206,188);"/>
                            <g transform="matrix(0.0430179,0,0,0.0430179,422.37,1502.37)">
                                <g>
                                    <path d="M230.432,239.282C296.261,239.282 350.073,185.47 350.073,119.641C350.073,53.812 296.261,0 230.432,0C164.603,0 110.792,53.812 110.792,119.641C110.792,185.47 164.604,239.282 230.432,239.282Z" style="fill:rgb(179,169,137);fill-rule:nonzero;"/>
                                    <path d="M435.755,334.89C432.62,327.053 428.441,319.739 423.739,312.947C399.706,277.42 362.613,253.91 320.817,248.163C315.593,247.641 309.846,248.685 305.666,251.82C283.723,268.016 257.601,276.375 230.433,276.375C203.265,276.375 177.143,268.016 155.2,251.82C151.02,248.685 145.273,247.118 140.049,248.163C98.253,253.91 60.637,277.42 37.127,312.947C32.425,319.739 28.245,327.576 25.111,334.89C23.544,338.025 24.066,341.682 25.633,344.817C29.813,352.131 35.037,359.446 39.739,365.715C47.053,375.642 54.89,384.523 63.772,392.882C71.086,400.196 79.445,406.988 87.805,413.78C129.078,444.605 178.711,460.8 229.911,460.8C281.111,460.8 330.744,444.604 372.017,413.78C380.376,407.511 388.735,400.196 396.05,392.882C404.409,384.523 412.768,375.641 420.083,365.715C425.307,358.923 430.01,352.131 434.189,344.817C436.8,341.682 437.322,338.024 435.755,334.89Z" style="fill:rgb(179,169,137);fill-rule:nonzero;"/>
                                </g>
                            </g>
                        </g>
                        <g transform="matrix(1.04984,0,0,0.900831,-305.279,-1219.86)">
                            <rect x="415.561" y="1495.56" width="33.441" height="33.441" style="fill:rgb(212,206,188);"/>
                            <g transform="matrix(0.0430179,0,0,0.0430179,422.37,1502.37)">
                                <g>
                                    <path d="M230.432,239.282C296.261,239.282 350.073,185.47 350.073,119.641C350.073,53.812 296.261,0 230.432,0C164.603,0 110.792,53.812 110.792,119.641C110.792,185.47 164.604,239.282 230.432,239.282Z" style="fill:rgb(179,169,137);fill-rule:nonzero;"/>
                                    <path d="M435.755,334.89C432.62,327.053 428.441,319.739 423.739,312.947C399.706,277.42 362.613,253.91 320.817,248.163C315.593,247.641 309.846,248.685 305.666,251.82C283.723,268.016 257.601,276.375 230.433,276.375C203.265,276.375 177.143,268.016 155.2,251.82C151.02,248.685 145.273,247.118 140.049,248.163C98.253,253.91 60.637,277.42 37.127,312.947C32.425,319.739 28.245,327.576 25.111,334.89C23.544,338.025 24.066,341.682 25.633,344.817C29.813,352.131 35.037,359.446 39.739,365.715C47.053,375.642 54.89,384.523 63.772,392.882C71.086,400.196 79.445,406.988 87.805,413.78C129.078,444.605 178.711,460.8 229.911,460.8C281.111,460.8 330.744,444.604 372.017,413.78C380.376,407.511 388.735,400.196 396.05,392.882C404.409,384.523 412.768,375.641 420.083,365.715C425.307,358.923 430.01,352.131 434.189,344.817C436.8,341.682 437.322,338.024 435.755,334.89Z" style="fill:rgb(179,169,137);fill-rule:nonzero;"/>
                                </g>
                            </g>
                        </g>
                        <g transform="matrix(1.04984,0,0,0.900831,-305.279,-1280.11)">
                            <rect x="415.561" y="1495.56" width="33.441" height="33.441" style="fill:rgb(237,230,211);"/>
                            <g transform="matrix(0.0430179,0,0,0.0430179,422.37,1502.37)">
                                <g>
                                    <path d="M230.432,239.282C296.261,239.282 350.073,185.47 350.073,119.641C350.073,53.812 296.261,0 230.432,0C164.603,0 110.792,53.812 110.792,119.641C110.792,185.47 164.604,239.282 230.432,239.282Z" style="fill:rgb(202,195,173);fill-rule:nonzero;"/>
                                    <path d="M435.755,334.89C432.62,327.053 428.441,319.739 423.739,312.947C399.706,277.42 362.613,253.91 320.817,248.163C315.593,247.641 309.846,248.685 305.666,251.82C283.723,268.016 257.601,276.375 230.433,276.375C203.265,276.375 177.143,268.016 155.2,251.82C151.02,248.685 145.273,247.118 140.049,248.163C98.253,253.91 60.637,277.42 37.127,312.947C32.425,319.739 28.245,327.576 25.111,334.89C23.544,338.025 24.066,341.682 25.633,344.817C29.813,352.131 35.037,359.446 39.739,365.715C47.053,375.642 54.89,384.523 63.772,392.882C71.086,400.196 79.445,406.988 87.805,413.78C129.078,444.605 178.711,460.8 229.911,460.8C281.111,460.8 330.744,444.604 372.017,413.78C380.376,407.511 388.735,400.196 396.05,392.882C404.409,384.523 412.768,375.641 420.083,365.715C425.307,358.923 430.01,352.131 434.189,344.817C436.8,341.682 437.322,338.024 435.755,334.89Z" style="fill:rgb(202,195,173);fill-rule:nonzero;"/>
                                </g>
                            </g>
                        </g>
                        <g transform="matrix(1.04984,0,0,0.900831,-340.386,-1249.99)">
                            <rect x="415.561" y="1495.56" width="33.441" height="33.441" style="fill:rgb(237,230,211);"/>
                            <g transform="matrix(0.0430179,0,0,0.0430179,422.37,1502.37)">
                                <g>
                                    <path d="M230.432,239.282C296.261,239.282 350.073,185.47 350.073,119.641C350.073,53.812 296.261,0 230.432,0C164.603,0 110.792,53.812 110.792,119.641C110.792,185.47 164.604,239.282 230.432,239.282Z" style="fill:rgb(202,195,173);fill-rule:nonzero;"/>
                                    <path d="M435.755,334.89C432.62,327.053 428.441,319.739 423.739,312.947C399.706,277.42 362.613,253.91 320.817,248.163C315.593,247.641 309.846,248.685 305.666,251.82C283.723,268.016 257.601,276.375 230.433,276.375C203.265,276.375 177.143,268.016 155.2,251.82C151.02,248.685 145.273,247.118 140.049,248.163C98.253,253.91 60.637,277.42 37.127,312.947C32.425,319.739 28.245,327.576 25.111,334.89C23.544,338.025 24.066,341.682 25.633,344.817C29.813,352.131 35.037,359.446 39.739,365.715C47.053,375.642 54.89,384.523 63.772,392.882C71.086,400.196 79.445,406.988 87.805,413.78C129.078,444.605 178.711,460.8 229.911,460.8C281.111,460.8 330.744,444.604 372.017,413.78C380.376,407.511 388.735,400.196 396.05,392.882C404.409,384.523 412.768,375.641 420.083,365.715C425.307,358.923 430.01,352.131 434.189,344.817C436.8,341.682 437.322,338.024 435.755,334.89Z" style="fill:rgb(202,195,173);fill-rule:nonzero;"/>
                                </g>
                            </g>
                        </g>
                        <g transform="matrix(1.04984,0,0,0.900831,-270.171,-1280.11)">
                            <rect x="415.561" y="1495.56" width="33.441" height="33.441" style="fill:rgb(237,230,211);"/>
                            <g transform="matrix(0.0430179,0,0,0.0430179,422.37,1502.37)">
                                <g>
                                    <path d="M230.432,239.282C296.261,239.282 350.073,185.47 350.073,119.641C350.073,53.812 296.261,0 230.432,0C164.603,0 110.792,53.812 110.792,119.641C110.792,185.47 164.604,239.282 230.432,239.282Z" style="fill:rgb(202,195,173);fill-rule:nonzero;"/>
                                    <path d="M435.755,334.89C432.62,327.053 428.441,319.739 423.739,312.947C399.706,277.42 362.613,253.91 320.817,248.163C315.593,247.641 309.846,248.685 305.666,251.82C283.723,268.016 257.601,276.375 230.433,276.375C203.265,276.375 177.143,268.016 155.2,251.82C151.02,248.685 145.273,247.118 140.049,248.163C98.253,253.91 60.637,277.42 37.127,312.947C32.425,319.739 28.245,327.576 25.111,334.89C23.544,338.025 24.066,341.682 25.633,344.817C29.813,352.131 35.037,359.446 39.739,365.715C47.053,375.642 54.89,384.523 63.772,392.882C71.086,400.196 79.445,406.988 87.805,413.78C129.078,444.605 178.711,460.8 229.911,460.8C281.111,460.8 330.744,444.604 372.017,413.78C380.376,407.511 388.735,400.196 396.05,392.882C404.409,384.523 412.768,375.641 420.083,365.715C425.307,358.923 430.01,352.131 434.189,344.817C436.8,341.682 437.322,338.024 435.755,334.89Z" style="fill:rgb(202,195,173);fill-rule:nonzero;"/>
                                </g>
                            </g>
                        </g>
                        <g transform="matrix(1.04984,0,0,0.900831,-235.064,-1280.11)">
                            <rect x="415.561" y="1495.56" width="33.441" height="33.441" style="fill:rgb(237,230,211);"/>
                            <g transform="matrix(0.0430179,0,0,0.0430179,422.37,1502.37)">
                                <g>
                                    <path d="M230.432,239.282C296.261,239.282 350.073,185.47 350.073,119.641C350.073,53.812 296.261,0 230.432,0C164.603,0 110.792,53.812 110.792,119.641C110.792,185.47 164.604,239.282 230.432,239.282Z" style="fill:rgb(202,195,173);fill-rule:nonzero;"/>
                                    <path d="M435.755,334.89C432.62,327.053 428.441,319.739 423.739,312.947C399.706,277.42 362.613,253.91 320.817,248.163C315.593,247.641 309.846,248.685 305.666,251.82C283.723,268.016 257.601,276.375 230.433,276.375C203.265,276.375 177.143,268.016 155.2,251.82C151.02,248.685 145.273,247.118 140.049,248.163C98.253,253.91 60.637,277.42 37.127,312.947C32.425,319.739 28.245,327.576 25.111,334.89C23.544,338.025 24.066,341.682 25.633,344.817C29.813,352.131 35.037,359.446 39.739,365.715C47.053,375.642 54.89,384.523 63.772,392.882C71.086,400.196 79.445,406.988 87.805,413.78C129.078,444.605 178.711,460.8 229.911,460.8C281.111,460.8 330.744,444.604 372.017,413.78C380.376,407.511 388.735,400.196 396.05,392.882C404.409,384.523 412.768,375.641 420.083,365.715C425.307,358.923 430.01,352.131 434.189,344.817C436.8,341.682 437.322,338.024 435.755,334.89Z" style="fill:rgb(202,195,173);fill-rule:nonzero;"/>
                                </g>
                            </g>
                        </g>
                        <g transform="matrix(1.04984,0,0,0.900831,-129.741,-1280.11)">
                            <rect x="415.561" y="1495.56" width="33.441" height="33.441" style="fill:rgb(237,230,211);"/>
                            <g transform="matrix(0.0430179,0,0,0.0430179,422.37,1502.37)">
                                <g>
                                    <path d="M230.432,239.282C296.261,239.282 350.073,185.47 350.073,119.641C350.073,53.812 296.261,0 230.432,0C164.603,0 110.792,53.812 110.792,119.641C110.792,185.47 164.604,239.282 230.432,239.282Z" style="fill:rgb(202,195,173);fill-rule:nonzero;"/>
                                    <path d="M435.755,334.89C432.62,327.053 428.441,319.739 423.739,312.947C399.706,277.42 362.613,253.91 320.817,248.163C315.593,247.641 309.846,248.685 305.666,251.82C283.723,268.016 257.601,276.375 230.433,276.375C203.265,276.375 177.143,268.016 155.2,251.82C151.02,248.685 145.273,247.118 140.049,248.163C98.253,253.91 60.637,277.42 37.127,312.947C32.425,319.739 28.245,327.576 25.111,334.89C23.544,338.025 24.066,341.682 25.633,344.817C29.813,352.131 35.037,359.446 39.739,365.715C47.053,375.642 54.89,384.523 63.772,392.882C71.086,400.196 79.445,406.988 87.805,413.78C129.078,444.605 178.711,460.8 229.911,460.8C281.111,460.8 330.744,444.604 372.017,413.78C380.376,407.511 388.735,400.196 396.05,392.882C404.409,384.523 412.768,375.641 420.083,365.715C425.307,358.923 430.01,352.131 434.189,344.817C436.8,341.682 437.322,338.024 435.755,334.89Z" style="fill:rgb(202,195,173);fill-rule:nonzero;"/>
                                </g>
                            </g>
                        </g>
                        <g transform="matrix(1.04984,0,0,0.900831,-59.5255,-1249.99)">
                            <rect x="415.561" y="1495.56" width="33.441" height="33.441" style="fill:rgb(237,230,211);"/>
                            <g transform="matrix(0.0430179,0,0,0.0430179,422.37,1502.37)">
                                <g>
                                    <path d="M230.432,239.282C296.261,239.282 350.073,185.47 350.073,119.641C350.073,53.812 296.261,0 230.432,0C164.603,0 110.792,53.812 110.792,119.641C110.792,185.47 164.604,239.282 230.432,239.282Z" style="fill:rgb(202,195,173);fill-rule:nonzero;"/>
                                    <path d="M435.755,334.89C432.62,327.053 428.441,319.739 423.739,312.947C399.706,277.42 362.613,253.91 320.817,248.163C315.593,247.641 309.846,248.685 305.666,251.82C283.723,268.016 257.601,276.375 230.433,276.375C203.265,276.375 177.143,268.016 155.2,251.82C151.02,248.685 145.273,247.118 140.049,248.163C98.253,253.91 60.637,277.42 37.127,312.947C32.425,319.739 28.245,327.576 25.111,334.89C23.544,338.025 24.066,341.682 25.633,344.817C29.813,352.131 35.037,359.446 39.739,365.715C47.053,375.642 54.89,384.523 63.772,392.882C71.086,400.196 79.445,406.988 87.805,413.78C129.078,444.605 178.711,460.8 229.911,460.8C281.111,460.8 330.744,444.604 372.017,413.78C380.376,407.511 388.735,400.196 396.05,392.882C404.409,384.523 412.768,375.641 420.083,365.715C425.307,358.923 430.01,352.131 434.189,344.817C436.8,341.682 437.322,338.024 435.755,334.89Z" style="fill:rgb(202,195,173);fill-rule:nonzero;"/>
                                </g>
                            </g>
                        </g>
                        <g transform="matrix(1.04984,0,0,0.900831,-94.6331,-1219.86)">
                            <rect x="415.561" y="1495.56" width="33.441" height="33.441" style="fill:rgb(237,230,211);"/>
                            <g transform="matrix(0.0430179,0,0,0.0430179,422.37,1502.37)">
                                <g>
                                    <path d="M230.432,239.282C296.261,239.282 350.073,185.47 350.073,119.641C350.073,53.812 296.261,0 230.432,0C164.603,0 110.792,53.812 110.792,119.641C110.792,185.47 164.604,239.282 230.432,239.282Z" style="fill:rgb(202,195,173);fill-rule:nonzero;"/>
                                    <path d="M435.755,334.89C432.62,327.053 428.441,319.739 423.739,312.947C399.706,277.42 362.613,253.91 320.817,248.163C315.593,247.641 309.846,248.685 305.666,251.82C283.723,268.016 257.601,276.375 230.433,276.375C203.265,276.375 177.143,268.016 155.2,251.82C151.02,248.685 145.273,247.118 140.049,248.163C98.253,253.91 60.637,277.42 37.127,312.947C32.425,319.739 28.245,327.576 25.111,334.89C23.544,338.025 24.066,341.682 25.633,344.817C29.813,352.131 35.037,359.446 39.739,365.715C47.053,375.642 54.89,384.523 63.772,392.882C71.086,400.196 79.445,406.988 87.805,413.78C129.078,444.605 178.711,460.8 229.911,460.8C281.111,460.8 330.744,444.604 372.017,413.78C380.376,407.511 388.735,400.196 396.05,392.882C404.409,384.523 412.768,375.641 420.083,365.715C425.307,358.923 430.01,352.131 434.189,344.817C436.8,341.682 437.322,338.024 435.755,334.89Z" style="fill:rgb(202,195,173);fill-rule:nonzero;"/>
                                </g>
                            </g>
                        </g>
                        <g transform="matrix(1.04984,0,0,0.900831,-59.6661,-1219.86)">
                            <rect x="415.561" y="1495.56" width="33.441" height="33.441" style="fill:rgb(237,230,211);"/>
                            <g transform="matrix(0.0430179,0,0,0.0430179,422.37,1502.37)">
                                <g>
                                    <path d="M230.432,239.282C296.261,239.282 350.073,185.47 350.073,119.641C350.073,53.812 296.261,0 230.432,0C164.603,0 110.792,53.812 110.792,119.641C110.792,185.47 164.604,239.282 230.432,239.282Z" style="fill:rgb(202,195,173);fill-rule:nonzero;"/>
                                    <path d="M435.755,334.89C432.62,327.053 428.441,319.739 423.739,312.947C399.706,277.42 362.613,253.91 320.817,248.163C315.593,247.641 309.846,248.685 305.666,251.82C283.723,268.016 257.601,276.375 230.433,276.375C203.265,276.375 177.143,268.016 155.2,251.82C151.02,248.685 145.273,247.118 140.049,248.163C98.253,253.91 60.637,277.42 37.127,312.947C32.425,319.739 28.245,327.576 25.111,334.89C23.544,338.025 24.066,341.682 25.633,344.817C29.813,352.131 35.037,359.446 39.739,365.715C47.053,375.642 54.89,384.523 63.772,392.882C71.086,400.196 79.445,406.988 87.805,413.78C129.078,444.605 178.711,460.8 229.911,460.8C281.111,460.8 330.744,444.604 372.017,413.78C380.376,407.511 388.735,400.196 396.05,392.882C404.409,384.523 412.768,375.641 420.083,365.715C425.307,358.923 430.01,352.131 434.189,344.817C436.8,341.682 437.322,338.024 435.755,334.89Z" style="fill:rgb(202,195,173);fill-rule:nonzero;"/>
                                </g>
                            </g>
                        </g>
                        <g transform="matrix(1.04984,0,0,0.900831,-164.848,-1219.86)">
                            <rect x="415.561" y="1495.56" width="33.441" height="33.441" style="fill:rgb(237,230,211);"/>
                            <g transform="matrix(0.0430179,0,0,0.0430179,422.37,1502.37)">
                                <g>
                                    <path d="M230.432,239.282C296.261,239.282 350.073,185.47 350.073,119.641C350.073,53.812 296.261,0 230.432,0C164.603,0 110.792,53.812 110.792,119.641C110.792,185.47 164.604,239.282 230.432,239.282Z" style="fill:rgb(202,195,173);fill-rule:nonzero;"/>
                                    <path d="M435.755,334.89C432.62,327.053 428.441,319.739 423.739,312.947C399.706,277.42 362.613,253.91 320.817,248.163C315.593,247.641 309.846,248.685 305.666,251.82C283.723,268.016 257.601,276.375 230.433,276.375C203.265,276.375 177.143,268.016 155.2,251.82C151.02,248.685 145.273,247.118 140.049,248.163C98.253,253.91 60.637,277.42 37.127,312.947C32.425,319.739 28.245,327.576 25.111,334.89C23.544,338.025 24.066,341.682 25.633,344.817C29.813,352.131 35.037,359.446 39.739,365.715C47.053,375.642 54.89,384.523 63.772,392.882C71.086,400.196 79.445,406.988 87.805,413.78C129.078,444.605 178.711,460.8 229.911,460.8C281.111,460.8 330.744,444.604 372.017,413.78C380.376,407.511 388.735,400.196 396.05,392.882C404.409,384.523 412.768,375.641 420.083,365.715C425.307,358.923 430.01,352.131 434.189,344.817C436.8,341.682 437.322,338.024 435.755,334.89Z" style="fill:rgb(202,195,173);fill-rule:nonzero;"/>
                                </g>
                            </g>
                        </g>
                        <g transform="matrix(1.04984,0,0,0.900831,-129.741,-1219.86)">
                            <rect x="415.561" y="1495.56" width="33.441" height="33.441" style="fill:rgb(237,230,211);"/>
                            <g transform="matrix(0.0430179,0,0,0.0430179,422.37,1502.37)">
                                <g>
                                    <path d="M230.432,239.282C296.261,239.282 350.073,185.47 350.073,119.641C350.073,53.812 296.261,0 230.432,0C164.603,0 110.792,53.812 110.792,119.641C110.792,185.47 164.604,239.282 230.432,239.282Z" style="fill:rgb(202,195,173);fill-rule:nonzero;"/>
                                    <path d="M435.755,334.89C432.62,327.053 428.441,319.739 423.739,312.947C399.706,277.42 362.613,253.91 320.817,248.163C315.593,247.641 309.846,248.685 305.666,251.82C283.723,268.016 257.601,276.375 230.433,276.375C203.265,276.375 177.143,268.016 155.2,251.82C151.02,248.685 145.273,247.118 140.049,248.163C98.253,253.91 60.637,277.42 37.127,312.947C32.425,319.739 28.245,327.576 25.111,334.89C23.544,338.025 24.066,341.682 25.633,344.817C29.813,352.131 35.037,359.446 39.739,365.715C47.053,375.642 54.89,384.523 63.772,392.882C71.086,400.196 79.445,406.988 87.805,413.78C129.078,444.605 178.711,460.8 229.911,460.8C281.111,460.8 330.744,444.604 372.017,413.78C380.376,407.511 388.735,400.196 396.05,392.882C404.409,384.523 412.768,375.641 420.083,365.715C425.307,358.923 430.01,352.131 434.189,344.817C436.8,341.682 437.322,338.024 435.755,334.89Z" style="fill:rgb(202,195,173);fill-rule:nonzero;"/>
                                </g>
                            </g>
                        </g>
                        <g transform="matrix(1.04984,0,0,0.900831,-305.279,-1249.99)">
                            <rect x="415.561" y="1495.56" width="33.441" height="33.441" style="fill:rgb(237,230,211);"/>
                            <g transform="matrix(0.0430179,0,0,0.0430179,422.37,1502.37)">
                                <g>
                                    <path d="M230.432,239.282C296.261,239.282 350.073,185.47 350.073,119.641C350.073,53.812 296.261,0 230.432,0C164.603,0 110.792,53.812 110.792,119.641C110.792,185.47 164.604,239.282 230.432,239.282Z" style="fill:rgb(202,195,173);fill-rule:nonzero;"/>
                                    <path d="M435.755,334.89C432.62,327.053 428.441,319.739 423.739,312.947C399.706,277.42 362.613,253.91 320.817,248.163C315.593,247.641 309.846,248.685 305.666,251.82C283.723,268.016 257.601,276.375 230.433,276.375C203.265,276.375 177.143,268.016 155.2,251.82C151.02,248.685 145.273,247.118 140.049,248.163C98.253,253.91 60.637,277.42 37.127,312.947C32.425,319.739 28.245,327.576 25.111,334.89C23.544,338.025 24.066,341.682 25.633,344.817C29.813,352.131 35.037,359.446 39.739,365.715C47.053,375.642 54.89,384.523 63.772,392.882C71.086,400.196 79.445,406.988 87.805,413.78C129.078,444.605 178.711,460.8 229.911,460.8C281.111,460.8 330.744,444.604 372.017,413.78C380.376,407.511 388.735,400.196 396.05,392.882C404.409,384.523 412.768,375.641 420.083,365.715C425.307,358.923 430.01,352.131 434.189,344.817C436.8,341.682 437.322,338.024 435.755,334.89Z" style="fill:rgb(202,195,173);fill-rule:nonzero;"/>
                                </g>
                            </g>
                        </g>
                        <g transform="matrix(1.04984,0,0,0.900831,-270.171,-1219.86)">
                            <rect x="415.561" y="1495.56" width="33.441" height="33.441" style="fill:rgb(237,230,211);"/>
                            <g transform="matrix(0.0430179,0,0,0.0430179,422.37,1502.37)">
                                <g>
                                    <path d="M230.432,239.282C296.261,239.282 350.073,185.47 350.073,119.641C350.073,53.812 296.261,0 230.432,0C164.603,0 110.792,53.812 110.792,119.641C110.792,185.47 164.604,239.282 230.432,239.282Z" style="fill:rgb(202,195,173);fill-rule:nonzero;"/>
                                    <path d="M435.755,334.89C432.62,327.053 428.441,319.739 423.739,312.947C399.706,277.42 362.613,253.91 320.817,248.163C315.593,247.641 309.846,248.685 305.666,251.82C283.723,268.016 257.601,276.375 230.433,276.375C203.265,276.375 177.143,268.016 155.2,251.82C151.02,248.685 145.273,247.118 140.049,248.163C98.253,253.91 60.637,277.42 37.127,312.947C32.425,319.739 28.245,327.576 25.111,334.89C23.544,338.025 24.066,341.682 25.633,344.817C29.813,352.131 35.037,359.446 39.739,365.715C47.053,375.642 54.89,384.523 63.772,392.882C71.086,400.196 79.445,406.988 87.805,413.78C129.078,444.605 178.711,460.8 229.911,460.8C281.111,460.8 330.744,444.604 372.017,413.78C380.376,407.511 388.735,400.196 396.05,392.882C404.409,384.523 412.768,375.641 420.083,365.715C425.307,358.923 430.01,352.131 434.189,344.817C436.8,341.682 437.322,338.024 435.755,334.89Z" style="fill:rgb(202,195,173);fill-rule:nonzero;"/>
                                </g>
                            </g>
                        </g>
                        <g transform="matrix(1.04984,0,0,0.900831,-235.064,-1249.99)">
                            <rect x="415.561" y="1495.56" width="33.441" height="33.441" style="fill:rgb(237,230,211);"/>
                            <g transform="matrix(0.0430179,0,0,0.0430179,422.37,1502.37)">
                                <g>
                                    <path d="M230.432,239.282C296.261,239.282 350.073,185.47 350.073,119.641C350.073,53.812 296.261,0 230.432,0C164.603,0 110.792,53.812 110.792,119.641C110.792,185.47 164.604,239.282 230.432,239.282Z" style="fill:rgb(202,195,173);fill-rule:nonzero;"/>
                                    <path d="M435.755,334.89C432.62,327.053 428.441,319.739 423.739,312.947C399.706,277.42 362.613,253.91 320.817,248.163C315.593,247.641 309.846,248.685 305.666,251.82C283.723,268.016 257.601,276.375 230.433,276.375C203.265,276.375 177.143,268.016 155.2,251.82C151.02,248.685 145.273,247.118 140.049,248.163C98.253,253.91 60.637,277.42 37.127,312.947C32.425,319.739 28.245,327.576 25.111,334.89C23.544,338.025 24.066,341.682 25.633,344.817C29.813,352.131 35.037,359.446 39.739,365.715C47.053,375.642 54.89,384.523 63.772,392.882C71.086,400.196 79.445,406.988 87.805,413.78C129.078,444.605 178.711,460.8 229.911,460.8C281.111,460.8 330.744,444.604 372.017,413.78C380.376,407.511 388.735,400.196 396.05,392.882C404.409,384.523 412.768,375.641 420.083,365.715C425.307,358.923 430.01,352.131 434.189,344.817C436.8,341.682 437.322,338.024 435.755,334.89Z" style="fill:rgb(202,195,173);fill-rule:nonzero;"/>
                                </g>
                            </g>
                        </g>
                        <g transform="matrix(1.04984,0,0,0.900831,-199.956,-1249.99)">
                            <rect x="415.561" y="1495.56" width="33.441" height="33.441" style="fill:rgb(237,230,211);"/>
                            <g transform="matrix(0.0430179,0,0,0.0430179,422.37,1502.37)">
                                <g>
                                    <path d="M230.432,239.282C296.261,239.282 350.073,185.47 350.073,119.641C350.073,53.812 296.261,0 230.432,0C164.603,0 110.792,53.812 110.792,119.641C110.792,185.47 164.604,239.282 230.432,239.282Z" style="fill:rgb(202,195,173);fill-rule:nonzero;"/>
                                    <path d="M435.755,334.89C432.62,327.053 428.441,319.739 423.739,312.947C399.706,277.42 362.613,253.91 320.817,248.163C315.593,247.641 309.846,248.685 305.666,251.82C283.723,268.016 257.601,276.375 230.433,276.375C203.265,276.375 177.143,268.016 155.2,251.82C151.02,248.685 145.273,247.118 140.049,248.163C98.253,253.91 60.637,277.42 37.127,312.947C32.425,319.739 28.245,327.576 25.111,334.89C23.544,338.025 24.066,341.682 25.633,344.817C29.813,352.131 35.037,359.446 39.739,365.715C47.053,375.642 54.89,384.523 63.772,392.882C71.086,400.196 79.445,406.988 87.805,413.78C129.078,444.605 178.711,460.8 229.911,460.8C281.111,460.8 330.744,444.604 372.017,413.78C380.376,407.511 388.735,400.196 396.05,392.882C404.409,384.523 412.768,375.641 420.083,365.715C425.307,358.923 430.01,352.131 434.189,344.817C436.8,341.682 437.322,338.024 435.755,334.89Z" style="fill:rgb(202,195,173);fill-rule:nonzero;"/>
                                </g>
                            </g>
                        </g>
                    </g>
                    <g transform="matrix(1.12944,0,0,0.854267,-19.3355,-639.856)">
                        <rect x="165" y="865" width="161" height="31" style="fill:white;"/>
                    </g>
                    <g transform="matrix(0.532843,0,0,0.457275,108.833,-538.464)">
                        <path d="M170.067,1429.34L173.643,1410.43L179.1,1410.43L173.205,1437L167.694,1437L163.369,1419.23L159.044,1437L153.533,1437L147.639,1410.43L153.095,1410.43L156.69,1429.3L161.07,1410.43L165.705,1410.43L170.067,1429.34Z" style="fill-rule:nonzero;"/>
                        <path d="M186.856,1419.41C188.255,1417.73 190.013,1416.89 192.13,1416.89C196.412,1416.89 198.584,1419.38 198.644,1424.35L198.644,1437L193.37,1437L193.37,1424.5C193.37,1423.37 193.127,1422.53 192.64,1421.99C192.154,1421.45 191.345,1421.18 190.213,1421.18C188.668,1421.18 187.549,1421.77 186.856,1422.97L186.856,1437L181.582,1437L181.582,1408.97L186.856,1408.97L186.856,1419.41Z" style="fill-rule:nonzero;"/>
                        <path d="M201.801,1426.94C201.801,1424.99 202.179,1423.24 202.933,1421.71C203.687,1420.17 204.773,1418.99 206.19,1418.15C207.608,1417.31 209.253,1416.89 211.127,1416.89C213.791,1416.89 215.966,1417.7 217.651,1419.34C219.336,1420.96 220.275,1423.18 220.47,1425.98L220.507,1427.33C220.507,1430.36 219.661,1432.79 217.97,1434.62C216.279,1436.45 214.01,1437.37 211.163,1437.37C208.316,1437.37 206.044,1436.45 204.347,1434.63C202.65,1432.8 201.801,1430.32 201.801,1427.18L201.801,1426.94ZM207.075,1427.33C207.075,1429.2 207.428,1430.63 208.134,1431.63C208.839,1432.62 209.849,1433.11 211.163,1433.11C212.441,1433.11 213.438,1432.62 214.156,1431.64C214.874,1430.66 215.233,1429.1 215.233,1426.94C215.233,1425.11 214.874,1423.68 214.156,1422.67C213.438,1421.66 212.428,1421.16 211.127,1421.16C209.837,1421.16 208.839,1421.66 208.134,1422.66C207.428,1423.67 207.075,1425.22 207.075,1427.33Z" style="fill-rule:nonzero;"/>
                        <path d="M254.103,1429.34L257.68,1410.43L263.136,1410.43L257.242,1437L251.73,1437L247.405,1419.23L243.08,1437L237.569,1437L231.675,1410.43L237.131,1410.43L240.726,1429.3L245.106,1410.43L249.741,1410.43L254.103,1429.34Z" style="fill-rule:nonzero;"/>
                        <path d="M276.585,1437C276.342,1436.53 276.166,1435.93 276.056,1435.23C274.779,1436.65 273.118,1437.37 271.074,1437.37C269.14,1437.37 267.537,1436.81 266.266,1435.69C264.994,1434.57 264.359,1433.16 264.359,1431.45C264.359,1429.36 265.134,1427.75 266.685,1426.63C268.237,1425.52 270.478,1424.95 273.41,1424.94L275.837,1424.94L275.837,1423.81C275.837,1422.89 275.603,1422.16 275.135,1421.62C274.666,1421.07 273.927,1420.8 272.917,1420.8C272.029,1420.8 271.333,1421.01 270.828,1421.43C270.323,1421.86 270.071,1422.44 270.071,1423.19L264.797,1423.19C264.797,1422.04 265.149,1420.98 265.855,1420.01C266.561,1419.04 267.558,1418.27 268.848,1417.72C270.137,1417.17 271.585,1416.89 273.191,1416.89C275.624,1416.89 277.556,1417.5 278.985,1418.72C280.415,1419.95 281.129,1421.66 281.129,1423.88L281.129,1432.44C281.142,1434.31 281.403,1435.73 281.914,1436.69L281.914,1437L276.585,1437ZM272.224,1433.33C273.003,1433.33 273.72,1433.16 274.377,1432.81C275.034,1432.46 275.521,1432 275.837,1431.42L275.837,1428.02L273.866,1428.02C271.226,1428.02 269.821,1428.93 269.651,1430.76L269.633,1431.07C269.633,1431.73 269.864,1432.27 270.326,1432.69C270.788,1433.12 271.421,1433.33 272.224,1433.33Z" style="fill-rule:nonzero;"/>
                        <path d="M295.874,1431.54C295.874,1430.9 295.555,1430.39 294.916,1430.02C294.278,1429.65 293.253,1429.32 291.841,1429.03C287.145,1428.04 284.797,1426.05 284.797,1423.04C284.797,1421.29 285.524,1419.83 286.978,1418.65C288.432,1417.48 290.333,1416.89 292.681,1416.89C295.187,1416.89 297.191,1417.48 298.694,1418.66C300.196,1419.84 300.948,1421.37 300.948,1423.26L295.674,1423.26C295.674,1422.5 295.43,1421.88 294.944,1421.39C294.457,1420.89 293.697,1420.65 292.663,1420.65C291.775,1420.65 291.087,1420.85 290.601,1421.25C290.114,1421.65 289.871,1422.16 289.871,1422.78C289.871,1423.37 290.147,1423.84 290.701,1424.2C291.254,1424.56 292.188,1424.87 293.502,1425.13C294.816,1425.39 295.923,1425.69 296.823,1426.01C299.609,1427.04 301.002,1428.81 301.002,1431.33C301.002,1433.12 300.23,1434.58 298.685,1435.69C297.14,1436.81 295.145,1437.37 292.699,1437.37C291.045,1437.37 289.576,1437.07 288.292,1436.48C287.009,1435.89 286.002,1435.08 285.272,1434.05C284.542,1433.03 284.177,1431.91 284.177,1430.72L289.177,1430.72C289.226,1431.66 289.573,1432.38 290.217,1432.88C290.862,1433.38 291.726,1433.62 292.809,1433.62C293.818,1433.62 294.582,1433.43 295.099,1433.05C295.616,1432.67 295.874,1432.16 295.874,1431.54Z" style="fill-rule:nonzero;"/>
                        <path d="M329.051,1431.53L319.452,1431.53L317.627,1437L311.806,1437L321.697,1410.43L326.77,1410.43L336.716,1437L330.894,1437L329.051,1431.53ZM320.93,1427.09L327.573,1427.09L324.233,1417.14L320.93,1427.09Z" style="fill-rule:nonzero;"/>
                        <rect x="339.124" y="1408.97" width="5.292" height="28.03" style="fill-rule:nonzero;"/>
                        <path d="M354.326,1437L349.034,1437L349.034,1417.26L354.326,1417.26L354.326,1437ZM348.723,1412.14C348.723,1411.35 348.988,1410.7 349.517,1410.19C350.046,1409.68 350.767,1409.43 351.68,1409.43C352.58,1409.43 353.298,1409.68 353.833,1410.19C354.368,1410.7 354.636,1411.35 354.636,1412.14C354.636,1412.95 354.365,1413.61 353.824,1414.12C353.282,1414.63 352.568,1414.88 351.68,1414.88C350.791,1414.88 350.077,1414.63 349.535,1414.12C348.994,1413.61 348.723,1412.95 348.723,1412.14Z" style="fill-rule:nonzero;"/>
                        <path d="M366.06,1430.56L369.728,1417.26L375.239,1417.26L368.578,1437L363.541,1437L356.881,1417.26L362.392,1417.26L366.06,1430.56Z" style="fill-rule:nonzero;"/>
                        <path d="M386.407,1437.37C383.512,1437.37 381.155,1436.48 379.336,1434.7C377.517,1432.92 376.608,1430.56 376.608,1427.6L376.608,1427.09C376.608,1425.11 376.991,1423.34 377.757,1421.77C378.524,1420.21 379.61,1419 381.015,1418.16C382.42,1417.31 384.023,1416.89 385.823,1416.89C388.524,1416.89 390.65,1417.74 392.201,1419.44C393.752,1421.15 394.528,1423.56 394.528,1426.69L394.528,1428.84L381.955,1428.84C382.125,1430.13 382.639,1431.17 383.497,1431.94C384.354,1432.72 385.44,1433.11 386.754,1433.11C388.786,1433.11 390.373,1432.38 391.517,1430.9L394.108,1433.81C393.318,1434.93 392.247,1435.8 390.896,1436.42C389.546,1437.05 388.05,1437.37 386.407,1437.37ZM385.805,1421.16C384.759,1421.16 383.91,1421.51 383.259,1422.22C382.608,1422.92 382.192,1423.93 382.009,1425.25L389.345,1425.25L389.345,1424.83C389.321,1423.66 389.005,1422.76 388.396,1422.12C387.788,1421.48 386.924,1421.16 385.805,1421.16Z" style="fill-rule:nonzero;"/>
                        <path d="M401.828,1428.84C401.828,1427.14 402.034,1425.78 402.448,1424.77C402.862,1423.76 403.619,1422.77 404.72,1421.79C405.821,1420.81 406.554,1420.01 406.919,1419.4C407.284,1418.79 407.466,1418.14 407.466,1417.45C407.466,1415.4 406.518,1414.37 404.62,1414.37C403.719,1414.37 402.999,1414.65 402.457,1415.2C401.916,1415.76 401.633,1416.52 401.609,1417.49L396.316,1417.49C396.341,1415.17 397.092,1413.35 398.57,1412.04C400.048,1410.72 402.065,1410.07 404.62,1410.07C407.199,1410.07 409.2,1410.69 410.624,1411.93C412.047,1413.18 412.759,1414.94 412.759,1417.22C412.759,1418.25 412.528,1419.23 412.065,1420.15C411.603,1421.07 410.794,1422.09 409.638,1423.2L408.16,1424.61C407.235,1425.5 406.706,1426.54 406.572,1427.73L406.499,1428.84L401.828,1428.84ZM401.298,1434.44C401.298,1433.63 401.575,1432.96 402.129,1432.43C402.682,1431.9 403.391,1431.63 404.255,1431.63C405.118,1431.63 405.827,1431.9 406.381,1432.43C406.934,1432.96 407.211,1433.63 407.211,1434.44C407.211,1435.25 406.94,1435.91 406.399,1436.43C405.858,1436.96 405.143,1437.22 404.255,1437.22C403.367,1437.22 402.652,1436.96 402.11,1436.43C401.569,1435.91 401.298,1435.25 401.298,1434.44Z" style="fill-rule:nonzero;"/>
                    </g>
                </g>
                <path d="M400,75.792C400,71.013 395.479,67.133 389.91,67.133L125.976,67.133C120.407,67.133 115.886,71.013 115.886,75.792L115.886,148.836C115.886,153.615 120.407,157.495 125.976,157.495L389.91,157.495C395.479,157.495 400,153.615 400,148.836L400,75.792Z" style="fill:none;stroke:black;stroke-width:1.84px;"/>
            </g>
        </g>
    </g>
</svg>
